M48
; DRILL file {KiCad 5.1.12-84ad8e8a86~92~ubuntu18.04.1} date Chủ nhật, 10 Tháng 9 Năm 2023 20:05:38 +07
; FORMAT={-:-/ absolute / metric / decimal}
; #@! TF.CreationDate,2023-09-10T20:05:38+07:00
; #@! TF.GenerationSoftware,Kicad,Pcbnew,5.1.12-84ad8e8a86~92~ubuntu18.04.1
; #@! TF.FileFunction,Plated,1,2,PTH
FMAT,2
METRIC
T1C0.400
T2C2.200
%
G90
G05
T1
X108.255Y-100.533
X108.306Y-106.477
X108.356Y-86.411
X108.712Y-102.159
X108.801Y-92.621
X108.801Y-95.491
X113.792Y-95.961
X113.792Y-102.108
X114.3Y-96.977
X114.605Y-100.686
X115.621Y-102.159
X115.621Y-104.597
X117.958Y-78.588
X117.958Y-97.18
X117.958Y-100.432
X118.008Y-84.531
X118.059Y-114.402
X122.784Y-108.152
X122.784Y-109.626
X125.578Y-108.255
X125.628Y-114.351
X125.679Y-78.588
X125.679Y-84.48
X127.813Y-105.291
X131.572Y-96.012
X131.724Y-106.578
X132.537Y-95.504
X133.096Y-100.94
X133.096Y-102.21
X133.096Y-103.683
X133.096Y-105.461
X136.144Y-102.21
X136.17Y-105.715
X136.195Y-100.076
X136.195Y-109.322
X136.218Y-94.109
X136.218Y-95.582
X136.218Y-97.204
X136.218Y-98.63
X136.246Y-91.491
T2
X105.08Y-79.413
X105.08Y-113.49
X138.918Y-79.413
X138.918Y-113.49
T0
M30
