%TF.GenerationSoftware,KiCad,Pcbnew,5.1.12-84ad8e8a86~92~ubuntu18.04.1*%
%TF.CreationDate,2023-09-10T20:05:29+07:00*%
%TF.ProjectId,RPi_FFC_15P-EYECLOUDAI_2MGSMOD_AR0234-ADAPTER,5250695f-4646-4435-9f31-35502d455945,rev?*%
%TF.SameCoordinates,Original*%
%TF.FileFunction,Soldermask,Top*%
%TF.FilePolarity,Negative*%
%FSLAX46Y46*%
G04 Gerber Fmt 4.6, Leading zero omitted, Abs format (unit mm)*
G04 Created by KiCad (PCBNEW 5.1.12-84ad8e8a86~92~ubuntu18.04.1) date 2023-09-10 20:05:29*
%MOMM*%
%LPD*%
G01*
G04 APERTURE LIST*
%ADD10R,1.100000X0.300000*%
%ADD11R,3.100000X2.300000*%
%ADD12R,1.400000X1.200000*%
%ADD13R,0.952500X0.508000*%
%ADD14R,2.100000X3.000000*%
%ADD15R,0.800000X1.600000*%
%ADD16C,0.100000*%
%ADD17C,4.400000*%
G04 APERTURE END LIST*
%TO.C,J1*%
G36*
G01*
X110099600Y-103113000D02*
X112099600Y-103113000D01*
G75*
G02*
X112201600Y-103215000I0J-102000D01*
G01*
X112201600Y-103825000D01*
G75*
G02*
X112099600Y-103927000I-102000J0D01*
G01*
X110099600Y-103927000D01*
G75*
G02*
X109997600Y-103825000I0J102000D01*
G01*
X109997600Y-103215000D01*
G75*
G02*
X110099600Y-103113000I102000J0D01*
G01*
G37*
G36*
G01*
X110099600Y-102113000D02*
X112099600Y-102113000D01*
G75*
G02*
X112201600Y-102215000I0J-102000D01*
G01*
X112201600Y-102825000D01*
G75*
G02*
X112099600Y-102927000I-102000J0D01*
G01*
X110099600Y-102927000D01*
G75*
G02*
X109997600Y-102825000I0J102000D01*
G01*
X109997600Y-102215000D01*
G75*
G02*
X110099600Y-102113000I102000J0D01*
G01*
G37*
G36*
G01*
X110099600Y-101113000D02*
X112099600Y-101113000D01*
G75*
G02*
X112201600Y-101215000I0J-102000D01*
G01*
X112201600Y-101825000D01*
G75*
G02*
X112099600Y-101927000I-102000J0D01*
G01*
X110099600Y-101927000D01*
G75*
G02*
X109997600Y-101825000I0J102000D01*
G01*
X109997600Y-101215000D01*
G75*
G02*
X110099600Y-101113000I102000J0D01*
G01*
G37*
G36*
G01*
X110099600Y-100113000D02*
X112099600Y-100113000D01*
G75*
G02*
X112201600Y-100215000I0J-102000D01*
G01*
X112201600Y-100825000D01*
G75*
G02*
X112099600Y-100927000I-102000J0D01*
G01*
X110099600Y-100927000D01*
G75*
G02*
X109997600Y-100825000I0J102000D01*
G01*
X109997600Y-100215000D01*
G75*
G02*
X110099600Y-100113000I102000J0D01*
G01*
G37*
G36*
G01*
X110099600Y-99113000D02*
X112099600Y-99113000D01*
G75*
G02*
X112201600Y-99215000I0J-102000D01*
G01*
X112201600Y-99825000D01*
G75*
G02*
X112099600Y-99927000I-102000J0D01*
G01*
X110099600Y-99927000D01*
G75*
G02*
X109997600Y-99825000I0J102000D01*
G01*
X109997600Y-99215000D01*
G75*
G02*
X110099600Y-99113000I102000J0D01*
G01*
G37*
G36*
G01*
X110099600Y-98113000D02*
X112099600Y-98113000D01*
G75*
G02*
X112201600Y-98215000I0J-102000D01*
G01*
X112201600Y-98825000D01*
G75*
G02*
X112099600Y-98927000I-102000J0D01*
G01*
X110099600Y-98927000D01*
G75*
G02*
X109997600Y-98825000I0J102000D01*
G01*
X109997600Y-98215000D01*
G75*
G02*
X110099600Y-98113000I102000J0D01*
G01*
G37*
G36*
G01*
X110099600Y-97113000D02*
X112099600Y-97113000D01*
G75*
G02*
X112201600Y-97215000I0J-102000D01*
G01*
X112201600Y-97825000D01*
G75*
G02*
X112099600Y-97927000I-102000J0D01*
G01*
X110099600Y-97927000D01*
G75*
G02*
X109997600Y-97825000I0J102000D01*
G01*
X109997600Y-97215000D01*
G75*
G02*
X110099600Y-97113000I102000J0D01*
G01*
G37*
G36*
G01*
X110099600Y-96113000D02*
X112099600Y-96113000D01*
G75*
G02*
X112201600Y-96215000I0J-102000D01*
G01*
X112201600Y-96825000D01*
G75*
G02*
X112099600Y-96927000I-102000J0D01*
G01*
X110099600Y-96927000D01*
G75*
G02*
X109997600Y-96825000I0J102000D01*
G01*
X109997600Y-96215000D01*
G75*
G02*
X110099600Y-96113000I102000J0D01*
G01*
G37*
G36*
G01*
X110099600Y-95113000D02*
X112099600Y-95113000D01*
G75*
G02*
X112201600Y-95215000I0J-102000D01*
G01*
X112201600Y-95825000D01*
G75*
G02*
X112099600Y-95927000I-102000J0D01*
G01*
X110099600Y-95927000D01*
G75*
G02*
X109997600Y-95825000I0J102000D01*
G01*
X109997600Y-95215000D01*
G75*
G02*
X110099600Y-95113000I102000J0D01*
G01*
G37*
G36*
G01*
X110099600Y-89113000D02*
X112099600Y-89113000D01*
G75*
G02*
X112201600Y-89215000I0J-102000D01*
G01*
X112201600Y-89825000D01*
G75*
G02*
X112099600Y-89927000I-102000J0D01*
G01*
X110099600Y-89927000D01*
G75*
G02*
X109997600Y-89825000I0J102000D01*
G01*
X109997600Y-89215000D01*
G75*
G02*
X110099600Y-89113000I102000J0D01*
G01*
G37*
G36*
G01*
X110099600Y-90113000D02*
X112099600Y-90113000D01*
G75*
G02*
X112201600Y-90215000I0J-102000D01*
G01*
X112201600Y-90825000D01*
G75*
G02*
X112099600Y-90927000I-102000J0D01*
G01*
X110099600Y-90927000D01*
G75*
G02*
X109997600Y-90825000I0J102000D01*
G01*
X109997600Y-90215000D01*
G75*
G02*
X110099600Y-90113000I102000J0D01*
G01*
G37*
G36*
G01*
X106499600Y-85088000D02*
X110099600Y-85088000D01*
G75*
G02*
X110201600Y-85190000I0J-102000D01*
G01*
X110201600Y-87870000D01*
G75*
G02*
X110099600Y-87972000I-102000J0D01*
G01*
X106499600Y-87972000D01*
G75*
G02*
X106397600Y-87870000I0J102000D01*
G01*
X106397600Y-85190000D01*
G75*
G02*
X106499600Y-85088000I102000J0D01*
G01*
G37*
G36*
G01*
X106499600Y-105068000D02*
X110099600Y-105068000D01*
G75*
G02*
X110201600Y-105170000I0J-102000D01*
G01*
X110201600Y-107850000D01*
G75*
G02*
X110099600Y-107952000I-102000J0D01*
G01*
X106499600Y-107952000D01*
G75*
G02*
X106397600Y-107850000I0J102000D01*
G01*
X106397600Y-105170000D01*
G75*
G02*
X106499600Y-105068000I102000J0D01*
G01*
G37*
G36*
G01*
X110099600Y-91113000D02*
X112099600Y-91113000D01*
G75*
G02*
X112201600Y-91215000I0J-102000D01*
G01*
X112201600Y-91825000D01*
G75*
G02*
X112099600Y-91927000I-102000J0D01*
G01*
X110099600Y-91927000D01*
G75*
G02*
X109997600Y-91825000I0J102000D01*
G01*
X109997600Y-91215000D01*
G75*
G02*
X110099600Y-91113000I102000J0D01*
G01*
G37*
G36*
G01*
X110099600Y-94113000D02*
X112099600Y-94113000D01*
G75*
G02*
X112201600Y-94215000I0J-102000D01*
G01*
X112201600Y-94825000D01*
G75*
G02*
X112099600Y-94927000I-102000J0D01*
G01*
X110099600Y-94927000D01*
G75*
G02*
X109997600Y-94825000I0J102000D01*
G01*
X109997600Y-94215000D01*
G75*
G02*
X110099600Y-94113000I102000J0D01*
G01*
G37*
G36*
G01*
X110099600Y-92113000D02*
X112099600Y-92113000D01*
G75*
G02*
X112201600Y-92215000I0J-102000D01*
G01*
X112201600Y-92825000D01*
G75*
G02*
X112099600Y-92927000I-102000J0D01*
G01*
X110099600Y-92927000D01*
G75*
G02*
X109997600Y-92825000I0J102000D01*
G01*
X109997600Y-92215000D01*
G75*
G02*
X110099600Y-92113000I102000J0D01*
G01*
G37*
G36*
G01*
X110099600Y-93113000D02*
X112099600Y-93113000D01*
G75*
G02*
X112201600Y-93215000I0J-102000D01*
G01*
X112201600Y-93825000D01*
G75*
G02*
X112099600Y-93927000I-102000J0D01*
G01*
X110099600Y-93927000D01*
G75*
G02*
X109997600Y-93825000I0J102000D01*
G01*
X109997600Y-93215000D01*
G75*
G02*
X110099600Y-93113000I102000J0D01*
G01*
G37*
%TD*%
D10*
%TO.C,J2*%
X134518400Y-93181600D03*
X134518400Y-93681600D03*
X134518400Y-94181600D03*
X134518400Y-94681600D03*
X134518400Y-95181600D03*
X134518400Y-95681600D03*
X134518400Y-96181600D03*
X134518400Y-96681600D03*
X134518400Y-97181600D03*
X134518400Y-97681600D03*
X134518400Y-98181600D03*
X134518400Y-98681600D03*
X134518400Y-99181600D03*
X134518400Y-99681600D03*
X134518400Y-100181600D03*
X134518400Y-100681600D03*
X134518400Y-101181600D03*
X134518400Y-101681600D03*
X134518400Y-102181600D03*
X134518400Y-102681600D03*
X134518400Y-103181600D03*
X134518400Y-103681600D03*
X134518400Y-104181600D03*
X134518400Y-104681600D03*
D11*
X136218400Y-109351600D03*
X136218400Y-91511600D03*
D10*
X134518400Y-105181600D03*
X134518400Y-105681600D03*
X134518400Y-106181600D03*
X134518400Y-106681600D03*
X134518400Y-107181600D03*
X134518400Y-107681600D03*
%TD*%
D12*
%TO.C,X1*%
X125272800Y-103090800D03*
X127812800Y-103090800D03*
X127812800Y-105290800D03*
X125272800Y-105290800D03*
%TD*%
D13*
%TO.C,U1*%
X126701550Y-107507999D03*
X126701550Y-109408001D03*
X124148850Y-109408001D03*
X124148850Y-108458000D03*
X124148850Y-107507999D03*
%TD*%
%TO.C,R3*%
G36*
G01*
X131486900Y-104920600D02*
X131961900Y-104920600D01*
G75*
G02*
X132199400Y-105158100I0J-237500D01*
G01*
X132199400Y-105658100D01*
G75*
G02*
X131961900Y-105895600I-237500J0D01*
G01*
X131486900Y-105895600D01*
G75*
G02*
X131249400Y-105658100I0J237500D01*
G01*
X131249400Y-105158100D01*
G75*
G02*
X131486900Y-104920600I237500J0D01*
G01*
G37*
G36*
G01*
X131486900Y-103095600D02*
X131961900Y-103095600D01*
G75*
G02*
X132199400Y-103333100I0J-237500D01*
G01*
X132199400Y-103833100D01*
G75*
G02*
X131961900Y-104070600I-237500J0D01*
G01*
X131486900Y-104070600D01*
G75*
G02*
X131249400Y-103833100I0J237500D01*
G01*
X131249400Y-103333100D01*
G75*
G02*
X131486900Y-103095600I237500J0D01*
G01*
G37*
%TD*%
%TO.C,R2*%
G36*
G01*
X130437900Y-104070600D02*
X129962900Y-104070600D01*
G75*
G02*
X129725400Y-103833100I0J237500D01*
G01*
X129725400Y-103333100D01*
G75*
G02*
X129962900Y-103095600I237500J0D01*
G01*
X130437900Y-103095600D01*
G75*
G02*
X130675400Y-103333100I0J-237500D01*
G01*
X130675400Y-103833100D01*
G75*
G02*
X130437900Y-104070600I-237500J0D01*
G01*
G37*
G36*
G01*
X130437900Y-105895600D02*
X129962900Y-105895600D01*
G75*
G02*
X129725400Y-105658100I0J237500D01*
G01*
X129725400Y-105158100D01*
G75*
G02*
X129962900Y-104920600I237500J0D01*
G01*
X130437900Y-104920600D01*
G75*
G02*
X130675400Y-105158100I0J-237500D01*
G01*
X130675400Y-105658100D01*
G75*
G02*
X130437900Y-105895600I-237500J0D01*
G01*
G37*
%TD*%
%TO.C,R1*%
G36*
G01*
X123021100Y-103410200D02*
X122546100Y-103410200D01*
G75*
G02*
X122308600Y-103172700I0J237500D01*
G01*
X122308600Y-102672700D01*
G75*
G02*
X122546100Y-102435200I237500J0D01*
G01*
X123021100Y-102435200D01*
G75*
G02*
X123258600Y-102672700I0J-237500D01*
G01*
X123258600Y-103172700D01*
G75*
G02*
X123021100Y-103410200I-237500J0D01*
G01*
G37*
G36*
G01*
X123021100Y-105235200D02*
X122546100Y-105235200D01*
G75*
G02*
X122308600Y-104997700I0J237500D01*
G01*
X122308600Y-104497700D01*
G75*
G02*
X122546100Y-104260200I237500J0D01*
G01*
X123021100Y-104260200D01*
G75*
G02*
X123258600Y-104497700I0J-237500D01*
G01*
X123258600Y-104997700D01*
G75*
G02*
X123021100Y-105235200I-237500J0D01*
G01*
G37*
%TD*%
%TO.C,C3*%
G36*
G01*
X129407800Y-107730300D02*
X129407800Y-107255300D01*
G75*
G02*
X129645300Y-107017800I237500J0D01*
G01*
X130245300Y-107017800D01*
G75*
G02*
X130482800Y-107255300I0J-237500D01*
G01*
X130482800Y-107730300D01*
G75*
G02*
X130245300Y-107967800I-237500J0D01*
G01*
X129645300Y-107967800D01*
G75*
G02*
X129407800Y-107730300I0J237500D01*
G01*
G37*
G36*
G01*
X127682800Y-107730300D02*
X127682800Y-107255300D01*
G75*
G02*
X127920300Y-107017800I237500J0D01*
G01*
X128520300Y-107017800D01*
G75*
G02*
X128757800Y-107255300I0J-237500D01*
G01*
X128757800Y-107730300D01*
G75*
G02*
X128520300Y-107967800I-237500J0D01*
G01*
X127920300Y-107967800D01*
G75*
G02*
X127682800Y-107730300I0J237500D01*
G01*
G37*
%TD*%
%TO.C,C2*%
G36*
G01*
X129407800Y-109660700D02*
X129407800Y-109185700D01*
G75*
G02*
X129645300Y-108948200I237500J0D01*
G01*
X130245300Y-108948200D01*
G75*
G02*
X130482800Y-109185700I0J-237500D01*
G01*
X130482800Y-109660700D01*
G75*
G02*
X130245300Y-109898200I-237500J0D01*
G01*
X129645300Y-109898200D01*
G75*
G02*
X129407800Y-109660700I0J237500D01*
G01*
G37*
G36*
G01*
X127682800Y-109660700D02*
X127682800Y-109185700D01*
G75*
G02*
X127920300Y-108948200I237500J0D01*
G01*
X128520300Y-108948200D01*
G75*
G02*
X128757800Y-109185700I0J-237500D01*
G01*
X128757800Y-109660700D01*
G75*
G02*
X128520300Y-109898200I-237500J0D01*
G01*
X127920300Y-109898200D01*
G75*
G02*
X127682800Y-109660700I0J237500D01*
G01*
G37*
%TD*%
%TO.C,C1*%
G36*
G01*
X122546100Y-107614600D02*
X123021100Y-107614600D01*
G75*
G02*
X123258600Y-107852100I0J-237500D01*
G01*
X123258600Y-108452100D01*
G75*
G02*
X123021100Y-108689600I-237500J0D01*
G01*
X122546100Y-108689600D01*
G75*
G02*
X122308600Y-108452100I0J237500D01*
G01*
X122308600Y-107852100D01*
G75*
G02*
X122546100Y-107614600I237500J0D01*
G01*
G37*
G36*
G01*
X122546100Y-105889600D02*
X123021100Y-105889600D01*
G75*
G02*
X123258600Y-106127100I0J-237500D01*
G01*
X123258600Y-106727100D01*
G75*
G02*
X123021100Y-106964600I-237500J0D01*
G01*
X122546100Y-106964600D01*
G75*
G02*
X122308600Y-106727100I0J237500D01*
G01*
X122308600Y-106127100D01*
G75*
G02*
X122546100Y-105889600I237500J0D01*
G01*
G37*
%TD*%
D14*
%TO.C,P2*%
X125679200Y-114452400D03*
X118079200Y-114452400D03*
D15*
X123129200Y-111552400D03*
X121879200Y-111552400D03*
X120629200Y-111552400D03*
%TD*%
D16*
%TO.C,JP1*%
G36*
X119542800Y-106768998D02*
G01*
X119518266Y-106768998D01*
X119469435Y-106764188D01*
X119421310Y-106754616D01*
X119374355Y-106740372D01*
X119329022Y-106721595D01*
X119285749Y-106698464D01*
X119244950Y-106671204D01*
X119207021Y-106640076D01*
X119172324Y-106605379D01*
X119141196Y-106567450D01*
X119113936Y-106526651D01*
X119090805Y-106483378D01*
X119072028Y-106438045D01*
X119057784Y-106391090D01*
X119048212Y-106342965D01*
X119043402Y-106294134D01*
X119043402Y-106269600D01*
X119042800Y-106269600D01*
X119042800Y-105769600D01*
X119043402Y-105769600D01*
X119043402Y-105745066D01*
X119048212Y-105696235D01*
X119057784Y-105648110D01*
X119072028Y-105601155D01*
X119090805Y-105555822D01*
X119113936Y-105512549D01*
X119141196Y-105471750D01*
X119172324Y-105433821D01*
X119207021Y-105399124D01*
X119244950Y-105367996D01*
X119285749Y-105340736D01*
X119329022Y-105317605D01*
X119374355Y-105298828D01*
X119421310Y-105284584D01*
X119469435Y-105275012D01*
X119518266Y-105270202D01*
X119542800Y-105270202D01*
X119542800Y-105269600D01*
X120042800Y-105269600D01*
X120042800Y-106769600D01*
X119542800Y-106769600D01*
X119542800Y-106768998D01*
G37*
G36*
X120342800Y-105269600D02*
G01*
X120842800Y-105269600D01*
X120842800Y-105270202D01*
X120867334Y-105270202D01*
X120916165Y-105275012D01*
X120964290Y-105284584D01*
X121011245Y-105298828D01*
X121056578Y-105317605D01*
X121099851Y-105340736D01*
X121140650Y-105367996D01*
X121178579Y-105399124D01*
X121213276Y-105433821D01*
X121244404Y-105471750D01*
X121271664Y-105512549D01*
X121294795Y-105555822D01*
X121313572Y-105601155D01*
X121327816Y-105648110D01*
X121337388Y-105696235D01*
X121342198Y-105745066D01*
X121342198Y-105769600D01*
X121342800Y-105769600D01*
X121342800Y-106269600D01*
X121342198Y-106269600D01*
X121342198Y-106294134D01*
X121337388Y-106342965D01*
X121327816Y-106391090D01*
X121313572Y-106438045D01*
X121294795Y-106483378D01*
X121271664Y-106526651D01*
X121244404Y-106567450D01*
X121213276Y-106605379D01*
X121178579Y-106640076D01*
X121140650Y-106671204D01*
X121099851Y-106698464D01*
X121056578Y-106721595D01*
X121011245Y-106740372D01*
X120964290Y-106754616D01*
X120916165Y-106764188D01*
X120867334Y-106768998D01*
X120842800Y-106768998D01*
X120842800Y-106769600D01*
X120342800Y-106769600D01*
X120342800Y-105269600D01*
G37*
%TD*%
D14*
%TO.C,P1*%
X118069200Y-78659400D03*
X125669200Y-78659400D03*
D15*
X120619200Y-81559400D03*
X121869200Y-81559400D03*
X123119200Y-81559400D03*
%TD*%
D17*
%TO.C,H4*%
X138917680Y-79413100D03*
%TD*%
%TO.C,H3*%
X138917680Y-113489740D03*
%TD*%
%TO.C,H2*%
X105079800Y-113489740D03*
%TD*%
%TO.C,H1*%
X105079800Y-79413100D03*
%TD*%
M02*
