%TF.GenerationSoftware,KiCad,Pcbnew,5.1.12-84ad8e8a86~92~ubuntu18.04.1*%
%TF.CreationDate,2023-09-10T20:05:29+07:00*%
%TF.ProjectId,RPi_FFC_15P-EYECLOUDAI_2MGSMOD_AR0234-ADAPTER,5250695f-4646-4435-9f31-35502d455945,rev?*%
%TF.SameCoordinates,Original*%
%TF.FileFunction,Soldermask,Bot*%
%TF.FilePolarity,Negative*%
%FSLAX46Y46*%
G04 Gerber Fmt 4.6, Leading zero omitted, Abs format (unit mm)*
G04 Created by KiCad (PCBNEW 5.1.12-84ad8e8a86~92~ubuntu18.04.1) date 2023-09-10 20:05:29*
%MOMM*%
%LPD*%
G01*
G04 APERTURE LIST*
%ADD10R,0.812800X0.889000*%
%ADD11C,4.400000*%
G04 APERTURE END LIST*
%TO.C,R5*%
G36*
G01*
X131387400Y-102447100D02*
X131387400Y-101972100D01*
G75*
G02*
X131624900Y-101734600I237500J0D01*
G01*
X132124900Y-101734600D01*
G75*
G02*
X132362400Y-101972100I0J-237500D01*
G01*
X132362400Y-102447100D01*
G75*
G02*
X132124900Y-102684600I-237500J0D01*
G01*
X131624900Y-102684600D01*
G75*
G02*
X131387400Y-102447100I0J237500D01*
G01*
G37*
G36*
G01*
X129562400Y-102447100D02*
X129562400Y-101972100D01*
G75*
G02*
X129799900Y-101734600I237500J0D01*
G01*
X130299900Y-101734600D01*
G75*
G02*
X130537400Y-101972100I0J-237500D01*
G01*
X130537400Y-102447100D01*
G75*
G02*
X130299900Y-102684600I-237500J0D01*
G01*
X129799900Y-102684600D01*
G75*
G02*
X129562400Y-102447100I0J237500D01*
G01*
G37*
%TD*%
D10*
%TO.C,U2*%
X120040400Y-104881800D03*
X121065399Y-102991801D03*
X119015401Y-102991801D03*
%TD*%
%TO.C,R4*%
G36*
G01*
X122546100Y-104262100D02*
X123021100Y-104262100D01*
G75*
G02*
X123258600Y-104499600I0J-237500D01*
G01*
X123258600Y-104999600D01*
G75*
G02*
X123021100Y-105237100I-237500J0D01*
G01*
X122546100Y-105237100D01*
G75*
G02*
X122308600Y-104999600I0J237500D01*
G01*
X122308600Y-104499600D01*
G75*
G02*
X122546100Y-104262100I237500J0D01*
G01*
G37*
G36*
G01*
X122546100Y-102437100D02*
X123021100Y-102437100D01*
G75*
G02*
X123258600Y-102674600I0J-237500D01*
G01*
X123258600Y-103174600D01*
G75*
G02*
X123021100Y-103412100I-237500J0D01*
G01*
X122546100Y-103412100D01*
G75*
G02*
X122308600Y-103174600I0J237500D01*
G01*
X122308600Y-102674600D01*
G75*
G02*
X122546100Y-102437100I237500J0D01*
G01*
G37*
%TD*%
%TO.C,C4*%
G36*
G01*
X124070100Y-104160200D02*
X124545100Y-104160200D01*
G75*
G02*
X124782600Y-104397700I0J-237500D01*
G01*
X124782600Y-104997700D01*
G75*
G02*
X124545100Y-105235200I-237500J0D01*
G01*
X124070100Y-105235200D01*
G75*
G02*
X123832600Y-104997700I0J237500D01*
G01*
X123832600Y-104397700D01*
G75*
G02*
X124070100Y-104160200I237500J0D01*
G01*
G37*
G36*
G01*
X124070100Y-102435200D02*
X124545100Y-102435200D01*
G75*
G02*
X124782600Y-102672700I0J-237500D01*
G01*
X124782600Y-103272700D01*
G75*
G02*
X124545100Y-103510200I-237500J0D01*
G01*
X124070100Y-103510200D01*
G75*
G02*
X123832600Y-103272700I0J237500D01*
G01*
X123832600Y-102672700D01*
G75*
G02*
X124070100Y-102435200I237500J0D01*
G01*
G37*
%TD*%
D11*
%TO.C,H4*%
X138917680Y-79413100D03*
%TD*%
%TO.C,H3*%
X138917680Y-113489740D03*
%TD*%
%TO.C,H2*%
X105079800Y-113489740D03*
%TD*%
%TO.C,H1*%
X105079800Y-79413100D03*
%TD*%
M02*
