%TF.GenerationSoftware,KiCad,Pcbnew,5.1.12-84ad8e8a86~92~ubuntu18.04.1*%
%TF.CreationDate,2023-09-10T20:05:29+07:00*%
%TF.ProjectId,RPi_FFC_15P-EYECLOUDAI_2MGSMOD_AR0234-ADAPTER,5250695f-4646-4435-9f31-35502d455945,rev?*%
%TF.SameCoordinates,Original*%
%TF.FileFunction,Copper,L1,Top*%
%TF.FilePolarity,Positive*%
%FSLAX46Y46*%
G04 Gerber Fmt 4.6, Leading zero omitted, Abs format (unit mm)*
G04 Created by KiCad (PCBNEW 5.1.12-84ad8e8a86~92~ubuntu18.04.1) date 2023-09-10 20:05:29*
%MOMM*%
%LPD*%
G01*
G04 APERTURE LIST*
%TA.AperFunction,SMDPad,CuDef*%
%ADD10R,2.000000X0.610000*%
%TD*%
%TA.AperFunction,SMDPad,CuDef*%
%ADD11R,3.600000X2.680000*%
%TD*%
%TA.AperFunction,SMDPad,CuDef*%
%ADD12R,1.100000X0.300000*%
%TD*%
%TA.AperFunction,SMDPad,CuDef*%
%ADD13R,3.100000X2.300000*%
%TD*%
%TA.AperFunction,SMDPad,CuDef*%
%ADD14R,1.400000X1.200000*%
%TD*%
%TA.AperFunction,SMDPad,CuDef*%
%ADD15R,0.952500X0.508000*%
%TD*%
%TA.AperFunction,SMDPad,CuDef*%
%ADD16R,2.100000X3.000000*%
%TD*%
%TA.AperFunction,SMDPad,CuDef*%
%ADD17R,0.800000X1.600000*%
%TD*%
%TA.AperFunction,SMDPad,CuDef*%
%ADD18C,0.100000*%
%TD*%
%TA.AperFunction,ComponentPad*%
%ADD19C,4.400000*%
%TD*%
%TA.AperFunction,ViaPad*%
%ADD20C,0.800000*%
%TD*%
%TA.AperFunction,ViaPad*%
%ADD21C,1.000000*%
%TD*%
%TA.AperFunction,Conductor*%
%ADD22C,0.200000*%
%TD*%
%TA.AperFunction,Conductor*%
%ADD23C,0.350000*%
%TD*%
%TA.AperFunction,Conductor*%
%ADD24C,0.300000*%
%TD*%
%TA.AperFunction,Conductor*%
%ADD25C,0.250000*%
%TD*%
%TA.AperFunction,Conductor*%
%ADD26C,0.254000*%
%TD*%
%TA.AperFunction,Conductor*%
%ADD27C,0.100000*%
%TD*%
G04 APERTURE END LIST*
D10*
%TO.P,J1,15*%
%TO.N,+3V3*%
X111099600Y-103520000D03*
%TO.P,J1,14*%
%TO.N,/I2C_SDA_1V8*%
X111099600Y-102520000D03*
%TO.P,J1,13*%
%TO.N,/I2C_SCL_1V8*%
X111099600Y-101520000D03*
%TO.P,J1,12*%
%TO.N,Net-(J1-Pad12)*%
X111099600Y-100520000D03*
%TO.P,J1,11*%
%TO.N,/CSI_PWDN_1V8*%
X111099600Y-99520000D03*
%TO.P,J1,10*%
%TO.N,GND*%
X111099600Y-98520000D03*
%TO.P,J1,9*%
%TO.N,/CSI_CLK_P*%
X111099600Y-97520000D03*
%TO.P,J1,8*%
%TO.N,/CSI_CLK_N*%
X111099600Y-96520000D03*
%TO.P,J1,7*%
%TO.N,GND*%
X111099600Y-95520000D03*
%TO.P,J1,1*%
X111099600Y-89520000D03*
%TO.P,J1,2*%
%TO.N,/CSI_D0_N*%
X111099600Y-90520000D03*
D11*
%TO.P,J1,S1*%
%TO.N,GND*%
X108299600Y-86530000D03*
%TO.P,J1,S2*%
X108299600Y-106510000D03*
D10*
%TO.P,J1,3*%
%TO.N,/CSI_D0_P*%
X111099600Y-91520000D03*
%TO.P,J1,6*%
%TO.N,/CSI_D1_P*%
X111099600Y-94520000D03*
%TO.P,J1,4*%
%TO.N,GND*%
X111099600Y-92520000D03*
%TO.P,J1,5*%
%TO.N,/CSI_D1_N*%
X111099600Y-93520000D03*
%TD*%
D12*
%TO.P,J2,30*%
%TO.N,/CSI_D3_N*%
X134518400Y-93181600D03*
%TO.P,J2,29*%
%TO.N,/CSI_D3_P*%
X134518400Y-93681600D03*
%TO.P,J2,28*%
%TO.N,GND*%
X134518400Y-94181600D03*
%TO.P,J2,27*%
%TO.N,/CSI_D2_N*%
X134518400Y-94681600D03*
%TO.P,J2,26*%
%TO.N,/CSI_D2_P*%
X134518400Y-95181600D03*
%TO.P,J2,25*%
%TO.N,GND*%
X134518400Y-95681600D03*
%TO.P,J2,24*%
%TO.N,/CSI_CLK_N*%
X134518400Y-96181600D03*
%TO.P,J2,23*%
%TO.N,/CSI_CLK_P*%
X134518400Y-96681600D03*
%TO.P,J2,22*%
%TO.N,GND*%
X134518400Y-97181600D03*
%TO.P,J2,21*%
%TO.N,/CSI_D0_N*%
X134518400Y-97681600D03*
%TO.P,J2,20*%
%TO.N,/CSI_D0_P*%
X134518400Y-98181600D03*
%TO.P,J2,19*%
%TO.N,GND*%
X134518400Y-98681600D03*
%TO.P,J2,18*%
%TO.N,/CSI_D1_N*%
X134518400Y-99181600D03*
%TO.P,J2,17*%
%TO.N,/CSI_D1_P*%
X134518400Y-99681600D03*
%TO.P,J2,16*%
%TO.N,GND*%
X134518400Y-100181600D03*
%TO.P,J2,15*%
%TO.N,/I2C_SDA_1V8*%
X134518400Y-100681600D03*
%TO.P,J2,14*%
%TO.N,/TRIGGER*%
X134518400Y-101181600D03*
%TO.P,J2,13*%
%TO.N,Net-(J2-Pad13)*%
X134518400Y-101681600D03*
%TO.P,J2,12*%
%TO.N,/CSI_PWDN_1V8*%
X134518400Y-102181600D03*
%TO.P,J2,11*%
%TO.N,/CSI_MCLK_1V8*%
X134518400Y-102681600D03*
%TO.P,J2,10*%
%TO.N,Net-(J2-Pad10)*%
X134518400Y-103181600D03*
%TO.P,J2,9*%
%TO.N,/I2C_SCL_1V8*%
X134518400Y-103681600D03*
%TO.P,J2,8*%
%TO.N,/CSI_nRST_1V8*%
X134518400Y-104181600D03*
%TO.P,J2,7*%
%TO.N,Net-(J2-Pad7)*%
X134518400Y-104681600D03*
D13*
%TO.P,J2,S1*%
%TO.N,GND*%
X136218400Y-109351600D03*
%TO.P,J2,S2*%
X136218400Y-91511600D03*
D12*
%TO.P,J2,6*%
X134518400Y-105181600D03*
%TO.P,J2,5*%
X134518400Y-105681600D03*
%TO.P,J2,4*%
X134518400Y-106181600D03*
%TO.P,J2,3*%
%TO.N,+5V*%
X134518400Y-106681600D03*
%TO.P,J2,2*%
X134518400Y-107181600D03*
%TO.P,J2,1*%
X134518400Y-107681600D03*
%TD*%
D14*
%TO.P,X1,4*%
%TO.N,+1V8*%
X125272800Y-103090800D03*
%TO.P,X1,3*%
%TO.N,Net-(R2-Pad2)*%
X127812800Y-103090800D03*
%TO.P,X1,2*%
%TO.N,GND*%
X127812800Y-105290800D03*
%TO.P,X1,1*%
%TO.N,Net-(R1-Pad1)*%
X125272800Y-105290800D03*
%TD*%
D15*
%TO.P,U1,5*%
%TO.N,+1V8*%
X126701550Y-107507999D03*
%TO.P,U1,4*%
%TO.N,Net-(C2-Pad1)*%
X126701550Y-109408001D03*
%TO.P,U1,3*%
%TO.N,/CSI_PWDN_1V8*%
X124148850Y-109408001D03*
%TO.P,U1,2*%
%TO.N,GND*%
X124148850Y-108458000D03*
%TO.P,U1,1*%
%TO.N,+5V*%
X124148850Y-107507999D03*
%TD*%
%TO.P,R3,2*%
%TO.N,Net-(J1-Pad12)*%
%TA.AperFunction,SMDPad,CuDef*%
G36*
G01*
X131486900Y-104920600D02*
X131961900Y-104920600D01*
G75*
G02*
X132199400Y-105158100I0J-237500D01*
G01*
X132199400Y-105658100D01*
G75*
G02*
X131961900Y-105895600I-237500J0D01*
G01*
X131486900Y-105895600D01*
G75*
G02*
X131249400Y-105658100I0J237500D01*
G01*
X131249400Y-105158100D01*
G75*
G02*
X131486900Y-104920600I237500J0D01*
G01*
G37*
%TD.AperFunction*%
%TO.P,R3,1*%
%TO.N,/CSI_MCLK_1V8*%
%TA.AperFunction,SMDPad,CuDef*%
G36*
G01*
X131486900Y-103095600D02*
X131961900Y-103095600D01*
G75*
G02*
X132199400Y-103333100I0J-237500D01*
G01*
X132199400Y-103833100D01*
G75*
G02*
X131961900Y-104070600I-237500J0D01*
G01*
X131486900Y-104070600D01*
G75*
G02*
X131249400Y-103833100I0J237500D01*
G01*
X131249400Y-103333100D01*
G75*
G02*
X131486900Y-103095600I237500J0D01*
G01*
G37*
%TD.AperFunction*%
%TD*%
%TO.P,R2,2*%
%TO.N,Net-(R2-Pad2)*%
%TA.AperFunction,SMDPad,CuDef*%
G36*
G01*
X130437900Y-104070600D02*
X129962900Y-104070600D01*
G75*
G02*
X129725400Y-103833100I0J237500D01*
G01*
X129725400Y-103333100D01*
G75*
G02*
X129962900Y-103095600I237500J0D01*
G01*
X130437900Y-103095600D01*
G75*
G02*
X130675400Y-103333100I0J-237500D01*
G01*
X130675400Y-103833100D01*
G75*
G02*
X130437900Y-104070600I-237500J0D01*
G01*
G37*
%TD.AperFunction*%
%TO.P,R2,1*%
%TO.N,/CSI_MCLK_1V8*%
%TA.AperFunction,SMDPad,CuDef*%
G36*
G01*
X130437900Y-105895600D02*
X129962900Y-105895600D01*
G75*
G02*
X129725400Y-105658100I0J237500D01*
G01*
X129725400Y-105158100D01*
G75*
G02*
X129962900Y-104920600I237500J0D01*
G01*
X130437900Y-104920600D01*
G75*
G02*
X130675400Y-105158100I0J-237500D01*
G01*
X130675400Y-105658100D01*
G75*
G02*
X130437900Y-105895600I-237500J0D01*
G01*
G37*
%TD.AperFunction*%
%TD*%
%TO.P,R1,2*%
%TO.N,+1V8*%
%TA.AperFunction,SMDPad,CuDef*%
G36*
G01*
X123021100Y-103410200D02*
X122546100Y-103410200D01*
G75*
G02*
X122308600Y-103172700I0J237500D01*
G01*
X122308600Y-102672700D01*
G75*
G02*
X122546100Y-102435200I237500J0D01*
G01*
X123021100Y-102435200D01*
G75*
G02*
X123258600Y-102672700I0J-237500D01*
G01*
X123258600Y-103172700D01*
G75*
G02*
X123021100Y-103410200I-237500J0D01*
G01*
G37*
%TD.AperFunction*%
%TO.P,R1,1*%
%TO.N,Net-(R1-Pad1)*%
%TA.AperFunction,SMDPad,CuDef*%
G36*
G01*
X123021100Y-105235200D02*
X122546100Y-105235200D01*
G75*
G02*
X122308600Y-104997700I0J237500D01*
G01*
X122308600Y-104497700D01*
G75*
G02*
X122546100Y-104260200I237500J0D01*
G01*
X123021100Y-104260200D01*
G75*
G02*
X123258600Y-104497700I0J-237500D01*
G01*
X123258600Y-104997700D01*
G75*
G02*
X123021100Y-105235200I-237500J0D01*
G01*
G37*
%TD.AperFunction*%
%TD*%
%TO.P,C3,2*%
%TO.N,GND*%
%TA.AperFunction,SMDPad,CuDef*%
G36*
G01*
X129407800Y-107730300D02*
X129407800Y-107255300D01*
G75*
G02*
X129645300Y-107017800I237500J0D01*
G01*
X130245300Y-107017800D01*
G75*
G02*
X130482800Y-107255300I0J-237500D01*
G01*
X130482800Y-107730300D01*
G75*
G02*
X130245300Y-107967800I-237500J0D01*
G01*
X129645300Y-107967800D01*
G75*
G02*
X129407800Y-107730300I0J237500D01*
G01*
G37*
%TD.AperFunction*%
%TO.P,C3,1*%
%TO.N,+1V8*%
%TA.AperFunction,SMDPad,CuDef*%
G36*
G01*
X127682800Y-107730300D02*
X127682800Y-107255300D01*
G75*
G02*
X127920300Y-107017800I237500J0D01*
G01*
X128520300Y-107017800D01*
G75*
G02*
X128757800Y-107255300I0J-237500D01*
G01*
X128757800Y-107730300D01*
G75*
G02*
X128520300Y-107967800I-237500J0D01*
G01*
X127920300Y-107967800D01*
G75*
G02*
X127682800Y-107730300I0J237500D01*
G01*
G37*
%TD.AperFunction*%
%TD*%
%TO.P,C2,2*%
%TO.N,GND*%
%TA.AperFunction,SMDPad,CuDef*%
G36*
G01*
X129407800Y-109660700D02*
X129407800Y-109185700D01*
G75*
G02*
X129645300Y-108948200I237500J0D01*
G01*
X130245300Y-108948200D01*
G75*
G02*
X130482800Y-109185700I0J-237500D01*
G01*
X130482800Y-109660700D01*
G75*
G02*
X130245300Y-109898200I-237500J0D01*
G01*
X129645300Y-109898200D01*
G75*
G02*
X129407800Y-109660700I0J237500D01*
G01*
G37*
%TD.AperFunction*%
%TO.P,C2,1*%
%TO.N,Net-(C2-Pad1)*%
%TA.AperFunction,SMDPad,CuDef*%
G36*
G01*
X127682800Y-109660700D02*
X127682800Y-109185700D01*
G75*
G02*
X127920300Y-108948200I237500J0D01*
G01*
X128520300Y-108948200D01*
G75*
G02*
X128757800Y-109185700I0J-237500D01*
G01*
X128757800Y-109660700D01*
G75*
G02*
X128520300Y-109898200I-237500J0D01*
G01*
X127920300Y-109898200D01*
G75*
G02*
X127682800Y-109660700I0J237500D01*
G01*
G37*
%TD.AperFunction*%
%TD*%
%TO.P,C1,2*%
%TO.N,GND*%
%TA.AperFunction,SMDPad,CuDef*%
G36*
G01*
X122546100Y-107614600D02*
X123021100Y-107614600D01*
G75*
G02*
X123258600Y-107852100I0J-237500D01*
G01*
X123258600Y-108452100D01*
G75*
G02*
X123021100Y-108689600I-237500J0D01*
G01*
X122546100Y-108689600D01*
G75*
G02*
X122308600Y-108452100I0J237500D01*
G01*
X122308600Y-107852100D01*
G75*
G02*
X122546100Y-107614600I237500J0D01*
G01*
G37*
%TD.AperFunction*%
%TO.P,C1,1*%
%TO.N,+5V*%
%TA.AperFunction,SMDPad,CuDef*%
G36*
G01*
X122546100Y-105889600D02*
X123021100Y-105889600D01*
G75*
G02*
X123258600Y-106127100I0J-237500D01*
G01*
X123258600Y-106727100D01*
G75*
G02*
X123021100Y-106964600I-237500J0D01*
G01*
X122546100Y-106964600D01*
G75*
G02*
X122308600Y-106727100I0J237500D01*
G01*
X122308600Y-106127100D01*
G75*
G02*
X122546100Y-105889600I237500J0D01*
G01*
G37*
%TD.AperFunction*%
%TD*%
D16*
%TO.P,P2,P2*%
%TO.N,GND*%
X125679200Y-114452400D03*
%TO.P,P2,P1*%
X118079200Y-114452400D03*
D17*
%TO.P,P2,3*%
%TO.N,+5V*%
X123129200Y-111552400D03*
%TO.P,P2,2*%
X121879200Y-111552400D03*
%TO.P,P2,1*%
%TO.N,GND*%
X120629200Y-111552400D03*
%TD*%
%TA.AperFunction,SMDPad,CuDef*%
D18*
%TO.P,JP1,2*%
%TO.N,+3V3*%
G36*
X119542800Y-106768998D02*
G01*
X119518266Y-106768998D01*
X119469435Y-106764188D01*
X119421310Y-106754616D01*
X119374355Y-106740372D01*
X119329022Y-106721595D01*
X119285749Y-106698464D01*
X119244950Y-106671204D01*
X119207021Y-106640076D01*
X119172324Y-106605379D01*
X119141196Y-106567450D01*
X119113936Y-106526651D01*
X119090805Y-106483378D01*
X119072028Y-106438045D01*
X119057784Y-106391090D01*
X119048212Y-106342965D01*
X119043402Y-106294134D01*
X119043402Y-106269600D01*
X119042800Y-106269600D01*
X119042800Y-105769600D01*
X119043402Y-105769600D01*
X119043402Y-105745066D01*
X119048212Y-105696235D01*
X119057784Y-105648110D01*
X119072028Y-105601155D01*
X119090805Y-105555822D01*
X119113936Y-105512549D01*
X119141196Y-105471750D01*
X119172324Y-105433821D01*
X119207021Y-105399124D01*
X119244950Y-105367996D01*
X119285749Y-105340736D01*
X119329022Y-105317605D01*
X119374355Y-105298828D01*
X119421310Y-105284584D01*
X119469435Y-105275012D01*
X119518266Y-105270202D01*
X119542800Y-105270202D01*
X119542800Y-105269600D01*
X120042800Y-105269600D01*
X120042800Y-106769600D01*
X119542800Y-106769600D01*
X119542800Y-106768998D01*
G37*
%TD.AperFunction*%
%TA.AperFunction,SMDPad,CuDef*%
%TO.P,JP1,1*%
%TO.N,+5V*%
G36*
X120342800Y-105269600D02*
G01*
X120842800Y-105269600D01*
X120842800Y-105270202D01*
X120867334Y-105270202D01*
X120916165Y-105275012D01*
X120964290Y-105284584D01*
X121011245Y-105298828D01*
X121056578Y-105317605D01*
X121099851Y-105340736D01*
X121140650Y-105367996D01*
X121178579Y-105399124D01*
X121213276Y-105433821D01*
X121244404Y-105471750D01*
X121271664Y-105512549D01*
X121294795Y-105555822D01*
X121313572Y-105601155D01*
X121327816Y-105648110D01*
X121337388Y-105696235D01*
X121342198Y-105745066D01*
X121342198Y-105769600D01*
X121342800Y-105769600D01*
X121342800Y-106269600D01*
X121342198Y-106269600D01*
X121342198Y-106294134D01*
X121337388Y-106342965D01*
X121327816Y-106391090D01*
X121313572Y-106438045D01*
X121294795Y-106483378D01*
X121271664Y-106526651D01*
X121244404Y-106567450D01*
X121213276Y-106605379D01*
X121178579Y-106640076D01*
X121140650Y-106671204D01*
X121099851Y-106698464D01*
X121056578Y-106721595D01*
X121011245Y-106740372D01*
X120964290Y-106754616D01*
X120916165Y-106764188D01*
X120867334Y-106768998D01*
X120842800Y-106768998D01*
X120842800Y-106769600D01*
X120342800Y-106769600D01*
X120342800Y-105269600D01*
G37*
%TD.AperFunction*%
%TD*%
D16*
%TO.P,P1,P2*%
%TO.N,GND*%
X118069200Y-78659400D03*
%TO.P,P1,P1*%
X125669200Y-78659400D03*
D17*
%TO.P,P1,3*%
X120619200Y-81559400D03*
%TO.P,P1,2*%
%TO.N,/TRIGGER*%
X121869200Y-81559400D03*
%TO.P,P1,1*%
X123119200Y-81559400D03*
%TD*%
D19*
%TO.P,H4,1*%
%TO.N,N/C*%
X138917680Y-79413100D03*
%TD*%
%TO.P,H3,1*%
%TO.N,N/C*%
X138917680Y-113489740D03*
%TD*%
%TO.P,H2,1*%
%TO.N,N/C*%
X105079800Y-113489740D03*
%TD*%
%TO.P,H1,1*%
%TO.N,N/C*%
X105079800Y-79413100D03*
%TD*%
D20*
%TO.N,GND*%
X108305600Y-106476800D03*
X108356400Y-86410800D03*
X125679200Y-78587600D03*
X117957600Y-78587600D03*
X118059200Y-114401600D03*
X125628400Y-114350800D03*
X136194800Y-109321600D03*
X136245600Y-91490800D03*
X122783600Y-108152100D03*
X127812800Y-105290800D03*
X136218400Y-94108800D03*
X136218400Y-95582000D03*
X136218400Y-97204000D03*
X136218400Y-98630000D03*
X136194800Y-100076000D03*
X136144000Y-102209600D03*
X136169600Y-105714800D03*
X108800900Y-92621100D03*
X108800900Y-95491300D03*
X117957600Y-100431600D03*
X115620800Y-102158800D03*
X115620800Y-104597200D03*
X125679200Y-84480400D03*
X118008400Y-84531200D03*
X117957600Y-97180400D03*
%TO.N,/CSI_nRST_1V8*%
X133096000Y-105460800D03*
%TO.N,/CSI_PWDN_1V8*%
X133096000Y-102209600D03*
X114604800Y-100685600D03*
X122783600Y-109626400D03*
%TO.N,/I2C_SDA_1V8*%
X108712000Y-102158800D03*
X133096000Y-100939600D03*
%TO.N,/I2C_SCL_1V8*%
X108254800Y-100533200D03*
X133096000Y-103682800D03*
%TO.N,/CSI_CLK_P*%
X114300000Y-96977200D03*
X131572000Y-96012000D03*
%TO.N,/CSI_CLK_N*%
X113792000Y-95961200D03*
X132537200Y-95504000D03*
D21*
%TO.N,+1V8*%
X125577600Y-108254800D03*
D20*
%TO.N,Net-(J1-Pad12)*%
X131724400Y-106578400D03*
X113792000Y-102108000D03*
%TD*%
D22*
%TO.N,GND*%
X117716800Y-92520000D02*
X110909100Y-92520000D01*
X134518400Y-100181600D02*
X120806400Y-100181600D01*
X120806400Y-100181600D02*
X115570000Y-94945200D01*
X112112400Y-95520002D02*
X110909100Y-95520002D01*
X112687202Y-94945200D02*
X112112400Y-95520002D01*
X115570000Y-94945200D02*
X112687202Y-94945200D01*
X108824001Y-89520001D02*
X108800900Y-89496900D01*
X110909100Y-89520001D02*
X108824001Y-89520001D01*
X108800900Y-89496900D02*
X108800900Y-88519000D01*
X108902000Y-92520000D02*
X108800900Y-92621100D01*
X110909100Y-92520000D02*
X108902000Y-92520000D01*
X108800900Y-92621100D02*
X108800900Y-89496900D01*
X108807001Y-98520001D02*
X108800900Y-98513900D01*
X110909100Y-98520001D02*
X108807001Y-98520001D01*
X108829602Y-95520002D02*
X108800900Y-95491300D01*
X110909100Y-95520002D02*
X108829602Y-95520002D01*
X108800900Y-95491300D02*
X108800900Y-92621100D01*
X108800900Y-98513900D02*
X108800900Y-95491300D01*
X120629200Y-111552400D02*
X109926800Y-111552400D01*
X108800900Y-110426500D02*
X108800900Y-104521000D01*
X109926800Y-111552400D02*
X108800900Y-110426500D01*
X134518400Y-105181600D02*
X134518400Y-106181600D01*
X128727200Y-96824800D02*
X131013200Y-96824800D01*
X131013200Y-96824800D02*
X131370000Y-97181600D01*
X131370000Y-97181600D02*
X134518400Y-97181600D01*
X121422401Y-89520001D02*
X128727200Y-96824800D01*
X136038400Y-100181600D02*
X134518400Y-100181600D01*
X136218400Y-100001600D02*
X136144000Y-100076000D01*
X134601600Y-98677200D02*
X136218400Y-98677200D01*
X134597200Y-98681600D02*
X134601600Y-98677200D01*
X134518400Y-98681600D02*
X134597200Y-98681600D01*
X136218400Y-98677200D02*
X136218400Y-100001600D01*
X136196000Y-97181600D02*
X136218400Y-97204000D01*
X134518400Y-97181600D02*
X136196000Y-97181600D01*
X136218400Y-97204000D02*
X136218400Y-97204000D01*
X136216400Y-95681600D02*
X136218400Y-95683600D01*
X134518400Y-95681600D02*
X136216400Y-95681600D01*
X136218400Y-95683600D02*
X136218400Y-97204000D01*
X136145600Y-94181600D02*
X136218400Y-94108800D01*
X134518400Y-94181600D02*
X136145600Y-94181600D01*
X136218400Y-94108800D02*
X136218400Y-95582000D01*
X136218400Y-91511600D02*
X136218400Y-94108800D01*
X133768400Y-95681600D02*
X133350000Y-95263200D01*
X134518400Y-95681600D02*
X133768400Y-95681600D01*
X133350000Y-95263200D02*
X133350000Y-94792800D01*
X133350000Y-94792800D02*
X124155200Y-85598000D01*
X124155200Y-85598000D02*
X121920000Y-85598000D01*
X120619200Y-84297200D02*
X120619200Y-81559400D01*
X121920000Y-85598000D02*
X120619200Y-84297200D01*
X134518400Y-105181600D02*
X136169600Y-105181600D01*
X136185200Y-106181600D02*
X136194800Y-106172000D01*
X134518400Y-106181600D02*
X136185200Y-106181600D01*
X136194800Y-106172000D02*
X136194800Y-109321600D01*
X136194800Y-105206800D02*
X136169600Y-105181600D01*
X136177200Y-105681600D02*
X136194800Y-105664000D01*
X134518400Y-105681600D02*
X136177200Y-105681600D01*
X136194800Y-105664000D02*
X136194800Y-105206800D01*
X136194800Y-106172000D02*
X136194800Y-105664000D01*
X134518400Y-106181600D02*
X133645200Y-106181600D01*
X132334000Y-107492800D02*
X129945300Y-107492800D01*
X133645200Y-106181600D02*
X132334000Y-107492800D01*
X129945300Y-107492800D02*
X129945300Y-109423200D01*
D23*
X129945300Y-107423300D02*
X127812800Y-105290800D01*
D22*
X129945300Y-107492800D02*
X129945300Y-107423300D01*
X123089500Y-108458000D02*
X122783600Y-108152100D01*
D23*
X124148850Y-108458000D02*
X123089500Y-108458000D01*
D22*
X127812800Y-105290800D02*
X127812800Y-105290800D01*
X122783600Y-108152100D02*
X122783600Y-108152100D01*
X124968000Y-98450400D02*
X125199200Y-98681600D01*
X123647200Y-98450400D02*
X124968000Y-98450400D01*
X134518400Y-98681600D02*
X125199200Y-98681600D01*
X123647200Y-98450400D02*
X117716800Y-92520000D01*
X136218400Y-94108800D02*
X136218400Y-94108800D01*
X136218400Y-95582000D02*
X136218400Y-95683600D01*
X136218400Y-97204000D02*
X136218400Y-98630000D01*
X136218400Y-98630000D02*
X136218400Y-98677200D01*
X136144000Y-100076000D02*
X136038400Y-100181600D01*
X136169600Y-105181600D02*
X136169600Y-105181600D01*
X108800900Y-92621100D02*
X108800900Y-92621100D01*
X108800900Y-95491300D02*
X108800900Y-95491300D01*
X108800900Y-104521000D02*
X108800900Y-104521000D01*
X108800900Y-88519000D02*
X108800900Y-88519000D01*
%TO.N,/CSI_nRST_1V8*%
X133096000Y-104854000D02*
X133096000Y-105460800D01*
X133768400Y-104181600D02*
X133096000Y-104854000D01*
X134518400Y-104181600D02*
X133768400Y-104181600D01*
%TO.N,/CSI_PWDN_1V8*%
X124148850Y-109408001D02*
X123001999Y-109408001D01*
X123001999Y-109408001D02*
X122783600Y-109626400D01*
X122783600Y-109626400D02*
X122783600Y-109626400D01*
X133124000Y-102181600D02*
X133096000Y-102209600D01*
X134518400Y-102181600D02*
X133124000Y-102181600D01*
X114604800Y-100685600D02*
X113439202Y-99520002D01*
X111099602Y-99520002D02*
X111099600Y-99520000D01*
X113439202Y-99520002D02*
X111099602Y-99520002D01*
D24*
%TO.N,+5V*%
X134518400Y-107681600D02*
X134518400Y-107181600D01*
X134518400Y-107181600D02*
X134518400Y-106681600D01*
X121869200Y-111542400D02*
X121879200Y-111552400D01*
X120842800Y-106019600D02*
X121462800Y-106019600D01*
X121879200Y-106436000D02*
X121879200Y-111552400D01*
X121462800Y-106019600D02*
X121879200Y-106436000D01*
X123129200Y-111552400D02*
X121879200Y-111552400D01*
X124148850Y-107507999D02*
X124148850Y-106927650D01*
X123648300Y-106427100D02*
X122783600Y-106427100D01*
X124148850Y-106927650D02*
X123648300Y-106427100D01*
X121888100Y-106427100D02*
X121879200Y-106436000D01*
X122783600Y-106427100D02*
X121888100Y-106427100D01*
X123129200Y-111552400D02*
X131830400Y-111552400D01*
X131830400Y-111552400D02*
X133400800Y-109982000D01*
X133400800Y-109982000D02*
X133400800Y-108051600D01*
X133770800Y-107681600D02*
X134518400Y-107681600D01*
X133400800Y-108051600D02*
X133770800Y-107681600D01*
D25*
%TO.N,/TRIGGER*%
X121869200Y-81559400D02*
X123119200Y-81559400D01*
X123119200Y-81559400D02*
X134239000Y-81559400D01*
X134239000Y-81559400D02*
X138430000Y-85750400D01*
X138430000Y-85750400D02*
X138430000Y-99415600D01*
X136664000Y-101181600D02*
X134518400Y-101181600D01*
X138430000Y-99415600D02*
X136664000Y-101181600D01*
D22*
%TO.N,/CSI_MCLK_1V8*%
X131724400Y-103583100D02*
X131722500Y-103583100D01*
X131722500Y-103583100D02*
X130962400Y-104343200D01*
X130200400Y-105408100D02*
X130202300Y-105408100D01*
X130962400Y-104648000D02*
X130962400Y-104343200D01*
X130202300Y-105408100D02*
X130962400Y-104648000D01*
X134300400Y-102681600D02*
X134250401Y-102731599D01*
X134518400Y-102681600D02*
X134300400Y-102681600D01*
X133778398Y-102681600D02*
X134518400Y-102681600D01*
X133527999Y-102931999D02*
X133778398Y-102681600D01*
X132375501Y-102931999D02*
X133527999Y-102931999D01*
X131724400Y-103583100D02*
X132375501Y-102931999D01*
%TO.N,/I2C_SDA_1V8*%
X133768400Y-100681600D02*
X133510400Y-100939600D01*
X134518400Y-100681600D02*
X133768400Y-100681600D01*
X133510400Y-100939600D02*
X133096000Y-100939600D01*
X109073201Y-102520001D02*
X108712000Y-102158800D01*
X109899600Y-102520000D02*
X111099600Y-102520000D01*
X109073201Y-102520001D02*
X109899600Y-102520000D01*
%TO.N,/I2C_SCL_1V8*%
X109241600Y-101520000D02*
X108254800Y-100533200D01*
X133097200Y-103681600D02*
X133096000Y-103682800D01*
X134518400Y-103681600D02*
X133097200Y-103681600D01*
X109241600Y-101520000D02*
X111099600Y-101520000D01*
D24*
%TO.N,+3V3*%
X119542800Y-106019600D02*
X118567200Y-106019600D01*
X118567200Y-106019600D02*
X116067601Y-103520001D01*
X112399600Y-103520000D02*
X111099600Y-103520000D01*
X116067601Y-103520001D02*
X112399600Y-103520000D01*
D25*
%TO.N,/CSI_CLK_P*%
X134518400Y-96681600D02*
X132241600Y-96681600D01*
X132241600Y-96681600D02*
X131572000Y-96012000D01*
X131572000Y-96012000D02*
X131572000Y-96012000D01*
D22*
X113690400Y-96977200D02*
X114300000Y-96977200D01*
X113147599Y-97520001D02*
X113690400Y-96977200D01*
X112299600Y-97520000D02*
X111099600Y-97520000D01*
X113147599Y-97520001D02*
X112299600Y-97520000D01*
D25*
%TO.N,/CSI_CLK_N*%
X113792000Y-95961200D02*
X113792000Y-95961200D01*
X134518400Y-96181600D02*
X133214800Y-96181600D01*
X133214800Y-96181600D02*
X132537200Y-95504000D01*
X132537200Y-95504000D02*
X132537200Y-95504000D01*
D22*
X113233200Y-96520000D02*
X110909100Y-96520000D01*
X113792000Y-95961200D02*
X113233200Y-96520000D01*
%TO.N,/CSI_D1_P*%
X112414051Y-94520001D02*
X112689051Y-94245001D01*
X133693399Y-99681600D02*
X134518400Y-99681600D01*
X122046000Y-99656600D02*
X133668399Y-99656600D01*
X133668399Y-99656600D02*
X133693399Y-99681600D01*
X116634401Y-94245001D02*
X122046000Y-99656600D01*
X112689051Y-94245001D02*
X116634401Y-94245001D01*
X112299600Y-94520000D02*
X111099600Y-94520000D01*
X112414051Y-94520001D02*
X112299600Y-94520000D01*
%TO.N,/CSI_D1_N*%
X112689051Y-93795001D02*
X116820801Y-93795001D01*
X133693399Y-99181600D02*
X134518400Y-99181600D01*
X112414051Y-93520001D02*
X112689051Y-93795001D01*
X122232400Y-99206600D02*
X133668399Y-99206600D01*
X116820801Y-93795001D02*
X122232400Y-99206600D01*
X133668399Y-99206600D02*
X133693399Y-99181600D01*
X112299600Y-93520000D02*
X111099600Y-93520000D01*
X112414051Y-93520001D02*
X112299600Y-93520000D01*
%TO.N,/CSI_D0_P*%
X133693399Y-98181600D02*
X134518400Y-98181600D01*
X133668399Y-98156600D02*
X133693399Y-98181600D01*
X118765201Y-91245001D02*
X125676800Y-98156600D01*
X125676800Y-98156600D02*
X133668399Y-98156600D01*
X112689050Y-91245001D02*
X118765201Y-91245001D01*
X112414051Y-91520000D02*
X112689050Y-91245001D01*
X112414051Y-91520000D02*
X111099600Y-91520000D01*
%TO.N,/CSI_D0_N*%
X125863200Y-97706600D02*
X133668399Y-97706600D01*
X112689050Y-90795001D02*
X118951601Y-90795001D01*
X118951601Y-90795001D02*
X125863200Y-97706600D01*
X112414051Y-90520002D02*
X112689050Y-90795001D01*
X133668399Y-97706600D02*
X133693399Y-97681600D01*
X133693399Y-97681600D02*
X134518400Y-97681600D01*
X111099602Y-90520002D02*
X111099600Y-90520000D01*
X112414051Y-90520002D02*
X111099602Y-90520002D01*
%TO.N,Net-(C2-Pad1)*%
X128205101Y-109408001D02*
X128220300Y-109423200D01*
X126701550Y-109408001D02*
X128205101Y-109408001D01*
D25*
%TO.N,+1V8*%
X125272800Y-103405798D02*
X125272800Y-103090800D01*
X125104700Y-102922700D02*
X125272800Y-103090800D01*
X122783600Y-102922700D02*
X125104700Y-102922700D01*
X125272800Y-103090800D02*
X126542800Y-104360800D01*
X126542800Y-104360800D02*
X126542800Y-106222800D01*
X126701550Y-106381550D02*
X126701550Y-107507999D01*
X126542800Y-106222800D02*
X126701550Y-106381550D01*
X128205101Y-107507999D02*
X128220300Y-107492800D01*
X126701550Y-107507999D02*
X128205101Y-107507999D01*
X126701550Y-107507999D02*
X126701550Y-107892850D01*
X126339600Y-108254800D02*
X125577600Y-108254800D01*
X126701550Y-107892850D02*
X126339600Y-108254800D01*
D22*
%TO.N,Net-(J1-Pad12)*%
X131724400Y-105408100D02*
X131724400Y-106578400D01*
X113792000Y-101498400D02*
X113792000Y-102108000D01*
X112813602Y-100520002D02*
X113792000Y-101498400D01*
X111099602Y-100520002D02*
X111099600Y-100520000D01*
X112813602Y-100520002D02*
X111099602Y-100520002D01*
%TO.N,Net-(R1-Pad1)*%
X123326700Y-105290800D02*
X122783600Y-104747700D01*
X125272800Y-105290800D02*
X123326700Y-105290800D01*
%TO.N,Net-(R2-Pad2)*%
X129708100Y-103090800D02*
X130200400Y-103583100D01*
X127812800Y-103090800D02*
X129708100Y-103090800D01*
%TD*%
D26*
%TO.N,GND*%
X116419220Y-76949762D02*
X116393388Y-77034918D01*
X116381128Y-77159400D01*
X116384200Y-78373650D01*
X116542950Y-78532400D01*
X117942200Y-78532400D01*
X117942200Y-78512400D01*
X118196200Y-78512400D01*
X118196200Y-78532400D01*
X119595450Y-78532400D01*
X119754200Y-78373650D01*
X119757272Y-77159400D01*
X119745012Y-77034918D01*
X119719255Y-76950007D01*
X124019048Y-76950327D01*
X123993388Y-77034918D01*
X123981128Y-77159400D01*
X123984200Y-78373650D01*
X124142950Y-78532400D01*
X125542200Y-78532400D01*
X125542200Y-78512400D01*
X125796200Y-78512400D01*
X125796200Y-78532400D01*
X127195450Y-78532400D01*
X127354200Y-78373650D01*
X127357272Y-77159400D01*
X127345012Y-77034918D01*
X127319426Y-76950572D01*
X137499115Y-76951330D01*
X137110473Y-77211012D01*
X136715592Y-77605893D01*
X136405336Y-78070224D01*
X136191628Y-78586161D01*
X136082680Y-79133877D01*
X136082680Y-79692323D01*
X136191628Y-80240039D01*
X136405336Y-80755976D01*
X136715592Y-81220307D01*
X137110473Y-81615188D01*
X137574804Y-81925444D01*
X138090741Y-82139152D01*
X138638457Y-82248100D01*
X139196903Y-82248100D01*
X139744619Y-82139152D01*
X140260556Y-81925444D01*
X140724887Y-81615188D01*
X141119768Y-81220307D01*
X141430024Y-80755976D01*
X141453001Y-80700505D01*
X141453000Y-90780000D01*
X139986419Y-90780000D01*
X139954000Y-90776807D01*
X139824617Y-90789550D01*
X139700207Y-90827290D01*
X139585550Y-90888575D01*
X139485052Y-90971052D01*
X139402575Y-91071550D01*
X139341290Y-91186207D01*
X139303550Y-91310617D01*
X139290807Y-91440000D01*
X139294000Y-91472418D01*
X139294001Y-109212971D01*
X139290807Y-109245400D01*
X139303550Y-109374783D01*
X139341290Y-109499193D01*
X139402575Y-109613850D01*
X139485052Y-109714348D01*
X139585550Y-109796825D01*
X139700207Y-109858110D01*
X139824617Y-109895850D01*
X139921581Y-109905400D01*
X139954000Y-109908593D01*
X139986419Y-109905400D01*
X141453000Y-109905400D01*
X141453001Y-112202335D01*
X141430024Y-112146864D01*
X141119768Y-111682533D01*
X140724887Y-111287652D01*
X140260556Y-110977396D01*
X139744619Y-110763688D01*
X139196903Y-110654740D01*
X138638457Y-110654740D01*
X138369276Y-110708284D01*
X138394212Y-110626082D01*
X138406472Y-110501600D01*
X138403400Y-109637350D01*
X138244650Y-109478600D01*
X136345400Y-109478600D01*
X136345400Y-110977850D01*
X136504150Y-111136600D01*
X137333522Y-111138615D01*
X137110473Y-111287652D01*
X136715592Y-111682533D01*
X136405336Y-112146864D01*
X136191628Y-112662801D01*
X136082680Y-113210517D01*
X136082680Y-113768963D01*
X136191628Y-114316679D01*
X136405336Y-114832616D01*
X136715592Y-115296947D01*
X137110473Y-115691828D01*
X137574804Y-116002084D01*
X137844721Y-116113887D01*
X127344025Y-116113101D01*
X127355012Y-116076882D01*
X127367272Y-115952400D01*
X127364200Y-114738150D01*
X127205450Y-114579400D01*
X125806200Y-114579400D01*
X125806200Y-114599400D01*
X125552200Y-114599400D01*
X125552200Y-114579400D01*
X124152950Y-114579400D01*
X123994200Y-114738150D01*
X123991128Y-115952400D01*
X124003388Y-116076882D01*
X124014299Y-116112852D01*
X119744198Y-116112533D01*
X119755012Y-116076882D01*
X119767272Y-115952400D01*
X119764200Y-114738150D01*
X119605450Y-114579400D01*
X118206200Y-114579400D01*
X118206200Y-114599400D01*
X117952200Y-114599400D01*
X117952200Y-114579400D01*
X116552950Y-114579400D01*
X116394200Y-114738150D01*
X116391128Y-115952400D01*
X116403388Y-116076882D01*
X116414127Y-116112283D01*
X106158484Y-116111516D01*
X106422676Y-116002084D01*
X106887007Y-115691828D01*
X107281888Y-115296947D01*
X107592144Y-114832616D01*
X107805852Y-114316679D01*
X107914800Y-113768963D01*
X107914800Y-113210517D01*
X107863458Y-112952400D01*
X116391128Y-112952400D01*
X116394200Y-114166650D01*
X116552950Y-114325400D01*
X117952200Y-114325400D01*
X117952200Y-112476150D01*
X118206200Y-112476150D01*
X118206200Y-114325400D01*
X119605450Y-114325400D01*
X119764200Y-114166650D01*
X119767272Y-112952400D01*
X119755012Y-112827918D01*
X119729814Y-112744852D01*
X119778015Y-112803585D01*
X119874706Y-112882937D01*
X119985020Y-112941902D01*
X120104718Y-112978212D01*
X120229200Y-112990472D01*
X120343450Y-112987400D01*
X120502200Y-112828650D01*
X120502200Y-111679400D01*
X119752950Y-111679400D01*
X119594200Y-111838150D01*
X119591128Y-112352400D01*
X119603388Y-112476882D01*
X119628586Y-112559948D01*
X119580385Y-112501215D01*
X119483694Y-112421863D01*
X119373380Y-112362898D01*
X119253682Y-112326588D01*
X119129200Y-112314328D01*
X118364950Y-112317400D01*
X118206200Y-112476150D01*
X117952200Y-112476150D01*
X117793450Y-112317400D01*
X117029200Y-112314328D01*
X116904718Y-112326588D01*
X116785020Y-112362898D01*
X116674706Y-112421863D01*
X116578015Y-112501215D01*
X116498663Y-112597906D01*
X116439698Y-112708220D01*
X116403388Y-112827918D01*
X116391128Y-112952400D01*
X107863458Y-112952400D01*
X107805852Y-112662801D01*
X107592144Y-112146864D01*
X107281888Y-111682533D01*
X106887007Y-111287652D01*
X106422676Y-110977396D01*
X105906739Y-110763688D01*
X105849991Y-110752400D01*
X119591128Y-110752400D01*
X119594200Y-111266650D01*
X119752950Y-111425400D01*
X120502200Y-111425400D01*
X120502200Y-110276150D01*
X120343450Y-110117400D01*
X120229200Y-110114328D01*
X120104718Y-110126588D01*
X119985020Y-110162898D01*
X119874706Y-110221863D01*
X119778015Y-110301215D01*
X119698663Y-110397906D01*
X119639698Y-110508220D01*
X119603388Y-110627918D01*
X119591128Y-110752400D01*
X105849991Y-110752400D01*
X105359023Y-110654740D01*
X104800577Y-110654740D01*
X104252861Y-110763688D01*
X103736924Y-110977396D01*
X103272593Y-111287652D01*
X102877712Y-111682533D01*
X102567456Y-112146864D01*
X102353748Y-112662801D01*
X102338491Y-112739504D01*
X102352240Y-107850000D01*
X105861528Y-107850000D01*
X105873788Y-107974482D01*
X105910098Y-108094180D01*
X105969063Y-108204494D01*
X106048415Y-108301185D01*
X106145106Y-108380537D01*
X106255420Y-108439502D01*
X106375118Y-108475812D01*
X106499600Y-108488072D01*
X108013850Y-108485000D01*
X108172600Y-108326250D01*
X108172600Y-106637000D01*
X108426600Y-106637000D01*
X108426600Y-108326250D01*
X108585350Y-108485000D01*
X110099600Y-108488072D01*
X110224082Y-108475812D01*
X110343780Y-108439502D01*
X110454094Y-108380537D01*
X110550785Y-108301185D01*
X110630137Y-108204494D01*
X110689102Y-108094180D01*
X110725412Y-107974482D01*
X110737672Y-107850000D01*
X110734600Y-106795750D01*
X110575850Y-106637000D01*
X108426600Y-106637000D01*
X108172600Y-106637000D01*
X106023350Y-106637000D01*
X105864600Y-106795750D01*
X105861528Y-107850000D01*
X102352240Y-107850000D01*
X102359746Y-105181000D01*
X104640981Y-105181000D01*
X104673400Y-105184193D01*
X104705819Y-105181000D01*
X104802783Y-105171450D01*
X104807562Y-105170000D01*
X105861528Y-105170000D01*
X105864600Y-106224250D01*
X106023350Y-106383000D01*
X108172600Y-106383000D01*
X108172600Y-104693750D01*
X108426600Y-104693750D01*
X108426600Y-106383000D01*
X110575850Y-106383000D01*
X110734600Y-106224250D01*
X110737672Y-105170000D01*
X110725412Y-105045518D01*
X110689102Y-104925820D01*
X110630137Y-104815506D01*
X110550785Y-104718815D01*
X110454094Y-104639463D01*
X110343780Y-104580498D01*
X110224082Y-104544188D01*
X110099600Y-104531928D01*
X108585350Y-104535000D01*
X108426600Y-104693750D01*
X108172600Y-104693750D01*
X108013850Y-104535000D01*
X106499600Y-104531928D01*
X106375118Y-104544188D01*
X106255420Y-104580498D01*
X106145106Y-104639463D01*
X106048415Y-104718815D01*
X105969063Y-104815506D01*
X105910098Y-104925820D01*
X105873788Y-105045518D01*
X105861528Y-105170000D01*
X104807562Y-105170000D01*
X104927193Y-105133710D01*
X105041850Y-105072425D01*
X105142348Y-104989948D01*
X105224825Y-104889450D01*
X105286110Y-104774793D01*
X105323850Y-104650383D01*
X105336593Y-104521000D01*
X105333400Y-104488581D01*
X105333400Y-100431261D01*
X107219800Y-100431261D01*
X107219800Y-100635139D01*
X107259574Y-100835098D01*
X107337595Y-101023456D01*
X107450863Y-101192974D01*
X107595026Y-101337137D01*
X107764544Y-101450405D01*
X107902397Y-101507506D01*
X107794795Y-101668544D01*
X107716774Y-101856902D01*
X107677000Y-102056861D01*
X107677000Y-102260739D01*
X107716774Y-102460698D01*
X107794795Y-102649056D01*
X107908063Y-102818574D01*
X108052226Y-102962737D01*
X108221744Y-103076005D01*
X108410102Y-103154026D01*
X108610061Y-103193800D01*
X108774595Y-103193800D01*
X108790569Y-103202338D01*
X108929117Y-103244366D01*
X109037097Y-103255001D01*
X109037105Y-103255001D01*
X109073200Y-103258556D01*
X109109296Y-103255001D01*
X109461528Y-103255000D01*
X109461528Y-103825000D01*
X109473788Y-103949482D01*
X109510098Y-104069180D01*
X109569063Y-104179494D01*
X109648415Y-104276185D01*
X109745106Y-104355537D01*
X109855420Y-104414502D01*
X109975118Y-104450812D01*
X110099600Y-104463072D01*
X112099600Y-104463072D01*
X112224082Y-104450812D01*
X112343780Y-104414502D01*
X112454094Y-104355537D01*
X112515675Y-104304999D01*
X115742444Y-104305001D01*
X117984853Y-106547410D01*
X118009436Y-106577364D01*
X118128967Y-106675462D01*
X118229056Y-106728960D01*
X118265340Y-106748354D01*
X118413313Y-106793242D01*
X118488226Y-106800620D01*
X118528639Y-106804600D01*
X118528644Y-106804600D01*
X118542532Y-106805968D01*
X118571302Y-106859792D01*
X118625758Y-106941291D01*
X118705110Y-107037982D01*
X118774418Y-107107290D01*
X118871109Y-107186642D01*
X118952608Y-107241098D01*
X119062925Y-107300064D01*
X119153481Y-107337573D01*
X119273177Y-107373882D01*
X119369310Y-107393004D01*
X119493791Y-107405264D01*
X119518350Y-107405264D01*
X119542800Y-107407672D01*
X120042800Y-107407672D01*
X120167282Y-107395412D01*
X120192800Y-107387671D01*
X120218318Y-107395412D01*
X120342800Y-107407672D01*
X120842800Y-107407672D01*
X120867250Y-107405264D01*
X120891809Y-107405264D01*
X121016290Y-107393004D01*
X121094200Y-107377507D01*
X121094201Y-110120730D01*
X121029200Y-110114328D01*
X120914950Y-110117400D01*
X120756200Y-110276150D01*
X120756200Y-111425400D01*
X120776200Y-111425400D01*
X120776200Y-111679400D01*
X120756200Y-111679400D01*
X120756200Y-112828650D01*
X120914950Y-112987400D01*
X121029200Y-112990472D01*
X121153682Y-112978212D01*
X121254200Y-112947720D01*
X121354718Y-112978212D01*
X121479200Y-112990472D01*
X122279200Y-112990472D01*
X122403682Y-112978212D01*
X122504200Y-112947720D01*
X122604718Y-112978212D01*
X122729200Y-112990472D01*
X123529200Y-112990472D01*
X123653682Y-112978212D01*
X123773380Y-112941902D01*
X123883694Y-112882937D01*
X123980385Y-112803585D01*
X124028586Y-112744852D01*
X124003388Y-112827918D01*
X123991128Y-112952400D01*
X123994200Y-114166650D01*
X124152950Y-114325400D01*
X125552200Y-114325400D01*
X125552200Y-114305400D01*
X125806200Y-114305400D01*
X125806200Y-114325400D01*
X127205450Y-114325400D01*
X127364200Y-114166650D01*
X127367272Y-112952400D01*
X127355012Y-112827918D01*
X127318702Y-112708220D01*
X127259737Y-112597906D01*
X127180385Y-112501215D01*
X127083694Y-112421863D01*
X126973380Y-112362898D01*
X126889324Y-112337400D01*
X131791847Y-112337400D01*
X131830400Y-112341197D01*
X131868953Y-112337400D01*
X131868961Y-112337400D01*
X131984287Y-112326041D01*
X132132260Y-112281154D01*
X132268633Y-112208262D01*
X132388164Y-112110164D01*
X132412747Y-112080210D01*
X133928617Y-110564341D01*
X133958564Y-110539764D01*
X134030504Y-110452106D01*
X134030328Y-110501600D01*
X134042588Y-110626082D01*
X134078898Y-110745780D01*
X134137863Y-110856094D01*
X134217215Y-110952785D01*
X134313906Y-111032137D01*
X134424220Y-111091102D01*
X134543918Y-111127412D01*
X134668400Y-111139672D01*
X135932650Y-111136600D01*
X136091400Y-110977850D01*
X136091400Y-109478600D01*
X136071400Y-109478600D01*
X136071400Y-109224600D01*
X136091400Y-109224600D01*
X136091400Y-107725350D01*
X136345400Y-107725350D01*
X136345400Y-109224600D01*
X138244650Y-109224600D01*
X138403400Y-109065850D01*
X138406472Y-108201600D01*
X138394212Y-108077118D01*
X138357902Y-107957420D01*
X138298937Y-107847106D01*
X138219585Y-107750415D01*
X138122894Y-107671063D01*
X138012580Y-107612098D01*
X137892882Y-107575788D01*
X137768400Y-107563528D01*
X136504150Y-107566600D01*
X136345400Y-107725350D01*
X136091400Y-107725350D01*
X135932650Y-107566600D01*
X135706472Y-107566050D01*
X135706472Y-107531600D01*
X135696623Y-107431600D01*
X135706472Y-107331600D01*
X135706472Y-107031600D01*
X135696623Y-106931600D01*
X135706472Y-106831600D01*
X135706472Y-106531600D01*
X135696245Y-106427759D01*
X135703400Y-106363350D01*
X135671153Y-106331103D01*
X135657902Y-106287420D01*
X135600810Y-106180611D01*
X135653335Y-106086525D01*
X135670837Y-106032413D01*
X135703400Y-105999850D01*
X135695818Y-105931600D01*
X135703400Y-105863350D01*
X135670837Y-105830787D01*
X135653335Y-105776675D01*
X135600258Y-105681600D01*
X135653335Y-105586525D01*
X135670837Y-105532413D01*
X135703400Y-105499850D01*
X135695818Y-105431600D01*
X135703400Y-105363350D01*
X135670837Y-105330787D01*
X135653335Y-105276675D01*
X135600810Y-105182589D01*
X135657902Y-105075780D01*
X135671153Y-105032097D01*
X135703400Y-104999850D01*
X135696245Y-104935441D01*
X135706472Y-104831600D01*
X135706472Y-104531600D01*
X135696623Y-104431600D01*
X135706472Y-104331600D01*
X135706472Y-104031600D01*
X135696623Y-103931600D01*
X135706472Y-103831600D01*
X135706472Y-103531600D01*
X135696623Y-103431600D01*
X135706472Y-103331600D01*
X135706472Y-103031600D01*
X135696623Y-102931600D01*
X135706472Y-102831600D01*
X135706472Y-102531600D01*
X135696623Y-102431600D01*
X135706472Y-102331600D01*
X135706472Y-102031600D01*
X135697608Y-101941600D01*
X136626678Y-101941600D01*
X136664000Y-101945276D01*
X136701322Y-101941600D01*
X136701333Y-101941600D01*
X136812986Y-101930603D01*
X136956247Y-101887146D01*
X137088276Y-101816574D01*
X137204001Y-101721601D01*
X137227804Y-101692597D01*
X138941003Y-99979399D01*
X138970001Y-99955601D01*
X139010736Y-99905965D01*
X139064974Y-99839877D01*
X139135546Y-99707847D01*
X139140846Y-99690374D01*
X139179003Y-99564586D01*
X139190000Y-99452933D01*
X139190000Y-99452924D01*
X139193676Y-99415601D01*
X139190000Y-99378278D01*
X139190000Y-85787722D01*
X139193676Y-85750399D01*
X139190000Y-85713076D01*
X139190000Y-85713067D01*
X139179003Y-85601414D01*
X139135546Y-85458153D01*
X139064975Y-85326125D01*
X139064974Y-85326123D01*
X138993799Y-85239397D01*
X138970001Y-85210399D01*
X138941004Y-85186602D01*
X134802804Y-81048403D01*
X134779001Y-81019399D01*
X134663276Y-80924426D01*
X134531247Y-80853854D01*
X134387986Y-80810397D01*
X134276333Y-80799400D01*
X134276322Y-80799400D01*
X134239000Y-80795724D01*
X134201678Y-80799400D01*
X124157272Y-80799400D01*
X124157272Y-80759400D01*
X124145012Y-80634918D01*
X124119814Y-80551852D01*
X124168015Y-80610585D01*
X124264706Y-80689937D01*
X124375020Y-80748902D01*
X124494718Y-80785212D01*
X124619200Y-80797472D01*
X125383450Y-80794400D01*
X125542200Y-80635650D01*
X125542200Y-78786400D01*
X125796200Y-78786400D01*
X125796200Y-80635650D01*
X125954950Y-80794400D01*
X126719200Y-80797472D01*
X126843682Y-80785212D01*
X126963380Y-80748902D01*
X127073694Y-80689937D01*
X127170385Y-80610585D01*
X127249737Y-80513894D01*
X127308702Y-80403580D01*
X127345012Y-80283882D01*
X127357272Y-80159400D01*
X127354200Y-78945150D01*
X127195450Y-78786400D01*
X125796200Y-78786400D01*
X125542200Y-78786400D01*
X124142950Y-78786400D01*
X123984200Y-78945150D01*
X123981128Y-80159400D01*
X123993388Y-80283882D01*
X124018586Y-80366948D01*
X123970385Y-80308215D01*
X123873694Y-80228863D01*
X123763380Y-80169898D01*
X123643682Y-80133588D01*
X123519200Y-80121328D01*
X122719200Y-80121328D01*
X122594718Y-80133588D01*
X122494200Y-80164080D01*
X122393682Y-80133588D01*
X122269200Y-80121328D01*
X121469200Y-80121328D01*
X121344718Y-80133588D01*
X121244200Y-80164080D01*
X121143682Y-80133588D01*
X121019200Y-80121328D01*
X120904950Y-80124400D01*
X120746200Y-80283150D01*
X120746200Y-81432400D01*
X120766200Y-81432400D01*
X120766200Y-81686400D01*
X120746200Y-81686400D01*
X120746200Y-82835650D01*
X120904950Y-82994400D01*
X121019200Y-82997472D01*
X121143682Y-82985212D01*
X121244200Y-82954720D01*
X121344718Y-82985212D01*
X121469200Y-82997472D01*
X122269200Y-82997472D01*
X122393682Y-82985212D01*
X122494200Y-82954720D01*
X122594718Y-82985212D01*
X122719200Y-82997472D01*
X123519200Y-82997472D01*
X123643682Y-82985212D01*
X123763380Y-82948902D01*
X123873694Y-82889937D01*
X123970385Y-82810585D01*
X124049737Y-82713894D01*
X124108702Y-82603580D01*
X124145012Y-82483882D01*
X124157272Y-82359400D01*
X124157272Y-82319400D01*
X133924199Y-82319400D01*
X137670000Y-86065202D01*
X137670000Y-89723767D01*
X136504150Y-89726600D01*
X136345400Y-89885350D01*
X136345400Y-91384600D01*
X136365400Y-91384600D01*
X136365400Y-91638600D01*
X136345400Y-91638600D01*
X136345400Y-93137850D01*
X136504150Y-93296600D01*
X137670001Y-93299433D01*
X137670001Y-99100797D01*
X136349199Y-100421600D01*
X135696929Y-100421600D01*
X135703400Y-100363350D01*
X135671153Y-100331103D01*
X135657902Y-100287420D01*
X135601339Y-100181600D01*
X135657902Y-100075780D01*
X135671153Y-100032097D01*
X135703400Y-99999850D01*
X135696245Y-99935441D01*
X135706472Y-99831600D01*
X135706472Y-99531600D01*
X135696623Y-99431600D01*
X135706472Y-99331600D01*
X135706472Y-99031600D01*
X135696245Y-98927759D01*
X135703400Y-98863350D01*
X135671153Y-98831103D01*
X135657902Y-98787420D01*
X135601339Y-98681600D01*
X135657902Y-98575780D01*
X135671153Y-98532097D01*
X135703400Y-98499850D01*
X135696245Y-98435441D01*
X135706472Y-98331600D01*
X135706472Y-98031600D01*
X135696623Y-97931600D01*
X135706472Y-97831600D01*
X135706472Y-97531600D01*
X135696245Y-97427759D01*
X135703400Y-97363350D01*
X135671153Y-97331103D01*
X135657902Y-97287420D01*
X135601339Y-97181600D01*
X135657902Y-97075780D01*
X135671153Y-97032097D01*
X135703400Y-96999850D01*
X135696245Y-96935441D01*
X135706472Y-96831600D01*
X135706472Y-96531600D01*
X135696623Y-96431600D01*
X135706472Y-96331600D01*
X135706472Y-96031600D01*
X135696245Y-95927759D01*
X135703400Y-95863350D01*
X135671153Y-95831103D01*
X135657902Y-95787420D01*
X135601339Y-95681600D01*
X135657902Y-95575780D01*
X135671153Y-95532097D01*
X135703400Y-95499850D01*
X135696245Y-95435441D01*
X135706472Y-95331600D01*
X135706472Y-95031600D01*
X135696623Y-94931600D01*
X135706472Y-94831600D01*
X135706472Y-94531600D01*
X135696245Y-94427759D01*
X135703400Y-94363350D01*
X135671153Y-94331103D01*
X135657902Y-94287420D01*
X135601339Y-94181600D01*
X135657902Y-94075780D01*
X135671153Y-94032097D01*
X135703400Y-93999850D01*
X135696245Y-93935441D01*
X135706472Y-93831600D01*
X135706472Y-93531600D01*
X135696623Y-93431600D01*
X135706472Y-93331600D01*
X135706472Y-93297150D01*
X135932650Y-93296600D01*
X136091400Y-93137850D01*
X136091400Y-91638600D01*
X134192150Y-91638600D01*
X134033400Y-91797350D01*
X134031281Y-92393528D01*
X133968400Y-92393528D01*
X133843918Y-92405788D01*
X133724220Y-92442098D01*
X133613906Y-92501063D01*
X133517215Y-92580415D01*
X133437863Y-92677106D01*
X133378898Y-92787420D01*
X133342588Y-92907118D01*
X133330328Y-93031600D01*
X133330328Y-93331600D01*
X133340177Y-93431600D01*
X133330328Y-93531600D01*
X133330328Y-93831600D01*
X133340555Y-93935441D01*
X133333400Y-93999850D01*
X133365647Y-94032097D01*
X133378898Y-94075780D01*
X133435461Y-94181600D01*
X133378898Y-94287420D01*
X133365647Y-94331103D01*
X133333400Y-94363350D01*
X133340555Y-94427759D01*
X133330328Y-94531600D01*
X133330328Y-94831600D01*
X133330527Y-94833616D01*
X133196974Y-94700063D01*
X133027456Y-94586795D01*
X132839098Y-94508774D01*
X132639139Y-94469000D01*
X132435261Y-94469000D01*
X132235302Y-94508774D01*
X132046944Y-94586795D01*
X131877426Y-94700063D01*
X131733263Y-94844226D01*
X131644546Y-94977000D01*
X131470061Y-94977000D01*
X131270102Y-95016774D01*
X131081744Y-95094795D01*
X130912226Y-95208063D01*
X130768063Y-95352226D01*
X130654795Y-95521744D01*
X130576774Y-95710102D01*
X130537000Y-95910061D01*
X130537000Y-96113939D01*
X130576774Y-96313898D01*
X130654795Y-96502256D01*
X130768063Y-96671774D01*
X130912226Y-96815937D01*
X131081744Y-96929205D01*
X131184094Y-96971600D01*
X126167647Y-96971600D01*
X119557647Y-90361600D01*
X134030328Y-90361600D01*
X134033400Y-91225850D01*
X134192150Y-91384600D01*
X136091400Y-91384600D01*
X136091400Y-89885350D01*
X135932650Y-89726600D01*
X134668400Y-89723528D01*
X134543918Y-89735788D01*
X134424220Y-89772098D01*
X134313906Y-89831063D01*
X134217215Y-89910415D01*
X134137863Y-90007106D01*
X134078898Y-90117420D01*
X134042588Y-90237118D01*
X134030328Y-90361600D01*
X119557647Y-90361600D01*
X119496860Y-90300814D01*
X119473839Y-90272763D01*
X119361921Y-90180914D01*
X119234234Y-90112664D01*
X119095686Y-90070636D01*
X118987706Y-90060001D01*
X118951601Y-90056445D01*
X118915496Y-90060001D01*
X112993496Y-90060001D01*
X112959310Y-90025815D01*
X112936289Y-89997764D01*
X112824371Y-89905915D01*
X112734437Y-89857844D01*
X112737672Y-89825000D01*
X112734600Y-89805750D01*
X112575850Y-89647000D01*
X112384007Y-89647000D01*
X112343780Y-89625498D01*
X112224082Y-89589188D01*
X112099600Y-89576928D01*
X110099600Y-89576928D01*
X109975118Y-89589188D01*
X109855420Y-89625498D01*
X109815193Y-89647000D01*
X109623350Y-89647000D01*
X109464600Y-89805750D01*
X109461528Y-89825000D01*
X109473788Y-89949482D01*
X109495179Y-90020000D01*
X109473788Y-90090518D01*
X109461528Y-90215000D01*
X109461528Y-90825000D01*
X109473788Y-90949482D01*
X109495179Y-91020000D01*
X109473788Y-91090518D01*
X109461528Y-91215000D01*
X109461528Y-91825000D01*
X109473788Y-91949482D01*
X109495179Y-92020000D01*
X109473788Y-92090518D01*
X109461528Y-92215000D01*
X109464600Y-92234250D01*
X109623350Y-92393000D01*
X109815193Y-92393000D01*
X109855420Y-92414502D01*
X109975118Y-92450812D01*
X110099600Y-92463072D01*
X112099600Y-92463072D01*
X112224082Y-92450812D01*
X112343780Y-92414502D01*
X112384007Y-92393000D01*
X112575850Y-92393000D01*
X112734600Y-92234250D01*
X112737672Y-92215000D01*
X112734437Y-92182157D01*
X112824371Y-92134087D01*
X112936289Y-92042238D01*
X112959310Y-92014187D01*
X112993496Y-91980001D01*
X118460755Y-91980001D01*
X124952353Y-98471600D01*
X122536847Y-98471600D01*
X117366060Y-93300814D01*
X117343039Y-93272763D01*
X117231121Y-93180914D01*
X117103434Y-93112664D01*
X116964886Y-93070636D01*
X116856906Y-93060001D01*
X116820801Y-93056445D01*
X116784696Y-93060001D01*
X112993497Y-93060001D01*
X112959306Y-93025810D01*
X112936293Y-92997768D01*
X112824376Y-92905918D01*
X112734437Y-92857844D01*
X112737672Y-92825000D01*
X112734600Y-92805750D01*
X112575850Y-92647000D01*
X112384007Y-92647000D01*
X112343780Y-92625498D01*
X112224082Y-92589188D01*
X112099600Y-92576928D01*
X110099600Y-92576928D01*
X109975118Y-92589188D01*
X109855420Y-92625498D01*
X109815193Y-92647000D01*
X109623350Y-92647000D01*
X109464600Y-92805750D01*
X109461528Y-92825000D01*
X109473788Y-92949482D01*
X109495179Y-93020000D01*
X109473788Y-93090518D01*
X109461528Y-93215000D01*
X109461528Y-93825000D01*
X109473788Y-93949482D01*
X109495179Y-94020000D01*
X109473788Y-94090518D01*
X109461528Y-94215000D01*
X109461528Y-94825000D01*
X109473788Y-94949482D01*
X109495179Y-95020000D01*
X109473788Y-95090518D01*
X109461528Y-95215000D01*
X109464600Y-95234250D01*
X109623350Y-95393000D01*
X109815193Y-95393000D01*
X109855420Y-95414502D01*
X109975118Y-95450812D01*
X110099600Y-95463072D01*
X112099600Y-95463072D01*
X112224082Y-95450812D01*
X112343780Y-95414502D01*
X112384007Y-95393000D01*
X112575850Y-95393000D01*
X112734600Y-95234250D01*
X112737672Y-95215000D01*
X112734437Y-95182158D01*
X112824365Y-95134091D01*
X112936284Y-95042243D01*
X112959303Y-95014195D01*
X112993497Y-94980001D01*
X113456238Y-94980001D01*
X113301744Y-95043995D01*
X113132226Y-95157263D01*
X112988063Y-95301426D01*
X112874795Y-95470944D01*
X112796774Y-95659302D01*
X112771771Y-95785000D01*
X112713850Y-95785000D01*
X112575850Y-95647000D01*
X112384007Y-95647000D01*
X112343780Y-95625498D01*
X112224082Y-95589188D01*
X112099600Y-95576928D01*
X110099600Y-95576928D01*
X109975118Y-95589188D01*
X109855420Y-95625498D01*
X109815193Y-95647000D01*
X109623350Y-95647000D01*
X109464600Y-95805750D01*
X109461528Y-95825000D01*
X109473788Y-95949482D01*
X109495179Y-96020000D01*
X109473788Y-96090518D01*
X109461528Y-96215000D01*
X109461528Y-96825000D01*
X109473788Y-96949482D01*
X109495179Y-97020000D01*
X109473788Y-97090518D01*
X109461528Y-97215000D01*
X109461528Y-97825000D01*
X109473788Y-97949482D01*
X109495179Y-98020000D01*
X109473788Y-98090518D01*
X109461528Y-98215000D01*
X109464600Y-98234250D01*
X109623350Y-98393000D01*
X109815193Y-98393000D01*
X109855420Y-98414502D01*
X109975118Y-98450812D01*
X110099600Y-98463072D01*
X112099600Y-98463072D01*
X112224082Y-98450812D01*
X112343780Y-98414502D01*
X112384007Y-98393000D01*
X112575850Y-98393000D01*
X112713850Y-98255000D01*
X113111492Y-98255001D01*
X113147599Y-98258557D01*
X113291684Y-98244366D01*
X113342875Y-98228837D01*
X113430231Y-98202338D01*
X113557918Y-98134088D01*
X113669836Y-98042239D01*
X113692852Y-98014194D01*
X113811793Y-97895254D01*
X113998102Y-97972426D01*
X114198061Y-98012200D01*
X114401939Y-98012200D01*
X114601898Y-97972426D01*
X114790256Y-97894405D01*
X114959774Y-97781137D01*
X115103937Y-97636974D01*
X115217205Y-97467456D01*
X115295226Y-97279098D01*
X115335000Y-97079139D01*
X115335000Y-96875261D01*
X115295226Y-96675302D01*
X115217205Y-96486944D01*
X115103937Y-96317426D01*
X114959774Y-96173263D01*
X114823241Y-96082035D01*
X114827000Y-96063139D01*
X114827000Y-95859261D01*
X114787226Y-95659302D01*
X114709205Y-95470944D01*
X114595937Y-95301426D01*
X114451774Y-95157263D01*
X114282256Y-95043995D01*
X114127762Y-94980001D01*
X116329955Y-94980001D01*
X121500746Y-100150793D01*
X121523762Y-100178838D01*
X121595080Y-100237367D01*
X121635680Y-100270687D01*
X121763366Y-100338937D01*
X121901915Y-100380965D01*
X122046000Y-100395156D01*
X122082105Y-100391600D01*
X132217378Y-100391600D01*
X132178795Y-100449344D01*
X132100774Y-100637702D01*
X132061000Y-100837661D01*
X132061000Y-101041539D01*
X132100774Y-101241498D01*
X132178795Y-101429856D01*
X132275510Y-101574600D01*
X132178795Y-101719344D01*
X132100774Y-101907702D01*
X132061000Y-102107661D01*
X132061000Y-102266696D01*
X131965181Y-102317912D01*
X131853263Y-102409761D01*
X131830247Y-102437806D01*
X131810525Y-102457528D01*
X131486900Y-102457528D01*
X131316084Y-102474352D01*
X131151833Y-102524177D01*
X131000458Y-102605088D01*
X130962400Y-102636322D01*
X130924342Y-102605088D01*
X130772967Y-102524177D01*
X130608716Y-102474352D01*
X130437900Y-102457528D01*
X130082527Y-102457528D01*
X129990733Y-102408463D01*
X129852185Y-102366435D01*
X129744205Y-102355800D01*
X129708100Y-102352244D01*
X129671995Y-102355800D01*
X129135421Y-102355800D01*
X129102302Y-102246620D01*
X129043337Y-102136306D01*
X128963985Y-102039615D01*
X128867294Y-101960263D01*
X128756980Y-101901298D01*
X128637282Y-101864988D01*
X128512800Y-101852728D01*
X127112800Y-101852728D01*
X126988318Y-101864988D01*
X126868620Y-101901298D01*
X126758306Y-101960263D01*
X126661615Y-102039615D01*
X126582263Y-102136306D01*
X126542800Y-102210135D01*
X126503337Y-102136306D01*
X126423985Y-102039615D01*
X126327294Y-101960263D01*
X126216980Y-101901298D01*
X126097282Y-101864988D01*
X125972800Y-101852728D01*
X124572800Y-101852728D01*
X124448318Y-101864988D01*
X124328620Y-101901298D01*
X124218306Y-101960263D01*
X124121615Y-102039615D01*
X124042263Y-102136306D01*
X124028155Y-102162700D01*
X123729778Y-102162700D01*
X123640223Y-102053577D01*
X123507542Y-101944688D01*
X123356167Y-101863777D01*
X123191916Y-101813952D01*
X123021100Y-101797128D01*
X122546100Y-101797128D01*
X122375284Y-101813952D01*
X122211033Y-101863777D01*
X122059658Y-101944688D01*
X121926977Y-102053577D01*
X121818088Y-102186258D01*
X121737177Y-102337633D01*
X121687352Y-102501884D01*
X121670528Y-102672700D01*
X121670528Y-103172700D01*
X121687352Y-103343516D01*
X121737177Y-103507767D01*
X121818088Y-103659142D01*
X121926977Y-103791823D01*
X121979832Y-103835200D01*
X121926977Y-103878577D01*
X121818088Y-104011258D01*
X121737177Y-104162633D01*
X121687352Y-104326884D01*
X121670528Y-104497700D01*
X121670528Y-104991256D01*
X121611182Y-104931910D01*
X121514491Y-104852558D01*
X121432992Y-104798102D01*
X121322675Y-104739136D01*
X121232119Y-104701627D01*
X121112423Y-104665318D01*
X121016290Y-104646196D01*
X120891809Y-104633936D01*
X120867250Y-104633936D01*
X120842800Y-104631528D01*
X120342800Y-104631528D01*
X120218318Y-104643788D01*
X120192800Y-104651529D01*
X120167282Y-104643788D01*
X120042800Y-104631528D01*
X119542800Y-104631528D01*
X119518350Y-104633936D01*
X119493791Y-104633936D01*
X119369310Y-104646196D01*
X119273177Y-104665318D01*
X119153481Y-104701627D01*
X119062925Y-104739136D01*
X118952608Y-104798102D01*
X118871109Y-104852558D01*
X118774418Y-104931910D01*
X118705110Y-105001218D01*
X118684314Y-105026557D01*
X116649943Y-102992186D01*
X116625365Y-102962238D01*
X116595417Y-102937660D01*
X116595413Y-102937656D01*
X116539703Y-102891936D01*
X116505834Y-102864140D01*
X116401115Y-102808167D01*
X116369460Y-102791247D01*
X116221487Y-102746360D01*
X116067601Y-102731204D01*
X116029039Y-102735002D01*
X114617835Y-102735001D01*
X114709205Y-102598256D01*
X114787226Y-102409898D01*
X114827000Y-102209939D01*
X114827000Y-102006061D01*
X114787226Y-101806102D01*
X114748379Y-101712317D01*
X114906698Y-101680826D01*
X115095056Y-101602805D01*
X115264574Y-101489537D01*
X115408737Y-101345374D01*
X115522005Y-101175856D01*
X115600026Y-100987498D01*
X115639800Y-100787539D01*
X115639800Y-100583661D01*
X115600026Y-100383702D01*
X115522005Y-100195344D01*
X115408737Y-100025826D01*
X115264574Y-99881663D01*
X115095056Y-99768395D01*
X114906698Y-99690374D01*
X114706739Y-99650600D01*
X114609247Y-99650600D01*
X113984460Y-99025814D01*
X113961440Y-98997764D01*
X113849522Y-98905915D01*
X113721835Y-98837665D01*
X113583287Y-98795637D01*
X113475307Y-98785002D01*
X113439202Y-98781446D01*
X113403097Y-98785002D01*
X112713852Y-98785002D01*
X112575850Y-98647000D01*
X112384007Y-98647000D01*
X112343780Y-98625498D01*
X112224082Y-98589188D01*
X112099600Y-98576928D01*
X110099600Y-98576928D01*
X109975118Y-98589188D01*
X109855420Y-98625498D01*
X109815193Y-98647000D01*
X109623350Y-98647000D01*
X109464600Y-98805750D01*
X109461528Y-98825000D01*
X109473788Y-98949482D01*
X109495179Y-99020000D01*
X109473788Y-99090518D01*
X109461528Y-99215000D01*
X109461528Y-99825000D01*
X109473788Y-99949482D01*
X109495179Y-100020000D01*
X109473788Y-100090518D01*
X109461528Y-100215000D01*
X109461528Y-100700481D01*
X109289800Y-100528753D01*
X109289800Y-100431261D01*
X109250026Y-100231302D01*
X109172005Y-100042944D01*
X109058737Y-99873426D01*
X108914574Y-99729263D01*
X108745056Y-99615995D01*
X108556698Y-99537974D01*
X108356739Y-99498200D01*
X108152861Y-99498200D01*
X107952902Y-99537974D01*
X107764544Y-99615995D01*
X107595026Y-99729263D01*
X107450863Y-99873426D01*
X107337595Y-100042944D01*
X107259574Y-100231302D01*
X107219800Y-100431261D01*
X105333400Y-100431261D01*
X105333400Y-89215000D01*
X109461528Y-89215000D01*
X109464600Y-89234250D01*
X109623350Y-89393000D01*
X110972600Y-89393000D01*
X110972600Y-88738750D01*
X111226600Y-88738750D01*
X111226600Y-89393000D01*
X112575850Y-89393000D01*
X112734600Y-89234250D01*
X112737672Y-89215000D01*
X112725412Y-89090518D01*
X112689102Y-88970820D01*
X112630137Y-88860506D01*
X112550785Y-88763815D01*
X112454094Y-88684463D01*
X112343780Y-88625498D01*
X112224082Y-88589188D01*
X112099600Y-88576928D01*
X111385350Y-88580000D01*
X111226600Y-88738750D01*
X110972600Y-88738750D01*
X110813850Y-88580000D01*
X110099600Y-88576928D01*
X109975118Y-88589188D01*
X109855420Y-88625498D01*
X109745106Y-88684463D01*
X109648415Y-88763815D01*
X109569063Y-88860506D01*
X109510098Y-88970820D01*
X109473788Y-89090518D01*
X109461528Y-89215000D01*
X105333400Y-89215000D01*
X105333400Y-88551419D01*
X105336593Y-88519000D01*
X105323850Y-88389617D01*
X105286110Y-88265207D01*
X105224825Y-88150550D01*
X105142348Y-88050052D01*
X105041850Y-87967575D01*
X104927193Y-87906290D01*
X104807563Y-87870000D01*
X105861528Y-87870000D01*
X105873788Y-87994482D01*
X105910098Y-88114180D01*
X105969063Y-88224494D01*
X106048415Y-88321185D01*
X106145106Y-88400537D01*
X106255420Y-88459502D01*
X106375118Y-88495812D01*
X106499600Y-88508072D01*
X108013850Y-88505000D01*
X108172600Y-88346250D01*
X108172600Y-86657000D01*
X108426600Y-86657000D01*
X108426600Y-88346250D01*
X108585350Y-88505000D01*
X110099600Y-88508072D01*
X110224082Y-88495812D01*
X110343780Y-88459502D01*
X110454094Y-88400537D01*
X110550785Y-88321185D01*
X110630137Y-88224494D01*
X110689102Y-88114180D01*
X110725412Y-87994482D01*
X110737672Y-87870000D01*
X110734600Y-86815750D01*
X110575850Y-86657000D01*
X108426600Y-86657000D01*
X108172600Y-86657000D01*
X106023350Y-86657000D01*
X105864600Y-86815750D01*
X105861528Y-87870000D01*
X104807563Y-87870000D01*
X104802783Y-87868550D01*
X104705819Y-87859000D01*
X104673400Y-87855807D01*
X104640981Y-87859000D01*
X102362519Y-87859000D01*
X102366235Y-85190000D01*
X105861528Y-85190000D01*
X105864600Y-86244250D01*
X106023350Y-86403000D01*
X108172600Y-86403000D01*
X108172600Y-84713750D01*
X108426600Y-84713750D01*
X108426600Y-86403000D01*
X110575850Y-86403000D01*
X110734600Y-86244250D01*
X110737672Y-85190000D01*
X110725412Y-85065518D01*
X110689102Y-84945820D01*
X110630137Y-84835506D01*
X110550785Y-84738815D01*
X110454094Y-84659463D01*
X110343780Y-84600498D01*
X110224082Y-84564188D01*
X110099600Y-84551928D01*
X108585350Y-84555000D01*
X108426600Y-84713750D01*
X108172600Y-84713750D01*
X108013850Y-84555000D01*
X106499600Y-84551928D01*
X106375118Y-84564188D01*
X106255420Y-84600498D01*
X106145106Y-84659463D01*
X106048415Y-84738815D01*
X105969063Y-84835506D01*
X105910098Y-84945820D01*
X105873788Y-85065518D01*
X105861528Y-85190000D01*
X102366235Y-85190000D01*
X102370176Y-82359400D01*
X119581128Y-82359400D01*
X119593388Y-82483882D01*
X119629698Y-82603580D01*
X119688663Y-82713894D01*
X119768015Y-82810585D01*
X119864706Y-82889937D01*
X119975020Y-82948902D01*
X120094718Y-82985212D01*
X120219200Y-82997472D01*
X120333450Y-82994400D01*
X120492200Y-82835650D01*
X120492200Y-81686400D01*
X119742950Y-81686400D01*
X119584200Y-81845150D01*
X119581128Y-82359400D01*
X102370176Y-82359400D01*
X102373063Y-80286669D01*
X102567456Y-80755976D01*
X102877712Y-81220307D01*
X103272593Y-81615188D01*
X103736924Y-81925444D01*
X104252861Y-82139152D01*
X104800577Y-82248100D01*
X105359023Y-82248100D01*
X105906739Y-82139152D01*
X106422676Y-81925444D01*
X106887007Y-81615188D01*
X107281888Y-81220307D01*
X107592144Y-80755976D01*
X107805852Y-80240039D01*
X107821892Y-80159400D01*
X116381128Y-80159400D01*
X116393388Y-80283882D01*
X116429698Y-80403580D01*
X116488663Y-80513894D01*
X116568015Y-80610585D01*
X116664706Y-80689937D01*
X116775020Y-80748902D01*
X116894718Y-80785212D01*
X117019200Y-80797472D01*
X117783450Y-80794400D01*
X117942200Y-80635650D01*
X117942200Y-78786400D01*
X118196200Y-78786400D01*
X118196200Y-80635650D01*
X118354950Y-80794400D01*
X119119200Y-80797472D01*
X119243682Y-80785212D01*
X119363380Y-80748902D01*
X119473694Y-80689937D01*
X119570385Y-80610585D01*
X119618586Y-80551852D01*
X119593388Y-80634918D01*
X119581128Y-80759400D01*
X119584200Y-81273650D01*
X119742950Y-81432400D01*
X120492200Y-81432400D01*
X120492200Y-80283150D01*
X120333450Y-80124400D01*
X120219200Y-80121328D01*
X120094718Y-80133588D01*
X119975020Y-80169898D01*
X119864706Y-80228863D01*
X119768015Y-80308215D01*
X119719814Y-80366948D01*
X119745012Y-80283882D01*
X119757272Y-80159400D01*
X119754200Y-78945150D01*
X119595450Y-78786400D01*
X118196200Y-78786400D01*
X117942200Y-78786400D01*
X116542950Y-78786400D01*
X116384200Y-78945150D01*
X116381128Y-80159400D01*
X107821892Y-80159400D01*
X107914800Y-79692323D01*
X107914800Y-79133877D01*
X107805852Y-78586161D01*
X107592144Y-78070224D01*
X107281888Y-77605893D01*
X106887007Y-77211012D01*
X106494914Y-76949024D01*
X116419220Y-76949762D01*
%TA.AperFunction,Conductor*%
D27*
G36*
X116419220Y-76949762D02*
G01*
X116393388Y-77034918D01*
X116381128Y-77159400D01*
X116384200Y-78373650D01*
X116542950Y-78532400D01*
X117942200Y-78532400D01*
X117942200Y-78512400D01*
X118196200Y-78512400D01*
X118196200Y-78532400D01*
X119595450Y-78532400D01*
X119754200Y-78373650D01*
X119757272Y-77159400D01*
X119745012Y-77034918D01*
X119719255Y-76950007D01*
X124019048Y-76950327D01*
X123993388Y-77034918D01*
X123981128Y-77159400D01*
X123984200Y-78373650D01*
X124142950Y-78532400D01*
X125542200Y-78532400D01*
X125542200Y-78512400D01*
X125796200Y-78512400D01*
X125796200Y-78532400D01*
X127195450Y-78532400D01*
X127354200Y-78373650D01*
X127357272Y-77159400D01*
X127345012Y-77034918D01*
X127319426Y-76950572D01*
X137499115Y-76951330D01*
X137110473Y-77211012D01*
X136715592Y-77605893D01*
X136405336Y-78070224D01*
X136191628Y-78586161D01*
X136082680Y-79133877D01*
X136082680Y-79692323D01*
X136191628Y-80240039D01*
X136405336Y-80755976D01*
X136715592Y-81220307D01*
X137110473Y-81615188D01*
X137574804Y-81925444D01*
X138090741Y-82139152D01*
X138638457Y-82248100D01*
X139196903Y-82248100D01*
X139744619Y-82139152D01*
X140260556Y-81925444D01*
X140724887Y-81615188D01*
X141119768Y-81220307D01*
X141430024Y-80755976D01*
X141453001Y-80700505D01*
X141453000Y-90780000D01*
X139986419Y-90780000D01*
X139954000Y-90776807D01*
X139824617Y-90789550D01*
X139700207Y-90827290D01*
X139585550Y-90888575D01*
X139485052Y-90971052D01*
X139402575Y-91071550D01*
X139341290Y-91186207D01*
X139303550Y-91310617D01*
X139290807Y-91440000D01*
X139294000Y-91472418D01*
X139294001Y-109212971D01*
X139290807Y-109245400D01*
X139303550Y-109374783D01*
X139341290Y-109499193D01*
X139402575Y-109613850D01*
X139485052Y-109714348D01*
X139585550Y-109796825D01*
X139700207Y-109858110D01*
X139824617Y-109895850D01*
X139921581Y-109905400D01*
X139954000Y-109908593D01*
X139986419Y-109905400D01*
X141453000Y-109905400D01*
X141453001Y-112202335D01*
X141430024Y-112146864D01*
X141119768Y-111682533D01*
X140724887Y-111287652D01*
X140260556Y-110977396D01*
X139744619Y-110763688D01*
X139196903Y-110654740D01*
X138638457Y-110654740D01*
X138369276Y-110708284D01*
X138394212Y-110626082D01*
X138406472Y-110501600D01*
X138403400Y-109637350D01*
X138244650Y-109478600D01*
X136345400Y-109478600D01*
X136345400Y-110977850D01*
X136504150Y-111136600D01*
X137333522Y-111138615D01*
X137110473Y-111287652D01*
X136715592Y-111682533D01*
X136405336Y-112146864D01*
X136191628Y-112662801D01*
X136082680Y-113210517D01*
X136082680Y-113768963D01*
X136191628Y-114316679D01*
X136405336Y-114832616D01*
X136715592Y-115296947D01*
X137110473Y-115691828D01*
X137574804Y-116002084D01*
X137844721Y-116113887D01*
X127344025Y-116113101D01*
X127355012Y-116076882D01*
X127367272Y-115952400D01*
X127364200Y-114738150D01*
X127205450Y-114579400D01*
X125806200Y-114579400D01*
X125806200Y-114599400D01*
X125552200Y-114599400D01*
X125552200Y-114579400D01*
X124152950Y-114579400D01*
X123994200Y-114738150D01*
X123991128Y-115952400D01*
X124003388Y-116076882D01*
X124014299Y-116112852D01*
X119744198Y-116112533D01*
X119755012Y-116076882D01*
X119767272Y-115952400D01*
X119764200Y-114738150D01*
X119605450Y-114579400D01*
X118206200Y-114579400D01*
X118206200Y-114599400D01*
X117952200Y-114599400D01*
X117952200Y-114579400D01*
X116552950Y-114579400D01*
X116394200Y-114738150D01*
X116391128Y-115952400D01*
X116403388Y-116076882D01*
X116414127Y-116112283D01*
X106158484Y-116111516D01*
X106422676Y-116002084D01*
X106887007Y-115691828D01*
X107281888Y-115296947D01*
X107592144Y-114832616D01*
X107805852Y-114316679D01*
X107914800Y-113768963D01*
X107914800Y-113210517D01*
X107863458Y-112952400D01*
X116391128Y-112952400D01*
X116394200Y-114166650D01*
X116552950Y-114325400D01*
X117952200Y-114325400D01*
X117952200Y-112476150D01*
X118206200Y-112476150D01*
X118206200Y-114325400D01*
X119605450Y-114325400D01*
X119764200Y-114166650D01*
X119767272Y-112952400D01*
X119755012Y-112827918D01*
X119729814Y-112744852D01*
X119778015Y-112803585D01*
X119874706Y-112882937D01*
X119985020Y-112941902D01*
X120104718Y-112978212D01*
X120229200Y-112990472D01*
X120343450Y-112987400D01*
X120502200Y-112828650D01*
X120502200Y-111679400D01*
X119752950Y-111679400D01*
X119594200Y-111838150D01*
X119591128Y-112352400D01*
X119603388Y-112476882D01*
X119628586Y-112559948D01*
X119580385Y-112501215D01*
X119483694Y-112421863D01*
X119373380Y-112362898D01*
X119253682Y-112326588D01*
X119129200Y-112314328D01*
X118364950Y-112317400D01*
X118206200Y-112476150D01*
X117952200Y-112476150D01*
X117793450Y-112317400D01*
X117029200Y-112314328D01*
X116904718Y-112326588D01*
X116785020Y-112362898D01*
X116674706Y-112421863D01*
X116578015Y-112501215D01*
X116498663Y-112597906D01*
X116439698Y-112708220D01*
X116403388Y-112827918D01*
X116391128Y-112952400D01*
X107863458Y-112952400D01*
X107805852Y-112662801D01*
X107592144Y-112146864D01*
X107281888Y-111682533D01*
X106887007Y-111287652D01*
X106422676Y-110977396D01*
X105906739Y-110763688D01*
X105849991Y-110752400D01*
X119591128Y-110752400D01*
X119594200Y-111266650D01*
X119752950Y-111425400D01*
X120502200Y-111425400D01*
X120502200Y-110276150D01*
X120343450Y-110117400D01*
X120229200Y-110114328D01*
X120104718Y-110126588D01*
X119985020Y-110162898D01*
X119874706Y-110221863D01*
X119778015Y-110301215D01*
X119698663Y-110397906D01*
X119639698Y-110508220D01*
X119603388Y-110627918D01*
X119591128Y-110752400D01*
X105849991Y-110752400D01*
X105359023Y-110654740D01*
X104800577Y-110654740D01*
X104252861Y-110763688D01*
X103736924Y-110977396D01*
X103272593Y-111287652D01*
X102877712Y-111682533D01*
X102567456Y-112146864D01*
X102353748Y-112662801D01*
X102338491Y-112739504D01*
X102352240Y-107850000D01*
X105861528Y-107850000D01*
X105873788Y-107974482D01*
X105910098Y-108094180D01*
X105969063Y-108204494D01*
X106048415Y-108301185D01*
X106145106Y-108380537D01*
X106255420Y-108439502D01*
X106375118Y-108475812D01*
X106499600Y-108488072D01*
X108013850Y-108485000D01*
X108172600Y-108326250D01*
X108172600Y-106637000D01*
X108426600Y-106637000D01*
X108426600Y-108326250D01*
X108585350Y-108485000D01*
X110099600Y-108488072D01*
X110224082Y-108475812D01*
X110343780Y-108439502D01*
X110454094Y-108380537D01*
X110550785Y-108301185D01*
X110630137Y-108204494D01*
X110689102Y-108094180D01*
X110725412Y-107974482D01*
X110737672Y-107850000D01*
X110734600Y-106795750D01*
X110575850Y-106637000D01*
X108426600Y-106637000D01*
X108172600Y-106637000D01*
X106023350Y-106637000D01*
X105864600Y-106795750D01*
X105861528Y-107850000D01*
X102352240Y-107850000D01*
X102359746Y-105181000D01*
X104640981Y-105181000D01*
X104673400Y-105184193D01*
X104705819Y-105181000D01*
X104802783Y-105171450D01*
X104807562Y-105170000D01*
X105861528Y-105170000D01*
X105864600Y-106224250D01*
X106023350Y-106383000D01*
X108172600Y-106383000D01*
X108172600Y-104693750D01*
X108426600Y-104693750D01*
X108426600Y-106383000D01*
X110575850Y-106383000D01*
X110734600Y-106224250D01*
X110737672Y-105170000D01*
X110725412Y-105045518D01*
X110689102Y-104925820D01*
X110630137Y-104815506D01*
X110550785Y-104718815D01*
X110454094Y-104639463D01*
X110343780Y-104580498D01*
X110224082Y-104544188D01*
X110099600Y-104531928D01*
X108585350Y-104535000D01*
X108426600Y-104693750D01*
X108172600Y-104693750D01*
X108013850Y-104535000D01*
X106499600Y-104531928D01*
X106375118Y-104544188D01*
X106255420Y-104580498D01*
X106145106Y-104639463D01*
X106048415Y-104718815D01*
X105969063Y-104815506D01*
X105910098Y-104925820D01*
X105873788Y-105045518D01*
X105861528Y-105170000D01*
X104807562Y-105170000D01*
X104927193Y-105133710D01*
X105041850Y-105072425D01*
X105142348Y-104989948D01*
X105224825Y-104889450D01*
X105286110Y-104774793D01*
X105323850Y-104650383D01*
X105336593Y-104521000D01*
X105333400Y-104488581D01*
X105333400Y-100431261D01*
X107219800Y-100431261D01*
X107219800Y-100635139D01*
X107259574Y-100835098D01*
X107337595Y-101023456D01*
X107450863Y-101192974D01*
X107595026Y-101337137D01*
X107764544Y-101450405D01*
X107902397Y-101507506D01*
X107794795Y-101668544D01*
X107716774Y-101856902D01*
X107677000Y-102056861D01*
X107677000Y-102260739D01*
X107716774Y-102460698D01*
X107794795Y-102649056D01*
X107908063Y-102818574D01*
X108052226Y-102962737D01*
X108221744Y-103076005D01*
X108410102Y-103154026D01*
X108610061Y-103193800D01*
X108774595Y-103193800D01*
X108790569Y-103202338D01*
X108929117Y-103244366D01*
X109037097Y-103255001D01*
X109037105Y-103255001D01*
X109073200Y-103258556D01*
X109109296Y-103255001D01*
X109461528Y-103255000D01*
X109461528Y-103825000D01*
X109473788Y-103949482D01*
X109510098Y-104069180D01*
X109569063Y-104179494D01*
X109648415Y-104276185D01*
X109745106Y-104355537D01*
X109855420Y-104414502D01*
X109975118Y-104450812D01*
X110099600Y-104463072D01*
X112099600Y-104463072D01*
X112224082Y-104450812D01*
X112343780Y-104414502D01*
X112454094Y-104355537D01*
X112515675Y-104304999D01*
X115742444Y-104305001D01*
X117984853Y-106547410D01*
X118009436Y-106577364D01*
X118128967Y-106675462D01*
X118229056Y-106728960D01*
X118265340Y-106748354D01*
X118413313Y-106793242D01*
X118488226Y-106800620D01*
X118528639Y-106804600D01*
X118528644Y-106804600D01*
X118542532Y-106805968D01*
X118571302Y-106859792D01*
X118625758Y-106941291D01*
X118705110Y-107037982D01*
X118774418Y-107107290D01*
X118871109Y-107186642D01*
X118952608Y-107241098D01*
X119062925Y-107300064D01*
X119153481Y-107337573D01*
X119273177Y-107373882D01*
X119369310Y-107393004D01*
X119493791Y-107405264D01*
X119518350Y-107405264D01*
X119542800Y-107407672D01*
X120042800Y-107407672D01*
X120167282Y-107395412D01*
X120192800Y-107387671D01*
X120218318Y-107395412D01*
X120342800Y-107407672D01*
X120842800Y-107407672D01*
X120867250Y-107405264D01*
X120891809Y-107405264D01*
X121016290Y-107393004D01*
X121094200Y-107377507D01*
X121094201Y-110120730D01*
X121029200Y-110114328D01*
X120914950Y-110117400D01*
X120756200Y-110276150D01*
X120756200Y-111425400D01*
X120776200Y-111425400D01*
X120776200Y-111679400D01*
X120756200Y-111679400D01*
X120756200Y-112828650D01*
X120914950Y-112987400D01*
X121029200Y-112990472D01*
X121153682Y-112978212D01*
X121254200Y-112947720D01*
X121354718Y-112978212D01*
X121479200Y-112990472D01*
X122279200Y-112990472D01*
X122403682Y-112978212D01*
X122504200Y-112947720D01*
X122604718Y-112978212D01*
X122729200Y-112990472D01*
X123529200Y-112990472D01*
X123653682Y-112978212D01*
X123773380Y-112941902D01*
X123883694Y-112882937D01*
X123980385Y-112803585D01*
X124028586Y-112744852D01*
X124003388Y-112827918D01*
X123991128Y-112952400D01*
X123994200Y-114166650D01*
X124152950Y-114325400D01*
X125552200Y-114325400D01*
X125552200Y-114305400D01*
X125806200Y-114305400D01*
X125806200Y-114325400D01*
X127205450Y-114325400D01*
X127364200Y-114166650D01*
X127367272Y-112952400D01*
X127355012Y-112827918D01*
X127318702Y-112708220D01*
X127259737Y-112597906D01*
X127180385Y-112501215D01*
X127083694Y-112421863D01*
X126973380Y-112362898D01*
X126889324Y-112337400D01*
X131791847Y-112337400D01*
X131830400Y-112341197D01*
X131868953Y-112337400D01*
X131868961Y-112337400D01*
X131984287Y-112326041D01*
X132132260Y-112281154D01*
X132268633Y-112208262D01*
X132388164Y-112110164D01*
X132412747Y-112080210D01*
X133928617Y-110564341D01*
X133958564Y-110539764D01*
X134030504Y-110452106D01*
X134030328Y-110501600D01*
X134042588Y-110626082D01*
X134078898Y-110745780D01*
X134137863Y-110856094D01*
X134217215Y-110952785D01*
X134313906Y-111032137D01*
X134424220Y-111091102D01*
X134543918Y-111127412D01*
X134668400Y-111139672D01*
X135932650Y-111136600D01*
X136091400Y-110977850D01*
X136091400Y-109478600D01*
X136071400Y-109478600D01*
X136071400Y-109224600D01*
X136091400Y-109224600D01*
X136091400Y-107725350D01*
X136345400Y-107725350D01*
X136345400Y-109224600D01*
X138244650Y-109224600D01*
X138403400Y-109065850D01*
X138406472Y-108201600D01*
X138394212Y-108077118D01*
X138357902Y-107957420D01*
X138298937Y-107847106D01*
X138219585Y-107750415D01*
X138122894Y-107671063D01*
X138012580Y-107612098D01*
X137892882Y-107575788D01*
X137768400Y-107563528D01*
X136504150Y-107566600D01*
X136345400Y-107725350D01*
X136091400Y-107725350D01*
X135932650Y-107566600D01*
X135706472Y-107566050D01*
X135706472Y-107531600D01*
X135696623Y-107431600D01*
X135706472Y-107331600D01*
X135706472Y-107031600D01*
X135696623Y-106931600D01*
X135706472Y-106831600D01*
X135706472Y-106531600D01*
X135696245Y-106427759D01*
X135703400Y-106363350D01*
X135671153Y-106331103D01*
X135657902Y-106287420D01*
X135600810Y-106180611D01*
X135653335Y-106086525D01*
X135670837Y-106032413D01*
X135703400Y-105999850D01*
X135695818Y-105931600D01*
X135703400Y-105863350D01*
X135670837Y-105830787D01*
X135653335Y-105776675D01*
X135600258Y-105681600D01*
X135653335Y-105586525D01*
X135670837Y-105532413D01*
X135703400Y-105499850D01*
X135695818Y-105431600D01*
X135703400Y-105363350D01*
X135670837Y-105330787D01*
X135653335Y-105276675D01*
X135600810Y-105182589D01*
X135657902Y-105075780D01*
X135671153Y-105032097D01*
X135703400Y-104999850D01*
X135696245Y-104935441D01*
X135706472Y-104831600D01*
X135706472Y-104531600D01*
X135696623Y-104431600D01*
X135706472Y-104331600D01*
X135706472Y-104031600D01*
X135696623Y-103931600D01*
X135706472Y-103831600D01*
X135706472Y-103531600D01*
X135696623Y-103431600D01*
X135706472Y-103331600D01*
X135706472Y-103031600D01*
X135696623Y-102931600D01*
X135706472Y-102831600D01*
X135706472Y-102531600D01*
X135696623Y-102431600D01*
X135706472Y-102331600D01*
X135706472Y-102031600D01*
X135697608Y-101941600D01*
X136626678Y-101941600D01*
X136664000Y-101945276D01*
X136701322Y-101941600D01*
X136701333Y-101941600D01*
X136812986Y-101930603D01*
X136956247Y-101887146D01*
X137088276Y-101816574D01*
X137204001Y-101721601D01*
X137227804Y-101692597D01*
X138941003Y-99979399D01*
X138970001Y-99955601D01*
X139010736Y-99905965D01*
X139064974Y-99839877D01*
X139135546Y-99707847D01*
X139140846Y-99690374D01*
X139179003Y-99564586D01*
X139190000Y-99452933D01*
X139190000Y-99452924D01*
X139193676Y-99415601D01*
X139190000Y-99378278D01*
X139190000Y-85787722D01*
X139193676Y-85750399D01*
X139190000Y-85713076D01*
X139190000Y-85713067D01*
X139179003Y-85601414D01*
X139135546Y-85458153D01*
X139064975Y-85326125D01*
X139064974Y-85326123D01*
X138993799Y-85239397D01*
X138970001Y-85210399D01*
X138941004Y-85186602D01*
X134802804Y-81048403D01*
X134779001Y-81019399D01*
X134663276Y-80924426D01*
X134531247Y-80853854D01*
X134387986Y-80810397D01*
X134276333Y-80799400D01*
X134276322Y-80799400D01*
X134239000Y-80795724D01*
X134201678Y-80799400D01*
X124157272Y-80799400D01*
X124157272Y-80759400D01*
X124145012Y-80634918D01*
X124119814Y-80551852D01*
X124168015Y-80610585D01*
X124264706Y-80689937D01*
X124375020Y-80748902D01*
X124494718Y-80785212D01*
X124619200Y-80797472D01*
X125383450Y-80794400D01*
X125542200Y-80635650D01*
X125542200Y-78786400D01*
X125796200Y-78786400D01*
X125796200Y-80635650D01*
X125954950Y-80794400D01*
X126719200Y-80797472D01*
X126843682Y-80785212D01*
X126963380Y-80748902D01*
X127073694Y-80689937D01*
X127170385Y-80610585D01*
X127249737Y-80513894D01*
X127308702Y-80403580D01*
X127345012Y-80283882D01*
X127357272Y-80159400D01*
X127354200Y-78945150D01*
X127195450Y-78786400D01*
X125796200Y-78786400D01*
X125542200Y-78786400D01*
X124142950Y-78786400D01*
X123984200Y-78945150D01*
X123981128Y-80159400D01*
X123993388Y-80283882D01*
X124018586Y-80366948D01*
X123970385Y-80308215D01*
X123873694Y-80228863D01*
X123763380Y-80169898D01*
X123643682Y-80133588D01*
X123519200Y-80121328D01*
X122719200Y-80121328D01*
X122594718Y-80133588D01*
X122494200Y-80164080D01*
X122393682Y-80133588D01*
X122269200Y-80121328D01*
X121469200Y-80121328D01*
X121344718Y-80133588D01*
X121244200Y-80164080D01*
X121143682Y-80133588D01*
X121019200Y-80121328D01*
X120904950Y-80124400D01*
X120746200Y-80283150D01*
X120746200Y-81432400D01*
X120766200Y-81432400D01*
X120766200Y-81686400D01*
X120746200Y-81686400D01*
X120746200Y-82835650D01*
X120904950Y-82994400D01*
X121019200Y-82997472D01*
X121143682Y-82985212D01*
X121244200Y-82954720D01*
X121344718Y-82985212D01*
X121469200Y-82997472D01*
X122269200Y-82997472D01*
X122393682Y-82985212D01*
X122494200Y-82954720D01*
X122594718Y-82985212D01*
X122719200Y-82997472D01*
X123519200Y-82997472D01*
X123643682Y-82985212D01*
X123763380Y-82948902D01*
X123873694Y-82889937D01*
X123970385Y-82810585D01*
X124049737Y-82713894D01*
X124108702Y-82603580D01*
X124145012Y-82483882D01*
X124157272Y-82359400D01*
X124157272Y-82319400D01*
X133924199Y-82319400D01*
X137670000Y-86065202D01*
X137670000Y-89723767D01*
X136504150Y-89726600D01*
X136345400Y-89885350D01*
X136345400Y-91384600D01*
X136365400Y-91384600D01*
X136365400Y-91638600D01*
X136345400Y-91638600D01*
X136345400Y-93137850D01*
X136504150Y-93296600D01*
X137670001Y-93299433D01*
X137670001Y-99100797D01*
X136349199Y-100421600D01*
X135696929Y-100421600D01*
X135703400Y-100363350D01*
X135671153Y-100331103D01*
X135657902Y-100287420D01*
X135601339Y-100181600D01*
X135657902Y-100075780D01*
X135671153Y-100032097D01*
X135703400Y-99999850D01*
X135696245Y-99935441D01*
X135706472Y-99831600D01*
X135706472Y-99531600D01*
X135696623Y-99431600D01*
X135706472Y-99331600D01*
X135706472Y-99031600D01*
X135696245Y-98927759D01*
X135703400Y-98863350D01*
X135671153Y-98831103D01*
X135657902Y-98787420D01*
X135601339Y-98681600D01*
X135657902Y-98575780D01*
X135671153Y-98532097D01*
X135703400Y-98499850D01*
X135696245Y-98435441D01*
X135706472Y-98331600D01*
X135706472Y-98031600D01*
X135696623Y-97931600D01*
X135706472Y-97831600D01*
X135706472Y-97531600D01*
X135696245Y-97427759D01*
X135703400Y-97363350D01*
X135671153Y-97331103D01*
X135657902Y-97287420D01*
X135601339Y-97181600D01*
X135657902Y-97075780D01*
X135671153Y-97032097D01*
X135703400Y-96999850D01*
X135696245Y-96935441D01*
X135706472Y-96831600D01*
X135706472Y-96531600D01*
X135696623Y-96431600D01*
X135706472Y-96331600D01*
X135706472Y-96031600D01*
X135696245Y-95927759D01*
X135703400Y-95863350D01*
X135671153Y-95831103D01*
X135657902Y-95787420D01*
X135601339Y-95681600D01*
X135657902Y-95575780D01*
X135671153Y-95532097D01*
X135703400Y-95499850D01*
X135696245Y-95435441D01*
X135706472Y-95331600D01*
X135706472Y-95031600D01*
X135696623Y-94931600D01*
X135706472Y-94831600D01*
X135706472Y-94531600D01*
X135696245Y-94427759D01*
X135703400Y-94363350D01*
X135671153Y-94331103D01*
X135657902Y-94287420D01*
X135601339Y-94181600D01*
X135657902Y-94075780D01*
X135671153Y-94032097D01*
X135703400Y-93999850D01*
X135696245Y-93935441D01*
X135706472Y-93831600D01*
X135706472Y-93531600D01*
X135696623Y-93431600D01*
X135706472Y-93331600D01*
X135706472Y-93297150D01*
X135932650Y-93296600D01*
X136091400Y-93137850D01*
X136091400Y-91638600D01*
X134192150Y-91638600D01*
X134033400Y-91797350D01*
X134031281Y-92393528D01*
X133968400Y-92393528D01*
X133843918Y-92405788D01*
X133724220Y-92442098D01*
X133613906Y-92501063D01*
X133517215Y-92580415D01*
X133437863Y-92677106D01*
X133378898Y-92787420D01*
X133342588Y-92907118D01*
X133330328Y-93031600D01*
X133330328Y-93331600D01*
X133340177Y-93431600D01*
X133330328Y-93531600D01*
X133330328Y-93831600D01*
X133340555Y-93935441D01*
X133333400Y-93999850D01*
X133365647Y-94032097D01*
X133378898Y-94075780D01*
X133435461Y-94181600D01*
X133378898Y-94287420D01*
X133365647Y-94331103D01*
X133333400Y-94363350D01*
X133340555Y-94427759D01*
X133330328Y-94531600D01*
X133330328Y-94831600D01*
X133330527Y-94833616D01*
X133196974Y-94700063D01*
X133027456Y-94586795D01*
X132839098Y-94508774D01*
X132639139Y-94469000D01*
X132435261Y-94469000D01*
X132235302Y-94508774D01*
X132046944Y-94586795D01*
X131877426Y-94700063D01*
X131733263Y-94844226D01*
X131644546Y-94977000D01*
X131470061Y-94977000D01*
X131270102Y-95016774D01*
X131081744Y-95094795D01*
X130912226Y-95208063D01*
X130768063Y-95352226D01*
X130654795Y-95521744D01*
X130576774Y-95710102D01*
X130537000Y-95910061D01*
X130537000Y-96113939D01*
X130576774Y-96313898D01*
X130654795Y-96502256D01*
X130768063Y-96671774D01*
X130912226Y-96815937D01*
X131081744Y-96929205D01*
X131184094Y-96971600D01*
X126167647Y-96971600D01*
X119557647Y-90361600D01*
X134030328Y-90361600D01*
X134033400Y-91225850D01*
X134192150Y-91384600D01*
X136091400Y-91384600D01*
X136091400Y-89885350D01*
X135932650Y-89726600D01*
X134668400Y-89723528D01*
X134543918Y-89735788D01*
X134424220Y-89772098D01*
X134313906Y-89831063D01*
X134217215Y-89910415D01*
X134137863Y-90007106D01*
X134078898Y-90117420D01*
X134042588Y-90237118D01*
X134030328Y-90361600D01*
X119557647Y-90361600D01*
X119496860Y-90300814D01*
X119473839Y-90272763D01*
X119361921Y-90180914D01*
X119234234Y-90112664D01*
X119095686Y-90070636D01*
X118987706Y-90060001D01*
X118951601Y-90056445D01*
X118915496Y-90060001D01*
X112993496Y-90060001D01*
X112959310Y-90025815D01*
X112936289Y-89997764D01*
X112824371Y-89905915D01*
X112734437Y-89857844D01*
X112737672Y-89825000D01*
X112734600Y-89805750D01*
X112575850Y-89647000D01*
X112384007Y-89647000D01*
X112343780Y-89625498D01*
X112224082Y-89589188D01*
X112099600Y-89576928D01*
X110099600Y-89576928D01*
X109975118Y-89589188D01*
X109855420Y-89625498D01*
X109815193Y-89647000D01*
X109623350Y-89647000D01*
X109464600Y-89805750D01*
X109461528Y-89825000D01*
X109473788Y-89949482D01*
X109495179Y-90020000D01*
X109473788Y-90090518D01*
X109461528Y-90215000D01*
X109461528Y-90825000D01*
X109473788Y-90949482D01*
X109495179Y-91020000D01*
X109473788Y-91090518D01*
X109461528Y-91215000D01*
X109461528Y-91825000D01*
X109473788Y-91949482D01*
X109495179Y-92020000D01*
X109473788Y-92090518D01*
X109461528Y-92215000D01*
X109464600Y-92234250D01*
X109623350Y-92393000D01*
X109815193Y-92393000D01*
X109855420Y-92414502D01*
X109975118Y-92450812D01*
X110099600Y-92463072D01*
X112099600Y-92463072D01*
X112224082Y-92450812D01*
X112343780Y-92414502D01*
X112384007Y-92393000D01*
X112575850Y-92393000D01*
X112734600Y-92234250D01*
X112737672Y-92215000D01*
X112734437Y-92182157D01*
X112824371Y-92134087D01*
X112936289Y-92042238D01*
X112959310Y-92014187D01*
X112993496Y-91980001D01*
X118460755Y-91980001D01*
X124952353Y-98471600D01*
X122536847Y-98471600D01*
X117366060Y-93300814D01*
X117343039Y-93272763D01*
X117231121Y-93180914D01*
X117103434Y-93112664D01*
X116964886Y-93070636D01*
X116856906Y-93060001D01*
X116820801Y-93056445D01*
X116784696Y-93060001D01*
X112993497Y-93060001D01*
X112959306Y-93025810D01*
X112936293Y-92997768D01*
X112824376Y-92905918D01*
X112734437Y-92857844D01*
X112737672Y-92825000D01*
X112734600Y-92805750D01*
X112575850Y-92647000D01*
X112384007Y-92647000D01*
X112343780Y-92625498D01*
X112224082Y-92589188D01*
X112099600Y-92576928D01*
X110099600Y-92576928D01*
X109975118Y-92589188D01*
X109855420Y-92625498D01*
X109815193Y-92647000D01*
X109623350Y-92647000D01*
X109464600Y-92805750D01*
X109461528Y-92825000D01*
X109473788Y-92949482D01*
X109495179Y-93020000D01*
X109473788Y-93090518D01*
X109461528Y-93215000D01*
X109461528Y-93825000D01*
X109473788Y-93949482D01*
X109495179Y-94020000D01*
X109473788Y-94090518D01*
X109461528Y-94215000D01*
X109461528Y-94825000D01*
X109473788Y-94949482D01*
X109495179Y-95020000D01*
X109473788Y-95090518D01*
X109461528Y-95215000D01*
X109464600Y-95234250D01*
X109623350Y-95393000D01*
X109815193Y-95393000D01*
X109855420Y-95414502D01*
X109975118Y-95450812D01*
X110099600Y-95463072D01*
X112099600Y-95463072D01*
X112224082Y-95450812D01*
X112343780Y-95414502D01*
X112384007Y-95393000D01*
X112575850Y-95393000D01*
X112734600Y-95234250D01*
X112737672Y-95215000D01*
X112734437Y-95182158D01*
X112824365Y-95134091D01*
X112936284Y-95042243D01*
X112959303Y-95014195D01*
X112993497Y-94980001D01*
X113456238Y-94980001D01*
X113301744Y-95043995D01*
X113132226Y-95157263D01*
X112988063Y-95301426D01*
X112874795Y-95470944D01*
X112796774Y-95659302D01*
X112771771Y-95785000D01*
X112713850Y-95785000D01*
X112575850Y-95647000D01*
X112384007Y-95647000D01*
X112343780Y-95625498D01*
X112224082Y-95589188D01*
X112099600Y-95576928D01*
X110099600Y-95576928D01*
X109975118Y-95589188D01*
X109855420Y-95625498D01*
X109815193Y-95647000D01*
X109623350Y-95647000D01*
X109464600Y-95805750D01*
X109461528Y-95825000D01*
X109473788Y-95949482D01*
X109495179Y-96020000D01*
X109473788Y-96090518D01*
X109461528Y-96215000D01*
X109461528Y-96825000D01*
X109473788Y-96949482D01*
X109495179Y-97020000D01*
X109473788Y-97090518D01*
X109461528Y-97215000D01*
X109461528Y-97825000D01*
X109473788Y-97949482D01*
X109495179Y-98020000D01*
X109473788Y-98090518D01*
X109461528Y-98215000D01*
X109464600Y-98234250D01*
X109623350Y-98393000D01*
X109815193Y-98393000D01*
X109855420Y-98414502D01*
X109975118Y-98450812D01*
X110099600Y-98463072D01*
X112099600Y-98463072D01*
X112224082Y-98450812D01*
X112343780Y-98414502D01*
X112384007Y-98393000D01*
X112575850Y-98393000D01*
X112713850Y-98255000D01*
X113111492Y-98255001D01*
X113147599Y-98258557D01*
X113291684Y-98244366D01*
X113342875Y-98228837D01*
X113430231Y-98202338D01*
X113557918Y-98134088D01*
X113669836Y-98042239D01*
X113692852Y-98014194D01*
X113811793Y-97895254D01*
X113998102Y-97972426D01*
X114198061Y-98012200D01*
X114401939Y-98012200D01*
X114601898Y-97972426D01*
X114790256Y-97894405D01*
X114959774Y-97781137D01*
X115103937Y-97636974D01*
X115217205Y-97467456D01*
X115295226Y-97279098D01*
X115335000Y-97079139D01*
X115335000Y-96875261D01*
X115295226Y-96675302D01*
X115217205Y-96486944D01*
X115103937Y-96317426D01*
X114959774Y-96173263D01*
X114823241Y-96082035D01*
X114827000Y-96063139D01*
X114827000Y-95859261D01*
X114787226Y-95659302D01*
X114709205Y-95470944D01*
X114595937Y-95301426D01*
X114451774Y-95157263D01*
X114282256Y-95043995D01*
X114127762Y-94980001D01*
X116329955Y-94980001D01*
X121500746Y-100150793D01*
X121523762Y-100178838D01*
X121595080Y-100237367D01*
X121635680Y-100270687D01*
X121763366Y-100338937D01*
X121901915Y-100380965D01*
X122046000Y-100395156D01*
X122082105Y-100391600D01*
X132217378Y-100391600D01*
X132178795Y-100449344D01*
X132100774Y-100637702D01*
X132061000Y-100837661D01*
X132061000Y-101041539D01*
X132100774Y-101241498D01*
X132178795Y-101429856D01*
X132275510Y-101574600D01*
X132178795Y-101719344D01*
X132100774Y-101907702D01*
X132061000Y-102107661D01*
X132061000Y-102266696D01*
X131965181Y-102317912D01*
X131853263Y-102409761D01*
X131830247Y-102437806D01*
X131810525Y-102457528D01*
X131486900Y-102457528D01*
X131316084Y-102474352D01*
X131151833Y-102524177D01*
X131000458Y-102605088D01*
X130962400Y-102636322D01*
X130924342Y-102605088D01*
X130772967Y-102524177D01*
X130608716Y-102474352D01*
X130437900Y-102457528D01*
X130082527Y-102457528D01*
X129990733Y-102408463D01*
X129852185Y-102366435D01*
X129744205Y-102355800D01*
X129708100Y-102352244D01*
X129671995Y-102355800D01*
X129135421Y-102355800D01*
X129102302Y-102246620D01*
X129043337Y-102136306D01*
X128963985Y-102039615D01*
X128867294Y-101960263D01*
X128756980Y-101901298D01*
X128637282Y-101864988D01*
X128512800Y-101852728D01*
X127112800Y-101852728D01*
X126988318Y-101864988D01*
X126868620Y-101901298D01*
X126758306Y-101960263D01*
X126661615Y-102039615D01*
X126582263Y-102136306D01*
X126542800Y-102210135D01*
X126503337Y-102136306D01*
X126423985Y-102039615D01*
X126327294Y-101960263D01*
X126216980Y-101901298D01*
X126097282Y-101864988D01*
X125972800Y-101852728D01*
X124572800Y-101852728D01*
X124448318Y-101864988D01*
X124328620Y-101901298D01*
X124218306Y-101960263D01*
X124121615Y-102039615D01*
X124042263Y-102136306D01*
X124028155Y-102162700D01*
X123729778Y-102162700D01*
X123640223Y-102053577D01*
X123507542Y-101944688D01*
X123356167Y-101863777D01*
X123191916Y-101813952D01*
X123021100Y-101797128D01*
X122546100Y-101797128D01*
X122375284Y-101813952D01*
X122211033Y-101863777D01*
X122059658Y-101944688D01*
X121926977Y-102053577D01*
X121818088Y-102186258D01*
X121737177Y-102337633D01*
X121687352Y-102501884D01*
X121670528Y-102672700D01*
X121670528Y-103172700D01*
X121687352Y-103343516D01*
X121737177Y-103507767D01*
X121818088Y-103659142D01*
X121926977Y-103791823D01*
X121979832Y-103835200D01*
X121926977Y-103878577D01*
X121818088Y-104011258D01*
X121737177Y-104162633D01*
X121687352Y-104326884D01*
X121670528Y-104497700D01*
X121670528Y-104991256D01*
X121611182Y-104931910D01*
X121514491Y-104852558D01*
X121432992Y-104798102D01*
X121322675Y-104739136D01*
X121232119Y-104701627D01*
X121112423Y-104665318D01*
X121016290Y-104646196D01*
X120891809Y-104633936D01*
X120867250Y-104633936D01*
X120842800Y-104631528D01*
X120342800Y-104631528D01*
X120218318Y-104643788D01*
X120192800Y-104651529D01*
X120167282Y-104643788D01*
X120042800Y-104631528D01*
X119542800Y-104631528D01*
X119518350Y-104633936D01*
X119493791Y-104633936D01*
X119369310Y-104646196D01*
X119273177Y-104665318D01*
X119153481Y-104701627D01*
X119062925Y-104739136D01*
X118952608Y-104798102D01*
X118871109Y-104852558D01*
X118774418Y-104931910D01*
X118705110Y-105001218D01*
X118684314Y-105026557D01*
X116649943Y-102992186D01*
X116625365Y-102962238D01*
X116595417Y-102937660D01*
X116595413Y-102937656D01*
X116539703Y-102891936D01*
X116505834Y-102864140D01*
X116401115Y-102808167D01*
X116369460Y-102791247D01*
X116221487Y-102746360D01*
X116067601Y-102731204D01*
X116029039Y-102735002D01*
X114617835Y-102735001D01*
X114709205Y-102598256D01*
X114787226Y-102409898D01*
X114827000Y-102209939D01*
X114827000Y-102006061D01*
X114787226Y-101806102D01*
X114748379Y-101712317D01*
X114906698Y-101680826D01*
X115095056Y-101602805D01*
X115264574Y-101489537D01*
X115408737Y-101345374D01*
X115522005Y-101175856D01*
X115600026Y-100987498D01*
X115639800Y-100787539D01*
X115639800Y-100583661D01*
X115600026Y-100383702D01*
X115522005Y-100195344D01*
X115408737Y-100025826D01*
X115264574Y-99881663D01*
X115095056Y-99768395D01*
X114906698Y-99690374D01*
X114706739Y-99650600D01*
X114609247Y-99650600D01*
X113984460Y-99025814D01*
X113961440Y-98997764D01*
X113849522Y-98905915D01*
X113721835Y-98837665D01*
X113583287Y-98795637D01*
X113475307Y-98785002D01*
X113439202Y-98781446D01*
X113403097Y-98785002D01*
X112713852Y-98785002D01*
X112575850Y-98647000D01*
X112384007Y-98647000D01*
X112343780Y-98625498D01*
X112224082Y-98589188D01*
X112099600Y-98576928D01*
X110099600Y-98576928D01*
X109975118Y-98589188D01*
X109855420Y-98625498D01*
X109815193Y-98647000D01*
X109623350Y-98647000D01*
X109464600Y-98805750D01*
X109461528Y-98825000D01*
X109473788Y-98949482D01*
X109495179Y-99020000D01*
X109473788Y-99090518D01*
X109461528Y-99215000D01*
X109461528Y-99825000D01*
X109473788Y-99949482D01*
X109495179Y-100020000D01*
X109473788Y-100090518D01*
X109461528Y-100215000D01*
X109461528Y-100700481D01*
X109289800Y-100528753D01*
X109289800Y-100431261D01*
X109250026Y-100231302D01*
X109172005Y-100042944D01*
X109058737Y-99873426D01*
X108914574Y-99729263D01*
X108745056Y-99615995D01*
X108556698Y-99537974D01*
X108356739Y-99498200D01*
X108152861Y-99498200D01*
X107952902Y-99537974D01*
X107764544Y-99615995D01*
X107595026Y-99729263D01*
X107450863Y-99873426D01*
X107337595Y-100042944D01*
X107259574Y-100231302D01*
X107219800Y-100431261D01*
X105333400Y-100431261D01*
X105333400Y-89215000D01*
X109461528Y-89215000D01*
X109464600Y-89234250D01*
X109623350Y-89393000D01*
X110972600Y-89393000D01*
X110972600Y-88738750D01*
X111226600Y-88738750D01*
X111226600Y-89393000D01*
X112575850Y-89393000D01*
X112734600Y-89234250D01*
X112737672Y-89215000D01*
X112725412Y-89090518D01*
X112689102Y-88970820D01*
X112630137Y-88860506D01*
X112550785Y-88763815D01*
X112454094Y-88684463D01*
X112343780Y-88625498D01*
X112224082Y-88589188D01*
X112099600Y-88576928D01*
X111385350Y-88580000D01*
X111226600Y-88738750D01*
X110972600Y-88738750D01*
X110813850Y-88580000D01*
X110099600Y-88576928D01*
X109975118Y-88589188D01*
X109855420Y-88625498D01*
X109745106Y-88684463D01*
X109648415Y-88763815D01*
X109569063Y-88860506D01*
X109510098Y-88970820D01*
X109473788Y-89090518D01*
X109461528Y-89215000D01*
X105333400Y-89215000D01*
X105333400Y-88551419D01*
X105336593Y-88519000D01*
X105323850Y-88389617D01*
X105286110Y-88265207D01*
X105224825Y-88150550D01*
X105142348Y-88050052D01*
X105041850Y-87967575D01*
X104927193Y-87906290D01*
X104807563Y-87870000D01*
X105861528Y-87870000D01*
X105873788Y-87994482D01*
X105910098Y-88114180D01*
X105969063Y-88224494D01*
X106048415Y-88321185D01*
X106145106Y-88400537D01*
X106255420Y-88459502D01*
X106375118Y-88495812D01*
X106499600Y-88508072D01*
X108013850Y-88505000D01*
X108172600Y-88346250D01*
X108172600Y-86657000D01*
X108426600Y-86657000D01*
X108426600Y-88346250D01*
X108585350Y-88505000D01*
X110099600Y-88508072D01*
X110224082Y-88495812D01*
X110343780Y-88459502D01*
X110454094Y-88400537D01*
X110550785Y-88321185D01*
X110630137Y-88224494D01*
X110689102Y-88114180D01*
X110725412Y-87994482D01*
X110737672Y-87870000D01*
X110734600Y-86815750D01*
X110575850Y-86657000D01*
X108426600Y-86657000D01*
X108172600Y-86657000D01*
X106023350Y-86657000D01*
X105864600Y-86815750D01*
X105861528Y-87870000D01*
X104807563Y-87870000D01*
X104802783Y-87868550D01*
X104705819Y-87859000D01*
X104673400Y-87855807D01*
X104640981Y-87859000D01*
X102362519Y-87859000D01*
X102366235Y-85190000D01*
X105861528Y-85190000D01*
X105864600Y-86244250D01*
X106023350Y-86403000D01*
X108172600Y-86403000D01*
X108172600Y-84713750D01*
X108426600Y-84713750D01*
X108426600Y-86403000D01*
X110575850Y-86403000D01*
X110734600Y-86244250D01*
X110737672Y-85190000D01*
X110725412Y-85065518D01*
X110689102Y-84945820D01*
X110630137Y-84835506D01*
X110550785Y-84738815D01*
X110454094Y-84659463D01*
X110343780Y-84600498D01*
X110224082Y-84564188D01*
X110099600Y-84551928D01*
X108585350Y-84555000D01*
X108426600Y-84713750D01*
X108172600Y-84713750D01*
X108013850Y-84555000D01*
X106499600Y-84551928D01*
X106375118Y-84564188D01*
X106255420Y-84600498D01*
X106145106Y-84659463D01*
X106048415Y-84738815D01*
X105969063Y-84835506D01*
X105910098Y-84945820D01*
X105873788Y-85065518D01*
X105861528Y-85190000D01*
X102366235Y-85190000D01*
X102370176Y-82359400D01*
X119581128Y-82359400D01*
X119593388Y-82483882D01*
X119629698Y-82603580D01*
X119688663Y-82713894D01*
X119768015Y-82810585D01*
X119864706Y-82889937D01*
X119975020Y-82948902D01*
X120094718Y-82985212D01*
X120219200Y-82997472D01*
X120333450Y-82994400D01*
X120492200Y-82835650D01*
X120492200Y-81686400D01*
X119742950Y-81686400D01*
X119584200Y-81845150D01*
X119581128Y-82359400D01*
X102370176Y-82359400D01*
X102373063Y-80286669D01*
X102567456Y-80755976D01*
X102877712Y-81220307D01*
X103272593Y-81615188D01*
X103736924Y-81925444D01*
X104252861Y-82139152D01*
X104800577Y-82248100D01*
X105359023Y-82248100D01*
X105906739Y-82139152D01*
X106422676Y-81925444D01*
X106887007Y-81615188D01*
X107281888Y-81220307D01*
X107592144Y-80755976D01*
X107805852Y-80240039D01*
X107821892Y-80159400D01*
X116381128Y-80159400D01*
X116393388Y-80283882D01*
X116429698Y-80403580D01*
X116488663Y-80513894D01*
X116568015Y-80610585D01*
X116664706Y-80689937D01*
X116775020Y-80748902D01*
X116894718Y-80785212D01*
X117019200Y-80797472D01*
X117783450Y-80794400D01*
X117942200Y-80635650D01*
X117942200Y-78786400D01*
X118196200Y-78786400D01*
X118196200Y-80635650D01*
X118354950Y-80794400D01*
X119119200Y-80797472D01*
X119243682Y-80785212D01*
X119363380Y-80748902D01*
X119473694Y-80689937D01*
X119570385Y-80610585D01*
X119618586Y-80551852D01*
X119593388Y-80634918D01*
X119581128Y-80759400D01*
X119584200Y-81273650D01*
X119742950Y-81432400D01*
X120492200Y-81432400D01*
X120492200Y-80283150D01*
X120333450Y-80124400D01*
X120219200Y-80121328D01*
X120094718Y-80133588D01*
X119975020Y-80169898D01*
X119864706Y-80228863D01*
X119768015Y-80308215D01*
X119719814Y-80366948D01*
X119745012Y-80283882D01*
X119757272Y-80159400D01*
X119754200Y-78945150D01*
X119595450Y-78786400D01*
X118196200Y-78786400D01*
X117942200Y-78786400D01*
X116542950Y-78786400D01*
X116384200Y-78945150D01*
X116381128Y-80159400D01*
X107821892Y-80159400D01*
X107914800Y-79692323D01*
X107914800Y-79133877D01*
X107805852Y-78586161D01*
X107592144Y-78070224D01*
X107281888Y-77605893D01*
X106887007Y-77211012D01*
X106494914Y-76949024D01*
X116419220Y-76949762D01*
G37*
%TD.AperFunction*%
D26*
X132794102Y-106456026D02*
X132994061Y-106495800D01*
X133197939Y-106495800D01*
X133336570Y-106468225D01*
X133330328Y-106531600D01*
X133330328Y-106831600D01*
X133340177Y-106931600D01*
X133330759Y-107027222D01*
X133213036Y-107123836D01*
X133188453Y-107153790D01*
X132872985Y-107469258D01*
X132843037Y-107493836D01*
X132818459Y-107523784D01*
X132818455Y-107523788D01*
X132799767Y-107546560D01*
X132744939Y-107613367D01*
X132716550Y-107666480D01*
X132672046Y-107749741D01*
X132627159Y-107897714D01*
X132612003Y-108051600D01*
X132615801Y-108090162D01*
X132615800Y-109656842D01*
X131505243Y-110767400D01*
X124167272Y-110767400D01*
X124167272Y-110752400D01*
X124155012Y-110627918D01*
X124118702Y-110508220D01*
X124059737Y-110397906D01*
X123980385Y-110301215D01*
X123978993Y-110300073D01*
X124625100Y-110300073D01*
X124749582Y-110287813D01*
X124869280Y-110251503D01*
X124979594Y-110192538D01*
X125076285Y-110113186D01*
X125155637Y-110016495D01*
X125214602Y-109906181D01*
X125250912Y-109786483D01*
X125263172Y-109662001D01*
X125263172Y-109349493D01*
X125465812Y-109389800D01*
X125587228Y-109389800D01*
X125587228Y-109662001D01*
X125599488Y-109786483D01*
X125635798Y-109906181D01*
X125694763Y-110016495D01*
X125774115Y-110113186D01*
X125870806Y-110192538D01*
X125981120Y-110251503D01*
X126100818Y-110287813D01*
X126225300Y-110300073D01*
X127177800Y-110300073D01*
X127302282Y-110287813D01*
X127308584Y-110285901D01*
X127433858Y-110388712D01*
X127585233Y-110469623D01*
X127749484Y-110519448D01*
X127920300Y-110536272D01*
X128520300Y-110536272D01*
X128691116Y-110519448D01*
X128855367Y-110469623D01*
X129005406Y-110389426D01*
X129053306Y-110428737D01*
X129163620Y-110487702D01*
X129283318Y-110524012D01*
X129407800Y-110536272D01*
X129659550Y-110533200D01*
X129818300Y-110374450D01*
X129818300Y-109550200D01*
X130072300Y-109550200D01*
X130072300Y-110374450D01*
X130231050Y-110533200D01*
X130482800Y-110536272D01*
X130607282Y-110524012D01*
X130726980Y-110487702D01*
X130837294Y-110428737D01*
X130933985Y-110349385D01*
X131013337Y-110252694D01*
X131072302Y-110142380D01*
X131108612Y-110022682D01*
X131120872Y-109898200D01*
X131117800Y-109708950D01*
X130959050Y-109550200D01*
X130072300Y-109550200D01*
X129818300Y-109550200D01*
X129798300Y-109550200D01*
X129798300Y-109296200D01*
X129818300Y-109296200D01*
X129818300Y-108471950D01*
X129804350Y-108458000D01*
X129818300Y-108444050D01*
X129818300Y-107619800D01*
X130072300Y-107619800D01*
X130072300Y-108444050D01*
X130086250Y-108458000D01*
X130072300Y-108471950D01*
X130072300Y-109296200D01*
X130959050Y-109296200D01*
X131117800Y-109137450D01*
X131120872Y-108948200D01*
X131108612Y-108823718D01*
X131072302Y-108704020D01*
X131013337Y-108593706D01*
X130933985Y-108497015D01*
X130886445Y-108458000D01*
X130933985Y-108418985D01*
X131013337Y-108322294D01*
X131072302Y-108211980D01*
X131108612Y-108092282D01*
X131120872Y-107967800D01*
X131117800Y-107778550D01*
X130959050Y-107619800D01*
X130072300Y-107619800D01*
X129818300Y-107619800D01*
X129798300Y-107619800D01*
X129798300Y-107365800D01*
X129818300Y-107365800D01*
X129818300Y-107345800D01*
X130072300Y-107345800D01*
X130072300Y-107365800D01*
X130959050Y-107365800D01*
X131003570Y-107321281D01*
X131064626Y-107382337D01*
X131234144Y-107495605D01*
X131422502Y-107573626D01*
X131622461Y-107613400D01*
X131826339Y-107613400D01*
X132026298Y-107573626D01*
X132214656Y-107495605D01*
X132384174Y-107382337D01*
X132528337Y-107238174D01*
X132641605Y-107068656D01*
X132719626Y-106880298D01*
X132759400Y-106680339D01*
X132759400Y-106476461D01*
X132751854Y-106438526D01*
X132794102Y-106456026D01*
%TA.AperFunction,Conductor*%
D27*
G36*
X132794102Y-106456026D02*
G01*
X132994061Y-106495800D01*
X133197939Y-106495800D01*
X133336570Y-106468225D01*
X133330328Y-106531600D01*
X133330328Y-106831600D01*
X133340177Y-106931600D01*
X133330759Y-107027222D01*
X133213036Y-107123836D01*
X133188453Y-107153790D01*
X132872985Y-107469258D01*
X132843037Y-107493836D01*
X132818459Y-107523784D01*
X132818455Y-107523788D01*
X132799767Y-107546560D01*
X132744939Y-107613367D01*
X132716550Y-107666480D01*
X132672046Y-107749741D01*
X132627159Y-107897714D01*
X132612003Y-108051600D01*
X132615801Y-108090162D01*
X132615800Y-109656842D01*
X131505243Y-110767400D01*
X124167272Y-110767400D01*
X124167272Y-110752400D01*
X124155012Y-110627918D01*
X124118702Y-110508220D01*
X124059737Y-110397906D01*
X123980385Y-110301215D01*
X123978993Y-110300073D01*
X124625100Y-110300073D01*
X124749582Y-110287813D01*
X124869280Y-110251503D01*
X124979594Y-110192538D01*
X125076285Y-110113186D01*
X125155637Y-110016495D01*
X125214602Y-109906181D01*
X125250912Y-109786483D01*
X125263172Y-109662001D01*
X125263172Y-109349493D01*
X125465812Y-109389800D01*
X125587228Y-109389800D01*
X125587228Y-109662001D01*
X125599488Y-109786483D01*
X125635798Y-109906181D01*
X125694763Y-110016495D01*
X125774115Y-110113186D01*
X125870806Y-110192538D01*
X125981120Y-110251503D01*
X126100818Y-110287813D01*
X126225300Y-110300073D01*
X127177800Y-110300073D01*
X127302282Y-110287813D01*
X127308584Y-110285901D01*
X127433858Y-110388712D01*
X127585233Y-110469623D01*
X127749484Y-110519448D01*
X127920300Y-110536272D01*
X128520300Y-110536272D01*
X128691116Y-110519448D01*
X128855367Y-110469623D01*
X129005406Y-110389426D01*
X129053306Y-110428737D01*
X129163620Y-110487702D01*
X129283318Y-110524012D01*
X129407800Y-110536272D01*
X129659550Y-110533200D01*
X129818300Y-110374450D01*
X129818300Y-109550200D01*
X130072300Y-109550200D01*
X130072300Y-110374450D01*
X130231050Y-110533200D01*
X130482800Y-110536272D01*
X130607282Y-110524012D01*
X130726980Y-110487702D01*
X130837294Y-110428737D01*
X130933985Y-110349385D01*
X131013337Y-110252694D01*
X131072302Y-110142380D01*
X131108612Y-110022682D01*
X131120872Y-109898200D01*
X131117800Y-109708950D01*
X130959050Y-109550200D01*
X130072300Y-109550200D01*
X129818300Y-109550200D01*
X129798300Y-109550200D01*
X129798300Y-109296200D01*
X129818300Y-109296200D01*
X129818300Y-108471950D01*
X129804350Y-108458000D01*
X129818300Y-108444050D01*
X129818300Y-107619800D01*
X130072300Y-107619800D01*
X130072300Y-108444050D01*
X130086250Y-108458000D01*
X130072300Y-108471950D01*
X130072300Y-109296200D01*
X130959050Y-109296200D01*
X131117800Y-109137450D01*
X131120872Y-108948200D01*
X131108612Y-108823718D01*
X131072302Y-108704020D01*
X131013337Y-108593706D01*
X130933985Y-108497015D01*
X130886445Y-108458000D01*
X130933985Y-108418985D01*
X131013337Y-108322294D01*
X131072302Y-108211980D01*
X131108612Y-108092282D01*
X131120872Y-107967800D01*
X131117800Y-107778550D01*
X130959050Y-107619800D01*
X130072300Y-107619800D01*
X129818300Y-107619800D01*
X129798300Y-107619800D01*
X129798300Y-107365800D01*
X129818300Y-107365800D01*
X129818300Y-107345800D01*
X130072300Y-107345800D01*
X130072300Y-107365800D01*
X130959050Y-107365800D01*
X131003570Y-107321281D01*
X131064626Y-107382337D01*
X131234144Y-107495605D01*
X131422502Y-107573626D01*
X131622461Y-107613400D01*
X131826339Y-107613400D01*
X132026298Y-107573626D01*
X132214656Y-107495605D01*
X132384174Y-107382337D01*
X132528337Y-107238174D01*
X132641605Y-107068656D01*
X132719626Y-106880298D01*
X132759400Y-106680339D01*
X132759400Y-106476461D01*
X132751854Y-106438526D01*
X132794102Y-106456026D01*
G37*
%TD.AperFunction*%
D26*
X124295850Y-108515929D02*
X124001850Y-108515929D01*
X124001850Y-108400071D01*
X124295850Y-108400071D01*
X124295850Y-108515929D01*
%TA.AperFunction,Conductor*%
D27*
G36*
X124295850Y-108515929D02*
G01*
X124001850Y-108515929D01*
X124001850Y-108400071D01*
X124295850Y-108400071D01*
X124295850Y-108515929D01*
G37*
%TD.AperFunction*%
D26*
X122910600Y-108025100D02*
X122930600Y-108025100D01*
X122930600Y-108279100D01*
X122910600Y-108279100D01*
X122910600Y-108299100D01*
X122664200Y-108299100D01*
X122664200Y-108005100D01*
X122910600Y-108005100D01*
X122910600Y-108025100D01*
%TA.AperFunction,Conductor*%
D27*
G36*
X122910600Y-108025100D02*
G01*
X122930600Y-108025100D01*
X122930600Y-108279100D01*
X122910600Y-108279100D01*
X122910600Y-108299100D01*
X122664200Y-108299100D01*
X122664200Y-108005100D01*
X122910600Y-108005100D01*
X122910600Y-108025100D01*
G37*
%TD.AperFunction*%
D26*
X127939800Y-105163800D02*
X127959800Y-105163800D01*
X127959800Y-105417800D01*
X127939800Y-105417800D01*
X127939800Y-105437800D01*
X127685800Y-105437800D01*
X127685800Y-105417800D01*
X127665800Y-105417800D01*
X127665800Y-105163800D01*
X127685800Y-105163800D01*
X127685800Y-105143800D01*
X127939800Y-105143800D01*
X127939800Y-105163800D01*
%TA.AperFunction,Conductor*%
D27*
G36*
X127939800Y-105163800D02*
G01*
X127959800Y-105163800D01*
X127959800Y-105417800D01*
X127939800Y-105417800D01*
X127939800Y-105437800D01*
X127685800Y-105437800D01*
X127685800Y-105417800D01*
X127665800Y-105417800D01*
X127665800Y-105163800D01*
X127685800Y-105163800D01*
X127685800Y-105143800D01*
X127939800Y-105143800D01*
X127939800Y-105163800D01*
G37*
%TD.AperFunction*%
%TD*%
M02*
