%TF.GenerationSoftware,KiCad,Pcbnew,5.1.12-84ad8e8a86~92~ubuntu18.04.1*%
%TF.CreationDate,2023-09-10T20:05:29+07:00*%
%TF.ProjectId,RPi_FFC_15P-EYECLOUDAI_2MGSMOD_AR0234-ADAPTER,5250695f-4646-4435-9f31-35502d455945,rev?*%
%TF.SameCoordinates,Original*%
%TF.FileFunction,Copper,L2,Bot*%
%TF.FilePolarity,Positive*%
%FSLAX46Y46*%
G04 Gerber Fmt 4.6, Leading zero omitted, Abs format (unit mm)*
G04 Created by KiCad (PCBNEW 5.1.12-84ad8e8a86~92~ubuntu18.04.1) date 2023-09-10 20:05:29*
%MOMM*%
%LPD*%
G01*
G04 APERTURE LIST*
%TA.AperFunction,SMDPad,CuDef*%
%ADD10R,0.812800X0.889000*%
%TD*%
%TA.AperFunction,ComponentPad*%
%ADD11C,4.400000*%
%TD*%
%TA.AperFunction,ViaPad*%
%ADD12C,0.800000*%
%TD*%
%TA.AperFunction,ViaPad*%
%ADD13C,1.000000*%
%TD*%
%TA.AperFunction,Conductor*%
%ADD14C,0.200000*%
%TD*%
%TA.AperFunction,Conductor*%
%ADD15C,0.250000*%
%TD*%
%TA.AperFunction,Conductor*%
%ADD16C,0.254000*%
%TD*%
%TA.AperFunction,Conductor*%
%ADD17C,0.100000*%
%TD*%
G04 APERTURE END LIST*
%TO.P,R5,2*%
%TO.N,/CSI_PWDN_1V8*%
%TA.AperFunction,SMDPad,CuDef*%
G36*
G01*
X131387400Y-102447100D02*
X131387400Y-101972100D01*
G75*
G02*
X131624900Y-101734600I237500J0D01*
G01*
X132124900Y-101734600D01*
G75*
G02*
X132362400Y-101972100I0J-237500D01*
G01*
X132362400Y-102447100D01*
G75*
G02*
X132124900Y-102684600I-237500J0D01*
G01*
X131624900Y-102684600D01*
G75*
G02*
X131387400Y-102447100I0J237500D01*
G01*
G37*
%TD.AperFunction*%
%TO.P,R5,1*%
%TO.N,/CSI_nRST_1V8*%
%TA.AperFunction,SMDPad,CuDef*%
G36*
G01*
X129562400Y-102447100D02*
X129562400Y-101972100D01*
G75*
G02*
X129799900Y-101734600I237500J0D01*
G01*
X130299900Y-101734600D01*
G75*
G02*
X130537400Y-101972100I0J-237500D01*
G01*
X130537400Y-102447100D01*
G75*
G02*
X130299900Y-102684600I-237500J0D01*
G01*
X129799900Y-102684600D01*
G75*
G02*
X129562400Y-102447100I0J237500D01*
G01*
G37*
%TD.AperFunction*%
%TD*%
D10*
%TO.P,U2,3*%
%TO.N,+1V8*%
X120040400Y-104881800D03*
%TO.P,U2,2*%
%TO.N,/CSI_nRST_1V8*%
X121065399Y-102991801D03*
%TO.P,U2,1*%
%TO.N,GND*%
X119015401Y-102991801D03*
%TD*%
%TO.P,R4,2*%
%TO.N,+1V8*%
%TA.AperFunction,SMDPad,CuDef*%
G36*
G01*
X122546100Y-104262100D02*
X123021100Y-104262100D01*
G75*
G02*
X123258600Y-104499600I0J-237500D01*
G01*
X123258600Y-104999600D01*
G75*
G02*
X123021100Y-105237100I-237500J0D01*
G01*
X122546100Y-105237100D01*
G75*
G02*
X122308600Y-104999600I0J237500D01*
G01*
X122308600Y-104499600D01*
G75*
G02*
X122546100Y-104262100I237500J0D01*
G01*
G37*
%TD.AperFunction*%
%TO.P,R4,1*%
%TO.N,/CSI_nRST_1V8*%
%TA.AperFunction,SMDPad,CuDef*%
G36*
G01*
X122546100Y-102437100D02*
X123021100Y-102437100D01*
G75*
G02*
X123258600Y-102674600I0J-237500D01*
G01*
X123258600Y-103174600D01*
G75*
G02*
X123021100Y-103412100I-237500J0D01*
G01*
X122546100Y-103412100D01*
G75*
G02*
X122308600Y-103174600I0J237500D01*
G01*
X122308600Y-102674600D01*
G75*
G02*
X122546100Y-102437100I237500J0D01*
G01*
G37*
%TD.AperFunction*%
%TD*%
%TO.P,C4,2*%
%TO.N,GND*%
%TA.AperFunction,SMDPad,CuDef*%
G36*
G01*
X124070100Y-104160200D02*
X124545100Y-104160200D01*
G75*
G02*
X124782600Y-104397700I0J-237500D01*
G01*
X124782600Y-104997700D01*
G75*
G02*
X124545100Y-105235200I-237500J0D01*
G01*
X124070100Y-105235200D01*
G75*
G02*
X123832600Y-104997700I0J237500D01*
G01*
X123832600Y-104397700D01*
G75*
G02*
X124070100Y-104160200I237500J0D01*
G01*
G37*
%TD.AperFunction*%
%TO.P,C4,1*%
%TO.N,/CSI_nRST_1V8*%
%TA.AperFunction,SMDPad,CuDef*%
G36*
G01*
X124070100Y-102435200D02*
X124545100Y-102435200D01*
G75*
G02*
X124782600Y-102672700I0J-237500D01*
G01*
X124782600Y-103272700D01*
G75*
G02*
X124545100Y-103510200I-237500J0D01*
G01*
X124070100Y-103510200D01*
G75*
G02*
X123832600Y-103272700I0J237500D01*
G01*
X123832600Y-102672700D01*
G75*
G02*
X124070100Y-102435200I237500J0D01*
G01*
G37*
%TD.AperFunction*%
%TD*%
D11*
%TO.P,H4,1*%
%TO.N,N/C*%
X138917680Y-79413100D03*
%TD*%
%TO.P,H3,1*%
%TO.N,N/C*%
X138917680Y-113489740D03*
%TD*%
%TO.P,H2,1*%
%TO.N,N/C*%
X105079800Y-113489740D03*
%TD*%
%TO.P,H1,1*%
%TO.N,N/C*%
X105079800Y-79413100D03*
%TD*%
D12*
%TO.N,GND*%
X108305600Y-106476800D03*
X108356400Y-86410800D03*
X125679200Y-78587600D03*
X117957600Y-78587600D03*
X118059200Y-114401600D03*
X125628400Y-114350800D03*
X136194800Y-109321600D03*
X136245600Y-91490800D03*
X122783600Y-108152100D03*
X127812800Y-105290800D03*
X136218400Y-94108800D03*
X136218400Y-95582000D03*
X136218400Y-97204000D03*
X136218400Y-98630000D03*
X136194800Y-100076000D03*
X136144000Y-102209600D03*
X136169600Y-105714800D03*
X108800900Y-92621100D03*
X108800900Y-95491300D03*
X117957600Y-100431600D03*
X115620800Y-102158800D03*
X115620800Y-104597200D03*
X125679200Y-84480400D03*
X118008400Y-84531200D03*
X117957600Y-97180400D03*
%TO.N,/CSI_nRST_1V8*%
X133096000Y-105460800D03*
%TO.N,/CSI_PWDN_1V8*%
X133096000Y-102209600D03*
X114604800Y-100685600D03*
X122783600Y-109626400D03*
%TO.N,/I2C_SDA_1V8*%
X108712000Y-102158800D03*
X133096000Y-100939600D03*
%TO.N,/I2C_SCL_1V8*%
X108254800Y-100533200D03*
X133096000Y-103682800D03*
%TO.N,/CSI_CLK_P*%
X114300000Y-96977200D03*
X131572000Y-96012000D03*
%TO.N,/CSI_CLK_N*%
X113792000Y-95961200D03*
X132537200Y-95504000D03*
D13*
%TO.N,+1V8*%
X125577600Y-108254800D03*
D12*
%TO.N,Net-(J1-Pad12)*%
X131724400Y-106578400D03*
X113792000Y-102108000D03*
%TD*%
D14*
%TO.N,/CSI_nRST_1V8*%
X121132600Y-102924600D02*
X121065399Y-102991801D01*
X122783600Y-102924600D02*
X121132600Y-102924600D01*
X124259500Y-102924600D02*
X124307600Y-102972700D01*
X122783600Y-102924600D02*
X124259500Y-102924600D01*
X125070700Y-102209600D02*
X124307600Y-102972700D01*
X130049900Y-102209600D02*
X125070700Y-102209600D01*
X132130800Y-105054400D02*
X131419600Y-104343200D01*
X132689600Y-105054400D02*
X132130800Y-105054400D01*
X133096000Y-105460800D02*
X132689600Y-105054400D01*
X130049900Y-102209600D02*
X130049900Y-104040300D01*
X130352800Y-104343200D02*
X131419600Y-104343200D01*
X130049900Y-104040300D02*
X130352800Y-104343200D01*
%TO.N,/CSI_PWDN_1V8*%
X122783600Y-109626400D02*
X130708400Y-109626400D01*
X130962400Y-109372400D02*
X130962400Y-106304398D01*
X130708400Y-109626400D02*
X130962400Y-109372400D01*
X130962400Y-106304398D02*
X131434999Y-105831799D01*
X133807200Y-105968800D02*
X133807200Y-104851200D01*
X132638800Y-106222800D02*
X133553200Y-106222800D01*
X133807200Y-104851200D02*
X133553200Y-104597200D01*
X131434999Y-105831799D02*
X132247799Y-105831799D01*
X132247799Y-105831799D02*
X132638800Y-106222800D01*
X133553200Y-106222800D02*
X133807200Y-105968800D01*
X114604800Y-101244400D02*
X114604800Y-100685600D01*
X114604800Y-101244400D02*
X114604800Y-101041200D01*
X133553200Y-104597200D02*
X133045200Y-104597200D01*
X133045200Y-104597200D02*
X132842000Y-104597200D01*
X133096000Y-102209600D02*
X131874900Y-102209600D01*
X132384800Y-104597200D02*
X133045200Y-104597200D01*
X131874900Y-104087300D02*
X132384800Y-104597200D01*
X131874900Y-102209600D02*
X131874900Y-104087300D01*
X122783600Y-109626400D02*
X119481600Y-109626400D01*
X119989600Y-109626400D02*
X122783600Y-109626400D01*
X119481600Y-109626400D02*
X114604800Y-104749600D01*
X114604800Y-104749600D02*
X114604800Y-101244400D01*
%TO.N,/I2C_SDA_1V8*%
X108712000Y-101193600D02*
X108712000Y-102158800D01*
X108954801Y-100950799D02*
X108712000Y-101193600D01*
X108954801Y-100442799D02*
X108954801Y-100950799D01*
X118719600Y-98856800D02*
X110540800Y-98856800D01*
X120497600Y-100634800D02*
X118719600Y-98856800D01*
X110540800Y-98856800D02*
X108954801Y-100442799D01*
X132232400Y-100634800D02*
X120497600Y-100634800D01*
X132537200Y-100939600D02*
X132232400Y-100634800D01*
X133096000Y-100939600D02*
X132537200Y-100939600D01*
%TO.N,/I2C_SCL_1V8*%
X119094210Y-98329790D02*
X109950210Y-98329790D01*
X133858000Y-100126800D02*
X120891220Y-100126800D01*
X109950210Y-98329790D02*
X108254800Y-100025200D01*
X134162800Y-100431600D02*
X133858000Y-100126800D01*
X120891220Y-100126800D02*
X119094210Y-98329790D01*
X134162800Y-103225600D02*
X134162800Y-100431600D01*
X133705600Y-103682800D02*
X134162800Y-103225600D01*
X108254800Y-100025200D02*
X108254800Y-100533200D01*
X133096000Y-103682800D02*
X133705600Y-103682800D01*
%TO.N,/CSI_CLK_P*%
X119860297Y-95997633D02*
X119822376Y-95973806D01*
X119891966Y-96029302D02*
X119860297Y-95997633D01*
X119915793Y-96067223D02*
X119891966Y-96029302D01*
X120411759Y-97163644D02*
X120282312Y-97118349D01*
X120623159Y-97179000D02*
X120548040Y-97179000D01*
X120888887Y-97118349D02*
X120759440Y-97163644D01*
X121005009Y-97045384D02*
X120888887Y-97118349D01*
X120282312Y-97118349D02*
X120166190Y-97045384D01*
X121220244Y-96702840D02*
X121174949Y-96832287D01*
X121235600Y-96566559D02*
X121220244Y-96702840D01*
X121235600Y-94929000D02*
X121235600Y-96566559D01*
X121255406Y-94842224D02*
X121240614Y-94884496D01*
X121310902Y-94772634D02*
X121279233Y-94804303D01*
X119735600Y-95954000D02*
X115323200Y-95954000D01*
X121391095Y-94734015D02*
X121348823Y-94748807D01*
X121435600Y-94729000D02*
X121391095Y-94734015D01*
X121480104Y-94734015D02*
X121435600Y-94729000D01*
X121560297Y-94772634D02*
X121522376Y-94748807D01*
X121615793Y-94842224D02*
X121591966Y-94804303D01*
X121630585Y-94884496D02*
X121615793Y-94842224D01*
X121635600Y-94929000D02*
X121630585Y-94884496D01*
X120548040Y-97179000D02*
X120411759Y-97163644D01*
X121696250Y-96832287D02*
X121650955Y-96702840D01*
X121982312Y-97118349D02*
X121866190Y-97045384D01*
X122111759Y-97163644D02*
X121982312Y-97118349D01*
X121279233Y-94804303D02*
X121255406Y-94842224D01*
X122801984Y-96948409D02*
X122705009Y-97045384D01*
X122874949Y-96832287D02*
X122801984Y-96948409D01*
X122459440Y-97163644D02*
X122323159Y-97179000D01*
X122920244Y-96702840D02*
X122874949Y-96832287D01*
X122935600Y-96566559D02*
X122920244Y-96702840D01*
X122935600Y-94929000D02*
X122935600Y-96566559D01*
X122940614Y-94884496D02*
X122935600Y-94929000D01*
X122955406Y-94842224D02*
X122940614Y-94884496D01*
X123010902Y-94772634D02*
X122979233Y-94804303D01*
X123048823Y-94748807D02*
X123010902Y-94772634D01*
X120166190Y-97045384D02*
X120069215Y-96948409D01*
X121174949Y-96832287D02*
X121101984Y-96948409D01*
X123091095Y-94734015D02*
X123048823Y-94748807D01*
X126730585Y-94884496D02*
X126715793Y-94842224D01*
X125035600Y-96566559D02*
X125035600Y-94929000D01*
X123396250Y-96832287D02*
X123350955Y-96702840D01*
X126735600Y-94929000D02*
X126730585Y-94884496D01*
X124640614Y-94884496D02*
X124635600Y-94929000D01*
X127559440Y-97163644D02*
X127423159Y-97179000D01*
X126796250Y-96832287D02*
X126750955Y-96702840D01*
X121650955Y-96702840D02*
X121635600Y-96566559D01*
X127974949Y-96832287D02*
X127901984Y-96948409D01*
X126580104Y-94734015D02*
X126535600Y-94729000D01*
X129810902Y-95997633D02*
X129779233Y-96029302D01*
X128035600Y-96566559D02*
X128020244Y-96702840D01*
X128055406Y-94842224D02*
X128040614Y-94884496D01*
X124991966Y-94804303D02*
X124960297Y-94772634D01*
X122588887Y-97118349D02*
X122459440Y-97163644D01*
X126966190Y-97045384D02*
X126869215Y-96948409D01*
X128079233Y-94804303D02*
X128055406Y-94842224D01*
X128430585Y-94884496D02*
X128415793Y-94842224D01*
X129935600Y-95954000D02*
X129891095Y-95959014D01*
X126750955Y-96702840D02*
X126735600Y-96566559D01*
X129123159Y-97179000D02*
X129048040Y-97179000D01*
X123291966Y-94804303D02*
X123260297Y-94772634D01*
X128391966Y-94804303D02*
X128360297Y-94772634D01*
X129735600Y-96154000D02*
X129735600Y-96566559D01*
X128322376Y-94748807D02*
X128280104Y-94734015D01*
X126660297Y-94772634D02*
X126622376Y-94748807D01*
X121240614Y-94884496D02*
X121235600Y-94929000D01*
X127423159Y-97179000D02*
X127348040Y-97179000D01*
X124880104Y-94734015D02*
X124835600Y-94729000D01*
X126735600Y-96566559D02*
X126735600Y-94929000D01*
X129740614Y-96109495D02*
X129735600Y-96154000D01*
X126869215Y-96948409D02*
X126796250Y-96832287D01*
X127688887Y-97118349D02*
X127559440Y-97163644D01*
X129388887Y-97118349D02*
X129259440Y-97163644D01*
X131572000Y-96012000D02*
X131514000Y-95954000D01*
X131514000Y-95954000D02*
X129935600Y-95954000D01*
X129601984Y-96948409D02*
X129505009Y-97045384D01*
X129891095Y-95959014D02*
X129848823Y-95973806D01*
X123811759Y-97163644D02*
X123682312Y-97118349D01*
X129755406Y-96067223D02*
X129740614Y-96109495D01*
X128191095Y-94734015D02*
X128148823Y-94748807D01*
X129720244Y-96702840D02*
X129674949Y-96832287D01*
X129674949Y-96832287D02*
X129601984Y-96948409D01*
X129848823Y-95973806D02*
X129810902Y-95997633D01*
X127082312Y-97118349D02*
X126966190Y-97045384D01*
X129779233Y-96029302D02*
X129755406Y-96067223D01*
X129259440Y-97163644D02*
X129123159Y-97179000D01*
X127901984Y-96948409D02*
X127805009Y-97045384D01*
X129505009Y-97045384D02*
X129388887Y-97118349D01*
X119950955Y-96702840D02*
X119935600Y-96566559D01*
X128280104Y-94734015D02*
X128235600Y-94729000D01*
X129735600Y-96566559D02*
X129720244Y-96702840D01*
X128496250Y-96832287D02*
X128450955Y-96702840D01*
X128569215Y-96948409D02*
X128496250Y-96832287D01*
X128415793Y-94842224D02*
X128391966Y-94804303D01*
X129048040Y-97179000D02*
X128911759Y-97163644D01*
X126535600Y-94729000D02*
X126491095Y-94734015D01*
X127348040Y-97179000D02*
X127211759Y-97163644D01*
X125266190Y-97045384D02*
X125169215Y-96948409D01*
X124960297Y-94772634D02*
X124922376Y-94748807D01*
X125030585Y-94884496D02*
X125015793Y-94842224D01*
X128035600Y-94929000D02*
X128035600Y-96566559D01*
X128911759Y-97163644D02*
X128782312Y-97118349D01*
X128110902Y-94772634D02*
X128079233Y-94804303D01*
X124635600Y-96566559D02*
X124620244Y-96702840D01*
X124835600Y-94729000D02*
X124791095Y-94734015D01*
X128450955Y-96702840D02*
X128435600Y-96566559D01*
X120069215Y-96948409D02*
X119996250Y-96832287D01*
X121101984Y-96948409D02*
X121005009Y-97045384D01*
X128235600Y-94729000D02*
X128191095Y-94734015D01*
X128666190Y-97045384D02*
X128569215Y-96948409D01*
X122323159Y-97179000D02*
X122248040Y-97179000D01*
X128435600Y-94929000D02*
X128430585Y-94884496D01*
X120759440Y-97163644D02*
X120623159Y-97179000D01*
X121591966Y-94804303D02*
X121560297Y-94772634D01*
X123260297Y-94772634D02*
X123222376Y-94748807D01*
X119996250Y-96832287D02*
X119950955Y-96702840D01*
X126715793Y-94842224D02*
X126691966Y-94804303D01*
X123315793Y-94842224D02*
X123291966Y-94804303D01*
X126691966Y-94804303D02*
X126660297Y-94772634D01*
X127805009Y-97045384D02*
X127688887Y-97118349D01*
X126622376Y-94748807D02*
X126580104Y-94734015D01*
X122979233Y-94804303D02*
X122955406Y-94842224D01*
X128040614Y-94884496D02*
X128035600Y-94929000D01*
X126491095Y-94734015D02*
X126448823Y-94748807D01*
X122248040Y-97179000D02*
X122111759Y-97163644D01*
X126274949Y-96832287D02*
X126201984Y-96948409D01*
X126448823Y-94748807D02*
X126410902Y-94772634D01*
X128148823Y-94748807D02*
X128110902Y-94772634D01*
X126410902Y-94772634D02*
X126379233Y-94804303D01*
X119822376Y-95973806D02*
X119780104Y-95959014D01*
X126379233Y-94804303D02*
X126355406Y-94842224D01*
X125382312Y-97118349D02*
X125266190Y-97045384D01*
X119780104Y-95959014D02*
X119735600Y-95954000D01*
X126355406Y-94842224D02*
X126340614Y-94884496D01*
X126335600Y-96566559D02*
X126320244Y-96702840D01*
X126320244Y-96702840D02*
X126274949Y-96832287D01*
X126105009Y-97045384D02*
X125988887Y-97118349D01*
X128360297Y-94772634D02*
X128322376Y-94748807D01*
X126335600Y-94929000D02*
X126335600Y-96566559D01*
X124574949Y-96832287D02*
X124501984Y-96948409D01*
X125859440Y-97163644D02*
X125723159Y-97179000D01*
X125723159Y-97179000D02*
X125648040Y-97179000D01*
X125648040Y-97179000D02*
X125511759Y-97163644D01*
X124501984Y-96948409D02*
X124405009Y-97045384D01*
X123335600Y-94929000D02*
X123330585Y-94884496D01*
X125511759Y-97163644D02*
X125382312Y-97118349D01*
X123566190Y-97045384D02*
X123469215Y-96948409D01*
X119935600Y-96566559D02*
X119935600Y-96154000D01*
X125169215Y-96948409D02*
X125096250Y-96832287D01*
X115323200Y-95954000D02*
X114300000Y-96977200D01*
X119935600Y-96154000D02*
X119930585Y-96109495D01*
X125096250Y-96832287D02*
X125050955Y-96702840D01*
X119930585Y-96109495D02*
X119915793Y-96067223D01*
X126340614Y-94884496D02*
X126335600Y-94929000D01*
X125050955Y-96702840D02*
X125035600Y-96566559D01*
X125035600Y-94929000D02*
X125030585Y-94884496D01*
X121769215Y-96948409D02*
X121696250Y-96832287D01*
X124922376Y-94748807D02*
X124880104Y-94734015D01*
X128020244Y-96702840D02*
X127974949Y-96832287D01*
X124791095Y-94734015D02*
X124748823Y-94748807D01*
X124748823Y-94748807D02*
X124710902Y-94772634D01*
X121348823Y-94748807D02*
X121310902Y-94772634D01*
X124710902Y-94772634D02*
X124679233Y-94804303D01*
X124679233Y-94804303D02*
X124655406Y-94842224D01*
X127211759Y-97163644D02*
X127082312Y-97118349D01*
X126201984Y-96948409D02*
X126105009Y-97045384D01*
X124023159Y-97179000D02*
X123948040Y-97179000D01*
X124635600Y-94929000D02*
X124635600Y-96566559D01*
X124620244Y-96702840D02*
X124574949Y-96832287D01*
X121522376Y-94748807D02*
X121480104Y-94734015D01*
X124405009Y-97045384D02*
X124288887Y-97118349D01*
X128435600Y-96566559D02*
X128435600Y-94929000D01*
X123330585Y-94884496D02*
X123315793Y-94842224D01*
X128782312Y-97118349D02*
X128666190Y-97045384D01*
X124288887Y-97118349D02*
X124159440Y-97163644D01*
X121866190Y-97045384D02*
X121769215Y-96948409D01*
X124159440Y-97163644D02*
X124023159Y-97179000D01*
X121635600Y-96566559D02*
X121635600Y-94929000D01*
X122705009Y-97045384D02*
X122588887Y-97118349D01*
X123469215Y-96948409D02*
X123396250Y-96832287D01*
X123682312Y-97118349D02*
X123566190Y-97045384D01*
X124655406Y-94842224D02*
X124640614Y-94884496D01*
X123948040Y-97179000D02*
X123811759Y-97163644D01*
X123350955Y-96702840D02*
X123335600Y-96566559D01*
X125015793Y-94842224D02*
X124991966Y-94804303D01*
X123335600Y-96566559D02*
X123335600Y-94929000D01*
X125988887Y-97118349D02*
X125859440Y-97163644D01*
X123222376Y-94748807D02*
X123180104Y-94734015D01*
X123180104Y-94734015D02*
X123135600Y-94729000D01*
X123135600Y-94729000D02*
X123091095Y-94734015D01*
%TO.N,/CSI_CLK_N*%
X120038887Y-95564650D02*
X119909440Y-95519355D01*
X120155009Y-95637615D02*
X120038887Y-95564650D01*
X120251984Y-95734590D02*
X120155009Y-95637615D01*
X120385600Y-96116440D02*
X120370244Y-95980159D01*
X120390614Y-96573504D02*
X120385600Y-96529000D01*
X120405406Y-96615776D02*
X120390614Y-96573504D01*
X120460902Y-96685366D02*
X120429233Y-96653697D01*
X119773159Y-95504000D02*
X114249200Y-95504000D01*
X120498823Y-96709193D02*
X120460902Y-96685366D01*
X120630104Y-96723985D02*
X120585600Y-96729000D01*
X120710297Y-96685366D02*
X120672376Y-96709193D01*
X120741966Y-96653697D02*
X120710297Y-96685366D01*
X120785600Y-96529000D02*
X120780585Y-96573504D01*
X120800955Y-94755160D02*
X120785600Y-94891441D01*
X120919215Y-94509591D02*
X120846250Y-94625713D01*
X121261759Y-94294356D02*
X121132312Y-94339651D01*
X121398040Y-94279000D02*
X121261759Y-94294356D01*
X121473159Y-94279000D02*
X121398040Y-94279000D01*
X120585600Y-96729000D02*
X120541095Y-96723985D01*
X121738887Y-94339651D02*
X121609440Y-94294356D01*
X121855009Y-94412616D02*
X121738887Y-94339651D01*
X122024949Y-94625713D02*
X121951984Y-94509591D01*
X122070244Y-94755160D02*
X122024949Y-94625713D01*
X122085600Y-94891441D02*
X122070244Y-94755160D01*
X122129233Y-96653697D02*
X122105406Y-96615776D01*
X121132312Y-94339651D02*
X121016190Y-94412616D01*
X122241095Y-96723985D02*
X122198823Y-96709193D01*
X122198823Y-96709193D02*
X122160902Y-96685366D01*
X122285600Y-96729000D02*
X122241095Y-96723985D01*
X122480585Y-96573504D02*
X122465793Y-96615776D01*
X122485600Y-96529000D02*
X122480585Y-96573504D01*
X122500955Y-94755160D02*
X122485600Y-94891441D01*
X122546250Y-94625713D02*
X122500955Y-94755160D01*
X120672376Y-96709193D02*
X120630104Y-96723985D01*
X122961759Y-94294356D02*
X122832312Y-94339651D01*
X123098040Y-94279000D02*
X122961759Y-94294356D01*
X122716190Y-94412616D02*
X122619215Y-94509591D01*
X123173159Y-94279000D02*
X123098040Y-94279000D01*
X123309440Y-94294356D02*
X123173159Y-94279000D01*
X127190614Y-96573504D02*
X127185600Y-96529000D01*
X125885600Y-96529000D02*
X125880585Y-96573504D01*
X125009440Y-94294356D02*
X124873159Y-94279000D01*
X127205406Y-96615776D02*
X127190614Y-96573504D01*
X120780585Y-96573504D02*
X120765793Y-96615776D01*
X125885600Y-94891441D02*
X125885600Y-96529000D01*
X127260902Y-96685366D02*
X127229233Y-96653697D01*
X127298823Y-96709193D02*
X127260902Y-96685366D01*
X125351984Y-94509591D02*
X125255009Y-94412616D01*
X121609440Y-94294356D02*
X121473159Y-94279000D01*
X127541966Y-96653697D02*
X127510297Y-96685366D01*
X126838887Y-94339651D02*
X126709440Y-94294356D01*
X127585600Y-94891441D02*
X127585600Y-96529000D01*
X120324949Y-95850712D02*
X120251984Y-95734590D01*
X128061759Y-94294356D02*
X127932312Y-94339651D01*
X120370244Y-95980159D02*
X120324949Y-95850712D01*
X128198040Y-94279000D02*
X128061759Y-94294356D01*
X127051984Y-94509591D02*
X126955009Y-94412616D01*
X126019215Y-94509591D02*
X125946250Y-94625713D01*
X128409440Y-94294356D02*
X128273159Y-94279000D01*
X128538887Y-94339651D02*
X128409440Y-94294356D01*
X128655009Y-94412616D02*
X128538887Y-94339651D01*
X127719215Y-94509591D02*
X127646250Y-94625713D01*
X127580585Y-96573504D02*
X127565793Y-96615776D01*
X120846250Y-94625713D02*
X120800955Y-94755160D01*
X125865793Y-96615776D02*
X125841966Y-96653697D01*
X128751984Y-94509591D02*
X128655009Y-94412616D01*
X127932312Y-94339651D02*
X127816190Y-94412616D01*
X129285600Y-96529000D02*
X129280585Y-96573504D01*
X129419215Y-95734590D02*
X129346250Y-95850712D01*
X129085600Y-96729000D02*
X129041095Y-96723985D01*
X125485600Y-94891441D02*
X125470244Y-94755160D01*
X128885600Y-94891441D02*
X128870244Y-94755160D01*
X127185600Y-96529000D02*
X127185600Y-94891441D01*
X131043998Y-95504000D02*
X129898040Y-95504000D01*
X122090614Y-96573504D02*
X122085600Y-96529000D01*
X123985600Y-96729000D02*
X123941095Y-96723985D01*
X129761759Y-95519355D02*
X129632312Y-95564650D01*
X122330104Y-96723985D02*
X122285600Y-96729000D01*
X131235999Y-95311999D02*
X131043998Y-95504000D01*
X123438887Y-94339651D02*
X123309440Y-94294356D01*
X121951984Y-94509591D02*
X121855009Y-94412616D01*
X127341095Y-96723985D02*
X127298823Y-96709193D01*
X129285600Y-96116440D02*
X129285600Y-96529000D01*
X129898040Y-95504000D02*
X129761759Y-95519355D01*
X125730104Y-96723985D02*
X125685600Y-96729000D01*
X128273159Y-94279000D02*
X128198040Y-94279000D01*
X132100002Y-95504000D02*
X131908001Y-95311999D01*
X122485600Y-94891441D02*
X122485600Y-96529000D01*
X124661759Y-94294356D02*
X124532312Y-94339651D01*
X120785600Y-94891441D02*
X120785600Y-96529000D01*
X123790614Y-96573504D02*
X123785600Y-96529000D01*
X127472376Y-96709193D02*
X127430104Y-96723985D01*
X122160902Y-96685366D02*
X122129233Y-96653697D01*
X132537200Y-95504000D02*
X132100002Y-95504000D01*
X122372376Y-96709193D02*
X122330104Y-96723985D01*
X127229233Y-96653697D02*
X127205406Y-96615776D01*
X129346250Y-95850712D02*
X129300955Y-95980159D01*
X122619215Y-94509591D02*
X122546250Y-94625713D01*
X127170244Y-94755160D02*
X127124949Y-94625713D01*
X125598823Y-96709193D02*
X125560902Y-96685366D01*
X127430104Y-96723985D02*
X127385600Y-96729000D01*
X129241966Y-96653697D02*
X129210297Y-96685366D01*
X123555009Y-94412616D02*
X123438887Y-94339651D01*
X125641095Y-96723985D02*
X125598823Y-96709193D01*
X129041095Y-96723985D02*
X128998823Y-96709193D01*
X124185600Y-96529000D02*
X124180585Y-96573504D01*
X127600955Y-94755160D02*
X127585600Y-94891441D01*
X127565793Y-96615776D02*
X127541966Y-96653697D01*
X129172376Y-96709193D02*
X129130104Y-96723985D01*
X129265793Y-96615776D02*
X129241966Y-96653697D01*
X127510297Y-96685366D02*
X127472376Y-96709193D01*
X127816190Y-94412616D02*
X127719215Y-94509591D01*
X129130104Y-96723985D02*
X129085600Y-96729000D01*
X125138887Y-94339651D02*
X125009440Y-94294356D01*
X120429233Y-96653697D02*
X120405406Y-96615776D01*
X129632312Y-95564650D02*
X129516190Y-95637615D01*
X131908001Y-95311999D02*
X131235999Y-95311999D01*
X125685600Y-96729000D02*
X125641095Y-96723985D01*
X128960902Y-96685366D02*
X128929233Y-96653697D01*
X128885600Y-96529000D02*
X128885600Y-94891441D01*
X122832312Y-94339651D02*
X122716190Y-94412616D01*
X129210297Y-96685366D02*
X129172376Y-96709193D01*
X125529233Y-96653697D02*
X125505406Y-96615776D01*
X128929233Y-96653697D02*
X128905406Y-96615776D01*
X123941095Y-96723985D02*
X123898823Y-96709193D01*
X129300955Y-95980159D02*
X129285600Y-96116440D01*
X127585600Y-96529000D02*
X127580585Y-96573504D01*
X128890614Y-96573504D02*
X128885600Y-96529000D01*
X125946250Y-94625713D02*
X125900955Y-94755160D01*
X127185600Y-94891441D02*
X127170244Y-94755160D01*
X123651984Y-94509591D02*
X123555009Y-94412616D01*
X122105406Y-96615776D02*
X122090614Y-96573504D01*
X124072376Y-96709193D02*
X124030104Y-96723985D01*
X127124949Y-94625713D02*
X127051984Y-94509591D01*
X120765793Y-96615776D02*
X120741966Y-96653697D01*
X124319215Y-94509591D02*
X124246250Y-94625713D01*
X126955009Y-94412616D02*
X126838887Y-94339651D01*
X129516190Y-95637615D02*
X129419215Y-95734590D01*
X124873159Y-94279000D02*
X124798040Y-94279000D01*
X124200955Y-94755160D02*
X124185600Y-94891441D01*
X126498040Y-94279000D02*
X126361759Y-94294356D01*
X114249200Y-95504000D02*
X113792000Y-95961200D01*
X122441966Y-96653697D02*
X122410297Y-96685366D01*
X126361759Y-94294356D02*
X126232312Y-94339651D01*
X122410297Y-96685366D02*
X122372376Y-96709193D01*
X126232312Y-94339651D02*
X126116190Y-94412616D01*
X121016190Y-94412616D02*
X120919215Y-94509591D01*
X126116190Y-94412616D02*
X126019215Y-94509591D01*
X128905406Y-96615776D02*
X128890614Y-96573504D01*
X125900955Y-94755160D02*
X125885600Y-94891441D01*
X122085600Y-96529000D02*
X122085600Y-94891441D01*
X125560902Y-96685366D02*
X125529233Y-96653697D01*
X125880585Y-96573504D02*
X125865793Y-96615776D01*
X120385600Y-96529000D02*
X120385600Y-96116440D01*
X125841966Y-96653697D02*
X125810297Y-96685366D01*
X125505406Y-96615776D02*
X125490614Y-96573504D01*
X125810297Y-96685366D02*
X125772376Y-96709193D01*
X128824949Y-94625713D02*
X128751984Y-94509591D01*
X125772376Y-96709193D02*
X125730104Y-96723985D01*
X125490614Y-96573504D02*
X125485600Y-96529000D01*
X127646250Y-94625713D02*
X127600955Y-94755160D01*
X125485600Y-96529000D02*
X125485600Y-94891441D01*
X120541095Y-96723985D02*
X120498823Y-96709193D01*
X125470244Y-94755160D02*
X125424949Y-94625713D01*
X119909440Y-95519355D02*
X119773159Y-95504000D01*
X125424949Y-94625713D02*
X125351984Y-94509591D01*
X125255009Y-94412616D02*
X125138887Y-94339651D01*
X124246250Y-94625713D02*
X124200955Y-94755160D01*
X124798040Y-94279000D02*
X124661759Y-94294356D01*
X123805406Y-96615776D02*
X123790614Y-96573504D01*
X128870244Y-94755160D02*
X128824949Y-94625713D01*
X124532312Y-94339651D02*
X124416190Y-94412616D01*
X124416190Y-94412616D02*
X124319215Y-94509591D01*
X124185600Y-94891441D02*
X124185600Y-96529000D01*
X122465793Y-96615776D02*
X122441966Y-96653697D01*
X126709440Y-94294356D02*
X126573159Y-94279000D01*
X124180585Y-96573504D02*
X124165793Y-96615776D01*
X126573159Y-94279000D02*
X126498040Y-94279000D01*
X124165793Y-96615776D02*
X124141966Y-96653697D01*
X123724949Y-94625713D02*
X123651984Y-94509591D01*
X129280585Y-96573504D02*
X129265793Y-96615776D01*
X124110297Y-96685366D02*
X124072376Y-96709193D01*
X124030104Y-96723985D02*
X123985600Y-96729000D01*
X123898823Y-96709193D02*
X123860902Y-96685366D01*
X123860902Y-96685366D02*
X123829233Y-96653697D01*
X123829233Y-96653697D02*
X123805406Y-96615776D01*
X127385600Y-96729000D02*
X127341095Y-96723985D01*
X128998823Y-96709193D02*
X128960902Y-96685366D01*
X123785600Y-96529000D02*
X123785600Y-94891441D01*
X123785600Y-94891441D02*
X123770244Y-94755160D01*
X124141966Y-96653697D02*
X124110297Y-96685366D01*
X123770244Y-94755160D02*
X123724949Y-94625713D01*
%TO.N,+1V8*%
X122651400Y-104881800D02*
X122783600Y-104749600D01*
X120040400Y-104881800D02*
X122651400Y-104881800D01*
D15*
X122783600Y-104749600D02*
X122783600Y-106375200D01*
X124663200Y-108254800D02*
X125577600Y-108254800D01*
X122783600Y-106375200D02*
X124663200Y-108254800D01*
D14*
%TO.N,Net-(J1-Pad12)*%
X119318001Y-110326401D02*
X119746799Y-110326401D01*
X119064001Y-110326401D02*
X113792000Y-105054400D01*
X119746799Y-110326401D02*
X119064001Y-110326401D01*
X113792000Y-105054400D02*
X113792000Y-102108000D01*
X131052801Y-110326401D02*
X119746799Y-110326401D01*
X131724400Y-109654802D02*
X131052801Y-110326401D01*
X131724400Y-106578400D02*
X131724400Y-109654802D01*
%TD*%
D16*
%TO.N,GND*%
X137499115Y-76951330D02*
X137110473Y-77211012D01*
X136715592Y-77605893D01*
X136405336Y-78070224D01*
X136191628Y-78586161D01*
X136082680Y-79133877D01*
X136082680Y-79692323D01*
X136191628Y-80240039D01*
X136405336Y-80755976D01*
X136715592Y-81220307D01*
X137110473Y-81615188D01*
X137574804Y-81925444D01*
X138090741Y-82139152D01*
X138638457Y-82248100D01*
X139196903Y-82248100D01*
X139744619Y-82139152D01*
X140260556Y-81925444D01*
X140724887Y-81615188D01*
X141119768Y-81220307D01*
X141430024Y-80755976D01*
X141453001Y-80700505D01*
X141453000Y-90780000D01*
X139986419Y-90780000D01*
X139954000Y-90776807D01*
X139921581Y-90780000D01*
X139824617Y-90789550D01*
X139700207Y-90827290D01*
X139585550Y-90888575D01*
X139485052Y-90971052D01*
X139402575Y-91071550D01*
X139341290Y-91186207D01*
X139303550Y-91310617D01*
X139290807Y-91440000D01*
X139294000Y-91472418D01*
X139294001Y-109212971D01*
X139290807Y-109245400D01*
X139303550Y-109374783D01*
X139341290Y-109499193D01*
X139402575Y-109613850D01*
X139485052Y-109714348D01*
X139585550Y-109796825D01*
X139700207Y-109858110D01*
X139824617Y-109895850D01*
X139921581Y-109905400D01*
X139954000Y-109908593D01*
X139986419Y-109905400D01*
X141453000Y-109905400D01*
X141453001Y-112202335D01*
X141430024Y-112146864D01*
X141119768Y-111682533D01*
X140724887Y-111287652D01*
X140260556Y-110977396D01*
X139744619Y-110763688D01*
X139196903Y-110654740D01*
X138638457Y-110654740D01*
X138090741Y-110763688D01*
X137574804Y-110977396D01*
X137110473Y-111287652D01*
X136715592Y-111682533D01*
X136405336Y-112146864D01*
X136191628Y-112662801D01*
X136082680Y-113210517D01*
X136082680Y-113768963D01*
X136191628Y-114316679D01*
X136405336Y-114832616D01*
X136715592Y-115296947D01*
X137110473Y-115691828D01*
X137574804Y-116002084D01*
X137844721Y-116113887D01*
X106158484Y-116111516D01*
X106422676Y-116002084D01*
X106887007Y-115691828D01*
X107281888Y-115296947D01*
X107592144Y-114832616D01*
X107805852Y-114316679D01*
X107914800Y-113768963D01*
X107914800Y-113210517D01*
X107805852Y-112662801D01*
X107592144Y-112146864D01*
X107281888Y-111682533D01*
X106887007Y-111287652D01*
X106422676Y-110977396D01*
X105906739Y-110763688D01*
X105359023Y-110654740D01*
X104800577Y-110654740D01*
X104252861Y-110763688D01*
X103736924Y-110977396D01*
X103272593Y-111287652D01*
X102877712Y-111682533D01*
X102567456Y-112146864D01*
X102353748Y-112662801D01*
X102338491Y-112739504D01*
X102359746Y-105181000D01*
X104640981Y-105181000D01*
X104673400Y-105184193D01*
X104705819Y-105181000D01*
X104734594Y-105178166D01*
X104802783Y-105171450D01*
X104927193Y-105133710D01*
X105041850Y-105072425D01*
X105142348Y-104989948D01*
X105224825Y-104889450D01*
X105286110Y-104774793D01*
X105323850Y-104650383D01*
X105333400Y-104553419D01*
X105336593Y-104521000D01*
X105333400Y-104488581D01*
X105333400Y-100431261D01*
X107219800Y-100431261D01*
X107219800Y-100635139D01*
X107259574Y-100835098D01*
X107337595Y-101023456D01*
X107450863Y-101192974D01*
X107595026Y-101337137D01*
X107764544Y-101450405D01*
X107902397Y-101507506D01*
X107794795Y-101668544D01*
X107716774Y-101856902D01*
X107677000Y-102056861D01*
X107677000Y-102260739D01*
X107716774Y-102460698D01*
X107794795Y-102649056D01*
X107908063Y-102818574D01*
X108052226Y-102962737D01*
X108221744Y-103076005D01*
X108410102Y-103154026D01*
X108610061Y-103193800D01*
X108813939Y-103193800D01*
X109013898Y-103154026D01*
X109202256Y-103076005D01*
X109371774Y-102962737D01*
X109515937Y-102818574D01*
X109629205Y-102649056D01*
X109707226Y-102460698D01*
X109747000Y-102260739D01*
X109747000Y-102056861D01*
X109707226Y-101856902D01*
X109629205Y-101668544D01*
X109515937Y-101499026D01*
X109482858Y-101465947D01*
X109568888Y-101361119D01*
X109637138Y-101233432D01*
X109679166Y-101094884D01*
X109689801Y-100986904D01*
X109689801Y-100986895D01*
X109693356Y-100950800D01*
X109689801Y-100914705D01*
X109689801Y-100747245D01*
X110845247Y-99591800D01*
X118415154Y-99591800D01*
X119952346Y-101128993D01*
X119975362Y-101157038D01*
X120003406Y-101180053D01*
X120087280Y-101248887D01*
X120214966Y-101317137D01*
X120353515Y-101359165D01*
X120497600Y-101373356D01*
X120533705Y-101369800D01*
X129166971Y-101369800D01*
X129080963Y-101474600D01*
X125106794Y-101474600D01*
X125070699Y-101471045D01*
X125034604Y-101474600D01*
X125034595Y-101474600D01*
X124926615Y-101485235D01*
X124788067Y-101527263D01*
X124660380Y-101595513D01*
X124548462Y-101687362D01*
X124525446Y-101715407D01*
X124443725Y-101797128D01*
X124070100Y-101797128D01*
X123899284Y-101813952D01*
X123735033Y-101863777D01*
X123583658Y-101944688D01*
X123544442Y-101976872D01*
X123507542Y-101946588D01*
X123356167Y-101865677D01*
X123191916Y-101815852D01*
X123021100Y-101799028D01*
X122546100Y-101799028D01*
X122375284Y-101815852D01*
X122211033Y-101865677D01*
X122059658Y-101946588D01*
X121926977Y-102055477D01*
X121905441Y-102081719D01*
X121826293Y-102016764D01*
X121715979Y-101957799D01*
X121596281Y-101921489D01*
X121471799Y-101909229D01*
X120658999Y-101909229D01*
X120534517Y-101921489D01*
X120414819Y-101957799D01*
X120304505Y-102016764D01*
X120207814Y-102096116D01*
X120128462Y-102192807D01*
X120069497Y-102303121D01*
X120040400Y-102399041D01*
X120011303Y-102303121D01*
X119952338Y-102192807D01*
X119872986Y-102096116D01*
X119776295Y-102016764D01*
X119665981Y-101957799D01*
X119546283Y-101921489D01*
X119421801Y-101909229D01*
X119301151Y-101912301D01*
X119142401Y-102071051D01*
X119142401Y-102864801D01*
X119162401Y-102864801D01*
X119162401Y-103118801D01*
X119142401Y-103118801D01*
X119142401Y-103912551D01*
X119201023Y-103971173D01*
X119182815Y-103986115D01*
X119103463Y-104082806D01*
X119044498Y-104193120D01*
X119008188Y-104312818D01*
X118995928Y-104437300D01*
X118995928Y-105326300D01*
X119008188Y-105450782D01*
X119044498Y-105570480D01*
X119103463Y-105680794D01*
X119182815Y-105777485D01*
X119279506Y-105856837D01*
X119389820Y-105915802D01*
X119509518Y-105952112D01*
X119634000Y-105964372D01*
X120446800Y-105964372D01*
X120571282Y-105952112D01*
X120690980Y-105915802D01*
X120801294Y-105856837D01*
X120897985Y-105777485D01*
X120977337Y-105680794D01*
X121011543Y-105616800D01*
X121925399Y-105616800D01*
X121926977Y-105618723D01*
X122023601Y-105698020D01*
X122023601Y-106337868D01*
X122019924Y-106375200D01*
X122023601Y-106412533D01*
X122029898Y-106476461D01*
X122034598Y-106524185D01*
X122078054Y-106667446D01*
X122148626Y-106799476D01*
X122214956Y-106880298D01*
X122243600Y-106915201D01*
X122272598Y-106938999D01*
X124099401Y-108765803D01*
X124123199Y-108794801D01*
X124238924Y-108889774D01*
X124241966Y-108891400D01*
X123512311Y-108891400D01*
X123443374Y-108822463D01*
X123273856Y-108709195D01*
X123085498Y-108631174D01*
X122885539Y-108591400D01*
X122681661Y-108591400D01*
X122481702Y-108631174D01*
X122293344Y-108709195D01*
X122123826Y-108822463D01*
X122054889Y-108891400D01*
X119786047Y-108891400D01*
X115339800Y-104445154D01*
X115339800Y-103436301D01*
X117970929Y-103436301D01*
X117983189Y-103560783D01*
X118019499Y-103680481D01*
X118078464Y-103790795D01*
X118157816Y-103887486D01*
X118254507Y-103966838D01*
X118364821Y-104025803D01*
X118484519Y-104062113D01*
X118609001Y-104074373D01*
X118729651Y-104071301D01*
X118888401Y-103912551D01*
X118888401Y-103118801D01*
X118132751Y-103118801D01*
X117974001Y-103277551D01*
X117970929Y-103436301D01*
X115339800Y-103436301D01*
X115339800Y-102547301D01*
X117970929Y-102547301D01*
X117974001Y-102706051D01*
X118132751Y-102864801D01*
X118888401Y-102864801D01*
X118888401Y-102071051D01*
X118729651Y-101912301D01*
X118609001Y-101909229D01*
X118484519Y-101921489D01*
X118364821Y-101957799D01*
X118254507Y-102016764D01*
X118157816Y-102096116D01*
X118078464Y-102192807D01*
X118019499Y-102303121D01*
X117983189Y-102422819D01*
X117970929Y-102547301D01*
X115339800Y-102547301D01*
X115339800Y-101414311D01*
X115408737Y-101345374D01*
X115522005Y-101175856D01*
X115600026Y-100987498D01*
X115639800Y-100787539D01*
X115639800Y-100583661D01*
X115600026Y-100383702D01*
X115522005Y-100195344D01*
X115408737Y-100025826D01*
X115264574Y-99881663D01*
X115095056Y-99768395D01*
X114906698Y-99690374D01*
X114706739Y-99650600D01*
X114502861Y-99650600D01*
X114302902Y-99690374D01*
X114114544Y-99768395D01*
X113945026Y-99881663D01*
X113800863Y-100025826D01*
X113687595Y-100195344D01*
X113609574Y-100383702D01*
X113569800Y-100583661D01*
X113569800Y-100787539D01*
X113609574Y-100987498D01*
X113648421Y-101081283D01*
X113490102Y-101112774D01*
X113301744Y-101190795D01*
X113132226Y-101304063D01*
X112988063Y-101448226D01*
X112874795Y-101617744D01*
X112796774Y-101806102D01*
X112757000Y-102006061D01*
X112757000Y-102209939D01*
X112796774Y-102409898D01*
X112874795Y-102598256D01*
X112988063Y-102767774D01*
X113057001Y-102836712D01*
X113057000Y-105018295D01*
X113053444Y-105054400D01*
X113064972Y-105171450D01*
X113067635Y-105198484D01*
X113109663Y-105337032D01*
X113177913Y-105464719D01*
X113269762Y-105576637D01*
X113297807Y-105599653D01*
X118518747Y-110820594D01*
X118541763Y-110848639D01*
X118653681Y-110940488D01*
X118781368Y-111008738D01*
X118919916Y-111050766D01*
X119027896Y-111061401D01*
X119027905Y-111061401D01*
X119064000Y-111064956D01*
X119100095Y-111061401D01*
X131016696Y-111061401D01*
X131052801Y-111064957D01*
X131088906Y-111061401D01*
X131196886Y-111050766D01*
X131335434Y-111008738D01*
X131463121Y-110940488D01*
X131575039Y-110848639D01*
X131598059Y-110820589D01*
X132218593Y-110200056D01*
X132246638Y-110177040D01*
X132338487Y-110065122D01*
X132406737Y-109937435D01*
X132448765Y-109798887D01*
X132459400Y-109690907D01*
X132459400Y-109690898D01*
X132462955Y-109654803D01*
X132459400Y-109618708D01*
X132459400Y-107307111D01*
X132528337Y-107238174D01*
X132641605Y-107068656D01*
X132687523Y-106957800D01*
X133517095Y-106957800D01*
X133553200Y-106961356D01*
X133589305Y-106957800D01*
X133697285Y-106947165D01*
X133835833Y-106905137D01*
X133963520Y-106836887D01*
X134075438Y-106745038D01*
X134098459Y-106716987D01*
X134301392Y-106514054D01*
X134329437Y-106491038D01*
X134421287Y-106379120D01*
X134489537Y-106251433D01*
X134531565Y-106112885D01*
X134542200Y-106004905D01*
X134542200Y-106004896D01*
X134545755Y-105968801D01*
X134542200Y-105932706D01*
X134542200Y-104887294D01*
X134545755Y-104851199D01*
X134542200Y-104815104D01*
X134542200Y-104815095D01*
X134531565Y-104707115D01*
X134489537Y-104568567D01*
X134421287Y-104440880D01*
X134329438Y-104328962D01*
X134301387Y-104305941D01*
X134212814Y-104217368D01*
X134227838Y-104205038D01*
X134250859Y-104176987D01*
X134656992Y-103770854D01*
X134685037Y-103747838D01*
X134776887Y-103635920D01*
X134845137Y-103508233D01*
X134887165Y-103369685D01*
X134897800Y-103261705D01*
X134897800Y-103261696D01*
X134901355Y-103225601D01*
X134897800Y-103189506D01*
X134897800Y-100467694D01*
X134901355Y-100431599D01*
X134897800Y-100395504D01*
X134897800Y-100395495D01*
X134887165Y-100287515D01*
X134845137Y-100148967D01*
X134776887Y-100021280D01*
X134685038Y-99909362D01*
X134656987Y-99886341D01*
X134403259Y-99632613D01*
X134380238Y-99604562D01*
X134268320Y-99512713D01*
X134140633Y-99444463D01*
X134002085Y-99402435D01*
X133894105Y-99391800D01*
X133858000Y-99388244D01*
X133821895Y-99391800D01*
X121195667Y-99391800D01*
X119639468Y-97835602D01*
X119616448Y-97807552D01*
X119504530Y-97715703D01*
X119376843Y-97647453D01*
X119238295Y-97605425D01*
X119130315Y-97594790D01*
X119094210Y-97591234D01*
X119058105Y-97594790D01*
X115132123Y-97594790D01*
X115217205Y-97467456D01*
X115295226Y-97279098D01*
X115335000Y-97079139D01*
X115335000Y-96981647D01*
X115627647Y-96689000D01*
X119209103Y-96689000D01*
X119211235Y-96710643D01*
X119212744Y-96715619D01*
X119217691Y-96759520D01*
X119219651Y-96806080D01*
X119234310Y-96866392D01*
X119247277Y-96927120D01*
X119265716Y-96969928D01*
X119293980Y-97050704D01*
X119306256Y-97095675D01*
X119333978Y-97151231D01*
X119360122Y-97207527D01*
X119387624Y-97245158D01*
X119433163Y-97317633D01*
X119455129Y-97358728D01*
X119494501Y-97406704D01*
X119532538Y-97455797D01*
X119567724Y-97486364D01*
X119628235Y-97546875D01*
X119658802Y-97582061D01*
X119707887Y-97620092D01*
X119755870Y-97659470D01*
X119796970Y-97681438D01*
X119869446Y-97726978D01*
X119907073Y-97754477D01*
X119963362Y-97780618D01*
X120018924Y-97808343D01*
X120063895Y-97820619D01*
X120144669Y-97848882D01*
X120187473Y-97867320D01*
X120248198Y-97880287D01*
X120308518Y-97894948D01*
X120355079Y-97896908D01*
X120398975Y-97901854D01*
X120403955Y-97903365D01*
X120470885Y-97909957D01*
X120501619Y-97913420D01*
X120506782Y-97913492D01*
X120511935Y-97914000D01*
X120542936Y-97914000D01*
X120557048Y-97914198D01*
X120561088Y-97914943D01*
X120585599Y-97914599D01*
X120610111Y-97914943D01*
X120614151Y-97914198D01*
X120628263Y-97914000D01*
X120659264Y-97914000D01*
X120664417Y-97913492D01*
X120669579Y-97913420D01*
X120700306Y-97909958D01*
X120767244Y-97903365D01*
X120772225Y-97901854D01*
X120816119Y-97896908D01*
X120862680Y-97894948D01*
X120923005Y-97880286D01*
X120983725Y-97867320D01*
X121026524Y-97848884D01*
X121107304Y-97820619D01*
X121152275Y-97808343D01*
X121207831Y-97780621D01*
X121264127Y-97754477D01*
X121301758Y-97726975D01*
X121374233Y-97681436D01*
X121415328Y-97659470D01*
X121435599Y-97642834D01*
X121455870Y-97659470D01*
X121496970Y-97681438D01*
X121569446Y-97726978D01*
X121607073Y-97754477D01*
X121663362Y-97780618D01*
X121718924Y-97808343D01*
X121763895Y-97820619D01*
X121844669Y-97848882D01*
X121887473Y-97867320D01*
X121948198Y-97880287D01*
X122008518Y-97894948D01*
X122055079Y-97896908D01*
X122098975Y-97901854D01*
X122103955Y-97903365D01*
X122170885Y-97909957D01*
X122201619Y-97913420D01*
X122206782Y-97913492D01*
X122211935Y-97914000D01*
X122242936Y-97914000D01*
X122257048Y-97914198D01*
X122261088Y-97914943D01*
X122285599Y-97914599D01*
X122310111Y-97914943D01*
X122314151Y-97914198D01*
X122328263Y-97914000D01*
X122359264Y-97914000D01*
X122364417Y-97913492D01*
X122369579Y-97913420D01*
X122400306Y-97909958D01*
X122467244Y-97903365D01*
X122472225Y-97901854D01*
X122516119Y-97896908D01*
X122562680Y-97894948D01*
X122623005Y-97880286D01*
X122683725Y-97867320D01*
X122726524Y-97848884D01*
X122807304Y-97820619D01*
X122852275Y-97808343D01*
X122907831Y-97780621D01*
X122964127Y-97754477D01*
X123001758Y-97726975D01*
X123074233Y-97681436D01*
X123115328Y-97659470D01*
X123135599Y-97642834D01*
X123155870Y-97659470D01*
X123196970Y-97681438D01*
X123269446Y-97726978D01*
X123307073Y-97754477D01*
X123363362Y-97780618D01*
X123418924Y-97808343D01*
X123463895Y-97820619D01*
X123544669Y-97848882D01*
X123587473Y-97867320D01*
X123648198Y-97880287D01*
X123708518Y-97894948D01*
X123755079Y-97896908D01*
X123798975Y-97901854D01*
X123803955Y-97903365D01*
X123870885Y-97909957D01*
X123901619Y-97913420D01*
X123906782Y-97913492D01*
X123911935Y-97914000D01*
X123942936Y-97914000D01*
X123957048Y-97914198D01*
X123961088Y-97914943D01*
X123985599Y-97914599D01*
X124010111Y-97914943D01*
X124014151Y-97914198D01*
X124028263Y-97914000D01*
X124059264Y-97914000D01*
X124064417Y-97913492D01*
X124069579Y-97913420D01*
X124100306Y-97909958D01*
X124167244Y-97903365D01*
X124172225Y-97901854D01*
X124216119Y-97896908D01*
X124262680Y-97894948D01*
X124323005Y-97880286D01*
X124383725Y-97867320D01*
X124426524Y-97848884D01*
X124507304Y-97820619D01*
X124552275Y-97808343D01*
X124607831Y-97780621D01*
X124664127Y-97754477D01*
X124701758Y-97726975D01*
X124774233Y-97681436D01*
X124815328Y-97659470D01*
X124835599Y-97642834D01*
X124855870Y-97659470D01*
X124896970Y-97681438D01*
X124969446Y-97726978D01*
X125007073Y-97754477D01*
X125063362Y-97780618D01*
X125118924Y-97808343D01*
X125163895Y-97820619D01*
X125244669Y-97848882D01*
X125287473Y-97867320D01*
X125348198Y-97880287D01*
X125408518Y-97894948D01*
X125455079Y-97896908D01*
X125498975Y-97901854D01*
X125503955Y-97903365D01*
X125570885Y-97909957D01*
X125601619Y-97913420D01*
X125606782Y-97913492D01*
X125611935Y-97914000D01*
X125642936Y-97914000D01*
X125657048Y-97914198D01*
X125661088Y-97914943D01*
X125685599Y-97914599D01*
X125710111Y-97914943D01*
X125714151Y-97914198D01*
X125728263Y-97914000D01*
X125759264Y-97914000D01*
X125764417Y-97913492D01*
X125769579Y-97913420D01*
X125800306Y-97909958D01*
X125867244Y-97903365D01*
X125872225Y-97901854D01*
X125916119Y-97896908D01*
X125962680Y-97894948D01*
X126023005Y-97880286D01*
X126083725Y-97867320D01*
X126126524Y-97848884D01*
X126207304Y-97820619D01*
X126252275Y-97808343D01*
X126307831Y-97780621D01*
X126364127Y-97754477D01*
X126401758Y-97726975D01*
X126474233Y-97681436D01*
X126515328Y-97659470D01*
X126535599Y-97642834D01*
X126555870Y-97659470D01*
X126596970Y-97681438D01*
X126669446Y-97726978D01*
X126707073Y-97754477D01*
X126763362Y-97780618D01*
X126818924Y-97808343D01*
X126863895Y-97820619D01*
X126944669Y-97848882D01*
X126987473Y-97867320D01*
X127048198Y-97880287D01*
X127108518Y-97894948D01*
X127155079Y-97896908D01*
X127198975Y-97901854D01*
X127203955Y-97903365D01*
X127270885Y-97909957D01*
X127301619Y-97913420D01*
X127306782Y-97913492D01*
X127311935Y-97914000D01*
X127342936Y-97914000D01*
X127357048Y-97914198D01*
X127361088Y-97914943D01*
X127385599Y-97914599D01*
X127410111Y-97914943D01*
X127414151Y-97914198D01*
X127428263Y-97914000D01*
X127459264Y-97914000D01*
X127464417Y-97913492D01*
X127469579Y-97913420D01*
X127500306Y-97909958D01*
X127567244Y-97903365D01*
X127572225Y-97901854D01*
X127616119Y-97896908D01*
X127662680Y-97894948D01*
X127723005Y-97880286D01*
X127783725Y-97867320D01*
X127826524Y-97848884D01*
X127907304Y-97820619D01*
X127952275Y-97808343D01*
X128007831Y-97780621D01*
X128064127Y-97754477D01*
X128101758Y-97726975D01*
X128174233Y-97681436D01*
X128215328Y-97659470D01*
X128235599Y-97642834D01*
X128255870Y-97659470D01*
X128296970Y-97681438D01*
X128369446Y-97726978D01*
X128407073Y-97754477D01*
X128463362Y-97780618D01*
X128518924Y-97808343D01*
X128563895Y-97820619D01*
X128644669Y-97848882D01*
X128687473Y-97867320D01*
X128748198Y-97880287D01*
X128808518Y-97894948D01*
X128855079Y-97896908D01*
X128898975Y-97901854D01*
X128903955Y-97903365D01*
X128970885Y-97909957D01*
X129001619Y-97913420D01*
X129006782Y-97913492D01*
X129011935Y-97914000D01*
X129042936Y-97914000D01*
X129057048Y-97914198D01*
X129061088Y-97914943D01*
X129085599Y-97914599D01*
X129110111Y-97914943D01*
X129114151Y-97914198D01*
X129128263Y-97914000D01*
X129159264Y-97914000D01*
X129164417Y-97913492D01*
X129169579Y-97913420D01*
X129200306Y-97909958D01*
X129267244Y-97903365D01*
X129272225Y-97901854D01*
X129316119Y-97896908D01*
X129362680Y-97894948D01*
X129423005Y-97880286D01*
X129483725Y-97867320D01*
X129526524Y-97848884D01*
X129607304Y-97820619D01*
X129652275Y-97808343D01*
X129707831Y-97780621D01*
X129764127Y-97754477D01*
X129801758Y-97726975D01*
X129874233Y-97681436D01*
X129915328Y-97659470D01*
X129963304Y-97620098D01*
X130012397Y-97582061D01*
X130042964Y-97546875D01*
X130103475Y-97486364D01*
X130138661Y-97455797D01*
X130176692Y-97406712D01*
X130216070Y-97358729D01*
X130238038Y-97317629D01*
X130283578Y-97245153D01*
X130311077Y-97207526D01*
X130337218Y-97151237D01*
X130364943Y-97095675D01*
X130377219Y-97050704D01*
X130405482Y-96969930D01*
X130423920Y-96927126D01*
X130436887Y-96866401D01*
X130451548Y-96806081D01*
X130453508Y-96759520D01*
X130458454Y-96715624D01*
X130459965Y-96710644D01*
X130462097Y-96689000D01*
X130785289Y-96689000D01*
X130912226Y-96815937D01*
X131081744Y-96929205D01*
X131270102Y-97007226D01*
X131470061Y-97047000D01*
X131673939Y-97047000D01*
X131873898Y-97007226D01*
X132062256Y-96929205D01*
X132231774Y-96815937D01*
X132375937Y-96671774D01*
X132464654Y-96539000D01*
X132639139Y-96539000D01*
X132839098Y-96499226D01*
X133027456Y-96421205D01*
X133196974Y-96307937D01*
X133341137Y-96163774D01*
X133454405Y-95994256D01*
X133532426Y-95805898D01*
X133572200Y-95605939D01*
X133572200Y-95402061D01*
X133532426Y-95202102D01*
X133454405Y-95013744D01*
X133341137Y-94844226D01*
X133196974Y-94700063D01*
X133027456Y-94586795D01*
X132839098Y-94508774D01*
X132639139Y-94469000D01*
X132435261Y-94469000D01*
X132235302Y-94508774D01*
X132046944Y-94586795D01*
X132046510Y-94587085D01*
X131944106Y-94576999D01*
X131908001Y-94573443D01*
X131871896Y-94576999D01*
X131272093Y-94576999D01*
X131235998Y-94573444D01*
X131199903Y-94576999D01*
X131199894Y-94576999D01*
X131091914Y-94587634D01*
X130953366Y-94629662D01*
X130825679Y-94697912D01*
X130739058Y-94769000D01*
X129965225Y-94769000D01*
X129960116Y-94768058D01*
X129892968Y-94769000D01*
X129861935Y-94769000D01*
X129856781Y-94769508D01*
X129851624Y-94769580D01*
X129820905Y-94773041D01*
X129753955Y-94779635D01*
X129748977Y-94781145D01*
X129705083Y-94786091D01*
X129658518Y-94788051D01*
X129615014Y-94798624D01*
X129609965Y-94747356D01*
X129608454Y-94742376D01*
X129603508Y-94698480D01*
X129601548Y-94651919D01*
X129586887Y-94591599D01*
X129573920Y-94530874D01*
X129555482Y-94488070D01*
X129527219Y-94407296D01*
X129514943Y-94362325D01*
X129487218Y-94306763D01*
X129461077Y-94250474D01*
X129433578Y-94212847D01*
X129388038Y-94140371D01*
X129366070Y-94099271D01*
X129326692Y-94051288D01*
X129288661Y-94002203D01*
X129253475Y-93971636D01*
X129192964Y-93911125D01*
X129162397Y-93875939D01*
X129113304Y-93837902D01*
X129065328Y-93798530D01*
X129024233Y-93776564D01*
X128951758Y-93731025D01*
X128914127Y-93703523D01*
X128857831Y-93677379D01*
X128802275Y-93649657D01*
X128757304Y-93637381D01*
X128676524Y-93609116D01*
X128633725Y-93590680D01*
X128573005Y-93577714D01*
X128512680Y-93563052D01*
X128466119Y-93561092D01*
X128422225Y-93556146D01*
X128417244Y-93554635D01*
X128350306Y-93548042D01*
X128319579Y-93544580D01*
X128314417Y-93544508D01*
X128309264Y-93544000D01*
X128278263Y-93544000D01*
X128264151Y-93543802D01*
X128260111Y-93543057D01*
X128235599Y-93543401D01*
X128211088Y-93543057D01*
X128207048Y-93543802D01*
X128192936Y-93544000D01*
X128161935Y-93544000D01*
X128156782Y-93544508D01*
X128151619Y-93544580D01*
X128120885Y-93548043D01*
X128053955Y-93554635D01*
X128048975Y-93556146D01*
X128005079Y-93561092D01*
X127958518Y-93563052D01*
X127898198Y-93577713D01*
X127837473Y-93590680D01*
X127794669Y-93609118D01*
X127713895Y-93637381D01*
X127668924Y-93649657D01*
X127613362Y-93677382D01*
X127557073Y-93703523D01*
X127519446Y-93731022D01*
X127446970Y-93776562D01*
X127405870Y-93798530D01*
X127385599Y-93815166D01*
X127365328Y-93798530D01*
X127324233Y-93776564D01*
X127251758Y-93731025D01*
X127214127Y-93703523D01*
X127157831Y-93677379D01*
X127102275Y-93649657D01*
X127057304Y-93637381D01*
X126976524Y-93609116D01*
X126933725Y-93590680D01*
X126873005Y-93577714D01*
X126812680Y-93563052D01*
X126766119Y-93561092D01*
X126722225Y-93556146D01*
X126717244Y-93554635D01*
X126650306Y-93548042D01*
X126619579Y-93544580D01*
X126614417Y-93544508D01*
X126609264Y-93544000D01*
X126578263Y-93544000D01*
X126564151Y-93543802D01*
X126560111Y-93543057D01*
X126535599Y-93543401D01*
X126511088Y-93543057D01*
X126507048Y-93543802D01*
X126492936Y-93544000D01*
X126461935Y-93544000D01*
X126456782Y-93544508D01*
X126451619Y-93544580D01*
X126420885Y-93548043D01*
X126353955Y-93554635D01*
X126348975Y-93556146D01*
X126305079Y-93561092D01*
X126258518Y-93563052D01*
X126198198Y-93577713D01*
X126137473Y-93590680D01*
X126094669Y-93609118D01*
X126013895Y-93637381D01*
X125968924Y-93649657D01*
X125913362Y-93677382D01*
X125857073Y-93703523D01*
X125819446Y-93731022D01*
X125746970Y-93776562D01*
X125705870Y-93798530D01*
X125685599Y-93815166D01*
X125665328Y-93798530D01*
X125624233Y-93776564D01*
X125551758Y-93731025D01*
X125514127Y-93703523D01*
X125457831Y-93677379D01*
X125402275Y-93649657D01*
X125357304Y-93637381D01*
X125276524Y-93609116D01*
X125233725Y-93590680D01*
X125173005Y-93577714D01*
X125112680Y-93563052D01*
X125066119Y-93561092D01*
X125022225Y-93556146D01*
X125017244Y-93554635D01*
X124950306Y-93548042D01*
X124919579Y-93544580D01*
X124914417Y-93544508D01*
X124909264Y-93544000D01*
X124878263Y-93544000D01*
X124864151Y-93543802D01*
X124860111Y-93543057D01*
X124835599Y-93543401D01*
X124811088Y-93543057D01*
X124807048Y-93543802D01*
X124792936Y-93544000D01*
X124761935Y-93544000D01*
X124756782Y-93544508D01*
X124751619Y-93544580D01*
X124720885Y-93548043D01*
X124653955Y-93554635D01*
X124648975Y-93556146D01*
X124605079Y-93561092D01*
X124558518Y-93563052D01*
X124498198Y-93577713D01*
X124437473Y-93590680D01*
X124394669Y-93609118D01*
X124313895Y-93637381D01*
X124268924Y-93649657D01*
X124213362Y-93677382D01*
X124157073Y-93703523D01*
X124119446Y-93731022D01*
X124046970Y-93776562D01*
X124005870Y-93798530D01*
X123985599Y-93815166D01*
X123965328Y-93798530D01*
X123924233Y-93776564D01*
X123851758Y-93731025D01*
X123814127Y-93703523D01*
X123757831Y-93677379D01*
X123702275Y-93649657D01*
X123657304Y-93637381D01*
X123576524Y-93609116D01*
X123533725Y-93590680D01*
X123473005Y-93577714D01*
X123412680Y-93563052D01*
X123366119Y-93561092D01*
X123322225Y-93556146D01*
X123317244Y-93554635D01*
X123250306Y-93548042D01*
X123219579Y-93544580D01*
X123214417Y-93544508D01*
X123209264Y-93544000D01*
X123178263Y-93544000D01*
X123164151Y-93543802D01*
X123160111Y-93543057D01*
X123135599Y-93543401D01*
X123111088Y-93543057D01*
X123107048Y-93543802D01*
X123092936Y-93544000D01*
X123061935Y-93544000D01*
X123056782Y-93544508D01*
X123051619Y-93544580D01*
X123020885Y-93548043D01*
X122953955Y-93554635D01*
X122948975Y-93556146D01*
X122905079Y-93561092D01*
X122858518Y-93563052D01*
X122798198Y-93577713D01*
X122737473Y-93590680D01*
X122694669Y-93609118D01*
X122613895Y-93637381D01*
X122568924Y-93649657D01*
X122513362Y-93677382D01*
X122457073Y-93703523D01*
X122419446Y-93731022D01*
X122346970Y-93776562D01*
X122305870Y-93798530D01*
X122285599Y-93815166D01*
X122265328Y-93798530D01*
X122224233Y-93776564D01*
X122151758Y-93731025D01*
X122114127Y-93703523D01*
X122057831Y-93677379D01*
X122002275Y-93649657D01*
X121957304Y-93637381D01*
X121876524Y-93609116D01*
X121833725Y-93590680D01*
X121773005Y-93577714D01*
X121712680Y-93563052D01*
X121666119Y-93561092D01*
X121622225Y-93556146D01*
X121617244Y-93554635D01*
X121550306Y-93548042D01*
X121519579Y-93544580D01*
X121514417Y-93544508D01*
X121509264Y-93544000D01*
X121478263Y-93544000D01*
X121464151Y-93543802D01*
X121460111Y-93543057D01*
X121435599Y-93543401D01*
X121411088Y-93543057D01*
X121407048Y-93543802D01*
X121392936Y-93544000D01*
X121361935Y-93544000D01*
X121356782Y-93544508D01*
X121351619Y-93544580D01*
X121320885Y-93548043D01*
X121253955Y-93554635D01*
X121248975Y-93556146D01*
X121205079Y-93561092D01*
X121158518Y-93563052D01*
X121098198Y-93577713D01*
X121037473Y-93590680D01*
X120994669Y-93609118D01*
X120913895Y-93637381D01*
X120868924Y-93649657D01*
X120813362Y-93677382D01*
X120757073Y-93703523D01*
X120719446Y-93731022D01*
X120646970Y-93776562D01*
X120605870Y-93798530D01*
X120557887Y-93837908D01*
X120508802Y-93875939D01*
X120478235Y-93911125D01*
X120417724Y-93971636D01*
X120382538Y-94002203D01*
X120344501Y-94051296D01*
X120305129Y-94099272D01*
X120283163Y-94140367D01*
X120237624Y-94212842D01*
X120210122Y-94250473D01*
X120183978Y-94306769D01*
X120156256Y-94362325D01*
X120143980Y-94407296D01*
X120115716Y-94488072D01*
X120097277Y-94530880D01*
X120084310Y-94591608D01*
X120069651Y-94651920D01*
X120067691Y-94698480D01*
X120062744Y-94742381D01*
X120061235Y-94747357D01*
X120056186Y-94798625D01*
X120012680Y-94788051D01*
X119966120Y-94786091D01*
X119922220Y-94781144D01*
X119917244Y-94779635D01*
X119850340Y-94773046D01*
X119819573Y-94769579D01*
X119814407Y-94769507D01*
X119809264Y-94769000D01*
X119778274Y-94769000D01*
X119711083Y-94768058D01*
X119705974Y-94769000D01*
X114285294Y-94769000D01*
X114249199Y-94765445D01*
X114213104Y-94769000D01*
X114213095Y-94769000D01*
X114105115Y-94779635D01*
X113966567Y-94821663D01*
X113838880Y-94889913D01*
X113794664Y-94926200D01*
X113690061Y-94926200D01*
X113490102Y-94965974D01*
X113301744Y-95043995D01*
X113132226Y-95157263D01*
X112988063Y-95301426D01*
X112874795Y-95470944D01*
X112796774Y-95659302D01*
X112757000Y-95859261D01*
X112757000Y-96063139D01*
X112796774Y-96263098D01*
X112874795Y-96451456D01*
X112988063Y-96620974D01*
X113132226Y-96765137D01*
X113268759Y-96856365D01*
X113265000Y-96875261D01*
X113265000Y-97079139D01*
X113304774Y-97279098D01*
X113382795Y-97467456D01*
X113467877Y-97594790D01*
X109986315Y-97594790D01*
X109950210Y-97591234D01*
X109914105Y-97594790D01*
X109806125Y-97605425D01*
X109667577Y-97647453D01*
X109539890Y-97715703D01*
X109427972Y-97807552D01*
X109404956Y-97835597D01*
X107760608Y-99479946D01*
X107732562Y-99502963D01*
X107640713Y-99614881D01*
X107572463Y-99742568D01*
X107568432Y-99755857D01*
X107450863Y-99873426D01*
X107337595Y-100042944D01*
X107259574Y-100231302D01*
X107219800Y-100431261D01*
X105333400Y-100431261D01*
X105333400Y-88551419D01*
X105336593Y-88519000D01*
X105323850Y-88389617D01*
X105286110Y-88265207D01*
X105224825Y-88150550D01*
X105142348Y-88050052D01*
X105041850Y-87967575D01*
X104927193Y-87906290D01*
X104802783Y-87868550D01*
X104705819Y-87859000D01*
X104673400Y-87855807D01*
X104640981Y-87859000D01*
X102362519Y-87859000D01*
X102373063Y-80286669D01*
X102567456Y-80755976D01*
X102877712Y-81220307D01*
X103272593Y-81615188D01*
X103736924Y-81925444D01*
X104252861Y-82139152D01*
X104800577Y-82248100D01*
X105359023Y-82248100D01*
X105906739Y-82139152D01*
X106422676Y-81925444D01*
X106887007Y-81615188D01*
X107281888Y-81220307D01*
X107592144Y-80755976D01*
X107805852Y-80240039D01*
X107914800Y-79692323D01*
X107914800Y-79133877D01*
X107805852Y-78586161D01*
X107592144Y-78070224D01*
X107281888Y-77605893D01*
X106887007Y-77211012D01*
X106494914Y-76949024D01*
X137499115Y-76951330D01*
%TA.AperFunction,Conductor*%
D17*
G36*
X137499115Y-76951330D02*
G01*
X137110473Y-77211012D01*
X136715592Y-77605893D01*
X136405336Y-78070224D01*
X136191628Y-78586161D01*
X136082680Y-79133877D01*
X136082680Y-79692323D01*
X136191628Y-80240039D01*
X136405336Y-80755976D01*
X136715592Y-81220307D01*
X137110473Y-81615188D01*
X137574804Y-81925444D01*
X138090741Y-82139152D01*
X138638457Y-82248100D01*
X139196903Y-82248100D01*
X139744619Y-82139152D01*
X140260556Y-81925444D01*
X140724887Y-81615188D01*
X141119768Y-81220307D01*
X141430024Y-80755976D01*
X141453001Y-80700505D01*
X141453000Y-90780000D01*
X139986419Y-90780000D01*
X139954000Y-90776807D01*
X139921581Y-90780000D01*
X139824617Y-90789550D01*
X139700207Y-90827290D01*
X139585550Y-90888575D01*
X139485052Y-90971052D01*
X139402575Y-91071550D01*
X139341290Y-91186207D01*
X139303550Y-91310617D01*
X139290807Y-91440000D01*
X139294000Y-91472418D01*
X139294001Y-109212971D01*
X139290807Y-109245400D01*
X139303550Y-109374783D01*
X139341290Y-109499193D01*
X139402575Y-109613850D01*
X139485052Y-109714348D01*
X139585550Y-109796825D01*
X139700207Y-109858110D01*
X139824617Y-109895850D01*
X139921581Y-109905400D01*
X139954000Y-109908593D01*
X139986419Y-109905400D01*
X141453000Y-109905400D01*
X141453001Y-112202335D01*
X141430024Y-112146864D01*
X141119768Y-111682533D01*
X140724887Y-111287652D01*
X140260556Y-110977396D01*
X139744619Y-110763688D01*
X139196903Y-110654740D01*
X138638457Y-110654740D01*
X138090741Y-110763688D01*
X137574804Y-110977396D01*
X137110473Y-111287652D01*
X136715592Y-111682533D01*
X136405336Y-112146864D01*
X136191628Y-112662801D01*
X136082680Y-113210517D01*
X136082680Y-113768963D01*
X136191628Y-114316679D01*
X136405336Y-114832616D01*
X136715592Y-115296947D01*
X137110473Y-115691828D01*
X137574804Y-116002084D01*
X137844721Y-116113887D01*
X106158484Y-116111516D01*
X106422676Y-116002084D01*
X106887007Y-115691828D01*
X107281888Y-115296947D01*
X107592144Y-114832616D01*
X107805852Y-114316679D01*
X107914800Y-113768963D01*
X107914800Y-113210517D01*
X107805852Y-112662801D01*
X107592144Y-112146864D01*
X107281888Y-111682533D01*
X106887007Y-111287652D01*
X106422676Y-110977396D01*
X105906739Y-110763688D01*
X105359023Y-110654740D01*
X104800577Y-110654740D01*
X104252861Y-110763688D01*
X103736924Y-110977396D01*
X103272593Y-111287652D01*
X102877712Y-111682533D01*
X102567456Y-112146864D01*
X102353748Y-112662801D01*
X102338491Y-112739504D01*
X102359746Y-105181000D01*
X104640981Y-105181000D01*
X104673400Y-105184193D01*
X104705819Y-105181000D01*
X104734594Y-105178166D01*
X104802783Y-105171450D01*
X104927193Y-105133710D01*
X105041850Y-105072425D01*
X105142348Y-104989948D01*
X105224825Y-104889450D01*
X105286110Y-104774793D01*
X105323850Y-104650383D01*
X105333400Y-104553419D01*
X105336593Y-104521000D01*
X105333400Y-104488581D01*
X105333400Y-100431261D01*
X107219800Y-100431261D01*
X107219800Y-100635139D01*
X107259574Y-100835098D01*
X107337595Y-101023456D01*
X107450863Y-101192974D01*
X107595026Y-101337137D01*
X107764544Y-101450405D01*
X107902397Y-101507506D01*
X107794795Y-101668544D01*
X107716774Y-101856902D01*
X107677000Y-102056861D01*
X107677000Y-102260739D01*
X107716774Y-102460698D01*
X107794795Y-102649056D01*
X107908063Y-102818574D01*
X108052226Y-102962737D01*
X108221744Y-103076005D01*
X108410102Y-103154026D01*
X108610061Y-103193800D01*
X108813939Y-103193800D01*
X109013898Y-103154026D01*
X109202256Y-103076005D01*
X109371774Y-102962737D01*
X109515937Y-102818574D01*
X109629205Y-102649056D01*
X109707226Y-102460698D01*
X109747000Y-102260739D01*
X109747000Y-102056861D01*
X109707226Y-101856902D01*
X109629205Y-101668544D01*
X109515937Y-101499026D01*
X109482858Y-101465947D01*
X109568888Y-101361119D01*
X109637138Y-101233432D01*
X109679166Y-101094884D01*
X109689801Y-100986904D01*
X109689801Y-100986895D01*
X109693356Y-100950800D01*
X109689801Y-100914705D01*
X109689801Y-100747245D01*
X110845247Y-99591800D01*
X118415154Y-99591800D01*
X119952346Y-101128993D01*
X119975362Y-101157038D01*
X120003406Y-101180053D01*
X120087280Y-101248887D01*
X120214966Y-101317137D01*
X120353515Y-101359165D01*
X120497600Y-101373356D01*
X120533705Y-101369800D01*
X129166971Y-101369800D01*
X129080963Y-101474600D01*
X125106794Y-101474600D01*
X125070699Y-101471045D01*
X125034604Y-101474600D01*
X125034595Y-101474600D01*
X124926615Y-101485235D01*
X124788067Y-101527263D01*
X124660380Y-101595513D01*
X124548462Y-101687362D01*
X124525446Y-101715407D01*
X124443725Y-101797128D01*
X124070100Y-101797128D01*
X123899284Y-101813952D01*
X123735033Y-101863777D01*
X123583658Y-101944688D01*
X123544442Y-101976872D01*
X123507542Y-101946588D01*
X123356167Y-101865677D01*
X123191916Y-101815852D01*
X123021100Y-101799028D01*
X122546100Y-101799028D01*
X122375284Y-101815852D01*
X122211033Y-101865677D01*
X122059658Y-101946588D01*
X121926977Y-102055477D01*
X121905441Y-102081719D01*
X121826293Y-102016764D01*
X121715979Y-101957799D01*
X121596281Y-101921489D01*
X121471799Y-101909229D01*
X120658999Y-101909229D01*
X120534517Y-101921489D01*
X120414819Y-101957799D01*
X120304505Y-102016764D01*
X120207814Y-102096116D01*
X120128462Y-102192807D01*
X120069497Y-102303121D01*
X120040400Y-102399041D01*
X120011303Y-102303121D01*
X119952338Y-102192807D01*
X119872986Y-102096116D01*
X119776295Y-102016764D01*
X119665981Y-101957799D01*
X119546283Y-101921489D01*
X119421801Y-101909229D01*
X119301151Y-101912301D01*
X119142401Y-102071051D01*
X119142401Y-102864801D01*
X119162401Y-102864801D01*
X119162401Y-103118801D01*
X119142401Y-103118801D01*
X119142401Y-103912551D01*
X119201023Y-103971173D01*
X119182815Y-103986115D01*
X119103463Y-104082806D01*
X119044498Y-104193120D01*
X119008188Y-104312818D01*
X118995928Y-104437300D01*
X118995928Y-105326300D01*
X119008188Y-105450782D01*
X119044498Y-105570480D01*
X119103463Y-105680794D01*
X119182815Y-105777485D01*
X119279506Y-105856837D01*
X119389820Y-105915802D01*
X119509518Y-105952112D01*
X119634000Y-105964372D01*
X120446800Y-105964372D01*
X120571282Y-105952112D01*
X120690980Y-105915802D01*
X120801294Y-105856837D01*
X120897985Y-105777485D01*
X120977337Y-105680794D01*
X121011543Y-105616800D01*
X121925399Y-105616800D01*
X121926977Y-105618723D01*
X122023601Y-105698020D01*
X122023601Y-106337868D01*
X122019924Y-106375200D01*
X122023601Y-106412533D01*
X122029898Y-106476461D01*
X122034598Y-106524185D01*
X122078054Y-106667446D01*
X122148626Y-106799476D01*
X122214956Y-106880298D01*
X122243600Y-106915201D01*
X122272598Y-106938999D01*
X124099401Y-108765803D01*
X124123199Y-108794801D01*
X124238924Y-108889774D01*
X124241966Y-108891400D01*
X123512311Y-108891400D01*
X123443374Y-108822463D01*
X123273856Y-108709195D01*
X123085498Y-108631174D01*
X122885539Y-108591400D01*
X122681661Y-108591400D01*
X122481702Y-108631174D01*
X122293344Y-108709195D01*
X122123826Y-108822463D01*
X122054889Y-108891400D01*
X119786047Y-108891400D01*
X115339800Y-104445154D01*
X115339800Y-103436301D01*
X117970929Y-103436301D01*
X117983189Y-103560783D01*
X118019499Y-103680481D01*
X118078464Y-103790795D01*
X118157816Y-103887486D01*
X118254507Y-103966838D01*
X118364821Y-104025803D01*
X118484519Y-104062113D01*
X118609001Y-104074373D01*
X118729651Y-104071301D01*
X118888401Y-103912551D01*
X118888401Y-103118801D01*
X118132751Y-103118801D01*
X117974001Y-103277551D01*
X117970929Y-103436301D01*
X115339800Y-103436301D01*
X115339800Y-102547301D01*
X117970929Y-102547301D01*
X117974001Y-102706051D01*
X118132751Y-102864801D01*
X118888401Y-102864801D01*
X118888401Y-102071051D01*
X118729651Y-101912301D01*
X118609001Y-101909229D01*
X118484519Y-101921489D01*
X118364821Y-101957799D01*
X118254507Y-102016764D01*
X118157816Y-102096116D01*
X118078464Y-102192807D01*
X118019499Y-102303121D01*
X117983189Y-102422819D01*
X117970929Y-102547301D01*
X115339800Y-102547301D01*
X115339800Y-101414311D01*
X115408737Y-101345374D01*
X115522005Y-101175856D01*
X115600026Y-100987498D01*
X115639800Y-100787539D01*
X115639800Y-100583661D01*
X115600026Y-100383702D01*
X115522005Y-100195344D01*
X115408737Y-100025826D01*
X115264574Y-99881663D01*
X115095056Y-99768395D01*
X114906698Y-99690374D01*
X114706739Y-99650600D01*
X114502861Y-99650600D01*
X114302902Y-99690374D01*
X114114544Y-99768395D01*
X113945026Y-99881663D01*
X113800863Y-100025826D01*
X113687595Y-100195344D01*
X113609574Y-100383702D01*
X113569800Y-100583661D01*
X113569800Y-100787539D01*
X113609574Y-100987498D01*
X113648421Y-101081283D01*
X113490102Y-101112774D01*
X113301744Y-101190795D01*
X113132226Y-101304063D01*
X112988063Y-101448226D01*
X112874795Y-101617744D01*
X112796774Y-101806102D01*
X112757000Y-102006061D01*
X112757000Y-102209939D01*
X112796774Y-102409898D01*
X112874795Y-102598256D01*
X112988063Y-102767774D01*
X113057001Y-102836712D01*
X113057000Y-105018295D01*
X113053444Y-105054400D01*
X113064972Y-105171450D01*
X113067635Y-105198484D01*
X113109663Y-105337032D01*
X113177913Y-105464719D01*
X113269762Y-105576637D01*
X113297807Y-105599653D01*
X118518747Y-110820594D01*
X118541763Y-110848639D01*
X118653681Y-110940488D01*
X118781368Y-111008738D01*
X118919916Y-111050766D01*
X119027896Y-111061401D01*
X119027905Y-111061401D01*
X119064000Y-111064956D01*
X119100095Y-111061401D01*
X131016696Y-111061401D01*
X131052801Y-111064957D01*
X131088906Y-111061401D01*
X131196886Y-111050766D01*
X131335434Y-111008738D01*
X131463121Y-110940488D01*
X131575039Y-110848639D01*
X131598059Y-110820589D01*
X132218593Y-110200056D01*
X132246638Y-110177040D01*
X132338487Y-110065122D01*
X132406737Y-109937435D01*
X132448765Y-109798887D01*
X132459400Y-109690907D01*
X132459400Y-109690898D01*
X132462955Y-109654803D01*
X132459400Y-109618708D01*
X132459400Y-107307111D01*
X132528337Y-107238174D01*
X132641605Y-107068656D01*
X132687523Y-106957800D01*
X133517095Y-106957800D01*
X133553200Y-106961356D01*
X133589305Y-106957800D01*
X133697285Y-106947165D01*
X133835833Y-106905137D01*
X133963520Y-106836887D01*
X134075438Y-106745038D01*
X134098459Y-106716987D01*
X134301392Y-106514054D01*
X134329437Y-106491038D01*
X134421287Y-106379120D01*
X134489537Y-106251433D01*
X134531565Y-106112885D01*
X134542200Y-106004905D01*
X134542200Y-106004896D01*
X134545755Y-105968801D01*
X134542200Y-105932706D01*
X134542200Y-104887294D01*
X134545755Y-104851199D01*
X134542200Y-104815104D01*
X134542200Y-104815095D01*
X134531565Y-104707115D01*
X134489537Y-104568567D01*
X134421287Y-104440880D01*
X134329438Y-104328962D01*
X134301387Y-104305941D01*
X134212814Y-104217368D01*
X134227838Y-104205038D01*
X134250859Y-104176987D01*
X134656992Y-103770854D01*
X134685037Y-103747838D01*
X134776887Y-103635920D01*
X134845137Y-103508233D01*
X134887165Y-103369685D01*
X134897800Y-103261705D01*
X134897800Y-103261696D01*
X134901355Y-103225601D01*
X134897800Y-103189506D01*
X134897800Y-100467694D01*
X134901355Y-100431599D01*
X134897800Y-100395504D01*
X134897800Y-100395495D01*
X134887165Y-100287515D01*
X134845137Y-100148967D01*
X134776887Y-100021280D01*
X134685038Y-99909362D01*
X134656987Y-99886341D01*
X134403259Y-99632613D01*
X134380238Y-99604562D01*
X134268320Y-99512713D01*
X134140633Y-99444463D01*
X134002085Y-99402435D01*
X133894105Y-99391800D01*
X133858000Y-99388244D01*
X133821895Y-99391800D01*
X121195667Y-99391800D01*
X119639468Y-97835602D01*
X119616448Y-97807552D01*
X119504530Y-97715703D01*
X119376843Y-97647453D01*
X119238295Y-97605425D01*
X119130315Y-97594790D01*
X119094210Y-97591234D01*
X119058105Y-97594790D01*
X115132123Y-97594790D01*
X115217205Y-97467456D01*
X115295226Y-97279098D01*
X115335000Y-97079139D01*
X115335000Y-96981647D01*
X115627647Y-96689000D01*
X119209103Y-96689000D01*
X119211235Y-96710643D01*
X119212744Y-96715619D01*
X119217691Y-96759520D01*
X119219651Y-96806080D01*
X119234310Y-96866392D01*
X119247277Y-96927120D01*
X119265716Y-96969928D01*
X119293980Y-97050704D01*
X119306256Y-97095675D01*
X119333978Y-97151231D01*
X119360122Y-97207527D01*
X119387624Y-97245158D01*
X119433163Y-97317633D01*
X119455129Y-97358728D01*
X119494501Y-97406704D01*
X119532538Y-97455797D01*
X119567724Y-97486364D01*
X119628235Y-97546875D01*
X119658802Y-97582061D01*
X119707887Y-97620092D01*
X119755870Y-97659470D01*
X119796970Y-97681438D01*
X119869446Y-97726978D01*
X119907073Y-97754477D01*
X119963362Y-97780618D01*
X120018924Y-97808343D01*
X120063895Y-97820619D01*
X120144669Y-97848882D01*
X120187473Y-97867320D01*
X120248198Y-97880287D01*
X120308518Y-97894948D01*
X120355079Y-97896908D01*
X120398975Y-97901854D01*
X120403955Y-97903365D01*
X120470885Y-97909957D01*
X120501619Y-97913420D01*
X120506782Y-97913492D01*
X120511935Y-97914000D01*
X120542936Y-97914000D01*
X120557048Y-97914198D01*
X120561088Y-97914943D01*
X120585599Y-97914599D01*
X120610111Y-97914943D01*
X120614151Y-97914198D01*
X120628263Y-97914000D01*
X120659264Y-97914000D01*
X120664417Y-97913492D01*
X120669579Y-97913420D01*
X120700306Y-97909958D01*
X120767244Y-97903365D01*
X120772225Y-97901854D01*
X120816119Y-97896908D01*
X120862680Y-97894948D01*
X120923005Y-97880286D01*
X120983725Y-97867320D01*
X121026524Y-97848884D01*
X121107304Y-97820619D01*
X121152275Y-97808343D01*
X121207831Y-97780621D01*
X121264127Y-97754477D01*
X121301758Y-97726975D01*
X121374233Y-97681436D01*
X121415328Y-97659470D01*
X121435599Y-97642834D01*
X121455870Y-97659470D01*
X121496970Y-97681438D01*
X121569446Y-97726978D01*
X121607073Y-97754477D01*
X121663362Y-97780618D01*
X121718924Y-97808343D01*
X121763895Y-97820619D01*
X121844669Y-97848882D01*
X121887473Y-97867320D01*
X121948198Y-97880287D01*
X122008518Y-97894948D01*
X122055079Y-97896908D01*
X122098975Y-97901854D01*
X122103955Y-97903365D01*
X122170885Y-97909957D01*
X122201619Y-97913420D01*
X122206782Y-97913492D01*
X122211935Y-97914000D01*
X122242936Y-97914000D01*
X122257048Y-97914198D01*
X122261088Y-97914943D01*
X122285599Y-97914599D01*
X122310111Y-97914943D01*
X122314151Y-97914198D01*
X122328263Y-97914000D01*
X122359264Y-97914000D01*
X122364417Y-97913492D01*
X122369579Y-97913420D01*
X122400306Y-97909958D01*
X122467244Y-97903365D01*
X122472225Y-97901854D01*
X122516119Y-97896908D01*
X122562680Y-97894948D01*
X122623005Y-97880286D01*
X122683725Y-97867320D01*
X122726524Y-97848884D01*
X122807304Y-97820619D01*
X122852275Y-97808343D01*
X122907831Y-97780621D01*
X122964127Y-97754477D01*
X123001758Y-97726975D01*
X123074233Y-97681436D01*
X123115328Y-97659470D01*
X123135599Y-97642834D01*
X123155870Y-97659470D01*
X123196970Y-97681438D01*
X123269446Y-97726978D01*
X123307073Y-97754477D01*
X123363362Y-97780618D01*
X123418924Y-97808343D01*
X123463895Y-97820619D01*
X123544669Y-97848882D01*
X123587473Y-97867320D01*
X123648198Y-97880287D01*
X123708518Y-97894948D01*
X123755079Y-97896908D01*
X123798975Y-97901854D01*
X123803955Y-97903365D01*
X123870885Y-97909957D01*
X123901619Y-97913420D01*
X123906782Y-97913492D01*
X123911935Y-97914000D01*
X123942936Y-97914000D01*
X123957048Y-97914198D01*
X123961088Y-97914943D01*
X123985599Y-97914599D01*
X124010111Y-97914943D01*
X124014151Y-97914198D01*
X124028263Y-97914000D01*
X124059264Y-97914000D01*
X124064417Y-97913492D01*
X124069579Y-97913420D01*
X124100306Y-97909958D01*
X124167244Y-97903365D01*
X124172225Y-97901854D01*
X124216119Y-97896908D01*
X124262680Y-97894948D01*
X124323005Y-97880286D01*
X124383725Y-97867320D01*
X124426524Y-97848884D01*
X124507304Y-97820619D01*
X124552275Y-97808343D01*
X124607831Y-97780621D01*
X124664127Y-97754477D01*
X124701758Y-97726975D01*
X124774233Y-97681436D01*
X124815328Y-97659470D01*
X124835599Y-97642834D01*
X124855870Y-97659470D01*
X124896970Y-97681438D01*
X124969446Y-97726978D01*
X125007073Y-97754477D01*
X125063362Y-97780618D01*
X125118924Y-97808343D01*
X125163895Y-97820619D01*
X125244669Y-97848882D01*
X125287473Y-97867320D01*
X125348198Y-97880287D01*
X125408518Y-97894948D01*
X125455079Y-97896908D01*
X125498975Y-97901854D01*
X125503955Y-97903365D01*
X125570885Y-97909957D01*
X125601619Y-97913420D01*
X125606782Y-97913492D01*
X125611935Y-97914000D01*
X125642936Y-97914000D01*
X125657048Y-97914198D01*
X125661088Y-97914943D01*
X125685599Y-97914599D01*
X125710111Y-97914943D01*
X125714151Y-97914198D01*
X125728263Y-97914000D01*
X125759264Y-97914000D01*
X125764417Y-97913492D01*
X125769579Y-97913420D01*
X125800306Y-97909958D01*
X125867244Y-97903365D01*
X125872225Y-97901854D01*
X125916119Y-97896908D01*
X125962680Y-97894948D01*
X126023005Y-97880286D01*
X126083725Y-97867320D01*
X126126524Y-97848884D01*
X126207304Y-97820619D01*
X126252275Y-97808343D01*
X126307831Y-97780621D01*
X126364127Y-97754477D01*
X126401758Y-97726975D01*
X126474233Y-97681436D01*
X126515328Y-97659470D01*
X126535599Y-97642834D01*
X126555870Y-97659470D01*
X126596970Y-97681438D01*
X126669446Y-97726978D01*
X126707073Y-97754477D01*
X126763362Y-97780618D01*
X126818924Y-97808343D01*
X126863895Y-97820619D01*
X126944669Y-97848882D01*
X126987473Y-97867320D01*
X127048198Y-97880287D01*
X127108518Y-97894948D01*
X127155079Y-97896908D01*
X127198975Y-97901854D01*
X127203955Y-97903365D01*
X127270885Y-97909957D01*
X127301619Y-97913420D01*
X127306782Y-97913492D01*
X127311935Y-97914000D01*
X127342936Y-97914000D01*
X127357048Y-97914198D01*
X127361088Y-97914943D01*
X127385599Y-97914599D01*
X127410111Y-97914943D01*
X127414151Y-97914198D01*
X127428263Y-97914000D01*
X127459264Y-97914000D01*
X127464417Y-97913492D01*
X127469579Y-97913420D01*
X127500306Y-97909958D01*
X127567244Y-97903365D01*
X127572225Y-97901854D01*
X127616119Y-97896908D01*
X127662680Y-97894948D01*
X127723005Y-97880286D01*
X127783725Y-97867320D01*
X127826524Y-97848884D01*
X127907304Y-97820619D01*
X127952275Y-97808343D01*
X128007831Y-97780621D01*
X128064127Y-97754477D01*
X128101758Y-97726975D01*
X128174233Y-97681436D01*
X128215328Y-97659470D01*
X128235599Y-97642834D01*
X128255870Y-97659470D01*
X128296970Y-97681438D01*
X128369446Y-97726978D01*
X128407073Y-97754477D01*
X128463362Y-97780618D01*
X128518924Y-97808343D01*
X128563895Y-97820619D01*
X128644669Y-97848882D01*
X128687473Y-97867320D01*
X128748198Y-97880287D01*
X128808518Y-97894948D01*
X128855079Y-97896908D01*
X128898975Y-97901854D01*
X128903955Y-97903365D01*
X128970885Y-97909957D01*
X129001619Y-97913420D01*
X129006782Y-97913492D01*
X129011935Y-97914000D01*
X129042936Y-97914000D01*
X129057048Y-97914198D01*
X129061088Y-97914943D01*
X129085599Y-97914599D01*
X129110111Y-97914943D01*
X129114151Y-97914198D01*
X129128263Y-97914000D01*
X129159264Y-97914000D01*
X129164417Y-97913492D01*
X129169579Y-97913420D01*
X129200306Y-97909958D01*
X129267244Y-97903365D01*
X129272225Y-97901854D01*
X129316119Y-97896908D01*
X129362680Y-97894948D01*
X129423005Y-97880286D01*
X129483725Y-97867320D01*
X129526524Y-97848884D01*
X129607304Y-97820619D01*
X129652275Y-97808343D01*
X129707831Y-97780621D01*
X129764127Y-97754477D01*
X129801758Y-97726975D01*
X129874233Y-97681436D01*
X129915328Y-97659470D01*
X129963304Y-97620098D01*
X130012397Y-97582061D01*
X130042964Y-97546875D01*
X130103475Y-97486364D01*
X130138661Y-97455797D01*
X130176692Y-97406712D01*
X130216070Y-97358729D01*
X130238038Y-97317629D01*
X130283578Y-97245153D01*
X130311077Y-97207526D01*
X130337218Y-97151237D01*
X130364943Y-97095675D01*
X130377219Y-97050704D01*
X130405482Y-96969930D01*
X130423920Y-96927126D01*
X130436887Y-96866401D01*
X130451548Y-96806081D01*
X130453508Y-96759520D01*
X130458454Y-96715624D01*
X130459965Y-96710644D01*
X130462097Y-96689000D01*
X130785289Y-96689000D01*
X130912226Y-96815937D01*
X131081744Y-96929205D01*
X131270102Y-97007226D01*
X131470061Y-97047000D01*
X131673939Y-97047000D01*
X131873898Y-97007226D01*
X132062256Y-96929205D01*
X132231774Y-96815937D01*
X132375937Y-96671774D01*
X132464654Y-96539000D01*
X132639139Y-96539000D01*
X132839098Y-96499226D01*
X133027456Y-96421205D01*
X133196974Y-96307937D01*
X133341137Y-96163774D01*
X133454405Y-95994256D01*
X133532426Y-95805898D01*
X133572200Y-95605939D01*
X133572200Y-95402061D01*
X133532426Y-95202102D01*
X133454405Y-95013744D01*
X133341137Y-94844226D01*
X133196974Y-94700063D01*
X133027456Y-94586795D01*
X132839098Y-94508774D01*
X132639139Y-94469000D01*
X132435261Y-94469000D01*
X132235302Y-94508774D01*
X132046944Y-94586795D01*
X132046510Y-94587085D01*
X131944106Y-94576999D01*
X131908001Y-94573443D01*
X131871896Y-94576999D01*
X131272093Y-94576999D01*
X131235998Y-94573444D01*
X131199903Y-94576999D01*
X131199894Y-94576999D01*
X131091914Y-94587634D01*
X130953366Y-94629662D01*
X130825679Y-94697912D01*
X130739058Y-94769000D01*
X129965225Y-94769000D01*
X129960116Y-94768058D01*
X129892968Y-94769000D01*
X129861935Y-94769000D01*
X129856781Y-94769508D01*
X129851624Y-94769580D01*
X129820905Y-94773041D01*
X129753955Y-94779635D01*
X129748977Y-94781145D01*
X129705083Y-94786091D01*
X129658518Y-94788051D01*
X129615014Y-94798624D01*
X129609965Y-94747356D01*
X129608454Y-94742376D01*
X129603508Y-94698480D01*
X129601548Y-94651919D01*
X129586887Y-94591599D01*
X129573920Y-94530874D01*
X129555482Y-94488070D01*
X129527219Y-94407296D01*
X129514943Y-94362325D01*
X129487218Y-94306763D01*
X129461077Y-94250474D01*
X129433578Y-94212847D01*
X129388038Y-94140371D01*
X129366070Y-94099271D01*
X129326692Y-94051288D01*
X129288661Y-94002203D01*
X129253475Y-93971636D01*
X129192964Y-93911125D01*
X129162397Y-93875939D01*
X129113304Y-93837902D01*
X129065328Y-93798530D01*
X129024233Y-93776564D01*
X128951758Y-93731025D01*
X128914127Y-93703523D01*
X128857831Y-93677379D01*
X128802275Y-93649657D01*
X128757304Y-93637381D01*
X128676524Y-93609116D01*
X128633725Y-93590680D01*
X128573005Y-93577714D01*
X128512680Y-93563052D01*
X128466119Y-93561092D01*
X128422225Y-93556146D01*
X128417244Y-93554635D01*
X128350306Y-93548042D01*
X128319579Y-93544580D01*
X128314417Y-93544508D01*
X128309264Y-93544000D01*
X128278263Y-93544000D01*
X128264151Y-93543802D01*
X128260111Y-93543057D01*
X128235599Y-93543401D01*
X128211088Y-93543057D01*
X128207048Y-93543802D01*
X128192936Y-93544000D01*
X128161935Y-93544000D01*
X128156782Y-93544508D01*
X128151619Y-93544580D01*
X128120885Y-93548043D01*
X128053955Y-93554635D01*
X128048975Y-93556146D01*
X128005079Y-93561092D01*
X127958518Y-93563052D01*
X127898198Y-93577713D01*
X127837473Y-93590680D01*
X127794669Y-93609118D01*
X127713895Y-93637381D01*
X127668924Y-93649657D01*
X127613362Y-93677382D01*
X127557073Y-93703523D01*
X127519446Y-93731022D01*
X127446970Y-93776562D01*
X127405870Y-93798530D01*
X127385599Y-93815166D01*
X127365328Y-93798530D01*
X127324233Y-93776564D01*
X127251758Y-93731025D01*
X127214127Y-93703523D01*
X127157831Y-93677379D01*
X127102275Y-93649657D01*
X127057304Y-93637381D01*
X126976524Y-93609116D01*
X126933725Y-93590680D01*
X126873005Y-93577714D01*
X126812680Y-93563052D01*
X126766119Y-93561092D01*
X126722225Y-93556146D01*
X126717244Y-93554635D01*
X126650306Y-93548042D01*
X126619579Y-93544580D01*
X126614417Y-93544508D01*
X126609264Y-93544000D01*
X126578263Y-93544000D01*
X126564151Y-93543802D01*
X126560111Y-93543057D01*
X126535599Y-93543401D01*
X126511088Y-93543057D01*
X126507048Y-93543802D01*
X126492936Y-93544000D01*
X126461935Y-93544000D01*
X126456782Y-93544508D01*
X126451619Y-93544580D01*
X126420885Y-93548043D01*
X126353955Y-93554635D01*
X126348975Y-93556146D01*
X126305079Y-93561092D01*
X126258518Y-93563052D01*
X126198198Y-93577713D01*
X126137473Y-93590680D01*
X126094669Y-93609118D01*
X126013895Y-93637381D01*
X125968924Y-93649657D01*
X125913362Y-93677382D01*
X125857073Y-93703523D01*
X125819446Y-93731022D01*
X125746970Y-93776562D01*
X125705870Y-93798530D01*
X125685599Y-93815166D01*
X125665328Y-93798530D01*
X125624233Y-93776564D01*
X125551758Y-93731025D01*
X125514127Y-93703523D01*
X125457831Y-93677379D01*
X125402275Y-93649657D01*
X125357304Y-93637381D01*
X125276524Y-93609116D01*
X125233725Y-93590680D01*
X125173005Y-93577714D01*
X125112680Y-93563052D01*
X125066119Y-93561092D01*
X125022225Y-93556146D01*
X125017244Y-93554635D01*
X124950306Y-93548042D01*
X124919579Y-93544580D01*
X124914417Y-93544508D01*
X124909264Y-93544000D01*
X124878263Y-93544000D01*
X124864151Y-93543802D01*
X124860111Y-93543057D01*
X124835599Y-93543401D01*
X124811088Y-93543057D01*
X124807048Y-93543802D01*
X124792936Y-93544000D01*
X124761935Y-93544000D01*
X124756782Y-93544508D01*
X124751619Y-93544580D01*
X124720885Y-93548043D01*
X124653955Y-93554635D01*
X124648975Y-93556146D01*
X124605079Y-93561092D01*
X124558518Y-93563052D01*
X124498198Y-93577713D01*
X124437473Y-93590680D01*
X124394669Y-93609118D01*
X124313895Y-93637381D01*
X124268924Y-93649657D01*
X124213362Y-93677382D01*
X124157073Y-93703523D01*
X124119446Y-93731022D01*
X124046970Y-93776562D01*
X124005870Y-93798530D01*
X123985599Y-93815166D01*
X123965328Y-93798530D01*
X123924233Y-93776564D01*
X123851758Y-93731025D01*
X123814127Y-93703523D01*
X123757831Y-93677379D01*
X123702275Y-93649657D01*
X123657304Y-93637381D01*
X123576524Y-93609116D01*
X123533725Y-93590680D01*
X123473005Y-93577714D01*
X123412680Y-93563052D01*
X123366119Y-93561092D01*
X123322225Y-93556146D01*
X123317244Y-93554635D01*
X123250306Y-93548042D01*
X123219579Y-93544580D01*
X123214417Y-93544508D01*
X123209264Y-93544000D01*
X123178263Y-93544000D01*
X123164151Y-93543802D01*
X123160111Y-93543057D01*
X123135599Y-93543401D01*
X123111088Y-93543057D01*
X123107048Y-93543802D01*
X123092936Y-93544000D01*
X123061935Y-93544000D01*
X123056782Y-93544508D01*
X123051619Y-93544580D01*
X123020885Y-93548043D01*
X122953955Y-93554635D01*
X122948975Y-93556146D01*
X122905079Y-93561092D01*
X122858518Y-93563052D01*
X122798198Y-93577713D01*
X122737473Y-93590680D01*
X122694669Y-93609118D01*
X122613895Y-93637381D01*
X122568924Y-93649657D01*
X122513362Y-93677382D01*
X122457073Y-93703523D01*
X122419446Y-93731022D01*
X122346970Y-93776562D01*
X122305870Y-93798530D01*
X122285599Y-93815166D01*
X122265328Y-93798530D01*
X122224233Y-93776564D01*
X122151758Y-93731025D01*
X122114127Y-93703523D01*
X122057831Y-93677379D01*
X122002275Y-93649657D01*
X121957304Y-93637381D01*
X121876524Y-93609116D01*
X121833725Y-93590680D01*
X121773005Y-93577714D01*
X121712680Y-93563052D01*
X121666119Y-93561092D01*
X121622225Y-93556146D01*
X121617244Y-93554635D01*
X121550306Y-93548042D01*
X121519579Y-93544580D01*
X121514417Y-93544508D01*
X121509264Y-93544000D01*
X121478263Y-93544000D01*
X121464151Y-93543802D01*
X121460111Y-93543057D01*
X121435599Y-93543401D01*
X121411088Y-93543057D01*
X121407048Y-93543802D01*
X121392936Y-93544000D01*
X121361935Y-93544000D01*
X121356782Y-93544508D01*
X121351619Y-93544580D01*
X121320885Y-93548043D01*
X121253955Y-93554635D01*
X121248975Y-93556146D01*
X121205079Y-93561092D01*
X121158518Y-93563052D01*
X121098198Y-93577713D01*
X121037473Y-93590680D01*
X120994669Y-93609118D01*
X120913895Y-93637381D01*
X120868924Y-93649657D01*
X120813362Y-93677382D01*
X120757073Y-93703523D01*
X120719446Y-93731022D01*
X120646970Y-93776562D01*
X120605870Y-93798530D01*
X120557887Y-93837908D01*
X120508802Y-93875939D01*
X120478235Y-93911125D01*
X120417724Y-93971636D01*
X120382538Y-94002203D01*
X120344501Y-94051296D01*
X120305129Y-94099272D01*
X120283163Y-94140367D01*
X120237624Y-94212842D01*
X120210122Y-94250473D01*
X120183978Y-94306769D01*
X120156256Y-94362325D01*
X120143980Y-94407296D01*
X120115716Y-94488072D01*
X120097277Y-94530880D01*
X120084310Y-94591608D01*
X120069651Y-94651920D01*
X120067691Y-94698480D01*
X120062744Y-94742381D01*
X120061235Y-94747357D01*
X120056186Y-94798625D01*
X120012680Y-94788051D01*
X119966120Y-94786091D01*
X119922220Y-94781144D01*
X119917244Y-94779635D01*
X119850340Y-94773046D01*
X119819573Y-94769579D01*
X119814407Y-94769507D01*
X119809264Y-94769000D01*
X119778274Y-94769000D01*
X119711083Y-94768058D01*
X119705974Y-94769000D01*
X114285294Y-94769000D01*
X114249199Y-94765445D01*
X114213104Y-94769000D01*
X114213095Y-94769000D01*
X114105115Y-94779635D01*
X113966567Y-94821663D01*
X113838880Y-94889913D01*
X113794664Y-94926200D01*
X113690061Y-94926200D01*
X113490102Y-94965974D01*
X113301744Y-95043995D01*
X113132226Y-95157263D01*
X112988063Y-95301426D01*
X112874795Y-95470944D01*
X112796774Y-95659302D01*
X112757000Y-95859261D01*
X112757000Y-96063139D01*
X112796774Y-96263098D01*
X112874795Y-96451456D01*
X112988063Y-96620974D01*
X113132226Y-96765137D01*
X113268759Y-96856365D01*
X113265000Y-96875261D01*
X113265000Y-97079139D01*
X113304774Y-97279098D01*
X113382795Y-97467456D01*
X113467877Y-97594790D01*
X109986315Y-97594790D01*
X109950210Y-97591234D01*
X109914105Y-97594790D01*
X109806125Y-97605425D01*
X109667577Y-97647453D01*
X109539890Y-97715703D01*
X109427972Y-97807552D01*
X109404956Y-97835597D01*
X107760608Y-99479946D01*
X107732562Y-99502963D01*
X107640713Y-99614881D01*
X107572463Y-99742568D01*
X107568432Y-99755857D01*
X107450863Y-99873426D01*
X107337595Y-100042944D01*
X107259574Y-100231302D01*
X107219800Y-100431261D01*
X105333400Y-100431261D01*
X105333400Y-88551419D01*
X105336593Y-88519000D01*
X105323850Y-88389617D01*
X105286110Y-88265207D01*
X105224825Y-88150550D01*
X105142348Y-88050052D01*
X105041850Y-87967575D01*
X104927193Y-87906290D01*
X104802783Y-87868550D01*
X104705819Y-87859000D01*
X104673400Y-87855807D01*
X104640981Y-87859000D01*
X102362519Y-87859000D01*
X102373063Y-80286669D01*
X102567456Y-80755976D01*
X102877712Y-81220307D01*
X103272593Y-81615188D01*
X103736924Y-81925444D01*
X104252861Y-82139152D01*
X104800577Y-82248100D01*
X105359023Y-82248100D01*
X105906739Y-82139152D01*
X106422676Y-81925444D01*
X106887007Y-81615188D01*
X107281888Y-81220307D01*
X107592144Y-80755976D01*
X107805852Y-80240039D01*
X107914800Y-79692323D01*
X107914800Y-79133877D01*
X107805852Y-78586161D01*
X107592144Y-78070224D01*
X107281888Y-77605893D01*
X106887007Y-77211012D01*
X106494914Y-76949024D01*
X137499115Y-76951330D01*
G37*
%TD.AperFunction*%
D16*
X129180777Y-103066223D02*
X129313458Y-103175112D01*
X129314901Y-103175883D01*
X129314901Y-104004185D01*
X129311344Y-104040300D01*
X129325535Y-104184385D01*
X129359663Y-104296886D01*
X129367564Y-104322933D01*
X129435814Y-104450620D01*
X129527663Y-104562538D01*
X129555708Y-104585554D01*
X129807541Y-104837387D01*
X129830562Y-104865438D01*
X129942480Y-104957287D01*
X130070167Y-105025537D01*
X130208715Y-105067565D01*
X130316695Y-105078200D01*
X130316704Y-105078200D01*
X130352799Y-105081755D01*
X130388894Y-105078200D01*
X131115154Y-105078200D01*
X131178491Y-105141537D01*
X131152366Y-105149462D01*
X131024679Y-105217712D01*
X130912761Y-105309561D01*
X130889740Y-105337612D01*
X130468208Y-105759144D01*
X130440163Y-105782160D01*
X130348314Y-105894078D01*
X130310773Y-105964313D01*
X130280064Y-106021765D01*
X130238035Y-106160313D01*
X130223844Y-106304398D01*
X130227401Y-106340513D01*
X130227400Y-108891400D01*
X126517290Y-108891400D01*
X126583424Y-108792424D01*
X126668983Y-108585867D01*
X126712600Y-108366588D01*
X126712600Y-108143012D01*
X126668983Y-107923733D01*
X126583424Y-107717176D01*
X126459212Y-107531280D01*
X126301120Y-107373188D01*
X126115224Y-107248976D01*
X125908667Y-107163417D01*
X125689388Y-107119800D01*
X125465812Y-107119800D01*
X125246533Y-107163417D01*
X125039976Y-107248976D01*
X124855465Y-107372263D01*
X123543600Y-106060399D01*
X123543600Y-105800745D01*
X123588420Y-105824702D01*
X123708118Y-105861012D01*
X123832600Y-105873272D01*
X124021850Y-105870200D01*
X124180600Y-105711450D01*
X124180600Y-104824700D01*
X124434600Y-104824700D01*
X124434600Y-105711450D01*
X124593350Y-105870200D01*
X124782600Y-105873272D01*
X124907082Y-105861012D01*
X125026780Y-105824702D01*
X125137094Y-105765737D01*
X125233785Y-105686385D01*
X125313137Y-105589694D01*
X125372102Y-105479380D01*
X125408412Y-105359682D01*
X125420672Y-105235200D01*
X125417600Y-104983450D01*
X125258850Y-104824700D01*
X124434600Y-104824700D01*
X124180600Y-104824700D01*
X124160600Y-104824700D01*
X124160600Y-104570700D01*
X124180600Y-104570700D01*
X124180600Y-104550700D01*
X124434600Y-104550700D01*
X124434600Y-104570700D01*
X125258850Y-104570700D01*
X125417600Y-104411950D01*
X125420672Y-104160200D01*
X125408412Y-104035718D01*
X125372102Y-103916020D01*
X125313137Y-103805706D01*
X125273826Y-103757806D01*
X125354023Y-103607767D01*
X125403848Y-103443516D01*
X125420672Y-103272700D01*
X125420672Y-102944600D01*
X129080963Y-102944600D01*
X129180777Y-103066223D01*
%TA.AperFunction,Conductor*%
D17*
G36*
X129180777Y-103066223D02*
G01*
X129313458Y-103175112D01*
X129314901Y-103175883D01*
X129314901Y-104004185D01*
X129311344Y-104040300D01*
X129325535Y-104184385D01*
X129359663Y-104296886D01*
X129367564Y-104322933D01*
X129435814Y-104450620D01*
X129527663Y-104562538D01*
X129555708Y-104585554D01*
X129807541Y-104837387D01*
X129830562Y-104865438D01*
X129942480Y-104957287D01*
X130070167Y-105025537D01*
X130208715Y-105067565D01*
X130316695Y-105078200D01*
X130316704Y-105078200D01*
X130352799Y-105081755D01*
X130388894Y-105078200D01*
X131115154Y-105078200D01*
X131178491Y-105141537D01*
X131152366Y-105149462D01*
X131024679Y-105217712D01*
X130912761Y-105309561D01*
X130889740Y-105337612D01*
X130468208Y-105759144D01*
X130440163Y-105782160D01*
X130348314Y-105894078D01*
X130310773Y-105964313D01*
X130280064Y-106021765D01*
X130238035Y-106160313D01*
X130223844Y-106304398D01*
X130227401Y-106340513D01*
X130227400Y-108891400D01*
X126517290Y-108891400D01*
X126583424Y-108792424D01*
X126668983Y-108585867D01*
X126712600Y-108366588D01*
X126712600Y-108143012D01*
X126668983Y-107923733D01*
X126583424Y-107717176D01*
X126459212Y-107531280D01*
X126301120Y-107373188D01*
X126115224Y-107248976D01*
X125908667Y-107163417D01*
X125689388Y-107119800D01*
X125465812Y-107119800D01*
X125246533Y-107163417D01*
X125039976Y-107248976D01*
X124855465Y-107372263D01*
X123543600Y-106060399D01*
X123543600Y-105800745D01*
X123588420Y-105824702D01*
X123708118Y-105861012D01*
X123832600Y-105873272D01*
X124021850Y-105870200D01*
X124180600Y-105711450D01*
X124180600Y-104824700D01*
X124434600Y-104824700D01*
X124434600Y-105711450D01*
X124593350Y-105870200D01*
X124782600Y-105873272D01*
X124907082Y-105861012D01*
X125026780Y-105824702D01*
X125137094Y-105765737D01*
X125233785Y-105686385D01*
X125313137Y-105589694D01*
X125372102Y-105479380D01*
X125408412Y-105359682D01*
X125420672Y-105235200D01*
X125417600Y-104983450D01*
X125258850Y-104824700D01*
X124434600Y-104824700D01*
X124180600Y-104824700D01*
X124160600Y-104824700D01*
X124160600Y-104570700D01*
X124180600Y-104570700D01*
X124180600Y-104550700D01*
X124434600Y-104550700D01*
X124434600Y-104570700D01*
X125258850Y-104570700D01*
X125417600Y-104411950D01*
X125420672Y-104160200D01*
X125408412Y-104035718D01*
X125372102Y-103916020D01*
X125313137Y-103805706D01*
X125273826Y-103757806D01*
X125354023Y-103607767D01*
X125403848Y-103443516D01*
X125420672Y-103272700D01*
X125420672Y-102944600D01*
X129080963Y-102944600D01*
X129180777Y-103066223D01*
G37*
%TD.AperFunction*%
%TD*%
M02*
