%TF.GenerationSoftware,KiCad,Pcbnew,5.1.12-84ad8e8a86~92~ubuntu18.04.1*%
%TF.CreationDate,2023-09-10T20:05:29+07:00*%
%TF.ProjectId,RPi_FFC_15P-EYECLOUDAI_2MGSMOD_AR0234-ADAPTER,5250695f-4646-4435-9f31-35502d455945,rev?*%
%TF.SameCoordinates,Original*%
%TF.FileFunction,Legend,Bot*%
%TF.FilePolarity,Positive*%
%FSLAX46Y46*%
G04 Gerber Fmt 4.6, Leading zero omitted, Abs format (unit mm)*
G04 Created by KiCad (PCBNEW 5.1.12-84ad8e8a86~92~ubuntu18.04.1) date 2023-09-10 20:05:29*
%MOMM*%
%LPD*%
G01*
G04 APERTURE LIST*
%ADD10C,0.120000*%
%ADD11C,0.152400*%
%ADD12C,0.150000*%
G04 APERTURE END LIST*
D10*
%TO.C,R5*%
X130707676Y-102732100D02*
X131217124Y-102732100D01*
X130707676Y-101687100D02*
X131217124Y-101687100D01*
D11*
%TO.C,U2*%
X117372400Y-102686800D02*
G75*
G03*
X117372400Y-102686800I-127000J0D01*
G01*
X119427260Y-104763800D02*
X118388400Y-104763800D01*
X118388400Y-104763800D02*
X118388400Y-103109800D01*
X121692400Y-104763800D02*
X120653540Y-104763800D01*
X121692400Y-103109800D02*
X121692400Y-104763800D01*
X119628541Y-103109800D02*
X120452259Y-103109800D01*
D10*
%TO.C,R4*%
X123306100Y-103582376D02*
X123306100Y-104091824D01*
X122261100Y-103582376D02*
X122261100Y-104091824D01*
%TO.C,C4*%
X124817600Y-103688933D02*
X124817600Y-103981467D01*
X123797600Y-103688933D02*
X123797600Y-103981467D01*
%TO.C,R5*%
D12*
X131179866Y-101341180D02*
X131513200Y-100864990D01*
X131751295Y-101341180D02*
X131751295Y-100341180D01*
X131370342Y-100341180D01*
X131275104Y-100388800D01*
X131227485Y-100436419D01*
X131179866Y-100531657D01*
X131179866Y-100674514D01*
X131227485Y-100769752D01*
X131275104Y-100817371D01*
X131370342Y-100864990D01*
X131751295Y-100864990D01*
X130275104Y-100341180D02*
X130751295Y-100341180D01*
X130798914Y-100817371D01*
X130751295Y-100769752D01*
X130656057Y-100722133D01*
X130417961Y-100722133D01*
X130322723Y-100769752D01*
X130275104Y-100817371D01*
X130227485Y-100912609D01*
X130227485Y-101150704D01*
X130275104Y-101245942D01*
X130322723Y-101293561D01*
X130417961Y-101341180D01*
X130656057Y-101341180D01*
X130751295Y-101293561D01*
X130798914Y-101245942D01*
%TO.C,U2*%
X120802304Y-101001580D02*
X120802304Y-101811104D01*
X120754685Y-101906342D01*
X120707066Y-101953961D01*
X120611828Y-102001580D01*
X120421352Y-102001580D01*
X120326114Y-101953961D01*
X120278495Y-101906342D01*
X120230876Y-101811104D01*
X120230876Y-101001580D01*
X119802304Y-101096819D02*
X119754685Y-101049200D01*
X119659447Y-101001580D01*
X119421352Y-101001580D01*
X119326114Y-101049200D01*
X119278495Y-101096819D01*
X119230876Y-101192057D01*
X119230876Y-101287295D01*
X119278495Y-101430152D01*
X119849923Y-102001580D01*
X119230876Y-102001580D01*
%TO.C,R4*%
X122747066Y-101950780D02*
X123080400Y-101474590D01*
X123318495Y-101950780D02*
X123318495Y-100950780D01*
X122937542Y-100950780D01*
X122842304Y-100998400D01*
X122794685Y-101046019D01*
X122747066Y-101141257D01*
X122747066Y-101284114D01*
X122794685Y-101379352D01*
X122842304Y-101426971D01*
X122937542Y-101474590D01*
X123318495Y-101474590D01*
X121889923Y-101284114D02*
X121889923Y-101950780D01*
X122128019Y-100903161D02*
X122366114Y-101617447D01*
X121747066Y-101617447D01*
%TO.C,C4*%
X124728266Y-101855542D02*
X124775885Y-101903161D01*
X124918742Y-101950780D01*
X125013980Y-101950780D01*
X125156838Y-101903161D01*
X125252076Y-101807923D01*
X125299695Y-101712685D01*
X125347314Y-101522209D01*
X125347314Y-101379352D01*
X125299695Y-101188876D01*
X125252076Y-101093638D01*
X125156838Y-100998400D01*
X125013980Y-100950780D01*
X124918742Y-100950780D01*
X124775885Y-100998400D01*
X124728266Y-101046019D01*
X123871123Y-101284114D02*
X123871123Y-101950780D01*
X124109219Y-100903161D02*
X124347314Y-101617447D01*
X123728266Y-101617447D01*
%TD*%
M02*
