%TF.GenerationSoftware,KiCad,Pcbnew,5.1.12-84ad8e8a86~92~ubuntu18.04.1*%
%TF.CreationDate,2023-09-10T20:05:29+07:00*%
%TF.ProjectId,RPi_FFC_15P-EYECLOUDAI_2MGSMOD_AR0234-ADAPTER,5250695f-4646-4435-9f31-35502d455945,rev?*%
%TF.SameCoordinates,Original*%
%TF.FileFunction,Legend,Top*%
%TF.FilePolarity,Positive*%
%FSLAX46Y46*%
G04 Gerber Fmt 4.6, Leading zero omitted, Abs format (unit mm)*
G04 Created by KiCad (PCBNEW 5.1.12-84ad8e8a86~92~ubuntu18.04.1) date 2023-09-10 20:05:29*
%MOMM*%
%LPD*%
G01*
G04 APERTURE LIST*
%ADD10C,0.150000*%
%ADD11C,0.100000*%
%ADD12C,0.127000*%
%ADD13C,0.200000*%
%ADD14C,0.120000*%
G04 APERTURE END LIST*
D10*
X133146800Y-93093314D02*
X133218228Y-93164742D01*
X133146800Y-93236171D01*
X133075371Y-93164742D01*
X133146800Y-93093314D01*
X133146800Y-93236171D01*
D11*
X128116247Y-113853980D02*
X127640057Y-113853980D01*
X127592438Y-114330171D01*
X127640057Y-114282552D01*
X127735295Y-114234933D01*
X127973390Y-114234933D01*
X128068628Y-114282552D01*
X128116247Y-114330171D01*
X128163866Y-114425409D01*
X128163866Y-114663504D01*
X128116247Y-114758742D01*
X128068628Y-114806361D01*
X127973390Y-114853980D01*
X127735295Y-114853980D01*
X127640057Y-114806361D01*
X127592438Y-114758742D01*
X128449580Y-113853980D02*
X128782914Y-114853980D01*
X129116247Y-113853980D01*
X129211485Y-114949219D02*
X129973390Y-114949219D01*
X130211485Y-114330171D02*
X130544819Y-114330171D01*
X130687676Y-114853980D02*
X130211485Y-114853980D01*
X130211485Y-113853980D01*
X130687676Y-113853980D01*
X131021009Y-113853980D02*
X131687676Y-114853980D01*
X131687676Y-113853980D02*
X131021009Y-114853980D01*
X131925771Y-113853980D02*
X132497200Y-113853980D01*
X132211485Y-114853980D02*
X132211485Y-113853980D01*
X113233390Y-78243180D02*
X113804819Y-78243180D01*
X113519104Y-79243180D02*
X113519104Y-78243180D01*
X114709580Y-79243180D02*
X114376247Y-78766990D01*
X114138152Y-79243180D02*
X114138152Y-78243180D01*
X114519104Y-78243180D01*
X114614342Y-78290800D01*
X114661961Y-78338419D01*
X114709580Y-78433657D01*
X114709580Y-78576514D01*
X114661961Y-78671752D01*
X114614342Y-78719371D01*
X114519104Y-78766990D01*
X114138152Y-78766990D01*
X115138152Y-79243180D02*
X115138152Y-78243180D01*
X116138152Y-78290800D02*
X116042914Y-78243180D01*
X115900057Y-78243180D01*
X115757200Y-78290800D01*
X115661961Y-78386038D01*
X115614342Y-78481276D01*
X115566723Y-78671752D01*
X115566723Y-78814609D01*
X115614342Y-79005085D01*
X115661961Y-79100323D01*
X115757200Y-79195561D01*
X115900057Y-79243180D01*
X115995295Y-79243180D01*
X116138152Y-79195561D01*
X116185771Y-79147942D01*
X116185771Y-78814609D01*
X115995295Y-78814609D01*
D10*
X112328057Y-86038180D02*
X112128057Y-85561990D01*
X111985200Y-86038180D02*
X111985200Y-85038180D01*
X112213771Y-85038180D01*
X112270914Y-85085800D01*
X112299485Y-85133419D01*
X112328057Y-85228657D01*
X112328057Y-85371514D01*
X112299485Y-85466752D01*
X112270914Y-85514371D01*
X112213771Y-85561990D01*
X111985200Y-85561990D01*
X112585200Y-86038180D02*
X112585200Y-85038180D01*
X112813771Y-85038180D01*
X112870914Y-85085800D01*
X112899485Y-85133419D01*
X112928057Y-85228657D01*
X112928057Y-85371514D01*
X112899485Y-85466752D01*
X112870914Y-85514371D01*
X112813771Y-85561990D01*
X112585200Y-85561990D01*
X113185200Y-86038180D02*
X113185200Y-85371514D01*
X113185200Y-85038180D02*
X113156628Y-85085800D01*
X113185200Y-85133419D01*
X113213771Y-85085800D01*
X113185200Y-85038180D01*
X113185200Y-85133419D01*
X113328057Y-86133419D02*
X113785200Y-86133419D01*
X114128057Y-85514371D02*
X113928057Y-85514371D01*
X113928057Y-86038180D02*
X113928057Y-85038180D01*
X114213771Y-85038180D01*
X114642342Y-85514371D02*
X114442342Y-85514371D01*
X114442342Y-86038180D02*
X114442342Y-85038180D01*
X114728057Y-85038180D01*
X115299485Y-85942942D02*
X115270914Y-85990561D01*
X115185200Y-86038180D01*
X115128057Y-86038180D01*
X115042342Y-85990561D01*
X114985200Y-85895323D01*
X114956628Y-85800085D01*
X114928057Y-85609609D01*
X114928057Y-85466752D01*
X114956628Y-85276276D01*
X114985200Y-85181038D01*
X115042342Y-85085800D01*
X115128057Y-85038180D01*
X115185200Y-85038180D01*
X115270914Y-85085800D01*
X115299485Y-85133419D01*
X115413771Y-86133419D02*
X115870914Y-86133419D01*
X116328057Y-86038180D02*
X115985200Y-86038180D01*
X116156628Y-86038180D02*
X116156628Y-85038180D01*
X116099485Y-85181038D01*
X116042342Y-85276276D01*
X115985200Y-85323895D01*
X116870914Y-85038180D02*
X116585200Y-85038180D01*
X116556628Y-85514371D01*
X116585200Y-85466752D01*
X116642342Y-85419133D01*
X116785200Y-85419133D01*
X116842342Y-85466752D01*
X116870914Y-85514371D01*
X116899485Y-85609609D01*
X116899485Y-85847704D01*
X116870914Y-85942942D01*
X116842342Y-85990561D01*
X116785200Y-86038180D01*
X116642342Y-86038180D01*
X116585200Y-85990561D01*
X116556628Y-85942942D01*
X117156628Y-86038180D02*
X117156628Y-85038180D01*
X117385200Y-85038180D01*
X117442342Y-85085800D01*
X117470914Y-85133419D01*
X117499485Y-85228657D01*
X117499485Y-85371514D01*
X117470914Y-85466752D01*
X117442342Y-85514371D01*
X117385200Y-85561990D01*
X117156628Y-85561990D01*
X118213771Y-85657228D02*
X118670914Y-85657228D01*
X119413771Y-85514371D02*
X119613771Y-85514371D01*
X119699485Y-86038180D02*
X119413771Y-86038180D01*
X119413771Y-85038180D01*
X119699485Y-85038180D01*
X120070914Y-85561990D02*
X120070914Y-86038180D01*
X119870914Y-85038180D02*
X120070914Y-85561990D01*
X120270914Y-85038180D01*
X120470914Y-85514371D02*
X120670914Y-85514371D01*
X120756628Y-86038180D02*
X120470914Y-86038180D01*
X120470914Y-85038180D01*
X120756628Y-85038180D01*
X121356628Y-85942942D02*
X121328057Y-85990561D01*
X121242342Y-86038180D01*
X121185200Y-86038180D01*
X121099485Y-85990561D01*
X121042342Y-85895323D01*
X121013771Y-85800085D01*
X120985200Y-85609609D01*
X120985200Y-85466752D01*
X121013771Y-85276276D01*
X121042342Y-85181038D01*
X121099485Y-85085800D01*
X121185200Y-85038180D01*
X121242342Y-85038180D01*
X121328057Y-85085800D01*
X121356628Y-85133419D01*
X121899485Y-86038180D02*
X121613771Y-86038180D01*
X121613771Y-85038180D01*
X122213771Y-85038180D02*
X122328057Y-85038180D01*
X122385200Y-85085800D01*
X122442342Y-85181038D01*
X122470914Y-85371514D01*
X122470914Y-85704847D01*
X122442342Y-85895323D01*
X122385200Y-85990561D01*
X122328057Y-86038180D01*
X122213771Y-86038180D01*
X122156628Y-85990561D01*
X122099485Y-85895323D01*
X122070914Y-85704847D01*
X122070914Y-85371514D01*
X122099485Y-85181038D01*
X122156628Y-85085800D01*
X122213771Y-85038180D01*
X122728057Y-85038180D02*
X122728057Y-85847704D01*
X122756628Y-85942942D01*
X122785200Y-85990561D01*
X122842342Y-86038180D01*
X122956628Y-86038180D01*
X123013771Y-85990561D01*
X123042342Y-85942942D01*
X123070914Y-85847704D01*
X123070914Y-85038180D01*
X123356628Y-86038180D02*
X123356628Y-85038180D01*
X123499485Y-85038180D01*
X123585200Y-85085800D01*
X123642342Y-85181038D01*
X123670914Y-85276276D01*
X123699485Y-85466752D01*
X123699485Y-85609609D01*
X123670914Y-85800085D01*
X123642342Y-85895323D01*
X123585200Y-85990561D01*
X123499485Y-86038180D01*
X123356628Y-86038180D01*
X123928057Y-85752466D02*
X124213771Y-85752466D01*
X123870914Y-86038180D02*
X124070914Y-85038180D01*
X124270914Y-86038180D01*
X124470914Y-86038180D02*
X124470914Y-85038180D01*
X124613771Y-86133419D02*
X125070914Y-86133419D01*
X125185200Y-85752466D02*
X125470914Y-85752466D01*
X125128057Y-86038180D02*
X125328057Y-85038180D01*
X125528057Y-86038180D01*
X126070914Y-86038180D02*
X125870914Y-85561990D01*
X125728057Y-86038180D02*
X125728057Y-85038180D01*
X125956628Y-85038180D01*
X126013771Y-85085800D01*
X126042342Y-85133419D01*
X126070914Y-85228657D01*
X126070914Y-85371514D01*
X126042342Y-85466752D01*
X126013771Y-85514371D01*
X125956628Y-85561990D01*
X125728057Y-85561990D01*
X126442342Y-85038180D02*
X126499485Y-85038180D01*
X126556628Y-85085800D01*
X126585200Y-85133419D01*
X126613771Y-85228657D01*
X126642342Y-85419133D01*
X126642342Y-85657228D01*
X126613771Y-85847704D01*
X126585200Y-85942942D01*
X126556628Y-85990561D01*
X126499485Y-86038180D01*
X126442342Y-86038180D01*
X126385200Y-85990561D01*
X126356628Y-85942942D01*
X126328057Y-85847704D01*
X126299485Y-85657228D01*
X126299485Y-85419133D01*
X126328057Y-85228657D01*
X126356628Y-85133419D01*
X126385200Y-85085800D01*
X126442342Y-85038180D01*
X126870914Y-85133419D02*
X126899485Y-85085800D01*
X126956628Y-85038180D01*
X127099485Y-85038180D01*
X127156628Y-85085800D01*
X127185200Y-85133419D01*
X127213771Y-85228657D01*
X127213771Y-85323895D01*
X127185200Y-85466752D01*
X126842342Y-86038180D01*
X127213771Y-86038180D01*
X127413771Y-85038180D02*
X127785200Y-85038180D01*
X127585200Y-85419133D01*
X127670914Y-85419133D01*
X127728057Y-85466752D01*
X127756628Y-85514371D01*
X127785200Y-85609609D01*
X127785200Y-85847704D01*
X127756628Y-85942942D01*
X127728057Y-85990561D01*
X127670914Y-86038180D01*
X127499485Y-86038180D01*
X127442342Y-85990561D01*
X127413771Y-85942942D01*
X128299485Y-85371514D02*
X128299485Y-86038180D01*
X128156628Y-84990561D02*
X128013771Y-85704847D01*
X128385200Y-85704847D01*
X128956628Y-85942942D02*
X128928057Y-85990561D01*
X128842342Y-86038180D01*
X128785200Y-86038180D01*
X128699485Y-85990561D01*
X128642342Y-85895323D01*
X128613771Y-85800085D01*
X128585200Y-85609609D01*
X128585200Y-85466752D01*
X128613771Y-85276276D01*
X128642342Y-85181038D01*
X128699485Y-85085800D01*
X128785200Y-85038180D01*
X128842342Y-85038180D01*
X128928057Y-85085800D01*
X128956628Y-85133419D01*
X129185200Y-85990561D02*
X129270914Y-86038180D01*
X129413771Y-86038180D01*
X129470914Y-85990561D01*
X129499485Y-85942942D01*
X129528057Y-85847704D01*
X129528057Y-85752466D01*
X129499485Y-85657228D01*
X129470914Y-85609609D01*
X129413771Y-85561990D01*
X129299485Y-85514371D01*
X129242342Y-85466752D01*
X129213771Y-85419133D01*
X129185200Y-85323895D01*
X129185200Y-85228657D01*
X129213771Y-85133419D01*
X129242342Y-85085800D01*
X129299485Y-85038180D01*
X129442342Y-85038180D01*
X129528057Y-85085800D01*
X130213771Y-85752466D02*
X130499485Y-85752466D01*
X130156628Y-86038180D02*
X130356628Y-85038180D01*
X130556628Y-86038180D01*
X130756628Y-86038180D02*
X130756628Y-85038180D01*
X130899485Y-85038180D01*
X130985200Y-85085800D01*
X131042342Y-85181038D01*
X131070914Y-85276276D01*
X131099485Y-85466752D01*
X131099485Y-85609609D01*
X131070914Y-85800085D01*
X131042342Y-85895323D01*
X130985200Y-85990561D01*
X130899485Y-86038180D01*
X130756628Y-86038180D01*
X131328057Y-85752466D02*
X131613771Y-85752466D01*
X131270914Y-86038180D02*
X131470914Y-85038180D01*
X131670914Y-86038180D01*
X131870914Y-86038180D02*
X131870914Y-85038180D01*
X132099485Y-85038180D01*
X132156628Y-85085800D01*
X132185200Y-85133419D01*
X132213771Y-85228657D01*
X132213771Y-85371514D01*
X132185200Y-85466752D01*
X132156628Y-85514371D01*
X132099485Y-85561990D01*
X131870914Y-85561990D01*
X132385200Y-85038180D02*
X132728057Y-85038180D01*
X132556628Y-86038180D02*
X132556628Y-85038180D01*
X132928057Y-85514371D02*
X133128057Y-85514371D01*
X133213771Y-86038180D02*
X132928057Y-86038180D01*
X132928057Y-85038180D01*
X133213771Y-85038180D01*
X133813771Y-86038180D02*
X133613771Y-85561990D01*
X133470914Y-86038180D02*
X133470914Y-85038180D01*
X133699485Y-85038180D01*
X133756628Y-85085800D01*
X133785200Y-85133419D01*
X133813771Y-85228657D01*
X133813771Y-85371514D01*
X133785200Y-85466752D01*
X133756628Y-85514371D01*
X133699485Y-85561990D01*
X133470914Y-85561990D01*
X121642342Y-87688180D02*
X121442342Y-87211990D01*
X121299485Y-87688180D02*
X121299485Y-86688180D01*
X121528057Y-86688180D01*
X121585200Y-86735800D01*
X121613771Y-86783419D01*
X121642342Y-86878657D01*
X121642342Y-87021514D01*
X121613771Y-87116752D01*
X121585200Y-87164371D01*
X121528057Y-87211990D01*
X121299485Y-87211990D01*
X122128057Y-87640561D02*
X122070914Y-87688180D01*
X121956628Y-87688180D01*
X121899485Y-87640561D01*
X121870914Y-87545323D01*
X121870914Y-87164371D01*
X121899485Y-87069133D01*
X121956628Y-87021514D01*
X122070914Y-87021514D01*
X122128057Y-87069133D01*
X122156628Y-87164371D01*
X122156628Y-87259609D01*
X121870914Y-87354847D01*
X122356628Y-87021514D02*
X122499485Y-87688180D01*
X122642342Y-87021514D01*
X122870914Y-87592942D02*
X122899485Y-87640561D01*
X122870914Y-87688180D01*
X122842342Y-87640561D01*
X122870914Y-87592942D01*
X122870914Y-87688180D01*
X123528057Y-86688180D02*
X123728057Y-87688180D01*
X123928057Y-86688180D01*
X124442342Y-87688180D02*
X124099485Y-87688180D01*
X124270914Y-87688180D02*
X124270914Y-86688180D01*
X124213771Y-86831038D01*
X124156628Y-86926276D01*
X124099485Y-86973895D01*
X124670914Y-87402466D02*
X124956628Y-87402466D01*
X124613771Y-87688180D02*
X124813771Y-86688180D01*
X125013771Y-87688180D01*
D12*
%TO.C,J1*%
X110099600Y-88320000D02*
X110099600Y-88880000D01*
X110099600Y-104160000D02*
X110099600Y-104720000D01*
X105589600Y-107980000D02*
X104699600Y-107980000D01*
X104699600Y-85060000D02*
X105589600Y-85060000D01*
X106099600Y-85845000D02*
X105589600Y-85845000D01*
X106099600Y-107195000D02*
X105589600Y-107195000D01*
D13*
X111369600Y-88520000D02*
G75*
G03*
X111369600Y-88520000I-100000J0D01*
G01*
D12*
X105589600Y-85845000D02*
X105589600Y-85060000D01*
X105589600Y-107980000D02*
X105589600Y-107195000D01*
X104699600Y-107980000D02*
X104699600Y-85060000D01*
%TO.C,J2*%
X139068400Y-110646600D02*
X138118400Y-110646600D01*
X139068400Y-90216600D02*
X138118400Y-90216600D01*
X139068400Y-110646600D02*
X139068400Y-90216600D01*
D14*
%TO.C,X1*%
X126172800Y-105990800D02*
X126172800Y-106230800D01*
X126912800Y-105990800D02*
X126172800Y-105990800D01*
X123842800Y-102390800D02*
X124372800Y-102390800D01*
X123842800Y-105990800D02*
X123842800Y-102390800D01*
X124372800Y-105990800D02*
X123842800Y-105990800D01*
X124372800Y-106230800D02*
X124372800Y-105990800D01*
X126172800Y-102390800D02*
X126912800Y-102390800D01*
X129242800Y-105990800D02*
X128712800Y-105990800D01*
X129242800Y-102390800D02*
X129242800Y-105990800D01*
X128712800Y-102390800D02*
X129242800Y-102390800D01*
%TO.C,U1*%
X126352300Y-106883200D02*
X124498100Y-106883200D01*
X126352300Y-108821261D02*
X126352300Y-108094739D01*
X124498100Y-110032800D02*
X126352300Y-110032800D01*
%TO.C,R3*%
X131201900Y-104240876D02*
X131201900Y-104750324D01*
X132246900Y-104240876D02*
X132246900Y-104750324D01*
%TO.C,R2*%
X130722900Y-104750324D02*
X130722900Y-104240876D01*
X129677900Y-104750324D02*
X129677900Y-104240876D01*
%TO.C,R1*%
X123306100Y-104089924D02*
X123306100Y-103580476D01*
X122261100Y-104089924D02*
X122261100Y-103580476D01*
%TO.C,C3*%
X128936533Y-108002800D02*
X129229067Y-108002800D01*
X128936533Y-106982800D02*
X129229067Y-106982800D01*
%TO.C,C2*%
X128936533Y-109933200D02*
X129229067Y-109933200D01*
X128936533Y-108913200D02*
X129229067Y-108913200D01*
%TO.C,C1*%
X122273600Y-107143333D02*
X122273600Y-107435867D01*
X123293600Y-107143333D02*
X123293600Y-107435867D01*
D12*
%TO.C,P2*%
X119379200Y-115752400D02*
X124379200Y-115752400D01*
X124629200Y-111552400D02*
X124629200Y-112602400D01*
X123829200Y-111552400D02*
X124629200Y-111552400D01*
X119129200Y-111552400D02*
X119929200Y-111552400D01*
X119129200Y-112602400D02*
X119129200Y-111552400D01*
D11*
X119729200Y-110852400D02*
G75*
G03*
X119729200Y-110852400I-150000J0D01*
G01*
D14*
%TO.C,JP1*%
X120892800Y-107019600D02*
X119492800Y-107019600D01*
X118792800Y-106319600D02*
X118792800Y-105719600D01*
X119492800Y-105019600D02*
X120892800Y-105019600D01*
X121592800Y-105719600D02*
X121592800Y-106319600D01*
X121592800Y-106319600D02*
G75*
G02*
X120892800Y-107019600I-700000J0D01*
G01*
X120892800Y-105019600D02*
G75*
G02*
X121592800Y-105719600I0J-700000D01*
G01*
X118792800Y-105719600D02*
G75*
G02*
X119492800Y-105019600I700000J0D01*
G01*
X119492800Y-107019600D02*
G75*
G02*
X118792800Y-106319600I0J700000D01*
G01*
D11*
%TO.C,P1*%
X124319200Y-82259400D02*
G75*
G03*
X124319200Y-82259400I-150000J0D01*
G01*
D12*
X124619200Y-80509400D02*
X124619200Y-81559400D01*
X124619200Y-81559400D02*
X123819200Y-81559400D01*
X119919200Y-81559400D02*
X119119200Y-81559400D01*
X119119200Y-81559400D02*
X119119200Y-80509400D01*
X124369200Y-77359400D02*
X119369200Y-77359400D01*
%TO.C,J1*%
D10*
X110958380Y-88014133D02*
X111672666Y-88014133D01*
X111815523Y-88061752D01*
X111910761Y-88156990D01*
X111958380Y-88299847D01*
X111958380Y-88395085D01*
X111958380Y-87014133D02*
X111958380Y-87585561D01*
X111958380Y-87299847D02*
X110958380Y-87299847D01*
X111101238Y-87395085D01*
X111196476Y-87490323D01*
X111244095Y-87585561D01*
%TO.C,J2*%
X132599180Y-92586133D02*
X133313466Y-92586133D01*
X133456323Y-92633752D01*
X133551561Y-92728990D01*
X133599180Y-92871847D01*
X133599180Y-92967085D01*
X132694419Y-92157561D02*
X132646800Y-92109942D01*
X132599180Y-92014704D01*
X132599180Y-91776609D01*
X132646800Y-91681371D01*
X132694419Y-91633752D01*
X132789657Y-91586133D01*
X132884895Y-91586133D01*
X133027752Y-91633752D01*
X133599180Y-92205180D01*
X133599180Y-91586133D01*
%TO.C,X1*%
X125733276Y-100843180D02*
X126399942Y-101843180D01*
X126399942Y-100843180D02*
X125733276Y-101843180D01*
X127304704Y-101843180D02*
X126733276Y-101843180D01*
X127018990Y-101843180D02*
X127018990Y-100843180D01*
X126923752Y-100986038D01*
X126828514Y-101081276D01*
X126733276Y-101128895D01*
%TO.C,U1*%
X124866495Y-110450380D02*
X124866495Y-111259904D01*
X124914114Y-111355142D01*
X124961733Y-111402761D01*
X125056971Y-111450380D01*
X125247447Y-111450380D01*
X125342685Y-111402761D01*
X125390304Y-111355142D01*
X125437923Y-111259904D01*
X125437923Y-110450380D01*
X126437923Y-111450380D02*
X125866495Y-111450380D01*
X126152209Y-111450380D02*
X126152209Y-110450380D01*
X126056971Y-110593238D01*
X125961733Y-110688476D01*
X125866495Y-110736095D01*
X123894850Y-105309380D02*
X123894850Y-105547476D01*
X123656754Y-105452238D02*
X123894850Y-105547476D01*
X124132945Y-105452238D01*
X123751992Y-105737952D02*
X123894850Y-105547476D01*
X124037707Y-105737952D01*
X123894850Y-105309380D02*
X123894850Y-105547476D01*
X123656754Y-105452238D02*
X123894850Y-105547476D01*
X124132945Y-105452238D01*
X123751992Y-105737952D02*
X123894850Y-105547476D01*
X124037707Y-105737952D01*
%TO.C,R3*%
X132176780Y-102122266D02*
X131700590Y-102455600D01*
X132176780Y-102693695D02*
X131176780Y-102693695D01*
X131176780Y-102312742D01*
X131224400Y-102217504D01*
X131272019Y-102169885D01*
X131367257Y-102122266D01*
X131510114Y-102122266D01*
X131605352Y-102169885D01*
X131652971Y-102217504D01*
X131700590Y-102312742D01*
X131700590Y-102693695D01*
X131176780Y-101788933D02*
X131176780Y-101169885D01*
X131557733Y-101503219D01*
X131557733Y-101360361D01*
X131605352Y-101265123D01*
X131652971Y-101217504D01*
X131748209Y-101169885D01*
X131986304Y-101169885D01*
X132081542Y-101217504D01*
X132129161Y-101265123D01*
X132176780Y-101360361D01*
X132176780Y-101646076D01*
X132129161Y-101741314D01*
X132081542Y-101788933D01*
%TO.C,R2*%
X130652780Y-102071466D02*
X130176590Y-102404800D01*
X130652780Y-102642895D02*
X129652780Y-102642895D01*
X129652780Y-102261942D01*
X129700400Y-102166704D01*
X129748019Y-102119085D01*
X129843257Y-102071466D01*
X129986114Y-102071466D01*
X130081352Y-102119085D01*
X130128971Y-102166704D01*
X130176590Y-102261942D01*
X130176590Y-102642895D01*
X129748019Y-101690514D02*
X129700400Y-101642895D01*
X129652780Y-101547657D01*
X129652780Y-101309561D01*
X129700400Y-101214323D01*
X129748019Y-101166704D01*
X129843257Y-101119085D01*
X129938495Y-101119085D01*
X130081352Y-101166704D01*
X130652780Y-101738133D01*
X130652780Y-101119085D01*
%TO.C,R1*%
X123235980Y-101411066D02*
X122759790Y-101744400D01*
X123235980Y-101982495D02*
X122235980Y-101982495D01*
X122235980Y-101601542D01*
X122283600Y-101506304D01*
X122331219Y-101458685D01*
X122426457Y-101411066D01*
X122569314Y-101411066D01*
X122664552Y-101458685D01*
X122712171Y-101506304D01*
X122759790Y-101601542D01*
X122759790Y-101982495D01*
X123235980Y-100458685D02*
X123235980Y-101030114D01*
X123235980Y-100744400D02*
X122235980Y-100744400D01*
X122378838Y-100839638D01*
X122474076Y-100934876D01*
X122521695Y-101030114D01*
%TO.C,C3*%
X131557733Y-108103942D02*
X131510114Y-108151561D01*
X131367257Y-108199180D01*
X131272019Y-108199180D01*
X131129161Y-108151561D01*
X131033923Y-108056323D01*
X130986304Y-107961085D01*
X130938685Y-107770609D01*
X130938685Y-107627752D01*
X130986304Y-107437276D01*
X131033923Y-107342038D01*
X131129161Y-107246800D01*
X131272019Y-107199180D01*
X131367257Y-107199180D01*
X131510114Y-107246800D01*
X131557733Y-107294419D01*
X131891066Y-107199180D02*
X132510114Y-107199180D01*
X132176780Y-107580133D01*
X132319638Y-107580133D01*
X132414876Y-107627752D01*
X132462495Y-107675371D01*
X132510114Y-107770609D01*
X132510114Y-108008704D01*
X132462495Y-108103942D01*
X132414876Y-108151561D01*
X132319638Y-108199180D01*
X132033923Y-108199180D01*
X131938685Y-108151561D01*
X131891066Y-108103942D01*
%TO.C,C2*%
X131506933Y-109983542D02*
X131459314Y-110031161D01*
X131316457Y-110078780D01*
X131221219Y-110078780D01*
X131078361Y-110031161D01*
X130983123Y-109935923D01*
X130935504Y-109840685D01*
X130887885Y-109650209D01*
X130887885Y-109507352D01*
X130935504Y-109316876D01*
X130983123Y-109221638D01*
X131078361Y-109126400D01*
X131221219Y-109078780D01*
X131316457Y-109078780D01*
X131459314Y-109126400D01*
X131506933Y-109174019D01*
X131887885Y-109174019D02*
X131935504Y-109126400D01*
X132030742Y-109078780D01*
X132268838Y-109078780D01*
X132364076Y-109126400D01*
X132411695Y-109174019D01*
X132459314Y-109269257D01*
X132459314Y-109364495D01*
X132411695Y-109507352D01*
X131840266Y-110078780D01*
X132459314Y-110078780D01*
%TO.C,C1*%
X123140742Y-109793066D02*
X123188361Y-109840685D01*
X123235980Y-109983542D01*
X123235980Y-110078780D01*
X123188361Y-110221638D01*
X123093123Y-110316876D01*
X122997885Y-110364495D01*
X122807409Y-110412114D01*
X122664552Y-110412114D01*
X122474076Y-110364495D01*
X122378838Y-110316876D01*
X122283600Y-110221638D01*
X122235980Y-110078780D01*
X122235980Y-109983542D01*
X122283600Y-109840685D01*
X122331219Y-109793066D01*
X123235980Y-108840685D02*
X123235980Y-109412114D01*
X123235980Y-109126400D02*
X122235980Y-109126400D01*
X122378838Y-109221638D01*
X122474076Y-109316876D01*
X122521695Y-109412114D01*
%TO.C,P2*%
X114577573Y-114955784D02*
X114577573Y-113955335D01*
X114958696Y-113955335D01*
X115053977Y-114002975D01*
X115101618Y-114050615D01*
X115149258Y-114145896D01*
X115149258Y-114288818D01*
X115101618Y-114384098D01*
X115053977Y-114431739D01*
X114958696Y-114479379D01*
X114577573Y-114479379D01*
X115530381Y-114050615D02*
X115578022Y-114002975D01*
X115673303Y-113955335D01*
X115911505Y-113955335D01*
X116006786Y-114002975D01*
X116054426Y-114050615D01*
X116102067Y-114145896D01*
X116102067Y-114241177D01*
X116054426Y-114384098D01*
X115482741Y-114955784D01*
X116102067Y-114955784D01*
%TO.C,JP1*%
X119308666Y-103541580D02*
X119308666Y-104255866D01*
X119261047Y-104398723D01*
X119165809Y-104493961D01*
X119022952Y-104541580D01*
X118927714Y-104541580D01*
X119784857Y-104541580D02*
X119784857Y-103541580D01*
X120165809Y-103541580D01*
X120261047Y-103589200D01*
X120308666Y-103636819D01*
X120356285Y-103732057D01*
X120356285Y-103874914D01*
X120308666Y-103970152D01*
X120261047Y-104017771D01*
X120165809Y-104065390D01*
X119784857Y-104065390D01*
X121308666Y-104541580D02*
X120737238Y-104541580D01*
X121022952Y-104541580D02*
X121022952Y-103541580D01*
X120927714Y-103684438D01*
X120832476Y-103779676D01*
X120737238Y-103827295D01*
%TO.C,P1*%
X127683973Y-79141784D02*
X127683973Y-78141335D01*
X128065096Y-78141335D01*
X128160377Y-78188975D01*
X128208018Y-78236615D01*
X128255658Y-78331896D01*
X128255658Y-78474818D01*
X128208018Y-78570098D01*
X128160377Y-78617739D01*
X128065096Y-78665379D01*
X127683973Y-78665379D01*
X129208467Y-79141784D02*
X128636781Y-79141784D01*
X128922624Y-79141784D02*
X128922624Y-78141335D01*
X128827343Y-78284256D01*
X128732062Y-78379537D01*
X128636781Y-78427177D01*
%TD*%
M02*
