%TF.GenerationSoftware,KiCad,Pcbnew,5.1.12-84ad8e8a86~92~ubuntu18.04.1*%
%TF.CreationDate,2023-10-21T06:49:18+07:00*%
%TF.ProjectId,RPi_FFC_15P-EYECLOUDAI_2MGSMOD_AR0234-ADAPTER,5250695f-4646-4435-9f31-35502d455945,rev?*%
%TF.SameCoordinates,Original*%
%TF.FileFunction,Soldermask,Bot*%
%TF.FilePolarity,Negative*%
%FSLAX46Y46*%
G04 Gerber Fmt 4.6, Leading zero omitted, Abs format (unit mm)*
G04 Created by KiCad (PCBNEW 5.1.12-84ad8e8a86~92~ubuntu18.04.1) date 2023-10-21 06:49:18*
%MOMM*%
%LPD*%
G01*
G04 APERTURE LIST*
%ADD10R,0.800000X0.900000*%
%ADD11R,1.460500X0.533400*%
%ADD12R,0.812800X0.889000*%
%ADD13C,4.400000*%
G04 APERTURE END LIST*
%TO.C,R9*%
G36*
G01*
X127374200Y-103209100D02*
X127374200Y-102734100D01*
G75*
G02*
X127611700Y-102496600I237500J0D01*
G01*
X128111700Y-102496600D01*
G75*
G02*
X128349200Y-102734100I0J-237500D01*
G01*
X128349200Y-103209100D01*
G75*
G02*
X128111700Y-103446600I-237500J0D01*
G01*
X127611700Y-103446600D01*
G75*
G02*
X127374200Y-103209100I0J237500D01*
G01*
G37*
G36*
G01*
X125549200Y-103209100D02*
X125549200Y-102734100D01*
G75*
G02*
X125786700Y-102496600I237500J0D01*
G01*
X126286700Y-102496600D01*
G75*
G02*
X126524200Y-102734100I0J-237500D01*
G01*
X126524200Y-103209100D01*
G75*
G02*
X126286700Y-103446600I-237500J0D01*
G01*
X125786700Y-103446600D01*
G75*
G02*
X125549200Y-103209100I0J237500D01*
G01*
G37*
%TD*%
%TO.C,R8*%
G36*
G01*
X128349200Y-101108500D02*
X128349200Y-101583500D01*
G75*
G02*
X128111700Y-101821000I-237500J0D01*
G01*
X127611700Y-101821000D01*
G75*
G02*
X127374200Y-101583500I0J237500D01*
G01*
X127374200Y-101108500D01*
G75*
G02*
X127611700Y-100871000I237500J0D01*
G01*
X128111700Y-100871000D01*
G75*
G02*
X128349200Y-101108500I0J-237500D01*
G01*
G37*
G36*
G01*
X126524200Y-101108500D02*
X126524200Y-101583500D01*
G75*
G02*
X126286700Y-101821000I-237500J0D01*
G01*
X125786700Y-101821000D01*
G75*
G02*
X125549200Y-101583500I0J237500D01*
G01*
X125549200Y-101108500D01*
G75*
G02*
X125786700Y-100871000I237500J0D01*
G01*
X126286700Y-100871000D01*
G75*
G02*
X126524200Y-101108500I0J-237500D01*
G01*
G37*
%TD*%
%TO.C,R7*%
G36*
G01*
X123970600Y-101583500D02*
X123970600Y-101108500D01*
G75*
G02*
X124208100Y-100871000I237500J0D01*
G01*
X124708100Y-100871000D01*
G75*
G02*
X124945600Y-101108500I0J-237500D01*
G01*
X124945600Y-101583500D01*
G75*
G02*
X124708100Y-101821000I-237500J0D01*
G01*
X124208100Y-101821000D01*
G75*
G02*
X123970600Y-101583500I0J237500D01*
G01*
G37*
G36*
G01*
X122145600Y-101583500D02*
X122145600Y-101108500D01*
G75*
G02*
X122383100Y-100871000I237500J0D01*
G01*
X122883100Y-100871000D01*
G75*
G02*
X123120600Y-101108500I0J-237500D01*
G01*
X123120600Y-101583500D01*
G75*
G02*
X122883100Y-101821000I-237500J0D01*
G01*
X122383100Y-101821000D01*
G75*
G02*
X122145600Y-101583500I0J237500D01*
G01*
G37*
%TD*%
%TO.C,R6*%
G36*
G01*
X115856200Y-101108500D02*
X115856200Y-101583500D01*
G75*
G02*
X115618700Y-101821000I-237500J0D01*
G01*
X115118700Y-101821000D01*
G75*
G02*
X114881200Y-101583500I0J237500D01*
G01*
X114881200Y-101108500D01*
G75*
G02*
X115118700Y-100871000I237500J0D01*
G01*
X115618700Y-100871000D01*
G75*
G02*
X115856200Y-101108500I0J-237500D01*
G01*
G37*
G36*
G01*
X117681200Y-101108500D02*
X117681200Y-101583500D01*
G75*
G02*
X117443700Y-101821000I-237500J0D01*
G01*
X116943700Y-101821000D01*
G75*
G02*
X116706200Y-101583500I0J237500D01*
G01*
X116706200Y-101108500D01*
G75*
G02*
X116943700Y-100871000I237500J0D01*
G01*
X117443700Y-100871000D01*
G75*
G02*
X117681200Y-101108500I0J-237500D01*
G01*
G37*
%TD*%
D10*
%TO.C,Q1*%
X116382800Y-99755200D03*
X117332800Y-97755200D03*
X115432800Y-97755200D03*
%TD*%
%TO.C,C5*%
G36*
G01*
X119766200Y-101108500D02*
X119766200Y-101583500D01*
G75*
G02*
X119528700Y-101821000I-237500J0D01*
G01*
X118928700Y-101821000D01*
G75*
G02*
X118691200Y-101583500I0J237500D01*
G01*
X118691200Y-101108500D01*
G75*
G02*
X118928700Y-100871000I237500J0D01*
G01*
X119528700Y-100871000D01*
G75*
G02*
X119766200Y-101108500I0J-237500D01*
G01*
G37*
G36*
G01*
X121491200Y-101108500D02*
X121491200Y-101583500D01*
G75*
G02*
X121253700Y-101821000I-237500J0D01*
G01*
X120653700Y-101821000D01*
G75*
G02*
X120416200Y-101583500I0J237500D01*
G01*
X120416200Y-101108500D01*
G75*
G02*
X120653700Y-100871000I237500J0D01*
G01*
X121253700Y-100871000D01*
G75*
G02*
X121491200Y-101108500I0J-237500D01*
G01*
G37*
%TD*%
D11*
%TO.C,U3*%
X124593350Y-92989400D03*
X124593350Y-91719400D03*
X124593350Y-90449400D03*
X124593350Y-89179400D03*
X119145050Y-89179400D03*
X119145050Y-90449400D03*
X119145050Y-91719400D03*
X119145050Y-92989400D03*
%TD*%
%TO.C,R11*%
G36*
G01*
X126932700Y-91675400D02*
X126457700Y-91675400D01*
G75*
G02*
X126220200Y-91437900I0J237500D01*
G01*
X126220200Y-90937900D01*
G75*
G02*
X126457700Y-90700400I237500J0D01*
G01*
X126932700Y-90700400D01*
G75*
G02*
X127170200Y-90937900I0J-237500D01*
G01*
X127170200Y-91437900D01*
G75*
G02*
X126932700Y-91675400I-237500J0D01*
G01*
G37*
G36*
G01*
X126932700Y-93500400D02*
X126457700Y-93500400D01*
G75*
G02*
X126220200Y-93262900I0J237500D01*
G01*
X126220200Y-92762900D01*
G75*
G02*
X126457700Y-92525400I237500J0D01*
G01*
X126932700Y-92525400D01*
G75*
G02*
X127170200Y-92762900I0J-237500D01*
G01*
X127170200Y-93262900D01*
G75*
G02*
X126932700Y-93500400I-237500J0D01*
G01*
G37*
%TD*%
D12*
%TO.C,U2*%
X120091200Y-104729400D03*
X121116199Y-102839401D03*
X119066201Y-102839401D03*
%TD*%
%TO.C,R4*%
G36*
G01*
X122546100Y-104262100D02*
X123021100Y-104262100D01*
G75*
G02*
X123258600Y-104499600I0J-237500D01*
G01*
X123258600Y-104999600D01*
G75*
G02*
X123021100Y-105237100I-237500J0D01*
G01*
X122546100Y-105237100D01*
G75*
G02*
X122308600Y-104999600I0J237500D01*
G01*
X122308600Y-104499600D01*
G75*
G02*
X122546100Y-104262100I237500J0D01*
G01*
G37*
G36*
G01*
X122546100Y-102437100D02*
X123021100Y-102437100D01*
G75*
G02*
X123258600Y-102674600I0J-237500D01*
G01*
X123258600Y-103174600D01*
G75*
G02*
X123021100Y-103412100I-237500J0D01*
G01*
X122546100Y-103412100D01*
G75*
G02*
X122308600Y-103174600I0J237500D01*
G01*
X122308600Y-102674600D01*
G75*
G02*
X122546100Y-102437100I237500J0D01*
G01*
G37*
%TD*%
%TO.C,C4*%
G36*
G01*
X124070100Y-104160200D02*
X124545100Y-104160200D01*
G75*
G02*
X124782600Y-104397700I0J-237500D01*
G01*
X124782600Y-104997700D01*
G75*
G02*
X124545100Y-105235200I-237500J0D01*
G01*
X124070100Y-105235200D01*
G75*
G02*
X123832600Y-104997700I0J237500D01*
G01*
X123832600Y-104397700D01*
G75*
G02*
X124070100Y-104160200I237500J0D01*
G01*
G37*
G36*
G01*
X124070100Y-102435200D02*
X124545100Y-102435200D01*
G75*
G02*
X124782600Y-102672700I0J-237500D01*
G01*
X124782600Y-103272700D01*
G75*
G02*
X124545100Y-103510200I-237500J0D01*
G01*
X124070100Y-103510200D01*
G75*
G02*
X123832600Y-103272700I0J237500D01*
G01*
X123832600Y-102672700D01*
G75*
G02*
X124070100Y-102435200I237500J0D01*
G01*
G37*
%TD*%
D13*
%TO.C,H4*%
X138917680Y-79413100D03*
%TD*%
%TO.C,H3*%
X138917680Y-113489740D03*
%TD*%
%TO.C,H2*%
X105079800Y-113489740D03*
%TD*%
%TO.C,H1*%
X105079800Y-79413100D03*
%TD*%
M02*
