M48
; DRILL file {KiCad 5.1.12-84ad8e8a86~92~ubuntu18.04.1} date Thứ bảy, 21 Tháng 10 Năm 2023 06:49:12 +07
; FORMAT={-:-/ absolute / metric / decimal}
; #@! TF.CreationDate,2023-10-21T06:49:12+07:00
; #@! TF.GenerationSoftware,Kicad,Pcbnew,5.1.12-84ad8e8a86~92~ubuntu18.04.1
; #@! TF.FileFunction,Plated,1,2,PTH
FMAT,2
METRIC
T1C0.400
T2C2.200
%
G90
G05
T1
X108.204Y-103.53
X108.255Y-100.533
X108.255Y-102.159
X108.306Y-106.477
X108.356Y-86.411
X109.169Y-98.45
X109.22Y-92.558
X109.22Y-95.491
X113.386Y-103.073
X113.792Y-95.961
X114.148Y-99.771
X114.3Y-96.977
X115.621Y-92.558
X117.704Y-103.734
X117.704Y-105.867
X117.704Y-108.153
X117.958Y-78.588
X118.059Y-114.402
X121.361Y-104.75
X122.784Y-109.474
X122.834Y-98.095
X125.578Y-110.439
X125.628Y-114.351
X125.679Y-78.588
X130.099Y-92.507
X131.166Y-106.629
X131.572Y-96.012
X131.724Y-107.899
X131.724Y-109.423
X131.928Y-102.057
X132.537Y-95.504
X132.893Y-104.191
X135.89Y-103.175
X135.941Y-100.228
X136.144Y-105.715
X136.195Y-109.322
X136.218Y-94.109
X136.218Y-95.582
X136.218Y-97.204
X136.218Y-98.63
X136.246Y-91.491
T2
X105.08Y-79.413
X105.08Y-113.49
X138.918Y-79.413
X138.918Y-113.49
T0
M30
