%TF.GenerationSoftware,KiCad,Pcbnew,5.1.12-84ad8e8a86~92~ubuntu18.04.1*%
%TF.CreationDate,2023-10-21T06:49:18+07:00*%
%TF.ProjectId,RPi_FFC_15P-EYECLOUDAI_2MGSMOD_AR0234-ADAPTER,5250695f-4646-4435-9f31-35502d455945,rev?*%
%TF.SameCoordinates,Original*%
%TF.FileFunction,Copper,L2,Bot*%
%TF.FilePolarity,Positive*%
%FSLAX46Y46*%
G04 Gerber Fmt 4.6, Leading zero omitted, Abs format (unit mm)*
G04 Created by KiCad (PCBNEW 5.1.12-84ad8e8a86~92~ubuntu18.04.1) date 2023-10-21 06:49:18*
%MOMM*%
%LPD*%
G01*
G04 APERTURE LIST*
%TA.AperFunction,SMDPad,CuDef*%
%ADD10R,0.800000X0.900000*%
%TD*%
%TA.AperFunction,SMDPad,CuDef*%
%ADD11R,1.460500X0.533400*%
%TD*%
%TA.AperFunction,SMDPad,CuDef*%
%ADD12R,0.812800X0.889000*%
%TD*%
%TA.AperFunction,ComponentPad*%
%ADD13C,4.400000*%
%TD*%
%TA.AperFunction,ViaPad*%
%ADD14C,0.800000*%
%TD*%
%TA.AperFunction,ViaPad*%
%ADD15C,1.000000*%
%TD*%
%TA.AperFunction,Conductor*%
%ADD16C,0.300000*%
%TD*%
%TA.AperFunction,Conductor*%
%ADD17C,0.250000*%
%TD*%
%TA.AperFunction,Conductor*%
%ADD18C,0.200000*%
%TD*%
%TA.AperFunction,Conductor*%
%ADD19C,0.254000*%
%TD*%
%TA.AperFunction,Conductor*%
%ADD20C,0.100000*%
%TD*%
G04 APERTURE END LIST*
%TO.P,R9,2*%
%TO.N,Net-(Q1-Pad2)*%
%TA.AperFunction,SMDPad,CuDef*%
G36*
G01*
X127374200Y-103209100D02*
X127374200Y-102734100D01*
G75*
G02*
X127611700Y-102496600I237500J0D01*
G01*
X128111700Y-102496600D01*
G75*
G02*
X128349200Y-102734100I0J-237500D01*
G01*
X128349200Y-103209100D01*
G75*
G02*
X128111700Y-103446600I-237500J0D01*
G01*
X127611700Y-103446600D01*
G75*
G02*
X127374200Y-103209100I0J237500D01*
G01*
G37*
%TD.AperFunction*%
%TO.P,R9,1*%
%TO.N,/CSI_nRST_1V8*%
%TA.AperFunction,SMDPad,CuDef*%
G36*
G01*
X125549200Y-103209100D02*
X125549200Y-102734100D01*
G75*
G02*
X125786700Y-102496600I237500J0D01*
G01*
X126286700Y-102496600D01*
G75*
G02*
X126524200Y-102734100I0J-237500D01*
G01*
X126524200Y-103209100D01*
G75*
G02*
X126286700Y-103446600I-237500J0D01*
G01*
X125786700Y-103446600D01*
G75*
G02*
X125549200Y-103209100I0J237500D01*
G01*
G37*
%TD.AperFunction*%
%TD*%
%TO.P,R8,1*%
%TO.N,/CSI_PWDN_1V8*%
%TA.AperFunction,SMDPad,CuDef*%
G36*
G01*
X128349200Y-101108500D02*
X128349200Y-101583500D01*
G75*
G02*
X128111700Y-101821000I-237500J0D01*
G01*
X127611700Y-101821000D01*
G75*
G02*
X127374200Y-101583500I0J237500D01*
G01*
X127374200Y-101108500D01*
G75*
G02*
X127611700Y-100871000I237500J0D01*
G01*
X128111700Y-100871000D01*
G75*
G02*
X128349200Y-101108500I0J-237500D01*
G01*
G37*
%TD.AperFunction*%
%TO.P,R8,2*%
%TO.N,Net-(Q1-Pad2)*%
%TA.AperFunction,SMDPad,CuDef*%
G36*
G01*
X126524200Y-101108500D02*
X126524200Y-101583500D01*
G75*
G02*
X126286700Y-101821000I-237500J0D01*
G01*
X125786700Y-101821000D01*
G75*
G02*
X125549200Y-101583500I0J237500D01*
G01*
X125549200Y-101108500D01*
G75*
G02*
X125786700Y-100871000I237500J0D01*
G01*
X126286700Y-100871000D01*
G75*
G02*
X126524200Y-101108500I0J-237500D01*
G01*
G37*
%TD.AperFunction*%
%TD*%
%TO.P,R7,2*%
%TO.N,Net-(Q1-Pad2)*%
%TA.AperFunction,SMDPad,CuDef*%
G36*
G01*
X123970600Y-101583500D02*
X123970600Y-101108500D01*
G75*
G02*
X124208100Y-100871000I237500J0D01*
G01*
X124708100Y-100871000D01*
G75*
G02*
X124945600Y-101108500I0J-237500D01*
G01*
X124945600Y-101583500D01*
G75*
G02*
X124708100Y-101821000I-237500J0D01*
G01*
X124208100Y-101821000D01*
G75*
G02*
X123970600Y-101583500I0J237500D01*
G01*
G37*
%TD.AperFunction*%
%TO.P,R7,1*%
%TO.N,+1V8*%
%TA.AperFunction,SMDPad,CuDef*%
G36*
G01*
X122145600Y-101583500D02*
X122145600Y-101108500D01*
G75*
G02*
X122383100Y-100871000I237500J0D01*
G01*
X122883100Y-100871000D01*
G75*
G02*
X123120600Y-101108500I0J-237500D01*
G01*
X123120600Y-101583500D01*
G75*
G02*
X122883100Y-101821000I-237500J0D01*
G01*
X122383100Y-101821000D01*
G75*
G02*
X122145600Y-101583500I0J237500D01*
G01*
G37*
%TD.AperFunction*%
%TD*%
%TO.P,R6,2*%
%TO.N,/CSI_GPIO_3V3*%
%TA.AperFunction,SMDPad,CuDef*%
G36*
G01*
X115856200Y-101108500D02*
X115856200Y-101583500D01*
G75*
G02*
X115618700Y-101821000I-237500J0D01*
G01*
X115118700Y-101821000D01*
G75*
G02*
X114881200Y-101583500I0J237500D01*
G01*
X114881200Y-101108500D01*
G75*
G02*
X115118700Y-100871000I237500J0D01*
G01*
X115618700Y-100871000D01*
G75*
G02*
X115856200Y-101108500I0J-237500D01*
G01*
G37*
%TD.AperFunction*%
%TO.P,R6,1*%
%TO.N,+3V3*%
%TA.AperFunction,SMDPad,CuDef*%
G36*
G01*
X117681200Y-101108500D02*
X117681200Y-101583500D01*
G75*
G02*
X117443700Y-101821000I-237500J0D01*
G01*
X116943700Y-101821000D01*
G75*
G02*
X116706200Y-101583500I0J237500D01*
G01*
X116706200Y-101108500D01*
G75*
G02*
X116943700Y-100871000I237500J0D01*
G01*
X117443700Y-100871000D01*
G75*
G02*
X117681200Y-101108500I0J-237500D01*
G01*
G37*
%TD.AperFunction*%
%TD*%
D10*
%TO.P,Q1,3*%
%TO.N,/CSI_GPIO_3V3*%
X116382800Y-99755200D03*
%TO.P,Q1,2*%
%TO.N,Net-(Q1-Pad2)*%
X117332800Y-97755200D03*
%TO.P,Q1,1*%
%TO.N,+1V8*%
X115432800Y-97755200D03*
%TD*%
%TO.P,C5,2*%
%TO.N,GND*%
%TA.AperFunction,SMDPad,CuDef*%
G36*
G01*
X119766200Y-101108500D02*
X119766200Y-101583500D01*
G75*
G02*
X119528700Y-101821000I-237500J0D01*
G01*
X118928700Y-101821000D01*
G75*
G02*
X118691200Y-101583500I0J237500D01*
G01*
X118691200Y-101108500D01*
G75*
G02*
X118928700Y-100871000I237500J0D01*
G01*
X119528700Y-100871000D01*
G75*
G02*
X119766200Y-101108500I0J-237500D01*
G01*
G37*
%TD.AperFunction*%
%TO.P,C5,1*%
%TO.N,+1V8*%
%TA.AperFunction,SMDPad,CuDef*%
G36*
G01*
X121491200Y-101108500D02*
X121491200Y-101583500D01*
G75*
G02*
X121253700Y-101821000I-237500J0D01*
G01*
X120653700Y-101821000D01*
G75*
G02*
X120416200Y-101583500I0J237500D01*
G01*
X120416200Y-101108500D01*
G75*
G02*
X120653700Y-100871000I237500J0D01*
G01*
X121253700Y-100871000D01*
G75*
G02*
X121491200Y-101108500I0J-237500D01*
G01*
G37*
%TD.AperFunction*%
%TD*%
D11*
%TO.P,U3,8*%
%TO.N,+1V8*%
X124593350Y-92989400D03*
%TO.P,U3,7*%
%TO.N,Net-(R11-Pad2)*%
X124593350Y-91719400D03*
%TO.P,U3,6*%
%TO.N,/I2C_SCL_1V8*%
X124593350Y-90449400D03*
%TO.P,U3,5*%
%TO.N,/I2C_SDA_1V8*%
X124593350Y-89179400D03*
%TO.P,U3,4*%
%TO.N,/I2C_SDA_3V3*%
X119145050Y-89179400D03*
%TO.P,U3,3*%
%TO.N,/I2C_SCL_3V3*%
X119145050Y-90449400D03*
%TO.P,U3,2*%
%TO.N,+3V3*%
X119145050Y-91719400D03*
%TO.P,U3,1*%
%TO.N,GND*%
X119145050Y-92989400D03*
%TD*%
%TO.P,R11,2*%
%TO.N,Net-(R11-Pad2)*%
%TA.AperFunction,SMDPad,CuDef*%
G36*
G01*
X126932700Y-91675400D02*
X126457700Y-91675400D01*
G75*
G02*
X126220200Y-91437900I0J237500D01*
G01*
X126220200Y-90937900D01*
G75*
G02*
X126457700Y-90700400I237500J0D01*
G01*
X126932700Y-90700400D01*
G75*
G02*
X127170200Y-90937900I0J-237500D01*
G01*
X127170200Y-91437900D01*
G75*
G02*
X126932700Y-91675400I-237500J0D01*
G01*
G37*
%TD.AperFunction*%
%TO.P,R11,1*%
%TO.N,+1V8*%
%TA.AperFunction,SMDPad,CuDef*%
G36*
G01*
X126932700Y-93500400D02*
X126457700Y-93500400D01*
G75*
G02*
X126220200Y-93262900I0J237500D01*
G01*
X126220200Y-92762900D01*
G75*
G02*
X126457700Y-92525400I237500J0D01*
G01*
X126932700Y-92525400D01*
G75*
G02*
X127170200Y-92762900I0J-237500D01*
G01*
X127170200Y-93262900D01*
G75*
G02*
X126932700Y-93500400I-237500J0D01*
G01*
G37*
%TD.AperFunction*%
%TD*%
D12*
%TO.P,U2,3*%
%TO.N,+1V8*%
X120091200Y-104729400D03*
%TO.P,U2,2*%
%TO.N,/CSI_nRST_1V8*%
X121116199Y-102839401D03*
%TO.P,U2,1*%
%TO.N,GND*%
X119066201Y-102839401D03*
%TD*%
%TO.P,R4,2*%
%TO.N,+1V8*%
%TA.AperFunction,SMDPad,CuDef*%
G36*
G01*
X122546100Y-104262100D02*
X123021100Y-104262100D01*
G75*
G02*
X123258600Y-104499600I0J-237500D01*
G01*
X123258600Y-104999600D01*
G75*
G02*
X123021100Y-105237100I-237500J0D01*
G01*
X122546100Y-105237100D01*
G75*
G02*
X122308600Y-104999600I0J237500D01*
G01*
X122308600Y-104499600D01*
G75*
G02*
X122546100Y-104262100I237500J0D01*
G01*
G37*
%TD.AperFunction*%
%TO.P,R4,1*%
%TO.N,/CSI_nRST_1V8*%
%TA.AperFunction,SMDPad,CuDef*%
G36*
G01*
X122546100Y-102437100D02*
X123021100Y-102437100D01*
G75*
G02*
X123258600Y-102674600I0J-237500D01*
G01*
X123258600Y-103174600D01*
G75*
G02*
X123021100Y-103412100I-237500J0D01*
G01*
X122546100Y-103412100D01*
G75*
G02*
X122308600Y-103174600I0J237500D01*
G01*
X122308600Y-102674600D01*
G75*
G02*
X122546100Y-102437100I237500J0D01*
G01*
G37*
%TD.AperFunction*%
%TD*%
%TO.P,C4,2*%
%TO.N,GND*%
%TA.AperFunction,SMDPad,CuDef*%
G36*
G01*
X124070100Y-104160200D02*
X124545100Y-104160200D01*
G75*
G02*
X124782600Y-104397700I0J-237500D01*
G01*
X124782600Y-104997700D01*
G75*
G02*
X124545100Y-105235200I-237500J0D01*
G01*
X124070100Y-105235200D01*
G75*
G02*
X123832600Y-104997700I0J237500D01*
G01*
X123832600Y-104397700D01*
G75*
G02*
X124070100Y-104160200I237500J0D01*
G01*
G37*
%TD.AperFunction*%
%TO.P,C4,1*%
%TO.N,/CSI_nRST_1V8*%
%TA.AperFunction,SMDPad,CuDef*%
G36*
G01*
X124070100Y-102435200D02*
X124545100Y-102435200D01*
G75*
G02*
X124782600Y-102672700I0J-237500D01*
G01*
X124782600Y-103272700D01*
G75*
G02*
X124545100Y-103510200I-237500J0D01*
G01*
X124070100Y-103510200D01*
G75*
G02*
X123832600Y-103272700I0J237500D01*
G01*
X123832600Y-102672700D01*
G75*
G02*
X124070100Y-102435200I237500J0D01*
G01*
G37*
%TD.AperFunction*%
%TD*%
D13*
%TO.P,H4,1*%
%TO.N,N/C*%
X138917680Y-79413100D03*
%TD*%
%TO.P,H3,1*%
%TO.N,N/C*%
X138917680Y-113489740D03*
%TD*%
%TO.P,H2,1*%
%TO.N,N/C*%
X105079800Y-113489740D03*
%TD*%
%TO.P,H1,1*%
%TO.N,N/C*%
X105079800Y-79413100D03*
%TD*%
D14*
%TO.N,GND*%
X125679200Y-78587600D03*
X117957600Y-78587600D03*
X118059200Y-114401600D03*
X125628400Y-114350800D03*
X108305600Y-106476800D03*
X108356400Y-86410800D03*
X136194800Y-109321600D03*
X136245600Y-91490800D03*
X122783600Y-109474000D03*
X136218400Y-94108800D03*
X136218400Y-95582000D03*
X136218400Y-97204000D03*
X136218400Y-98630000D03*
X136144000Y-105714800D03*
X109220000Y-92557600D03*
X109220000Y-95491300D03*
X115620800Y-92557600D03*
X109169200Y-98450400D03*
X122834400Y-98094800D03*
X130098800Y-92506800D03*
X131724400Y-109423200D03*
X117703600Y-103733600D03*
X117703600Y-105867200D03*
X117703600Y-108153200D03*
X131724400Y-107899200D03*
X125577600Y-110439200D03*
D15*
%TO.N,/CSI_nRST_1V8*%
X132892800Y-104190800D03*
%TO.N,/CSI_PWDN_1V8*%
X131927600Y-102057200D03*
D14*
%TO.N,/I2C_SDA_1V8*%
X135940800Y-100228400D03*
%TO.N,/I2C_SCL_1V8*%
X135890000Y-103174800D03*
%TO.N,+3V3*%
X108204000Y-103530400D03*
%TO.N,/CSI_CLK_P*%
X114300000Y-96977200D03*
X131572000Y-96012000D03*
%TO.N,/CSI_CLK_N*%
X113792000Y-95961200D03*
X132537200Y-95504000D03*
%TO.N,+1V8*%
X121361200Y-104749600D03*
%TO.N,/I2C_SDA_3V3*%
X108254800Y-102158800D03*
%TO.N,/I2C_SCL_3V3*%
X108254800Y-100533200D03*
%TO.N,/MCLK_JETSON*%
X131165600Y-106629200D03*
X113385600Y-103073200D03*
%TO.N,/CSI_GPIO_3V3*%
X114147600Y-99771200D03*
%TD*%
D16*
%TO.N,GND*%
X119145050Y-92989400D02*
X117271800Y-92989400D01*
X116802400Y-92520000D02*
X115353600Y-92520000D01*
X117271800Y-92989400D02*
X116802400Y-92520000D01*
D17*
X120429946Y-92989400D02*
X122174000Y-91245346D01*
X119145050Y-92989400D02*
X120429946Y-92989400D01*
X122174000Y-90525600D02*
X122301000Y-90398600D01*
X122174000Y-91245346D02*
X122174000Y-90525600D01*
D16*
X127219700Y-104697700D02*
X127812800Y-105290800D01*
X124307600Y-104697700D02*
X127219700Y-104697700D01*
X119228700Y-101346000D02*
X119228700Y-101954500D01*
X119066201Y-102116999D02*
X119066201Y-102839401D01*
X119228700Y-101954500D02*
X119066201Y-102116999D01*
D17*
X119228700Y-100127900D02*
X119227600Y-100126800D01*
X119228700Y-101346000D02*
X119228700Y-100127900D01*
D18*
%TO.N,/CSI_nRST_1V8*%
X124259500Y-102924600D02*
X124307600Y-102972700D01*
X122783600Y-102924600D02*
X124259500Y-102924600D01*
X121201398Y-102924600D02*
X121116199Y-102839401D01*
X122783600Y-102924600D02*
X121201398Y-102924600D01*
X124307600Y-102972700D02*
X124307600Y-103022400D01*
X126035600Y-102972700D02*
X126036700Y-102971600D01*
X124307600Y-102972700D02*
X126035600Y-102972700D01*
X132892800Y-104190800D02*
X126441200Y-104190800D01*
X126036700Y-103786300D02*
X126036700Y-102971600D01*
X126441200Y-104190800D02*
X126036700Y-103786300D01*
%TO.N,/CSI_PWDN_1V8*%
X131216400Y-101346000D02*
X131927600Y-102057200D01*
X130962400Y-101346000D02*
X131216400Y-101346000D01*
X130962400Y-101346000D02*
X127861700Y-101346000D01*
%TO.N,/I2C_SDA_1V8*%
X130051449Y-89810951D02*
X130026049Y-89785551D01*
X126193590Y-89769990D02*
X125603000Y-89179400D01*
X130178450Y-89937950D02*
X130010489Y-89769990D01*
X124593350Y-89179400D02*
X125603000Y-89179400D01*
X130010489Y-89769990D02*
X126193590Y-89769990D01*
X130051449Y-89810951D02*
X130178450Y-89937950D01*
X134750449Y-98428449D02*
X135940800Y-99618800D01*
X134750449Y-94509950D02*
X134750449Y-98428449D01*
X130178450Y-89937950D02*
X134750449Y-94509950D01*
X135940800Y-99618800D02*
X135940800Y-100228400D01*
%TO.N,/I2C_SCL_1V8*%
X135204200Y-101015800D02*
X135890000Y-101701600D01*
X129844800Y-90170000D02*
X134350439Y-94675639D01*
X134350439Y-98739639D02*
X135204200Y-99593400D01*
X125780800Y-90170000D02*
X129844800Y-90170000D01*
X134350439Y-94675639D02*
X134350439Y-98739639D01*
X125501400Y-90449400D02*
X125780800Y-90170000D01*
X135204200Y-99593400D02*
X135204200Y-101015800D01*
X124593350Y-90449400D02*
X125501400Y-90449400D01*
X135890000Y-101701600D02*
X135890000Y-103174800D01*
D16*
%TO.N,+3V3*%
X120065800Y-91719400D02*
X119145050Y-91719400D01*
X120218200Y-88265000D02*
X120650000Y-88696800D01*
X120650000Y-88696800D02*
X120650000Y-91135200D01*
X110210600Y-88265000D02*
X120218200Y-88265000D01*
X106629200Y-91846400D02*
X110210600Y-88265000D01*
X106629200Y-101955600D02*
X106629200Y-91846400D01*
X120650000Y-91135200D02*
X120065800Y-91719400D01*
X108204000Y-103530400D02*
X106629200Y-101955600D01*
X109067600Y-103530400D02*
X108204000Y-103530400D01*
X113944400Y-101904800D02*
X110693200Y-101904800D01*
X114425100Y-102385500D02*
X113944400Y-101904800D01*
X116863500Y-102385500D02*
X114425100Y-102385500D01*
X117193700Y-102055300D02*
X116863500Y-102385500D01*
X110693200Y-101904800D02*
X109067600Y-103530400D01*
X117193700Y-101346000D02*
X117193700Y-102055300D01*
D18*
%TO.N,/CSI_CLK_P*%
X119860297Y-95997633D02*
X119822376Y-95973806D01*
X119891966Y-96029302D02*
X119860297Y-95997633D01*
X119915793Y-96067223D02*
X119891966Y-96029302D01*
X120411759Y-97163644D02*
X120282312Y-97118349D01*
X120623159Y-97179000D02*
X120548040Y-97179000D01*
X120888887Y-97118349D02*
X120759440Y-97163644D01*
X121005009Y-97045384D02*
X120888887Y-97118349D01*
X120282312Y-97118349D02*
X120166190Y-97045384D01*
X121220244Y-96702840D02*
X121174949Y-96832287D01*
X121235600Y-96566559D02*
X121220244Y-96702840D01*
X121235600Y-94929000D02*
X121235600Y-96566559D01*
X121255406Y-94842224D02*
X121240614Y-94884496D01*
X121310902Y-94772634D02*
X121279233Y-94804303D01*
X119735600Y-95954000D02*
X115323200Y-95954000D01*
X121391095Y-94734015D02*
X121348823Y-94748807D01*
X121435600Y-94729000D02*
X121391095Y-94734015D01*
X121480104Y-94734015D02*
X121435600Y-94729000D01*
X121560297Y-94772634D02*
X121522376Y-94748807D01*
X121615793Y-94842224D02*
X121591966Y-94804303D01*
X121630585Y-94884496D02*
X121615793Y-94842224D01*
X121635600Y-94929000D02*
X121630585Y-94884496D01*
X120548040Y-97179000D02*
X120411759Y-97163644D01*
X121696250Y-96832287D02*
X121650955Y-96702840D01*
X121982312Y-97118349D02*
X121866190Y-97045384D01*
X122111759Y-97163644D02*
X121982312Y-97118349D01*
X121279233Y-94804303D02*
X121255406Y-94842224D01*
X122801984Y-96948409D02*
X122705009Y-97045384D01*
X122874949Y-96832287D02*
X122801984Y-96948409D01*
X122459440Y-97163644D02*
X122323159Y-97179000D01*
X122920244Y-96702840D02*
X122874949Y-96832287D01*
X122935600Y-96566559D02*
X122920244Y-96702840D01*
X122935600Y-94929000D02*
X122935600Y-96566559D01*
X122940614Y-94884496D02*
X122935600Y-94929000D01*
X122955406Y-94842224D02*
X122940614Y-94884496D01*
X123010902Y-94772634D02*
X122979233Y-94804303D01*
X123048823Y-94748807D02*
X123010902Y-94772634D01*
X120166190Y-97045384D02*
X120069215Y-96948409D01*
X121174949Y-96832287D02*
X121101984Y-96948409D01*
X123091095Y-94734015D02*
X123048823Y-94748807D01*
X126730585Y-94884496D02*
X126715793Y-94842224D01*
X125035600Y-96566559D02*
X125035600Y-94929000D01*
X123396250Y-96832287D02*
X123350955Y-96702840D01*
X126735600Y-94929000D02*
X126730585Y-94884496D01*
X124640614Y-94884496D02*
X124635600Y-94929000D01*
X127559440Y-97163644D02*
X127423159Y-97179000D01*
X126796250Y-96832287D02*
X126750955Y-96702840D01*
X121650955Y-96702840D02*
X121635600Y-96566559D01*
X127974949Y-96832287D02*
X127901984Y-96948409D01*
X126580104Y-94734015D02*
X126535600Y-94729000D01*
X129810902Y-95997633D02*
X129779233Y-96029302D01*
X128035600Y-96566559D02*
X128020244Y-96702840D01*
X128055406Y-94842224D02*
X128040614Y-94884496D01*
X124991966Y-94804303D02*
X124960297Y-94772634D01*
X122588887Y-97118349D02*
X122459440Y-97163644D01*
X126966190Y-97045384D02*
X126869215Y-96948409D01*
X128079233Y-94804303D02*
X128055406Y-94842224D01*
X128430585Y-94884496D02*
X128415793Y-94842224D01*
X129935600Y-95954000D02*
X129891095Y-95959014D01*
X126750955Y-96702840D02*
X126735600Y-96566559D01*
X129123159Y-97179000D02*
X129048040Y-97179000D01*
X123291966Y-94804303D02*
X123260297Y-94772634D01*
X128391966Y-94804303D02*
X128360297Y-94772634D01*
X129735600Y-96154000D02*
X129735600Y-96566559D01*
X128322376Y-94748807D02*
X128280104Y-94734015D01*
X126660297Y-94772634D02*
X126622376Y-94748807D01*
X121240614Y-94884496D02*
X121235600Y-94929000D01*
X127423159Y-97179000D02*
X127348040Y-97179000D01*
X124880104Y-94734015D02*
X124835600Y-94729000D01*
X126735600Y-96566559D02*
X126735600Y-94929000D01*
X129740614Y-96109495D02*
X129735600Y-96154000D01*
X126869215Y-96948409D02*
X126796250Y-96832287D01*
X127688887Y-97118349D02*
X127559440Y-97163644D01*
X129388887Y-97118349D02*
X129259440Y-97163644D01*
X131572000Y-96012000D02*
X131514000Y-95954000D01*
X131514000Y-95954000D02*
X129935600Y-95954000D01*
X129601984Y-96948409D02*
X129505009Y-97045384D01*
X129891095Y-95959014D02*
X129848823Y-95973806D01*
X123811759Y-97163644D02*
X123682312Y-97118349D01*
X129755406Y-96067223D02*
X129740614Y-96109495D01*
X128191095Y-94734015D02*
X128148823Y-94748807D01*
X129720244Y-96702840D02*
X129674949Y-96832287D01*
X129674949Y-96832287D02*
X129601984Y-96948409D01*
X129848823Y-95973806D02*
X129810902Y-95997633D01*
X127082312Y-97118349D02*
X126966190Y-97045384D01*
X129779233Y-96029302D02*
X129755406Y-96067223D01*
X129259440Y-97163644D02*
X129123159Y-97179000D01*
X127901984Y-96948409D02*
X127805009Y-97045384D01*
X129505009Y-97045384D02*
X129388887Y-97118349D01*
X119950955Y-96702840D02*
X119935600Y-96566559D01*
X128280104Y-94734015D02*
X128235600Y-94729000D01*
X129735600Y-96566559D02*
X129720244Y-96702840D01*
X128496250Y-96832287D02*
X128450955Y-96702840D01*
X128569215Y-96948409D02*
X128496250Y-96832287D01*
X128415793Y-94842224D02*
X128391966Y-94804303D01*
X129048040Y-97179000D02*
X128911759Y-97163644D01*
X126535600Y-94729000D02*
X126491095Y-94734015D01*
X127348040Y-97179000D02*
X127211759Y-97163644D01*
X125266190Y-97045384D02*
X125169215Y-96948409D01*
X124960297Y-94772634D02*
X124922376Y-94748807D01*
X125030585Y-94884496D02*
X125015793Y-94842224D01*
X128035600Y-94929000D02*
X128035600Y-96566559D01*
X128911759Y-97163644D02*
X128782312Y-97118349D01*
X128110902Y-94772634D02*
X128079233Y-94804303D01*
X124635600Y-96566559D02*
X124620244Y-96702840D01*
X124835600Y-94729000D02*
X124791095Y-94734015D01*
X128450955Y-96702840D02*
X128435600Y-96566559D01*
X120069215Y-96948409D02*
X119996250Y-96832287D01*
X121101984Y-96948409D02*
X121005009Y-97045384D01*
X128235600Y-94729000D02*
X128191095Y-94734015D01*
X128666190Y-97045384D02*
X128569215Y-96948409D01*
X122323159Y-97179000D02*
X122248040Y-97179000D01*
X128435600Y-94929000D02*
X128430585Y-94884496D01*
X120759440Y-97163644D02*
X120623159Y-97179000D01*
X121591966Y-94804303D02*
X121560297Y-94772634D01*
X123260297Y-94772634D02*
X123222376Y-94748807D01*
X119996250Y-96832287D02*
X119950955Y-96702840D01*
X126715793Y-94842224D02*
X126691966Y-94804303D01*
X123315793Y-94842224D02*
X123291966Y-94804303D01*
X126691966Y-94804303D02*
X126660297Y-94772634D01*
X127805009Y-97045384D02*
X127688887Y-97118349D01*
X126622376Y-94748807D02*
X126580104Y-94734015D01*
X122979233Y-94804303D02*
X122955406Y-94842224D01*
X128040614Y-94884496D02*
X128035600Y-94929000D01*
X126491095Y-94734015D02*
X126448823Y-94748807D01*
X122248040Y-97179000D02*
X122111759Y-97163644D01*
X126274949Y-96832287D02*
X126201984Y-96948409D01*
X126448823Y-94748807D02*
X126410902Y-94772634D01*
X128148823Y-94748807D02*
X128110902Y-94772634D01*
X126410902Y-94772634D02*
X126379233Y-94804303D01*
X119822376Y-95973806D02*
X119780104Y-95959014D01*
X126379233Y-94804303D02*
X126355406Y-94842224D01*
X125382312Y-97118349D02*
X125266190Y-97045384D01*
X119780104Y-95959014D02*
X119735600Y-95954000D01*
X126355406Y-94842224D02*
X126340614Y-94884496D01*
X126335600Y-96566559D02*
X126320244Y-96702840D01*
X126320244Y-96702840D02*
X126274949Y-96832287D01*
X126105009Y-97045384D02*
X125988887Y-97118349D01*
X128360297Y-94772634D02*
X128322376Y-94748807D01*
X126335600Y-94929000D02*
X126335600Y-96566559D01*
X124574949Y-96832287D02*
X124501984Y-96948409D01*
X125859440Y-97163644D02*
X125723159Y-97179000D01*
X125723159Y-97179000D02*
X125648040Y-97179000D01*
X125648040Y-97179000D02*
X125511759Y-97163644D01*
X124501984Y-96948409D02*
X124405009Y-97045384D01*
X123335600Y-94929000D02*
X123330585Y-94884496D01*
X125511759Y-97163644D02*
X125382312Y-97118349D01*
X123566190Y-97045384D02*
X123469215Y-96948409D01*
X119935600Y-96566559D02*
X119935600Y-96154000D01*
X125169215Y-96948409D02*
X125096250Y-96832287D01*
X115323200Y-95954000D02*
X114300000Y-96977200D01*
X119935600Y-96154000D02*
X119930585Y-96109495D01*
X125096250Y-96832287D02*
X125050955Y-96702840D01*
X119930585Y-96109495D02*
X119915793Y-96067223D01*
X126340614Y-94884496D02*
X126335600Y-94929000D01*
X125050955Y-96702840D02*
X125035600Y-96566559D01*
X125035600Y-94929000D02*
X125030585Y-94884496D01*
X121769215Y-96948409D02*
X121696250Y-96832287D01*
X124922376Y-94748807D02*
X124880104Y-94734015D01*
X128020244Y-96702840D02*
X127974949Y-96832287D01*
X124791095Y-94734015D02*
X124748823Y-94748807D01*
X124748823Y-94748807D02*
X124710902Y-94772634D01*
X121348823Y-94748807D02*
X121310902Y-94772634D01*
X124710902Y-94772634D02*
X124679233Y-94804303D01*
X124679233Y-94804303D02*
X124655406Y-94842224D01*
X127211759Y-97163644D02*
X127082312Y-97118349D01*
X126201984Y-96948409D02*
X126105009Y-97045384D01*
X124023159Y-97179000D02*
X123948040Y-97179000D01*
X124635600Y-94929000D02*
X124635600Y-96566559D01*
X124620244Y-96702840D02*
X124574949Y-96832287D01*
X121522376Y-94748807D02*
X121480104Y-94734015D01*
X124405009Y-97045384D02*
X124288887Y-97118349D01*
X128435600Y-96566559D02*
X128435600Y-94929000D01*
X123330585Y-94884496D02*
X123315793Y-94842224D01*
X128782312Y-97118349D02*
X128666190Y-97045384D01*
X124288887Y-97118349D02*
X124159440Y-97163644D01*
X121866190Y-97045384D02*
X121769215Y-96948409D01*
X124159440Y-97163644D02*
X124023159Y-97179000D01*
X121635600Y-96566559D02*
X121635600Y-94929000D01*
X122705009Y-97045384D02*
X122588887Y-97118349D01*
X123469215Y-96948409D02*
X123396250Y-96832287D01*
X123682312Y-97118349D02*
X123566190Y-97045384D01*
X124655406Y-94842224D02*
X124640614Y-94884496D01*
X123948040Y-97179000D02*
X123811759Y-97163644D01*
X123350955Y-96702840D02*
X123335600Y-96566559D01*
X125015793Y-94842224D02*
X124991966Y-94804303D01*
X123335600Y-96566559D02*
X123335600Y-94929000D01*
X125988887Y-97118349D02*
X125859440Y-97163644D01*
X123222376Y-94748807D02*
X123180104Y-94734015D01*
X123180104Y-94734015D02*
X123135600Y-94729000D01*
X123135600Y-94729000D02*
X123091095Y-94734015D01*
%TO.N,/CSI_CLK_N*%
X120038887Y-95564650D02*
X119909440Y-95519355D01*
X120155009Y-95637615D02*
X120038887Y-95564650D01*
X120251984Y-95734590D02*
X120155009Y-95637615D01*
X120385600Y-96116440D02*
X120370244Y-95980159D01*
X120390614Y-96573504D02*
X120385600Y-96529000D01*
X120405406Y-96615776D02*
X120390614Y-96573504D01*
X120460902Y-96685366D02*
X120429233Y-96653697D01*
X119773159Y-95504000D02*
X114249200Y-95504000D01*
X120498823Y-96709193D02*
X120460902Y-96685366D01*
X120630104Y-96723985D02*
X120585600Y-96729000D01*
X120710297Y-96685366D02*
X120672376Y-96709193D01*
X120741966Y-96653697D02*
X120710297Y-96685366D01*
X120785600Y-96529000D02*
X120780585Y-96573504D01*
X120800955Y-94755160D02*
X120785600Y-94891441D01*
X120919215Y-94509591D02*
X120846250Y-94625713D01*
X121261759Y-94294356D02*
X121132312Y-94339651D01*
X121398040Y-94279000D02*
X121261759Y-94294356D01*
X121473159Y-94279000D02*
X121398040Y-94279000D01*
X120585600Y-96729000D02*
X120541095Y-96723985D01*
X121738887Y-94339651D02*
X121609440Y-94294356D01*
X121855009Y-94412616D02*
X121738887Y-94339651D01*
X122024949Y-94625713D02*
X121951984Y-94509591D01*
X122070244Y-94755160D02*
X122024949Y-94625713D01*
X122085600Y-94891441D02*
X122070244Y-94755160D01*
X122129233Y-96653697D02*
X122105406Y-96615776D01*
X121132312Y-94339651D02*
X121016190Y-94412616D01*
X122241095Y-96723985D02*
X122198823Y-96709193D01*
X122198823Y-96709193D02*
X122160902Y-96685366D01*
X122285600Y-96729000D02*
X122241095Y-96723985D01*
X122480585Y-96573504D02*
X122465793Y-96615776D01*
X122485600Y-96529000D02*
X122480585Y-96573504D01*
X122500955Y-94755160D02*
X122485600Y-94891441D01*
X122546250Y-94625713D02*
X122500955Y-94755160D01*
X120672376Y-96709193D02*
X120630104Y-96723985D01*
X122961759Y-94294356D02*
X122832312Y-94339651D01*
X123098040Y-94279000D02*
X122961759Y-94294356D01*
X122716190Y-94412616D02*
X122619215Y-94509591D01*
X123173159Y-94279000D02*
X123098040Y-94279000D01*
X123309440Y-94294356D02*
X123173159Y-94279000D01*
X127190614Y-96573504D02*
X127185600Y-96529000D01*
X125885600Y-96529000D02*
X125880585Y-96573504D01*
X125009440Y-94294356D02*
X124873159Y-94279000D01*
X127205406Y-96615776D02*
X127190614Y-96573504D01*
X120780585Y-96573504D02*
X120765793Y-96615776D01*
X125885600Y-94891441D02*
X125885600Y-96529000D01*
X127260902Y-96685366D02*
X127229233Y-96653697D01*
X127298823Y-96709193D02*
X127260902Y-96685366D01*
X125351984Y-94509591D02*
X125255009Y-94412616D01*
X121609440Y-94294356D02*
X121473159Y-94279000D01*
X127541966Y-96653697D02*
X127510297Y-96685366D01*
X126838887Y-94339651D02*
X126709440Y-94294356D01*
X127585600Y-94891441D02*
X127585600Y-96529000D01*
X120324949Y-95850712D02*
X120251984Y-95734590D01*
X128061759Y-94294356D02*
X127932312Y-94339651D01*
X120370244Y-95980159D02*
X120324949Y-95850712D01*
X128198040Y-94279000D02*
X128061759Y-94294356D01*
X127051984Y-94509591D02*
X126955009Y-94412616D01*
X126019215Y-94509591D02*
X125946250Y-94625713D01*
X128409440Y-94294356D02*
X128273159Y-94279000D01*
X128538887Y-94339651D02*
X128409440Y-94294356D01*
X128655009Y-94412616D02*
X128538887Y-94339651D01*
X127719215Y-94509591D02*
X127646250Y-94625713D01*
X127580585Y-96573504D02*
X127565793Y-96615776D01*
X120846250Y-94625713D02*
X120800955Y-94755160D01*
X125865793Y-96615776D02*
X125841966Y-96653697D01*
X128751984Y-94509591D02*
X128655009Y-94412616D01*
X127932312Y-94339651D02*
X127816190Y-94412616D01*
X129285600Y-96529000D02*
X129280585Y-96573504D01*
X129419215Y-95734590D02*
X129346250Y-95850712D01*
X129085600Y-96729000D02*
X129041095Y-96723985D01*
X125485600Y-94891441D02*
X125470244Y-94755160D01*
X128885600Y-94891441D02*
X128870244Y-94755160D01*
X127185600Y-96529000D02*
X127185600Y-94891441D01*
X131043998Y-95504000D02*
X129898040Y-95504000D01*
X122090614Y-96573504D02*
X122085600Y-96529000D01*
X123985600Y-96729000D02*
X123941095Y-96723985D01*
X129761759Y-95519355D02*
X129632312Y-95564650D01*
X122330104Y-96723985D02*
X122285600Y-96729000D01*
X131235999Y-95311999D02*
X131043998Y-95504000D01*
X123438887Y-94339651D02*
X123309440Y-94294356D01*
X121951984Y-94509591D02*
X121855009Y-94412616D01*
X127341095Y-96723985D02*
X127298823Y-96709193D01*
X129285600Y-96116440D02*
X129285600Y-96529000D01*
X129898040Y-95504000D02*
X129761759Y-95519355D01*
X125730104Y-96723985D02*
X125685600Y-96729000D01*
X128273159Y-94279000D02*
X128198040Y-94279000D01*
X132100002Y-95504000D02*
X131908001Y-95311999D01*
X122485600Y-94891441D02*
X122485600Y-96529000D01*
X124661759Y-94294356D02*
X124532312Y-94339651D01*
X120785600Y-94891441D02*
X120785600Y-96529000D01*
X123790614Y-96573504D02*
X123785600Y-96529000D01*
X127472376Y-96709193D02*
X127430104Y-96723985D01*
X122160902Y-96685366D02*
X122129233Y-96653697D01*
X132537200Y-95504000D02*
X132100002Y-95504000D01*
X122372376Y-96709193D02*
X122330104Y-96723985D01*
X127229233Y-96653697D02*
X127205406Y-96615776D01*
X129346250Y-95850712D02*
X129300955Y-95980159D01*
X122619215Y-94509591D02*
X122546250Y-94625713D01*
X127170244Y-94755160D02*
X127124949Y-94625713D01*
X125598823Y-96709193D02*
X125560902Y-96685366D01*
X127430104Y-96723985D02*
X127385600Y-96729000D01*
X129241966Y-96653697D02*
X129210297Y-96685366D01*
X123555009Y-94412616D02*
X123438887Y-94339651D01*
X125641095Y-96723985D02*
X125598823Y-96709193D01*
X129041095Y-96723985D02*
X128998823Y-96709193D01*
X124185600Y-96529000D02*
X124180585Y-96573504D01*
X127600955Y-94755160D02*
X127585600Y-94891441D01*
X127565793Y-96615776D02*
X127541966Y-96653697D01*
X129172376Y-96709193D02*
X129130104Y-96723985D01*
X129265793Y-96615776D02*
X129241966Y-96653697D01*
X127510297Y-96685366D02*
X127472376Y-96709193D01*
X127816190Y-94412616D02*
X127719215Y-94509591D01*
X129130104Y-96723985D02*
X129085600Y-96729000D01*
X125138887Y-94339651D02*
X125009440Y-94294356D01*
X120429233Y-96653697D02*
X120405406Y-96615776D01*
X129632312Y-95564650D02*
X129516190Y-95637615D01*
X131908001Y-95311999D02*
X131235999Y-95311999D01*
X125685600Y-96729000D02*
X125641095Y-96723985D01*
X128960902Y-96685366D02*
X128929233Y-96653697D01*
X128885600Y-96529000D02*
X128885600Y-94891441D01*
X122832312Y-94339651D02*
X122716190Y-94412616D01*
X129210297Y-96685366D02*
X129172376Y-96709193D01*
X125529233Y-96653697D02*
X125505406Y-96615776D01*
X128929233Y-96653697D02*
X128905406Y-96615776D01*
X123941095Y-96723985D02*
X123898823Y-96709193D01*
X129300955Y-95980159D02*
X129285600Y-96116440D01*
X127585600Y-96529000D02*
X127580585Y-96573504D01*
X128890614Y-96573504D02*
X128885600Y-96529000D01*
X125946250Y-94625713D02*
X125900955Y-94755160D01*
X127185600Y-94891441D02*
X127170244Y-94755160D01*
X123651984Y-94509591D02*
X123555009Y-94412616D01*
X122105406Y-96615776D02*
X122090614Y-96573504D01*
X124072376Y-96709193D02*
X124030104Y-96723985D01*
X127124949Y-94625713D02*
X127051984Y-94509591D01*
X120765793Y-96615776D02*
X120741966Y-96653697D01*
X124319215Y-94509591D02*
X124246250Y-94625713D01*
X126955009Y-94412616D02*
X126838887Y-94339651D01*
X129516190Y-95637615D02*
X129419215Y-95734590D01*
X124873159Y-94279000D02*
X124798040Y-94279000D01*
X124200955Y-94755160D02*
X124185600Y-94891441D01*
X126498040Y-94279000D02*
X126361759Y-94294356D01*
X114249200Y-95504000D02*
X113792000Y-95961200D01*
X122441966Y-96653697D02*
X122410297Y-96685366D01*
X126361759Y-94294356D02*
X126232312Y-94339651D01*
X122410297Y-96685366D02*
X122372376Y-96709193D01*
X126232312Y-94339651D02*
X126116190Y-94412616D01*
X121016190Y-94412616D02*
X120919215Y-94509591D01*
X126116190Y-94412616D02*
X126019215Y-94509591D01*
X128905406Y-96615776D02*
X128890614Y-96573504D01*
X125900955Y-94755160D02*
X125885600Y-94891441D01*
X125560902Y-96685366D02*
X125529233Y-96653697D01*
X125880585Y-96573504D02*
X125865793Y-96615776D01*
X120385600Y-96529000D02*
X120385600Y-96116440D01*
X125841966Y-96653697D02*
X125810297Y-96685366D01*
X125505406Y-96615776D02*
X125490614Y-96573504D01*
X125810297Y-96685366D02*
X125772376Y-96709193D01*
X128824949Y-94625713D02*
X128751984Y-94509591D01*
X125772376Y-96709193D02*
X125730104Y-96723985D01*
X125490614Y-96573504D02*
X125485600Y-96529000D01*
X127646250Y-94625713D02*
X127600955Y-94755160D01*
X125485600Y-96529000D02*
X125485600Y-94891441D01*
X120541095Y-96723985D02*
X120498823Y-96709193D01*
X125470244Y-94755160D02*
X125424949Y-94625713D01*
X119909440Y-95519355D02*
X119773159Y-95504000D01*
X125424949Y-94625713D02*
X125351984Y-94509591D01*
X125255009Y-94412616D02*
X125138887Y-94339651D01*
X124246250Y-94625713D02*
X124200955Y-94755160D01*
X124798040Y-94279000D02*
X124661759Y-94294356D01*
X123805406Y-96615776D02*
X123790614Y-96573504D01*
X128870244Y-94755160D02*
X128824949Y-94625713D01*
X124532312Y-94339651D02*
X124416190Y-94412616D01*
X124416190Y-94412616D02*
X124319215Y-94509591D01*
X124185600Y-94891441D02*
X124185600Y-96529000D01*
X122465793Y-96615776D02*
X122441966Y-96653697D01*
X126709440Y-94294356D02*
X126573159Y-94279000D01*
X124180585Y-96573504D02*
X124165793Y-96615776D01*
X126573159Y-94279000D02*
X126498040Y-94279000D01*
X124165793Y-96615776D02*
X124141966Y-96653697D01*
X123724949Y-94625713D02*
X123651984Y-94509591D01*
X129280585Y-96573504D02*
X129265793Y-96615776D01*
X124110297Y-96685366D02*
X124072376Y-96709193D01*
X124030104Y-96723985D02*
X123985600Y-96729000D01*
X123898823Y-96709193D02*
X123860902Y-96685366D01*
X123860902Y-96685366D02*
X123829233Y-96653697D01*
X123829233Y-96653697D02*
X123805406Y-96615776D01*
X127385600Y-96729000D02*
X127341095Y-96723985D01*
X128998823Y-96709193D02*
X128960902Y-96685366D01*
X123785600Y-96529000D02*
X123785600Y-94891441D01*
X123785600Y-94891441D02*
X123770244Y-94755160D01*
X124141966Y-96653697D02*
X124110297Y-96685366D01*
X123770244Y-94755160D02*
X123724949Y-94625713D01*
X122085600Y-94891441D02*
X122085600Y-96529000D01*
%TO.N,+1V8*%
X122651400Y-104881800D02*
X122783600Y-104749600D01*
X126671700Y-92989400D02*
X126695200Y-93012900D01*
X124593350Y-92989400D02*
X126671700Y-92989400D01*
D17*
X121361200Y-104749600D02*
X122783600Y-104749600D01*
X120111400Y-104749600D02*
X120091200Y-104729400D01*
X121361200Y-104749600D02*
X120111400Y-104749600D01*
X120091200Y-102208500D02*
X120091200Y-104729400D01*
X120953700Y-101346000D02*
X120091200Y-102208500D01*
X112877600Y-95605600D02*
X112877600Y-97028000D01*
X113690400Y-94792800D02*
X112877600Y-95605600D01*
X121031000Y-93446600D02*
X119684800Y-94792800D01*
X122758200Y-93446600D02*
X121031000Y-93446600D01*
X123215400Y-92989400D02*
X122758200Y-93446600D01*
X119684800Y-94792800D02*
X113690400Y-94792800D01*
X124593350Y-92989400D02*
X123215400Y-92989400D01*
X113604800Y-97755200D02*
X113004600Y-97155000D01*
X115432800Y-97755200D02*
X113604800Y-97755200D01*
X112877600Y-97028000D02*
X113004600Y-97155000D01*
X115432800Y-98618000D02*
X115432800Y-98161600D01*
X115620800Y-98806000D02*
X115432800Y-98618000D01*
X118160800Y-99110800D02*
X117856000Y-98806000D01*
X119481600Y-99110800D02*
X118160800Y-99110800D01*
X121004500Y-100633700D02*
X119481600Y-99110800D01*
X117856000Y-98806000D02*
X115620800Y-98806000D01*
X121004500Y-101346000D02*
X121004500Y-100633700D01*
X122633100Y-101346000D02*
X121004500Y-101346000D01*
D18*
%TO.N,/I2C_SDA_3V3*%
X110566200Y-89179400D02*
X119145050Y-89179400D01*
X107554799Y-101458799D02*
X107554799Y-92190801D01*
X107554799Y-92190801D02*
X110566200Y-89179400D01*
X108254800Y-102158800D02*
X107554799Y-101458799D01*
%TO.N,/I2C_SCL_3V3*%
X108100899Y-92285099D02*
X108100899Y-100379299D01*
X110774798Y-89611200D02*
X108100899Y-92285099D01*
X117398800Y-89611200D02*
X110774798Y-89611200D01*
X108100899Y-100379299D02*
X108254800Y-100533200D01*
X118237000Y-90449400D02*
X117398800Y-89611200D01*
X119145050Y-90449400D02*
X118237000Y-90449400D01*
%TO.N,/MCLK_JETSON*%
X130810000Y-106984800D02*
X131165600Y-106629200D01*
X117246400Y-106984800D02*
X130810000Y-106984800D01*
X117246400Y-106984800D02*
X115671600Y-106984800D01*
X113385600Y-104698800D02*
X113385600Y-103073200D01*
X115671600Y-106984800D02*
X113385600Y-104698800D01*
%TO.N,/CSI_GPIO_3V3*%
X116366800Y-99771200D02*
X116382800Y-99755200D01*
X114147600Y-99771200D02*
X116366800Y-99771200D01*
X114706400Y-101346000D02*
X115368700Y-101346000D01*
X114147600Y-100787200D02*
X114706400Y-101346000D01*
X114147600Y-99771200D02*
X114147600Y-100787200D01*
%TO.N,Net-(Q1-Pad2)*%
X124155200Y-100380800D02*
X121564400Y-100380800D01*
X124458100Y-100683700D02*
X124155200Y-100380800D01*
X124458100Y-101346000D02*
X124458100Y-100683700D01*
X121564400Y-100380800D02*
X119735600Y-98552000D01*
X118075200Y-97755200D02*
X118872000Y-98552000D01*
X117332800Y-97755200D02*
X118075200Y-97755200D01*
X119735600Y-98552000D02*
X118872000Y-98552000D01*
X126036700Y-101346000D02*
X124458100Y-101346000D01*
X126036700Y-101346000D02*
X126746000Y-101346000D01*
X126746000Y-101346000D02*
X127000000Y-101600000D01*
X127000000Y-101600000D02*
X127000000Y-102717600D01*
X127254000Y-102971600D02*
X127861700Y-102971600D01*
X127000000Y-102717600D02*
X127254000Y-102971600D01*
%TO.N,Net-(R11-Pad2)*%
X126134500Y-91187900D02*
X125603000Y-91719400D01*
X126695200Y-91187900D02*
X126134500Y-91187900D01*
X125603000Y-91719400D02*
X124593350Y-91719400D01*
%TD*%
D19*
%TO.N,GND*%
X137499115Y-76951330D02*
X137110473Y-77211012D01*
X136715592Y-77605893D01*
X136405336Y-78070224D01*
X136191628Y-78586161D01*
X136082680Y-79133877D01*
X136082680Y-79692323D01*
X136191628Y-80240039D01*
X136405336Y-80755976D01*
X136715592Y-81220307D01*
X137110473Y-81615188D01*
X137574804Y-81925444D01*
X138090741Y-82139152D01*
X138638457Y-82248100D01*
X139196903Y-82248100D01*
X139744619Y-82139152D01*
X140260556Y-81925444D01*
X140724887Y-81615188D01*
X141119768Y-81220307D01*
X141430024Y-80755976D01*
X141453001Y-80700505D01*
X141453000Y-90780000D01*
X139986419Y-90780000D01*
X139954000Y-90776807D01*
X139921581Y-90780000D01*
X139824617Y-90789550D01*
X139700207Y-90827290D01*
X139585550Y-90888575D01*
X139485052Y-90971052D01*
X139402575Y-91071550D01*
X139341290Y-91186207D01*
X139303550Y-91310617D01*
X139290807Y-91440000D01*
X139294000Y-91472418D01*
X139294001Y-109212971D01*
X139290807Y-109245400D01*
X139303550Y-109374783D01*
X139341290Y-109499193D01*
X139402575Y-109613850D01*
X139485052Y-109714348D01*
X139585550Y-109796825D01*
X139700207Y-109858110D01*
X139824617Y-109895850D01*
X139921581Y-109905400D01*
X139954000Y-109908593D01*
X139986419Y-109905400D01*
X141453000Y-109905400D01*
X141453001Y-112202335D01*
X141430024Y-112146864D01*
X141119768Y-111682533D01*
X140724887Y-111287652D01*
X140260556Y-110977396D01*
X139744619Y-110763688D01*
X139196903Y-110654740D01*
X138638457Y-110654740D01*
X138090741Y-110763688D01*
X137574804Y-110977396D01*
X137110473Y-111287652D01*
X136715592Y-111682533D01*
X136405336Y-112146864D01*
X136191628Y-112662801D01*
X136082680Y-113210517D01*
X136082680Y-113768963D01*
X136191628Y-114316679D01*
X136405336Y-114832616D01*
X136715592Y-115296947D01*
X137110473Y-115691828D01*
X137574804Y-116002084D01*
X137844721Y-116113887D01*
X106158484Y-116111516D01*
X106422676Y-116002084D01*
X106887007Y-115691828D01*
X107281888Y-115296947D01*
X107592144Y-114832616D01*
X107805852Y-114316679D01*
X107914800Y-113768963D01*
X107914800Y-113210517D01*
X107805852Y-112662801D01*
X107592144Y-112146864D01*
X107281888Y-111682533D01*
X106887007Y-111287652D01*
X106422676Y-110977396D01*
X105906739Y-110763688D01*
X105359023Y-110654740D01*
X104800577Y-110654740D01*
X104252861Y-110763688D01*
X103736924Y-110977396D01*
X103272593Y-111287652D01*
X102877712Y-111682533D01*
X102567456Y-112146864D01*
X102353748Y-112662801D01*
X102338491Y-112739504D01*
X102359746Y-105181000D01*
X104640981Y-105181000D01*
X104673400Y-105184193D01*
X104705819Y-105181000D01*
X104777908Y-105173900D01*
X104802783Y-105171450D01*
X104927193Y-105133710D01*
X105041850Y-105072425D01*
X105142348Y-104989948D01*
X105224825Y-104889450D01*
X105286110Y-104774793D01*
X105323850Y-104650383D01*
X105333400Y-104553419D01*
X105336593Y-104521000D01*
X105333400Y-104488581D01*
X105333400Y-91846400D01*
X105840403Y-91846400D01*
X105844201Y-91884963D01*
X105844200Y-101917047D01*
X105840403Y-101955600D01*
X105844200Y-101994153D01*
X105844200Y-101994160D01*
X105855559Y-102109486D01*
X105900446Y-102257459D01*
X105973338Y-102393832D01*
X106071436Y-102513364D01*
X106101390Y-102537947D01*
X107169000Y-103605557D01*
X107169000Y-103632339D01*
X107208774Y-103832298D01*
X107286795Y-104020656D01*
X107400063Y-104190174D01*
X107544226Y-104334337D01*
X107713744Y-104447605D01*
X107902102Y-104525626D01*
X108102061Y-104565400D01*
X108305939Y-104565400D01*
X108505898Y-104525626D01*
X108694256Y-104447605D01*
X108863774Y-104334337D01*
X108882711Y-104315400D01*
X109029047Y-104315400D01*
X109067600Y-104319197D01*
X109106153Y-104315400D01*
X109106161Y-104315400D01*
X109221487Y-104304041D01*
X109369460Y-104259154D01*
X109505833Y-104186262D01*
X109625364Y-104088164D01*
X109649947Y-104058210D01*
X111018357Y-102689800D01*
X112424133Y-102689800D01*
X112390374Y-102771302D01*
X112350600Y-102971261D01*
X112350600Y-103175139D01*
X112390374Y-103375098D01*
X112468395Y-103563456D01*
X112581663Y-103732974D01*
X112650601Y-103801912D01*
X112650600Y-104662695D01*
X112647044Y-104698800D01*
X112657493Y-104804887D01*
X112661235Y-104842884D01*
X112703263Y-104981432D01*
X112771513Y-105109119D01*
X112863362Y-105221037D01*
X112891408Y-105244054D01*
X115126346Y-107478993D01*
X115149362Y-107507038D01*
X115261280Y-107598887D01*
X115388967Y-107667137D01*
X115527515Y-107709165D01*
X115635495Y-107719800D01*
X115635504Y-107719800D01*
X115671599Y-107723355D01*
X115707694Y-107719800D01*
X130773895Y-107719800D01*
X130810000Y-107723356D01*
X130846105Y-107719800D01*
X130954085Y-107709165D01*
X131092633Y-107667137D01*
X131098128Y-107664200D01*
X131267539Y-107664200D01*
X131467498Y-107624426D01*
X131655856Y-107546405D01*
X131825374Y-107433137D01*
X131969537Y-107288974D01*
X132082805Y-107119456D01*
X132160826Y-106931098D01*
X132200600Y-106731139D01*
X132200600Y-106527261D01*
X132160826Y-106327302D01*
X132082805Y-106138944D01*
X131969537Y-105969426D01*
X131825374Y-105825263D01*
X131655856Y-105711995D01*
X131467498Y-105633974D01*
X131267539Y-105594200D01*
X131063661Y-105594200D01*
X130863702Y-105633974D01*
X130675344Y-105711995D01*
X130505826Y-105825263D01*
X130361663Y-105969426D01*
X130248395Y-106138944D01*
X130202477Y-106249800D01*
X115976047Y-106249800D01*
X114120600Y-104394354D01*
X114120600Y-103801911D01*
X114189537Y-103732974D01*
X114302805Y-103563456D01*
X114380826Y-103375098D01*
X114398966Y-103283901D01*
X118021729Y-103283901D01*
X118033989Y-103408383D01*
X118070299Y-103528081D01*
X118129264Y-103638395D01*
X118208616Y-103735086D01*
X118305307Y-103814438D01*
X118415621Y-103873403D01*
X118535319Y-103909713D01*
X118659801Y-103921973D01*
X118780451Y-103918901D01*
X118939201Y-103760151D01*
X118939201Y-102966401D01*
X118183551Y-102966401D01*
X118024801Y-103125151D01*
X118021729Y-103283901D01*
X114398966Y-103283901D01*
X114420600Y-103175139D01*
X114420600Y-103173854D01*
X114425099Y-103174297D01*
X114463652Y-103170500D01*
X116824947Y-103170500D01*
X116863500Y-103174297D01*
X116902053Y-103170500D01*
X116902061Y-103170500D01*
X117017387Y-103159141D01*
X117165360Y-103114254D01*
X117301733Y-103041362D01*
X117421264Y-102943264D01*
X117445847Y-102913310D01*
X117721510Y-102637647D01*
X117751464Y-102613064D01*
X117849562Y-102493533D01*
X117922454Y-102357160D01*
X117938343Y-102304782D01*
X118051814Y-102211658D01*
X118033989Y-102270419D01*
X118021729Y-102394901D01*
X118024801Y-102553651D01*
X118183551Y-102712401D01*
X118939201Y-102712401D01*
X118939201Y-102692401D01*
X119193201Y-102692401D01*
X119193201Y-102712401D01*
X119213201Y-102712401D01*
X119213201Y-102966401D01*
X119193201Y-102966401D01*
X119193201Y-103760151D01*
X119251823Y-103818773D01*
X119233615Y-103833715D01*
X119154263Y-103930406D01*
X119095298Y-104040720D01*
X119058988Y-104160418D01*
X119046728Y-104284900D01*
X119046728Y-105173900D01*
X119058988Y-105298382D01*
X119095298Y-105418080D01*
X119154263Y-105528394D01*
X119233615Y-105625085D01*
X119330306Y-105704437D01*
X119440620Y-105763402D01*
X119560318Y-105799712D01*
X119684800Y-105811972D01*
X120497600Y-105811972D01*
X120622082Y-105799712D01*
X120741780Y-105763402D01*
X120852094Y-105704437D01*
X120888891Y-105674239D01*
X121059302Y-105744826D01*
X121259261Y-105784600D01*
X121463139Y-105784600D01*
X121663098Y-105744826D01*
X121851456Y-105666805D01*
X121925716Y-105617186D01*
X121926977Y-105618723D01*
X122059658Y-105727612D01*
X122211033Y-105808523D01*
X122375284Y-105858348D01*
X122546100Y-105875172D01*
X123021100Y-105875172D01*
X123191916Y-105858348D01*
X123356167Y-105808523D01*
X123461583Y-105752177D01*
X123478106Y-105765737D01*
X123588420Y-105824702D01*
X123708118Y-105861012D01*
X123832600Y-105873272D01*
X124021850Y-105870200D01*
X124180600Y-105711450D01*
X124180600Y-104824700D01*
X124434600Y-104824700D01*
X124434600Y-105711450D01*
X124593350Y-105870200D01*
X124782600Y-105873272D01*
X124907082Y-105861012D01*
X125026780Y-105824702D01*
X125137094Y-105765737D01*
X125233785Y-105686385D01*
X125313137Y-105589694D01*
X125372102Y-105479380D01*
X125408412Y-105359682D01*
X125420672Y-105235200D01*
X125417600Y-104983450D01*
X125258850Y-104824700D01*
X124434600Y-104824700D01*
X124180600Y-104824700D01*
X124160600Y-104824700D01*
X124160600Y-104570700D01*
X124180600Y-104570700D01*
X124180600Y-104550700D01*
X124434600Y-104550700D01*
X124434600Y-104570700D01*
X125258850Y-104570700D01*
X125417600Y-104411950D01*
X125420281Y-104192256D01*
X125422613Y-104196619D01*
X125514462Y-104308537D01*
X125542508Y-104331554D01*
X125895941Y-104684987D01*
X125918962Y-104713038D01*
X126030880Y-104804887D01*
X126158567Y-104873137D01*
X126297115Y-104915165D01*
X126405095Y-104925800D01*
X126405104Y-104925800D01*
X126441199Y-104929355D01*
X126477294Y-104925800D01*
X132022668Y-104925800D01*
X132169280Y-105072412D01*
X132355176Y-105196624D01*
X132561733Y-105282183D01*
X132781012Y-105325800D01*
X133004588Y-105325800D01*
X133223867Y-105282183D01*
X133430424Y-105196624D01*
X133616320Y-105072412D01*
X133774412Y-104914320D01*
X133898624Y-104728424D01*
X133984183Y-104521867D01*
X134027800Y-104302588D01*
X134027800Y-104079012D01*
X133984183Y-103859733D01*
X133898624Y-103653176D01*
X133774412Y-103467280D01*
X133616320Y-103309188D01*
X133430424Y-103184976D01*
X133223867Y-103099417D01*
X133004588Y-103055800D01*
X132781012Y-103055800D01*
X132561733Y-103099417D01*
X132355176Y-103184976D01*
X132169280Y-103309188D01*
X132022668Y-103455800D01*
X128947429Y-103455800D01*
X128970448Y-103379916D01*
X128987272Y-103209100D01*
X128987272Y-102734100D01*
X128970448Y-102563284D01*
X128920623Y-102399033D01*
X128839712Y-102247658D01*
X128766788Y-102158800D01*
X128830637Y-102081000D01*
X130792600Y-102081000D01*
X130792600Y-102168988D01*
X130836217Y-102388267D01*
X130921776Y-102594824D01*
X131045988Y-102780720D01*
X131204080Y-102938812D01*
X131389976Y-103063024D01*
X131596533Y-103148583D01*
X131815812Y-103192200D01*
X132039388Y-103192200D01*
X132258667Y-103148583D01*
X132465224Y-103063024D01*
X132651120Y-102938812D01*
X132809212Y-102780720D01*
X132933424Y-102594824D01*
X133018983Y-102388267D01*
X133062600Y-102168988D01*
X133062600Y-101945412D01*
X133018983Y-101726133D01*
X132933424Y-101519576D01*
X132809212Y-101333680D01*
X132651120Y-101175588D01*
X132465224Y-101051376D01*
X132258667Y-100965817D01*
X132039388Y-100922200D01*
X131832046Y-100922200D01*
X131761658Y-100851812D01*
X131738638Y-100823762D01*
X131626720Y-100731913D01*
X131499033Y-100663663D01*
X131360485Y-100621635D01*
X131252505Y-100611000D01*
X131216400Y-100607444D01*
X131180295Y-100611000D01*
X128830637Y-100611000D01*
X128730823Y-100489377D01*
X128598142Y-100380488D01*
X128446767Y-100299577D01*
X128282516Y-100249752D01*
X128111700Y-100232928D01*
X127611700Y-100232928D01*
X127440884Y-100249752D01*
X127276633Y-100299577D01*
X127125258Y-100380488D01*
X126992577Y-100489377D01*
X126949200Y-100542232D01*
X126905823Y-100489377D01*
X126773142Y-100380488D01*
X126621767Y-100299577D01*
X126457516Y-100249752D01*
X126286700Y-100232928D01*
X125786700Y-100232928D01*
X125615884Y-100249752D01*
X125451633Y-100299577D01*
X125300258Y-100380488D01*
X125247400Y-100423868D01*
X125194542Y-100380488D01*
X125103397Y-100331771D01*
X125072187Y-100273380D01*
X124980338Y-100161462D01*
X124952287Y-100138441D01*
X124700459Y-99886613D01*
X124677438Y-99858562D01*
X124565520Y-99766713D01*
X124437833Y-99698463D01*
X124299285Y-99656435D01*
X124191305Y-99645800D01*
X124155200Y-99642244D01*
X124119095Y-99645800D01*
X121868847Y-99645800D01*
X120280858Y-98057812D01*
X120257838Y-98029762D01*
X120145920Y-97937913D01*
X120018233Y-97869663D01*
X119879685Y-97827635D01*
X119771705Y-97817000D01*
X119735600Y-97813444D01*
X119699495Y-97817000D01*
X119176447Y-97817000D01*
X118620458Y-97261012D01*
X118597438Y-97232962D01*
X118485520Y-97141113D01*
X118357833Y-97072863D01*
X118322658Y-97062193D01*
X118322302Y-97061020D01*
X118263337Y-96950706D01*
X118183985Y-96854015D01*
X118087294Y-96774663D01*
X117976980Y-96715698D01*
X117888969Y-96689000D01*
X119209103Y-96689000D01*
X119211235Y-96710643D01*
X119212744Y-96715619D01*
X119217691Y-96759520D01*
X119219651Y-96806080D01*
X119234310Y-96866392D01*
X119247277Y-96927120D01*
X119265716Y-96969928D01*
X119293980Y-97050704D01*
X119306256Y-97095675D01*
X119333978Y-97151231D01*
X119360122Y-97207527D01*
X119387624Y-97245158D01*
X119433163Y-97317633D01*
X119455129Y-97358728D01*
X119494501Y-97406704D01*
X119532538Y-97455797D01*
X119567724Y-97486364D01*
X119628235Y-97546875D01*
X119658802Y-97582061D01*
X119707887Y-97620092D01*
X119755870Y-97659470D01*
X119796970Y-97681438D01*
X119869446Y-97726978D01*
X119907073Y-97754477D01*
X119963362Y-97780618D01*
X120018924Y-97808343D01*
X120063895Y-97820619D01*
X120144669Y-97848882D01*
X120187473Y-97867320D01*
X120248198Y-97880287D01*
X120308518Y-97894948D01*
X120355079Y-97896908D01*
X120398975Y-97901854D01*
X120403955Y-97903365D01*
X120470885Y-97909957D01*
X120501619Y-97913420D01*
X120506782Y-97913492D01*
X120511935Y-97914000D01*
X120542936Y-97914000D01*
X120557048Y-97914198D01*
X120561088Y-97914943D01*
X120585599Y-97914599D01*
X120610111Y-97914943D01*
X120614151Y-97914198D01*
X120628263Y-97914000D01*
X120659264Y-97914000D01*
X120664417Y-97913492D01*
X120669579Y-97913420D01*
X120700306Y-97909958D01*
X120767244Y-97903365D01*
X120772225Y-97901854D01*
X120816119Y-97896908D01*
X120862680Y-97894948D01*
X120923005Y-97880286D01*
X120983725Y-97867320D01*
X121026524Y-97848884D01*
X121107304Y-97820619D01*
X121152275Y-97808343D01*
X121207831Y-97780621D01*
X121264127Y-97754477D01*
X121301758Y-97726975D01*
X121374233Y-97681436D01*
X121415328Y-97659470D01*
X121435599Y-97642834D01*
X121455870Y-97659470D01*
X121496970Y-97681438D01*
X121569446Y-97726978D01*
X121607073Y-97754477D01*
X121663362Y-97780618D01*
X121718924Y-97808343D01*
X121763895Y-97820619D01*
X121844669Y-97848882D01*
X121887473Y-97867320D01*
X121948198Y-97880287D01*
X122008518Y-97894948D01*
X122055079Y-97896908D01*
X122098975Y-97901854D01*
X122103955Y-97903365D01*
X122170885Y-97909957D01*
X122201619Y-97913420D01*
X122206782Y-97913492D01*
X122211935Y-97914000D01*
X122242936Y-97914000D01*
X122257048Y-97914198D01*
X122261088Y-97914943D01*
X122285599Y-97914599D01*
X122310111Y-97914943D01*
X122314151Y-97914198D01*
X122328263Y-97914000D01*
X122359264Y-97914000D01*
X122364417Y-97913492D01*
X122369579Y-97913420D01*
X122400306Y-97909958D01*
X122467244Y-97903365D01*
X122472225Y-97901854D01*
X122516119Y-97896908D01*
X122562680Y-97894948D01*
X122623005Y-97880286D01*
X122683725Y-97867320D01*
X122726524Y-97848884D01*
X122807304Y-97820619D01*
X122852275Y-97808343D01*
X122907831Y-97780621D01*
X122964127Y-97754477D01*
X123001758Y-97726975D01*
X123074233Y-97681436D01*
X123115328Y-97659470D01*
X123135599Y-97642834D01*
X123155870Y-97659470D01*
X123196970Y-97681438D01*
X123269446Y-97726978D01*
X123307073Y-97754477D01*
X123363362Y-97780618D01*
X123418924Y-97808343D01*
X123463895Y-97820619D01*
X123544669Y-97848882D01*
X123587473Y-97867320D01*
X123648198Y-97880287D01*
X123708518Y-97894948D01*
X123755079Y-97896908D01*
X123798975Y-97901854D01*
X123803955Y-97903365D01*
X123870885Y-97909957D01*
X123901619Y-97913420D01*
X123906782Y-97913492D01*
X123911935Y-97914000D01*
X123942936Y-97914000D01*
X123957048Y-97914198D01*
X123961088Y-97914943D01*
X123985599Y-97914599D01*
X124010111Y-97914943D01*
X124014151Y-97914198D01*
X124028263Y-97914000D01*
X124059264Y-97914000D01*
X124064417Y-97913492D01*
X124069579Y-97913420D01*
X124100306Y-97909958D01*
X124167244Y-97903365D01*
X124172225Y-97901854D01*
X124216119Y-97896908D01*
X124262680Y-97894948D01*
X124323005Y-97880286D01*
X124383725Y-97867320D01*
X124426524Y-97848884D01*
X124507304Y-97820619D01*
X124552275Y-97808343D01*
X124607831Y-97780621D01*
X124664127Y-97754477D01*
X124701758Y-97726975D01*
X124774233Y-97681436D01*
X124815328Y-97659470D01*
X124835599Y-97642834D01*
X124855870Y-97659470D01*
X124896970Y-97681438D01*
X124969446Y-97726978D01*
X125007073Y-97754477D01*
X125063362Y-97780618D01*
X125118924Y-97808343D01*
X125163895Y-97820619D01*
X125244669Y-97848882D01*
X125287473Y-97867320D01*
X125348198Y-97880287D01*
X125408518Y-97894948D01*
X125455079Y-97896908D01*
X125498975Y-97901854D01*
X125503955Y-97903365D01*
X125570885Y-97909957D01*
X125601619Y-97913420D01*
X125606782Y-97913492D01*
X125611935Y-97914000D01*
X125642936Y-97914000D01*
X125657048Y-97914198D01*
X125661088Y-97914943D01*
X125685599Y-97914599D01*
X125710111Y-97914943D01*
X125714151Y-97914198D01*
X125728263Y-97914000D01*
X125759264Y-97914000D01*
X125764417Y-97913492D01*
X125769579Y-97913420D01*
X125800306Y-97909958D01*
X125867244Y-97903365D01*
X125872225Y-97901854D01*
X125916119Y-97896908D01*
X125962680Y-97894948D01*
X126023005Y-97880286D01*
X126083725Y-97867320D01*
X126126524Y-97848884D01*
X126207304Y-97820619D01*
X126252275Y-97808343D01*
X126307831Y-97780621D01*
X126364127Y-97754477D01*
X126401758Y-97726975D01*
X126474233Y-97681436D01*
X126515328Y-97659470D01*
X126535599Y-97642834D01*
X126555870Y-97659470D01*
X126596970Y-97681438D01*
X126669446Y-97726978D01*
X126707073Y-97754477D01*
X126763362Y-97780618D01*
X126818924Y-97808343D01*
X126863895Y-97820619D01*
X126944669Y-97848882D01*
X126987473Y-97867320D01*
X127048198Y-97880287D01*
X127108518Y-97894948D01*
X127155079Y-97896908D01*
X127198975Y-97901854D01*
X127203955Y-97903365D01*
X127270885Y-97909957D01*
X127301619Y-97913420D01*
X127306782Y-97913492D01*
X127311935Y-97914000D01*
X127342936Y-97914000D01*
X127357048Y-97914198D01*
X127361088Y-97914943D01*
X127385599Y-97914599D01*
X127410111Y-97914943D01*
X127414151Y-97914198D01*
X127428263Y-97914000D01*
X127459264Y-97914000D01*
X127464417Y-97913492D01*
X127469579Y-97913420D01*
X127500306Y-97909958D01*
X127567244Y-97903365D01*
X127572225Y-97901854D01*
X127616119Y-97896908D01*
X127662680Y-97894948D01*
X127723005Y-97880286D01*
X127783725Y-97867320D01*
X127826524Y-97848884D01*
X127907304Y-97820619D01*
X127952275Y-97808343D01*
X128007831Y-97780621D01*
X128064127Y-97754477D01*
X128101758Y-97726975D01*
X128174233Y-97681436D01*
X128215328Y-97659470D01*
X128235599Y-97642834D01*
X128255870Y-97659470D01*
X128296970Y-97681438D01*
X128369446Y-97726978D01*
X128407073Y-97754477D01*
X128463362Y-97780618D01*
X128518924Y-97808343D01*
X128563895Y-97820619D01*
X128644669Y-97848882D01*
X128687473Y-97867320D01*
X128748198Y-97880287D01*
X128808518Y-97894948D01*
X128855079Y-97896908D01*
X128898975Y-97901854D01*
X128903955Y-97903365D01*
X128970885Y-97909957D01*
X129001619Y-97913420D01*
X129006782Y-97913492D01*
X129011935Y-97914000D01*
X129042936Y-97914000D01*
X129057048Y-97914198D01*
X129061088Y-97914943D01*
X129085599Y-97914599D01*
X129110111Y-97914943D01*
X129114151Y-97914198D01*
X129128263Y-97914000D01*
X129159264Y-97914000D01*
X129164417Y-97913492D01*
X129169579Y-97913420D01*
X129200306Y-97909958D01*
X129267244Y-97903365D01*
X129272225Y-97901854D01*
X129316119Y-97896908D01*
X129362680Y-97894948D01*
X129423005Y-97880286D01*
X129483725Y-97867320D01*
X129526524Y-97848884D01*
X129607304Y-97820619D01*
X129652275Y-97808343D01*
X129707831Y-97780621D01*
X129764127Y-97754477D01*
X129801758Y-97726975D01*
X129874233Y-97681436D01*
X129915328Y-97659470D01*
X129963304Y-97620098D01*
X130012397Y-97582061D01*
X130042964Y-97546875D01*
X130103475Y-97486364D01*
X130138661Y-97455797D01*
X130176692Y-97406712D01*
X130216070Y-97358729D01*
X130238038Y-97317629D01*
X130283578Y-97245153D01*
X130311077Y-97207526D01*
X130337218Y-97151237D01*
X130364943Y-97095675D01*
X130377219Y-97050704D01*
X130405482Y-96969930D01*
X130423920Y-96927126D01*
X130436887Y-96866401D01*
X130451548Y-96806081D01*
X130453508Y-96759520D01*
X130458454Y-96715624D01*
X130459965Y-96710644D01*
X130462097Y-96689000D01*
X130785289Y-96689000D01*
X130912226Y-96815937D01*
X131081744Y-96929205D01*
X131270102Y-97007226D01*
X131470061Y-97047000D01*
X131673939Y-97047000D01*
X131873898Y-97007226D01*
X132062256Y-96929205D01*
X132231774Y-96815937D01*
X132375937Y-96671774D01*
X132464654Y-96539000D01*
X132639139Y-96539000D01*
X132839098Y-96499226D01*
X133027456Y-96421205D01*
X133196974Y-96307937D01*
X133341137Y-96163774D01*
X133454405Y-95994256D01*
X133532426Y-95805898D01*
X133572200Y-95605939D01*
X133572200Y-95402061D01*
X133532426Y-95202102D01*
X133454405Y-95013744D01*
X133341137Y-94844226D01*
X133196974Y-94700063D01*
X133027456Y-94586795D01*
X132839098Y-94508774D01*
X132639139Y-94469000D01*
X132435261Y-94469000D01*
X132235302Y-94508774D01*
X132046944Y-94586795D01*
X132046510Y-94587085D01*
X131944106Y-94576999D01*
X131908001Y-94573443D01*
X131871896Y-94576999D01*
X131272093Y-94576999D01*
X131235998Y-94573444D01*
X131199903Y-94576999D01*
X131199894Y-94576999D01*
X131091914Y-94587634D01*
X130953366Y-94629662D01*
X130825679Y-94697912D01*
X130739058Y-94769000D01*
X129965225Y-94769000D01*
X129960116Y-94768058D01*
X129892968Y-94769000D01*
X129861935Y-94769000D01*
X129856781Y-94769508D01*
X129851624Y-94769580D01*
X129820905Y-94773041D01*
X129753955Y-94779635D01*
X129748977Y-94781145D01*
X129705083Y-94786091D01*
X129658518Y-94788051D01*
X129615014Y-94798624D01*
X129609965Y-94747356D01*
X129608454Y-94742376D01*
X129603508Y-94698480D01*
X129601548Y-94651919D01*
X129586887Y-94591599D01*
X129573920Y-94530874D01*
X129555482Y-94488070D01*
X129527219Y-94407296D01*
X129514943Y-94362325D01*
X129487218Y-94306763D01*
X129461077Y-94250474D01*
X129433578Y-94212847D01*
X129388038Y-94140371D01*
X129366070Y-94099271D01*
X129326692Y-94051288D01*
X129288661Y-94002203D01*
X129253475Y-93971636D01*
X129192964Y-93911125D01*
X129162397Y-93875939D01*
X129113304Y-93837902D01*
X129065328Y-93798530D01*
X129024233Y-93776564D01*
X128951758Y-93731025D01*
X128914127Y-93703523D01*
X128857831Y-93677379D01*
X128802275Y-93649657D01*
X128757304Y-93637381D01*
X128676524Y-93609116D01*
X128633725Y-93590680D01*
X128573005Y-93577714D01*
X128512680Y-93563052D01*
X128466119Y-93561092D01*
X128422225Y-93556146D01*
X128417244Y-93554635D01*
X128350306Y-93548042D01*
X128319579Y-93544580D01*
X128314417Y-93544508D01*
X128309264Y-93544000D01*
X128278263Y-93544000D01*
X128264151Y-93543802D01*
X128260111Y-93543057D01*
X128235599Y-93543401D01*
X128211088Y-93543057D01*
X128207048Y-93543802D01*
X128192936Y-93544000D01*
X128161935Y-93544000D01*
X128156782Y-93544508D01*
X128151619Y-93544580D01*
X128120885Y-93548043D01*
X128053955Y-93554635D01*
X128048975Y-93556146D01*
X128005079Y-93561092D01*
X127958518Y-93563052D01*
X127898198Y-93577713D01*
X127837473Y-93590680D01*
X127794669Y-93609118D01*
X127722088Y-93634514D01*
X127741623Y-93597967D01*
X127791448Y-93433716D01*
X127808272Y-93262900D01*
X127808272Y-92762900D01*
X127791448Y-92592084D01*
X127741623Y-92427833D01*
X127660712Y-92276458D01*
X127551823Y-92143777D01*
X127498968Y-92100400D01*
X127551823Y-92057023D01*
X127660712Y-91924342D01*
X127741623Y-91772967D01*
X127791448Y-91608716D01*
X127808272Y-91437900D01*
X127808272Y-90937900D01*
X127805032Y-90905000D01*
X129540354Y-90905000D01*
X133615439Y-94980086D01*
X133615440Y-98703524D01*
X133611883Y-98739639D01*
X133626074Y-98883724D01*
X133666396Y-99016645D01*
X133668103Y-99022272D01*
X133736353Y-99149959D01*
X133828202Y-99261877D01*
X133856247Y-99284893D01*
X134469200Y-99897847D01*
X134469201Y-100979685D01*
X134465644Y-101015800D01*
X134479835Y-101159885D01*
X134516695Y-101281393D01*
X134521864Y-101298433D01*
X134590114Y-101426120D01*
X134681963Y-101538038D01*
X134710008Y-101561054D01*
X135155000Y-102006047D01*
X135155001Y-102446088D01*
X135086063Y-102515026D01*
X134972795Y-102684544D01*
X134894774Y-102872902D01*
X134855000Y-103072861D01*
X134855000Y-103276739D01*
X134894774Y-103476698D01*
X134972795Y-103665056D01*
X135086063Y-103834574D01*
X135230226Y-103978737D01*
X135399744Y-104092005D01*
X135588102Y-104170026D01*
X135788061Y-104209800D01*
X135991939Y-104209800D01*
X136191898Y-104170026D01*
X136380256Y-104092005D01*
X136549774Y-103978737D01*
X136693937Y-103834574D01*
X136807205Y-103665056D01*
X136885226Y-103476698D01*
X136925000Y-103276739D01*
X136925000Y-103072861D01*
X136885226Y-102872902D01*
X136807205Y-102684544D01*
X136693937Y-102515026D01*
X136625000Y-102446089D01*
X136625000Y-101737705D01*
X136628556Y-101701600D01*
X136614365Y-101557515D01*
X136572337Y-101418966D01*
X136504087Y-101291280D01*
X136435253Y-101207406D01*
X136435250Y-101207403D01*
X136412237Y-101179362D01*
X136391214Y-101162108D01*
X136431056Y-101145605D01*
X136600574Y-101032337D01*
X136744737Y-100888174D01*
X136858005Y-100718656D01*
X136936026Y-100530298D01*
X136975800Y-100330339D01*
X136975800Y-100126461D01*
X136936026Y-99926502D01*
X136858005Y-99738144D01*
X136744737Y-99568626D01*
X136666732Y-99490621D01*
X136665165Y-99474715D01*
X136623137Y-99336166D01*
X136554887Y-99208480D01*
X136486053Y-99124606D01*
X136486050Y-99124603D01*
X136463037Y-99096562D01*
X136434997Y-99073550D01*
X135485449Y-98124003D01*
X135485449Y-94546055D01*
X135489005Y-94509950D01*
X135474814Y-94365865D01*
X135432786Y-94227316D01*
X135364536Y-94099630D01*
X135295702Y-94015756D01*
X135295699Y-94015753D01*
X135272686Y-93987712D01*
X135244647Y-93964701D01*
X130723707Y-89443761D01*
X130723702Y-89443755D01*
X130555745Y-89275800D01*
X130532727Y-89247752D01*
X130420809Y-89155903D01*
X130293122Y-89087653D01*
X130154574Y-89045625D01*
X130046594Y-89034990D01*
X130046592Y-89034990D01*
X130010487Y-89031434D01*
X129974385Y-89034990D01*
X126498037Y-89034990D01*
X126148258Y-88685212D01*
X126125238Y-88657162D01*
X126013320Y-88565313D01*
X125885633Y-88497063D01*
X125776886Y-88464075D01*
X125774785Y-88461515D01*
X125678094Y-88382163D01*
X125567780Y-88323198D01*
X125448082Y-88286888D01*
X125323600Y-88274628D01*
X123863100Y-88274628D01*
X123738618Y-88286888D01*
X123618920Y-88323198D01*
X123508606Y-88382163D01*
X123411915Y-88461515D01*
X123332563Y-88558206D01*
X123273598Y-88668520D01*
X123237288Y-88788218D01*
X123225028Y-88912700D01*
X123225028Y-89446100D01*
X123237288Y-89570582D01*
X123273598Y-89690280D01*
X123332563Y-89800594D01*
X123343893Y-89814400D01*
X123332563Y-89828206D01*
X123273598Y-89938520D01*
X123237288Y-90058218D01*
X123225028Y-90182700D01*
X123225028Y-90716100D01*
X123237288Y-90840582D01*
X123273598Y-90960280D01*
X123332563Y-91070594D01*
X123343893Y-91084400D01*
X123332563Y-91098206D01*
X123273598Y-91208520D01*
X123237288Y-91328218D01*
X123225028Y-91452700D01*
X123225028Y-91986100D01*
X123237288Y-92110582D01*
X123273331Y-92229400D01*
X123252722Y-92229400D01*
X123215399Y-92225724D01*
X123178076Y-92229400D01*
X123178067Y-92229400D01*
X123066414Y-92240397D01*
X122923153Y-92283854D01*
X122791124Y-92354426D01*
X122675399Y-92449399D01*
X122651600Y-92478398D01*
X122443399Y-92686600D01*
X121068322Y-92686600D01*
X121030999Y-92682924D01*
X120993676Y-92686600D01*
X120993667Y-92686600D01*
X120882014Y-92697597D01*
X120738753Y-92741054D01*
X120606724Y-92811626D01*
X120510300Y-92890759D01*
X120510300Y-92862398D01*
X120351552Y-92862398D01*
X120510300Y-92703650D01*
X120499954Y-92592535D01*
X120462558Y-92473172D01*
X120430534Y-92414548D01*
X120504033Y-92375262D01*
X120623564Y-92277164D01*
X120648147Y-92247210D01*
X121177810Y-91717547D01*
X121207764Y-91692964D01*
X121305862Y-91573433D01*
X121378754Y-91437060D01*
X121387696Y-91407582D01*
X121423642Y-91289087D01*
X121433244Y-91191588D01*
X121435000Y-91173761D01*
X121435000Y-91173756D01*
X121438797Y-91135200D01*
X121435000Y-91096644D01*
X121435000Y-88735352D01*
X121438797Y-88696799D01*
X121435000Y-88658246D01*
X121435000Y-88658239D01*
X121423641Y-88542913D01*
X121378754Y-88394940D01*
X121305862Y-88258567D01*
X121207764Y-88139036D01*
X121177811Y-88114454D01*
X120800547Y-87737190D01*
X120775964Y-87707236D01*
X120656433Y-87609138D01*
X120520060Y-87536246D01*
X120372087Y-87491359D01*
X120256761Y-87480000D01*
X120256753Y-87480000D01*
X120218200Y-87476203D01*
X120179647Y-87480000D01*
X110249152Y-87480000D01*
X110210599Y-87476203D01*
X110172046Y-87480000D01*
X110172039Y-87480000D01*
X110071090Y-87489943D01*
X110056712Y-87491359D01*
X110022272Y-87501806D01*
X109908740Y-87536246D01*
X109772367Y-87609138D01*
X109712159Y-87658550D01*
X109682787Y-87682655D01*
X109682784Y-87682658D01*
X109652836Y-87707236D01*
X109628258Y-87737184D01*
X106101385Y-91264058D01*
X106071437Y-91288636D01*
X106046859Y-91318584D01*
X106046855Y-91318588D01*
X106027714Y-91341912D01*
X105973339Y-91408167D01*
X105968329Y-91417541D01*
X105900446Y-91544541D01*
X105855559Y-91692514D01*
X105840403Y-91846400D01*
X105333400Y-91846400D01*
X105333400Y-88551419D01*
X105336593Y-88519000D01*
X105323850Y-88389617D01*
X105286110Y-88265207D01*
X105224825Y-88150550D01*
X105142348Y-88050052D01*
X105041850Y-87967575D01*
X104927193Y-87906290D01*
X104802783Y-87868550D01*
X104705819Y-87859000D01*
X104673400Y-87855807D01*
X104640981Y-87859000D01*
X102362519Y-87859000D01*
X102373063Y-80286669D01*
X102567456Y-80755976D01*
X102877712Y-81220307D01*
X103272593Y-81615188D01*
X103736924Y-81925444D01*
X104252861Y-82139152D01*
X104800577Y-82248100D01*
X105359023Y-82248100D01*
X105906739Y-82139152D01*
X106422676Y-81925444D01*
X106887007Y-81615188D01*
X107281888Y-81220307D01*
X107592144Y-80755976D01*
X107805852Y-80240039D01*
X107914800Y-79692323D01*
X107914800Y-79133877D01*
X107805852Y-78586161D01*
X107592144Y-78070224D01*
X107281888Y-77605893D01*
X106887007Y-77211012D01*
X106494914Y-76949024D01*
X137499115Y-76951330D01*
%TA.AperFunction,Conductor*%
D20*
G36*
X137499115Y-76951330D02*
G01*
X137110473Y-77211012D01*
X136715592Y-77605893D01*
X136405336Y-78070224D01*
X136191628Y-78586161D01*
X136082680Y-79133877D01*
X136082680Y-79692323D01*
X136191628Y-80240039D01*
X136405336Y-80755976D01*
X136715592Y-81220307D01*
X137110473Y-81615188D01*
X137574804Y-81925444D01*
X138090741Y-82139152D01*
X138638457Y-82248100D01*
X139196903Y-82248100D01*
X139744619Y-82139152D01*
X140260556Y-81925444D01*
X140724887Y-81615188D01*
X141119768Y-81220307D01*
X141430024Y-80755976D01*
X141453001Y-80700505D01*
X141453000Y-90780000D01*
X139986419Y-90780000D01*
X139954000Y-90776807D01*
X139921581Y-90780000D01*
X139824617Y-90789550D01*
X139700207Y-90827290D01*
X139585550Y-90888575D01*
X139485052Y-90971052D01*
X139402575Y-91071550D01*
X139341290Y-91186207D01*
X139303550Y-91310617D01*
X139290807Y-91440000D01*
X139294000Y-91472418D01*
X139294001Y-109212971D01*
X139290807Y-109245400D01*
X139303550Y-109374783D01*
X139341290Y-109499193D01*
X139402575Y-109613850D01*
X139485052Y-109714348D01*
X139585550Y-109796825D01*
X139700207Y-109858110D01*
X139824617Y-109895850D01*
X139921581Y-109905400D01*
X139954000Y-109908593D01*
X139986419Y-109905400D01*
X141453000Y-109905400D01*
X141453001Y-112202335D01*
X141430024Y-112146864D01*
X141119768Y-111682533D01*
X140724887Y-111287652D01*
X140260556Y-110977396D01*
X139744619Y-110763688D01*
X139196903Y-110654740D01*
X138638457Y-110654740D01*
X138090741Y-110763688D01*
X137574804Y-110977396D01*
X137110473Y-111287652D01*
X136715592Y-111682533D01*
X136405336Y-112146864D01*
X136191628Y-112662801D01*
X136082680Y-113210517D01*
X136082680Y-113768963D01*
X136191628Y-114316679D01*
X136405336Y-114832616D01*
X136715592Y-115296947D01*
X137110473Y-115691828D01*
X137574804Y-116002084D01*
X137844721Y-116113887D01*
X106158484Y-116111516D01*
X106422676Y-116002084D01*
X106887007Y-115691828D01*
X107281888Y-115296947D01*
X107592144Y-114832616D01*
X107805852Y-114316679D01*
X107914800Y-113768963D01*
X107914800Y-113210517D01*
X107805852Y-112662801D01*
X107592144Y-112146864D01*
X107281888Y-111682533D01*
X106887007Y-111287652D01*
X106422676Y-110977396D01*
X105906739Y-110763688D01*
X105359023Y-110654740D01*
X104800577Y-110654740D01*
X104252861Y-110763688D01*
X103736924Y-110977396D01*
X103272593Y-111287652D01*
X102877712Y-111682533D01*
X102567456Y-112146864D01*
X102353748Y-112662801D01*
X102338491Y-112739504D01*
X102359746Y-105181000D01*
X104640981Y-105181000D01*
X104673400Y-105184193D01*
X104705819Y-105181000D01*
X104777908Y-105173900D01*
X104802783Y-105171450D01*
X104927193Y-105133710D01*
X105041850Y-105072425D01*
X105142348Y-104989948D01*
X105224825Y-104889450D01*
X105286110Y-104774793D01*
X105323850Y-104650383D01*
X105333400Y-104553419D01*
X105336593Y-104521000D01*
X105333400Y-104488581D01*
X105333400Y-91846400D01*
X105840403Y-91846400D01*
X105844201Y-91884963D01*
X105844200Y-101917047D01*
X105840403Y-101955600D01*
X105844200Y-101994153D01*
X105844200Y-101994160D01*
X105855559Y-102109486D01*
X105900446Y-102257459D01*
X105973338Y-102393832D01*
X106071436Y-102513364D01*
X106101390Y-102537947D01*
X107169000Y-103605557D01*
X107169000Y-103632339D01*
X107208774Y-103832298D01*
X107286795Y-104020656D01*
X107400063Y-104190174D01*
X107544226Y-104334337D01*
X107713744Y-104447605D01*
X107902102Y-104525626D01*
X108102061Y-104565400D01*
X108305939Y-104565400D01*
X108505898Y-104525626D01*
X108694256Y-104447605D01*
X108863774Y-104334337D01*
X108882711Y-104315400D01*
X109029047Y-104315400D01*
X109067600Y-104319197D01*
X109106153Y-104315400D01*
X109106161Y-104315400D01*
X109221487Y-104304041D01*
X109369460Y-104259154D01*
X109505833Y-104186262D01*
X109625364Y-104088164D01*
X109649947Y-104058210D01*
X111018357Y-102689800D01*
X112424133Y-102689800D01*
X112390374Y-102771302D01*
X112350600Y-102971261D01*
X112350600Y-103175139D01*
X112390374Y-103375098D01*
X112468395Y-103563456D01*
X112581663Y-103732974D01*
X112650601Y-103801912D01*
X112650600Y-104662695D01*
X112647044Y-104698800D01*
X112657493Y-104804887D01*
X112661235Y-104842884D01*
X112703263Y-104981432D01*
X112771513Y-105109119D01*
X112863362Y-105221037D01*
X112891408Y-105244054D01*
X115126346Y-107478993D01*
X115149362Y-107507038D01*
X115261280Y-107598887D01*
X115388967Y-107667137D01*
X115527515Y-107709165D01*
X115635495Y-107719800D01*
X115635504Y-107719800D01*
X115671599Y-107723355D01*
X115707694Y-107719800D01*
X130773895Y-107719800D01*
X130810000Y-107723356D01*
X130846105Y-107719800D01*
X130954085Y-107709165D01*
X131092633Y-107667137D01*
X131098128Y-107664200D01*
X131267539Y-107664200D01*
X131467498Y-107624426D01*
X131655856Y-107546405D01*
X131825374Y-107433137D01*
X131969537Y-107288974D01*
X132082805Y-107119456D01*
X132160826Y-106931098D01*
X132200600Y-106731139D01*
X132200600Y-106527261D01*
X132160826Y-106327302D01*
X132082805Y-106138944D01*
X131969537Y-105969426D01*
X131825374Y-105825263D01*
X131655856Y-105711995D01*
X131467498Y-105633974D01*
X131267539Y-105594200D01*
X131063661Y-105594200D01*
X130863702Y-105633974D01*
X130675344Y-105711995D01*
X130505826Y-105825263D01*
X130361663Y-105969426D01*
X130248395Y-106138944D01*
X130202477Y-106249800D01*
X115976047Y-106249800D01*
X114120600Y-104394354D01*
X114120600Y-103801911D01*
X114189537Y-103732974D01*
X114302805Y-103563456D01*
X114380826Y-103375098D01*
X114398966Y-103283901D01*
X118021729Y-103283901D01*
X118033989Y-103408383D01*
X118070299Y-103528081D01*
X118129264Y-103638395D01*
X118208616Y-103735086D01*
X118305307Y-103814438D01*
X118415621Y-103873403D01*
X118535319Y-103909713D01*
X118659801Y-103921973D01*
X118780451Y-103918901D01*
X118939201Y-103760151D01*
X118939201Y-102966401D01*
X118183551Y-102966401D01*
X118024801Y-103125151D01*
X118021729Y-103283901D01*
X114398966Y-103283901D01*
X114420600Y-103175139D01*
X114420600Y-103173854D01*
X114425099Y-103174297D01*
X114463652Y-103170500D01*
X116824947Y-103170500D01*
X116863500Y-103174297D01*
X116902053Y-103170500D01*
X116902061Y-103170500D01*
X117017387Y-103159141D01*
X117165360Y-103114254D01*
X117301733Y-103041362D01*
X117421264Y-102943264D01*
X117445847Y-102913310D01*
X117721510Y-102637647D01*
X117751464Y-102613064D01*
X117849562Y-102493533D01*
X117922454Y-102357160D01*
X117938343Y-102304782D01*
X118051814Y-102211658D01*
X118033989Y-102270419D01*
X118021729Y-102394901D01*
X118024801Y-102553651D01*
X118183551Y-102712401D01*
X118939201Y-102712401D01*
X118939201Y-102692401D01*
X119193201Y-102692401D01*
X119193201Y-102712401D01*
X119213201Y-102712401D01*
X119213201Y-102966401D01*
X119193201Y-102966401D01*
X119193201Y-103760151D01*
X119251823Y-103818773D01*
X119233615Y-103833715D01*
X119154263Y-103930406D01*
X119095298Y-104040720D01*
X119058988Y-104160418D01*
X119046728Y-104284900D01*
X119046728Y-105173900D01*
X119058988Y-105298382D01*
X119095298Y-105418080D01*
X119154263Y-105528394D01*
X119233615Y-105625085D01*
X119330306Y-105704437D01*
X119440620Y-105763402D01*
X119560318Y-105799712D01*
X119684800Y-105811972D01*
X120497600Y-105811972D01*
X120622082Y-105799712D01*
X120741780Y-105763402D01*
X120852094Y-105704437D01*
X120888891Y-105674239D01*
X121059302Y-105744826D01*
X121259261Y-105784600D01*
X121463139Y-105784600D01*
X121663098Y-105744826D01*
X121851456Y-105666805D01*
X121925716Y-105617186D01*
X121926977Y-105618723D01*
X122059658Y-105727612D01*
X122211033Y-105808523D01*
X122375284Y-105858348D01*
X122546100Y-105875172D01*
X123021100Y-105875172D01*
X123191916Y-105858348D01*
X123356167Y-105808523D01*
X123461583Y-105752177D01*
X123478106Y-105765737D01*
X123588420Y-105824702D01*
X123708118Y-105861012D01*
X123832600Y-105873272D01*
X124021850Y-105870200D01*
X124180600Y-105711450D01*
X124180600Y-104824700D01*
X124434600Y-104824700D01*
X124434600Y-105711450D01*
X124593350Y-105870200D01*
X124782600Y-105873272D01*
X124907082Y-105861012D01*
X125026780Y-105824702D01*
X125137094Y-105765737D01*
X125233785Y-105686385D01*
X125313137Y-105589694D01*
X125372102Y-105479380D01*
X125408412Y-105359682D01*
X125420672Y-105235200D01*
X125417600Y-104983450D01*
X125258850Y-104824700D01*
X124434600Y-104824700D01*
X124180600Y-104824700D01*
X124160600Y-104824700D01*
X124160600Y-104570700D01*
X124180600Y-104570700D01*
X124180600Y-104550700D01*
X124434600Y-104550700D01*
X124434600Y-104570700D01*
X125258850Y-104570700D01*
X125417600Y-104411950D01*
X125420281Y-104192256D01*
X125422613Y-104196619D01*
X125514462Y-104308537D01*
X125542508Y-104331554D01*
X125895941Y-104684987D01*
X125918962Y-104713038D01*
X126030880Y-104804887D01*
X126158567Y-104873137D01*
X126297115Y-104915165D01*
X126405095Y-104925800D01*
X126405104Y-104925800D01*
X126441199Y-104929355D01*
X126477294Y-104925800D01*
X132022668Y-104925800D01*
X132169280Y-105072412D01*
X132355176Y-105196624D01*
X132561733Y-105282183D01*
X132781012Y-105325800D01*
X133004588Y-105325800D01*
X133223867Y-105282183D01*
X133430424Y-105196624D01*
X133616320Y-105072412D01*
X133774412Y-104914320D01*
X133898624Y-104728424D01*
X133984183Y-104521867D01*
X134027800Y-104302588D01*
X134027800Y-104079012D01*
X133984183Y-103859733D01*
X133898624Y-103653176D01*
X133774412Y-103467280D01*
X133616320Y-103309188D01*
X133430424Y-103184976D01*
X133223867Y-103099417D01*
X133004588Y-103055800D01*
X132781012Y-103055800D01*
X132561733Y-103099417D01*
X132355176Y-103184976D01*
X132169280Y-103309188D01*
X132022668Y-103455800D01*
X128947429Y-103455800D01*
X128970448Y-103379916D01*
X128987272Y-103209100D01*
X128987272Y-102734100D01*
X128970448Y-102563284D01*
X128920623Y-102399033D01*
X128839712Y-102247658D01*
X128766788Y-102158800D01*
X128830637Y-102081000D01*
X130792600Y-102081000D01*
X130792600Y-102168988D01*
X130836217Y-102388267D01*
X130921776Y-102594824D01*
X131045988Y-102780720D01*
X131204080Y-102938812D01*
X131389976Y-103063024D01*
X131596533Y-103148583D01*
X131815812Y-103192200D01*
X132039388Y-103192200D01*
X132258667Y-103148583D01*
X132465224Y-103063024D01*
X132651120Y-102938812D01*
X132809212Y-102780720D01*
X132933424Y-102594824D01*
X133018983Y-102388267D01*
X133062600Y-102168988D01*
X133062600Y-101945412D01*
X133018983Y-101726133D01*
X132933424Y-101519576D01*
X132809212Y-101333680D01*
X132651120Y-101175588D01*
X132465224Y-101051376D01*
X132258667Y-100965817D01*
X132039388Y-100922200D01*
X131832046Y-100922200D01*
X131761658Y-100851812D01*
X131738638Y-100823762D01*
X131626720Y-100731913D01*
X131499033Y-100663663D01*
X131360485Y-100621635D01*
X131252505Y-100611000D01*
X131216400Y-100607444D01*
X131180295Y-100611000D01*
X128830637Y-100611000D01*
X128730823Y-100489377D01*
X128598142Y-100380488D01*
X128446767Y-100299577D01*
X128282516Y-100249752D01*
X128111700Y-100232928D01*
X127611700Y-100232928D01*
X127440884Y-100249752D01*
X127276633Y-100299577D01*
X127125258Y-100380488D01*
X126992577Y-100489377D01*
X126949200Y-100542232D01*
X126905823Y-100489377D01*
X126773142Y-100380488D01*
X126621767Y-100299577D01*
X126457516Y-100249752D01*
X126286700Y-100232928D01*
X125786700Y-100232928D01*
X125615884Y-100249752D01*
X125451633Y-100299577D01*
X125300258Y-100380488D01*
X125247400Y-100423868D01*
X125194542Y-100380488D01*
X125103397Y-100331771D01*
X125072187Y-100273380D01*
X124980338Y-100161462D01*
X124952287Y-100138441D01*
X124700459Y-99886613D01*
X124677438Y-99858562D01*
X124565520Y-99766713D01*
X124437833Y-99698463D01*
X124299285Y-99656435D01*
X124191305Y-99645800D01*
X124155200Y-99642244D01*
X124119095Y-99645800D01*
X121868847Y-99645800D01*
X120280858Y-98057812D01*
X120257838Y-98029762D01*
X120145920Y-97937913D01*
X120018233Y-97869663D01*
X119879685Y-97827635D01*
X119771705Y-97817000D01*
X119735600Y-97813444D01*
X119699495Y-97817000D01*
X119176447Y-97817000D01*
X118620458Y-97261012D01*
X118597438Y-97232962D01*
X118485520Y-97141113D01*
X118357833Y-97072863D01*
X118322658Y-97062193D01*
X118322302Y-97061020D01*
X118263337Y-96950706D01*
X118183985Y-96854015D01*
X118087294Y-96774663D01*
X117976980Y-96715698D01*
X117888969Y-96689000D01*
X119209103Y-96689000D01*
X119211235Y-96710643D01*
X119212744Y-96715619D01*
X119217691Y-96759520D01*
X119219651Y-96806080D01*
X119234310Y-96866392D01*
X119247277Y-96927120D01*
X119265716Y-96969928D01*
X119293980Y-97050704D01*
X119306256Y-97095675D01*
X119333978Y-97151231D01*
X119360122Y-97207527D01*
X119387624Y-97245158D01*
X119433163Y-97317633D01*
X119455129Y-97358728D01*
X119494501Y-97406704D01*
X119532538Y-97455797D01*
X119567724Y-97486364D01*
X119628235Y-97546875D01*
X119658802Y-97582061D01*
X119707887Y-97620092D01*
X119755870Y-97659470D01*
X119796970Y-97681438D01*
X119869446Y-97726978D01*
X119907073Y-97754477D01*
X119963362Y-97780618D01*
X120018924Y-97808343D01*
X120063895Y-97820619D01*
X120144669Y-97848882D01*
X120187473Y-97867320D01*
X120248198Y-97880287D01*
X120308518Y-97894948D01*
X120355079Y-97896908D01*
X120398975Y-97901854D01*
X120403955Y-97903365D01*
X120470885Y-97909957D01*
X120501619Y-97913420D01*
X120506782Y-97913492D01*
X120511935Y-97914000D01*
X120542936Y-97914000D01*
X120557048Y-97914198D01*
X120561088Y-97914943D01*
X120585599Y-97914599D01*
X120610111Y-97914943D01*
X120614151Y-97914198D01*
X120628263Y-97914000D01*
X120659264Y-97914000D01*
X120664417Y-97913492D01*
X120669579Y-97913420D01*
X120700306Y-97909958D01*
X120767244Y-97903365D01*
X120772225Y-97901854D01*
X120816119Y-97896908D01*
X120862680Y-97894948D01*
X120923005Y-97880286D01*
X120983725Y-97867320D01*
X121026524Y-97848884D01*
X121107304Y-97820619D01*
X121152275Y-97808343D01*
X121207831Y-97780621D01*
X121264127Y-97754477D01*
X121301758Y-97726975D01*
X121374233Y-97681436D01*
X121415328Y-97659470D01*
X121435599Y-97642834D01*
X121455870Y-97659470D01*
X121496970Y-97681438D01*
X121569446Y-97726978D01*
X121607073Y-97754477D01*
X121663362Y-97780618D01*
X121718924Y-97808343D01*
X121763895Y-97820619D01*
X121844669Y-97848882D01*
X121887473Y-97867320D01*
X121948198Y-97880287D01*
X122008518Y-97894948D01*
X122055079Y-97896908D01*
X122098975Y-97901854D01*
X122103955Y-97903365D01*
X122170885Y-97909957D01*
X122201619Y-97913420D01*
X122206782Y-97913492D01*
X122211935Y-97914000D01*
X122242936Y-97914000D01*
X122257048Y-97914198D01*
X122261088Y-97914943D01*
X122285599Y-97914599D01*
X122310111Y-97914943D01*
X122314151Y-97914198D01*
X122328263Y-97914000D01*
X122359264Y-97914000D01*
X122364417Y-97913492D01*
X122369579Y-97913420D01*
X122400306Y-97909958D01*
X122467244Y-97903365D01*
X122472225Y-97901854D01*
X122516119Y-97896908D01*
X122562680Y-97894948D01*
X122623005Y-97880286D01*
X122683725Y-97867320D01*
X122726524Y-97848884D01*
X122807304Y-97820619D01*
X122852275Y-97808343D01*
X122907831Y-97780621D01*
X122964127Y-97754477D01*
X123001758Y-97726975D01*
X123074233Y-97681436D01*
X123115328Y-97659470D01*
X123135599Y-97642834D01*
X123155870Y-97659470D01*
X123196970Y-97681438D01*
X123269446Y-97726978D01*
X123307073Y-97754477D01*
X123363362Y-97780618D01*
X123418924Y-97808343D01*
X123463895Y-97820619D01*
X123544669Y-97848882D01*
X123587473Y-97867320D01*
X123648198Y-97880287D01*
X123708518Y-97894948D01*
X123755079Y-97896908D01*
X123798975Y-97901854D01*
X123803955Y-97903365D01*
X123870885Y-97909957D01*
X123901619Y-97913420D01*
X123906782Y-97913492D01*
X123911935Y-97914000D01*
X123942936Y-97914000D01*
X123957048Y-97914198D01*
X123961088Y-97914943D01*
X123985599Y-97914599D01*
X124010111Y-97914943D01*
X124014151Y-97914198D01*
X124028263Y-97914000D01*
X124059264Y-97914000D01*
X124064417Y-97913492D01*
X124069579Y-97913420D01*
X124100306Y-97909958D01*
X124167244Y-97903365D01*
X124172225Y-97901854D01*
X124216119Y-97896908D01*
X124262680Y-97894948D01*
X124323005Y-97880286D01*
X124383725Y-97867320D01*
X124426524Y-97848884D01*
X124507304Y-97820619D01*
X124552275Y-97808343D01*
X124607831Y-97780621D01*
X124664127Y-97754477D01*
X124701758Y-97726975D01*
X124774233Y-97681436D01*
X124815328Y-97659470D01*
X124835599Y-97642834D01*
X124855870Y-97659470D01*
X124896970Y-97681438D01*
X124969446Y-97726978D01*
X125007073Y-97754477D01*
X125063362Y-97780618D01*
X125118924Y-97808343D01*
X125163895Y-97820619D01*
X125244669Y-97848882D01*
X125287473Y-97867320D01*
X125348198Y-97880287D01*
X125408518Y-97894948D01*
X125455079Y-97896908D01*
X125498975Y-97901854D01*
X125503955Y-97903365D01*
X125570885Y-97909957D01*
X125601619Y-97913420D01*
X125606782Y-97913492D01*
X125611935Y-97914000D01*
X125642936Y-97914000D01*
X125657048Y-97914198D01*
X125661088Y-97914943D01*
X125685599Y-97914599D01*
X125710111Y-97914943D01*
X125714151Y-97914198D01*
X125728263Y-97914000D01*
X125759264Y-97914000D01*
X125764417Y-97913492D01*
X125769579Y-97913420D01*
X125800306Y-97909958D01*
X125867244Y-97903365D01*
X125872225Y-97901854D01*
X125916119Y-97896908D01*
X125962680Y-97894948D01*
X126023005Y-97880286D01*
X126083725Y-97867320D01*
X126126524Y-97848884D01*
X126207304Y-97820619D01*
X126252275Y-97808343D01*
X126307831Y-97780621D01*
X126364127Y-97754477D01*
X126401758Y-97726975D01*
X126474233Y-97681436D01*
X126515328Y-97659470D01*
X126535599Y-97642834D01*
X126555870Y-97659470D01*
X126596970Y-97681438D01*
X126669446Y-97726978D01*
X126707073Y-97754477D01*
X126763362Y-97780618D01*
X126818924Y-97808343D01*
X126863895Y-97820619D01*
X126944669Y-97848882D01*
X126987473Y-97867320D01*
X127048198Y-97880287D01*
X127108518Y-97894948D01*
X127155079Y-97896908D01*
X127198975Y-97901854D01*
X127203955Y-97903365D01*
X127270885Y-97909957D01*
X127301619Y-97913420D01*
X127306782Y-97913492D01*
X127311935Y-97914000D01*
X127342936Y-97914000D01*
X127357048Y-97914198D01*
X127361088Y-97914943D01*
X127385599Y-97914599D01*
X127410111Y-97914943D01*
X127414151Y-97914198D01*
X127428263Y-97914000D01*
X127459264Y-97914000D01*
X127464417Y-97913492D01*
X127469579Y-97913420D01*
X127500306Y-97909958D01*
X127567244Y-97903365D01*
X127572225Y-97901854D01*
X127616119Y-97896908D01*
X127662680Y-97894948D01*
X127723005Y-97880286D01*
X127783725Y-97867320D01*
X127826524Y-97848884D01*
X127907304Y-97820619D01*
X127952275Y-97808343D01*
X128007831Y-97780621D01*
X128064127Y-97754477D01*
X128101758Y-97726975D01*
X128174233Y-97681436D01*
X128215328Y-97659470D01*
X128235599Y-97642834D01*
X128255870Y-97659470D01*
X128296970Y-97681438D01*
X128369446Y-97726978D01*
X128407073Y-97754477D01*
X128463362Y-97780618D01*
X128518924Y-97808343D01*
X128563895Y-97820619D01*
X128644669Y-97848882D01*
X128687473Y-97867320D01*
X128748198Y-97880287D01*
X128808518Y-97894948D01*
X128855079Y-97896908D01*
X128898975Y-97901854D01*
X128903955Y-97903365D01*
X128970885Y-97909957D01*
X129001619Y-97913420D01*
X129006782Y-97913492D01*
X129011935Y-97914000D01*
X129042936Y-97914000D01*
X129057048Y-97914198D01*
X129061088Y-97914943D01*
X129085599Y-97914599D01*
X129110111Y-97914943D01*
X129114151Y-97914198D01*
X129128263Y-97914000D01*
X129159264Y-97914000D01*
X129164417Y-97913492D01*
X129169579Y-97913420D01*
X129200306Y-97909958D01*
X129267244Y-97903365D01*
X129272225Y-97901854D01*
X129316119Y-97896908D01*
X129362680Y-97894948D01*
X129423005Y-97880286D01*
X129483725Y-97867320D01*
X129526524Y-97848884D01*
X129607304Y-97820619D01*
X129652275Y-97808343D01*
X129707831Y-97780621D01*
X129764127Y-97754477D01*
X129801758Y-97726975D01*
X129874233Y-97681436D01*
X129915328Y-97659470D01*
X129963304Y-97620098D01*
X130012397Y-97582061D01*
X130042964Y-97546875D01*
X130103475Y-97486364D01*
X130138661Y-97455797D01*
X130176692Y-97406712D01*
X130216070Y-97358729D01*
X130238038Y-97317629D01*
X130283578Y-97245153D01*
X130311077Y-97207526D01*
X130337218Y-97151237D01*
X130364943Y-97095675D01*
X130377219Y-97050704D01*
X130405482Y-96969930D01*
X130423920Y-96927126D01*
X130436887Y-96866401D01*
X130451548Y-96806081D01*
X130453508Y-96759520D01*
X130458454Y-96715624D01*
X130459965Y-96710644D01*
X130462097Y-96689000D01*
X130785289Y-96689000D01*
X130912226Y-96815937D01*
X131081744Y-96929205D01*
X131270102Y-97007226D01*
X131470061Y-97047000D01*
X131673939Y-97047000D01*
X131873898Y-97007226D01*
X132062256Y-96929205D01*
X132231774Y-96815937D01*
X132375937Y-96671774D01*
X132464654Y-96539000D01*
X132639139Y-96539000D01*
X132839098Y-96499226D01*
X133027456Y-96421205D01*
X133196974Y-96307937D01*
X133341137Y-96163774D01*
X133454405Y-95994256D01*
X133532426Y-95805898D01*
X133572200Y-95605939D01*
X133572200Y-95402061D01*
X133532426Y-95202102D01*
X133454405Y-95013744D01*
X133341137Y-94844226D01*
X133196974Y-94700063D01*
X133027456Y-94586795D01*
X132839098Y-94508774D01*
X132639139Y-94469000D01*
X132435261Y-94469000D01*
X132235302Y-94508774D01*
X132046944Y-94586795D01*
X132046510Y-94587085D01*
X131944106Y-94576999D01*
X131908001Y-94573443D01*
X131871896Y-94576999D01*
X131272093Y-94576999D01*
X131235998Y-94573444D01*
X131199903Y-94576999D01*
X131199894Y-94576999D01*
X131091914Y-94587634D01*
X130953366Y-94629662D01*
X130825679Y-94697912D01*
X130739058Y-94769000D01*
X129965225Y-94769000D01*
X129960116Y-94768058D01*
X129892968Y-94769000D01*
X129861935Y-94769000D01*
X129856781Y-94769508D01*
X129851624Y-94769580D01*
X129820905Y-94773041D01*
X129753955Y-94779635D01*
X129748977Y-94781145D01*
X129705083Y-94786091D01*
X129658518Y-94788051D01*
X129615014Y-94798624D01*
X129609965Y-94747356D01*
X129608454Y-94742376D01*
X129603508Y-94698480D01*
X129601548Y-94651919D01*
X129586887Y-94591599D01*
X129573920Y-94530874D01*
X129555482Y-94488070D01*
X129527219Y-94407296D01*
X129514943Y-94362325D01*
X129487218Y-94306763D01*
X129461077Y-94250474D01*
X129433578Y-94212847D01*
X129388038Y-94140371D01*
X129366070Y-94099271D01*
X129326692Y-94051288D01*
X129288661Y-94002203D01*
X129253475Y-93971636D01*
X129192964Y-93911125D01*
X129162397Y-93875939D01*
X129113304Y-93837902D01*
X129065328Y-93798530D01*
X129024233Y-93776564D01*
X128951758Y-93731025D01*
X128914127Y-93703523D01*
X128857831Y-93677379D01*
X128802275Y-93649657D01*
X128757304Y-93637381D01*
X128676524Y-93609116D01*
X128633725Y-93590680D01*
X128573005Y-93577714D01*
X128512680Y-93563052D01*
X128466119Y-93561092D01*
X128422225Y-93556146D01*
X128417244Y-93554635D01*
X128350306Y-93548042D01*
X128319579Y-93544580D01*
X128314417Y-93544508D01*
X128309264Y-93544000D01*
X128278263Y-93544000D01*
X128264151Y-93543802D01*
X128260111Y-93543057D01*
X128235599Y-93543401D01*
X128211088Y-93543057D01*
X128207048Y-93543802D01*
X128192936Y-93544000D01*
X128161935Y-93544000D01*
X128156782Y-93544508D01*
X128151619Y-93544580D01*
X128120885Y-93548043D01*
X128053955Y-93554635D01*
X128048975Y-93556146D01*
X128005079Y-93561092D01*
X127958518Y-93563052D01*
X127898198Y-93577713D01*
X127837473Y-93590680D01*
X127794669Y-93609118D01*
X127722088Y-93634514D01*
X127741623Y-93597967D01*
X127791448Y-93433716D01*
X127808272Y-93262900D01*
X127808272Y-92762900D01*
X127791448Y-92592084D01*
X127741623Y-92427833D01*
X127660712Y-92276458D01*
X127551823Y-92143777D01*
X127498968Y-92100400D01*
X127551823Y-92057023D01*
X127660712Y-91924342D01*
X127741623Y-91772967D01*
X127791448Y-91608716D01*
X127808272Y-91437900D01*
X127808272Y-90937900D01*
X127805032Y-90905000D01*
X129540354Y-90905000D01*
X133615439Y-94980086D01*
X133615440Y-98703524D01*
X133611883Y-98739639D01*
X133626074Y-98883724D01*
X133666396Y-99016645D01*
X133668103Y-99022272D01*
X133736353Y-99149959D01*
X133828202Y-99261877D01*
X133856247Y-99284893D01*
X134469200Y-99897847D01*
X134469201Y-100979685D01*
X134465644Y-101015800D01*
X134479835Y-101159885D01*
X134516695Y-101281393D01*
X134521864Y-101298433D01*
X134590114Y-101426120D01*
X134681963Y-101538038D01*
X134710008Y-101561054D01*
X135155000Y-102006047D01*
X135155001Y-102446088D01*
X135086063Y-102515026D01*
X134972795Y-102684544D01*
X134894774Y-102872902D01*
X134855000Y-103072861D01*
X134855000Y-103276739D01*
X134894774Y-103476698D01*
X134972795Y-103665056D01*
X135086063Y-103834574D01*
X135230226Y-103978737D01*
X135399744Y-104092005D01*
X135588102Y-104170026D01*
X135788061Y-104209800D01*
X135991939Y-104209800D01*
X136191898Y-104170026D01*
X136380256Y-104092005D01*
X136549774Y-103978737D01*
X136693937Y-103834574D01*
X136807205Y-103665056D01*
X136885226Y-103476698D01*
X136925000Y-103276739D01*
X136925000Y-103072861D01*
X136885226Y-102872902D01*
X136807205Y-102684544D01*
X136693937Y-102515026D01*
X136625000Y-102446089D01*
X136625000Y-101737705D01*
X136628556Y-101701600D01*
X136614365Y-101557515D01*
X136572337Y-101418966D01*
X136504087Y-101291280D01*
X136435253Y-101207406D01*
X136435250Y-101207403D01*
X136412237Y-101179362D01*
X136391214Y-101162108D01*
X136431056Y-101145605D01*
X136600574Y-101032337D01*
X136744737Y-100888174D01*
X136858005Y-100718656D01*
X136936026Y-100530298D01*
X136975800Y-100330339D01*
X136975800Y-100126461D01*
X136936026Y-99926502D01*
X136858005Y-99738144D01*
X136744737Y-99568626D01*
X136666732Y-99490621D01*
X136665165Y-99474715D01*
X136623137Y-99336166D01*
X136554887Y-99208480D01*
X136486053Y-99124606D01*
X136486050Y-99124603D01*
X136463037Y-99096562D01*
X136434997Y-99073550D01*
X135485449Y-98124003D01*
X135485449Y-94546055D01*
X135489005Y-94509950D01*
X135474814Y-94365865D01*
X135432786Y-94227316D01*
X135364536Y-94099630D01*
X135295702Y-94015756D01*
X135295699Y-94015753D01*
X135272686Y-93987712D01*
X135244647Y-93964701D01*
X130723707Y-89443761D01*
X130723702Y-89443755D01*
X130555745Y-89275800D01*
X130532727Y-89247752D01*
X130420809Y-89155903D01*
X130293122Y-89087653D01*
X130154574Y-89045625D01*
X130046594Y-89034990D01*
X130046592Y-89034990D01*
X130010487Y-89031434D01*
X129974385Y-89034990D01*
X126498037Y-89034990D01*
X126148258Y-88685212D01*
X126125238Y-88657162D01*
X126013320Y-88565313D01*
X125885633Y-88497063D01*
X125776886Y-88464075D01*
X125774785Y-88461515D01*
X125678094Y-88382163D01*
X125567780Y-88323198D01*
X125448082Y-88286888D01*
X125323600Y-88274628D01*
X123863100Y-88274628D01*
X123738618Y-88286888D01*
X123618920Y-88323198D01*
X123508606Y-88382163D01*
X123411915Y-88461515D01*
X123332563Y-88558206D01*
X123273598Y-88668520D01*
X123237288Y-88788218D01*
X123225028Y-88912700D01*
X123225028Y-89446100D01*
X123237288Y-89570582D01*
X123273598Y-89690280D01*
X123332563Y-89800594D01*
X123343893Y-89814400D01*
X123332563Y-89828206D01*
X123273598Y-89938520D01*
X123237288Y-90058218D01*
X123225028Y-90182700D01*
X123225028Y-90716100D01*
X123237288Y-90840582D01*
X123273598Y-90960280D01*
X123332563Y-91070594D01*
X123343893Y-91084400D01*
X123332563Y-91098206D01*
X123273598Y-91208520D01*
X123237288Y-91328218D01*
X123225028Y-91452700D01*
X123225028Y-91986100D01*
X123237288Y-92110582D01*
X123273331Y-92229400D01*
X123252722Y-92229400D01*
X123215399Y-92225724D01*
X123178076Y-92229400D01*
X123178067Y-92229400D01*
X123066414Y-92240397D01*
X122923153Y-92283854D01*
X122791124Y-92354426D01*
X122675399Y-92449399D01*
X122651600Y-92478398D01*
X122443399Y-92686600D01*
X121068322Y-92686600D01*
X121030999Y-92682924D01*
X120993676Y-92686600D01*
X120993667Y-92686600D01*
X120882014Y-92697597D01*
X120738753Y-92741054D01*
X120606724Y-92811626D01*
X120510300Y-92890759D01*
X120510300Y-92862398D01*
X120351552Y-92862398D01*
X120510300Y-92703650D01*
X120499954Y-92592535D01*
X120462558Y-92473172D01*
X120430534Y-92414548D01*
X120504033Y-92375262D01*
X120623564Y-92277164D01*
X120648147Y-92247210D01*
X121177810Y-91717547D01*
X121207764Y-91692964D01*
X121305862Y-91573433D01*
X121378754Y-91437060D01*
X121387696Y-91407582D01*
X121423642Y-91289087D01*
X121433244Y-91191588D01*
X121435000Y-91173761D01*
X121435000Y-91173756D01*
X121438797Y-91135200D01*
X121435000Y-91096644D01*
X121435000Y-88735352D01*
X121438797Y-88696799D01*
X121435000Y-88658246D01*
X121435000Y-88658239D01*
X121423641Y-88542913D01*
X121378754Y-88394940D01*
X121305862Y-88258567D01*
X121207764Y-88139036D01*
X121177811Y-88114454D01*
X120800547Y-87737190D01*
X120775964Y-87707236D01*
X120656433Y-87609138D01*
X120520060Y-87536246D01*
X120372087Y-87491359D01*
X120256761Y-87480000D01*
X120256753Y-87480000D01*
X120218200Y-87476203D01*
X120179647Y-87480000D01*
X110249152Y-87480000D01*
X110210599Y-87476203D01*
X110172046Y-87480000D01*
X110172039Y-87480000D01*
X110071090Y-87489943D01*
X110056712Y-87491359D01*
X110022272Y-87501806D01*
X109908740Y-87536246D01*
X109772367Y-87609138D01*
X109712159Y-87658550D01*
X109682787Y-87682655D01*
X109682784Y-87682658D01*
X109652836Y-87707236D01*
X109628258Y-87737184D01*
X106101385Y-91264058D01*
X106071437Y-91288636D01*
X106046859Y-91318584D01*
X106046855Y-91318588D01*
X106027714Y-91341912D01*
X105973339Y-91408167D01*
X105968329Y-91417541D01*
X105900446Y-91544541D01*
X105855559Y-91692514D01*
X105840403Y-91846400D01*
X105333400Y-91846400D01*
X105333400Y-88551419D01*
X105336593Y-88519000D01*
X105323850Y-88389617D01*
X105286110Y-88265207D01*
X105224825Y-88150550D01*
X105142348Y-88050052D01*
X105041850Y-87967575D01*
X104927193Y-87906290D01*
X104802783Y-87868550D01*
X104705819Y-87859000D01*
X104673400Y-87855807D01*
X104640981Y-87859000D01*
X102362519Y-87859000D01*
X102373063Y-80286669D01*
X102567456Y-80755976D01*
X102877712Y-81220307D01*
X103272593Y-81615188D01*
X103736924Y-81925444D01*
X104252861Y-82139152D01*
X104800577Y-82248100D01*
X105359023Y-82248100D01*
X105906739Y-82139152D01*
X106422676Y-81925444D01*
X106887007Y-81615188D01*
X107281888Y-81220307D01*
X107592144Y-80755976D01*
X107805852Y-80240039D01*
X107914800Y-79692323D01*
X107914800Y-79133877D01*
X107805852Y-78586161D01*
X107592144Y-78070224D01*
X107281888Y-77605893D01*
X106887007Y-77211012D01*
X106494914Y-76949024D01*
X137499115Y-76951330D01*
G37*
%TD.AperFunction*%
D19*
X117691746Y-90943593D02*
X117714762Y-90971638D01*
X117826680Y-91063487D01*
X117886511Y-91095467D01*
X117884263Y-91098206D01*
X117825298Y-91208520D01*
X117788988Y-91328218D01*
X117776728Y-91452700D01*
X117776728Y-91986100D01*
X117788988Y-92110582D01*
X117825298Y-92230280D01*
X117884263Y-92340594D01*
X117895314Y-92354060D01*
X117887507Y-92363398D01*
X117827542Y-92473172D01*
X117790146Y-92592535D01*
X117779800Y-92703650D01*
X117938550Y-92862400D01*
X119018050Y-92862400D01*
X119018050Y-92842400D01*
X119272050Y-92842400D01*
X119272050Y-92862400D01*
X119292050Y-92862400D01*
X119292050Y-93116400D01*
X119272050Y-93116400D01*
X119272050Y-93732350D01*
X119430800Y-93891100D01*
X119511141Y-93891658D01*
X119369999Y-94032800D01*
X113727725Y-94032800D01*
X113690400Y-94029124D01*
X113653075Y-94032800D01*
X113653067Y-94032800D01*
X113541414Y-94043797D01*
X113398153Y-94087254D01*
X113266124Y-94157826D01*
X113150399Y-94252799D01*
X113126601Y-94281798D01*
X112366602Y-95041797D01*
X112337599Y-95065599D01*
X112293440Y-95119408D01*
X112242626Y-95181324D01*
X112178561Y-95301181D01*
X112172054Y-95313354D01*
X112128597Y-95456615D01*
X112117600Y-95568268D01*
X112117600Y-95568278D01*
X112113924Y-95605600D01*
X112117600Y-95642923D01*
X112117601Y-96990668D01*
X112113924Y-97028000D01*
X112117601Y-97065333D01*
X112128598Y-97176986D01*
X112139018Y-97211337D01*
X112172054Y-97320246D01*
X112242626Y-97452276D01*
X112303644Y-97526626D01*
X112337600Y-97568001D01*
X112366598Y-97591799D01*
X112440801Y-97666002D01*
X113041000Y-98266202D01*
X113064799Y-98295201D01*
X113093797Y-98318999D01*
X113180523Y-98390174D01*
X113291289Y-98449380D01*
X113312553Y-98460746D01*
X113455814Y-98504203D01*
X113567467Y-98515200D01*
X113567477Y-98515200D01*
X113604800Y-98518876D01*
X113642122Y-98515200D01*
X114478480Y-98515200D01*
X114502263Y-98559694D01*
X114581615Y-98656385D01*
X114678306Y-98735737D01*
X114680853Y-98737099D01*
X114683797Y-98766985D01*
X114714753Y-98869035D01*
X114727254Y-98910246D01*
X114730150Y-98915664D01*
X114637856Y-98853995D01*
X114449498Y-98775974D01*
X114249539Y-98736200D01*
X114045661Y-98736200D01*
X113845702Y-98775974D01*
X113657344Y-98853995D01*
X113487826Y-98967263D01*
X113343663Y-99111426D01*
X113230395Y-99280944D01*
X113152374Y-99469302D01*
X113112600Y-99669261D01*
X113112600Y-99873139D01*
X113152374Y-100073098D01*
X113230395Y-100261456D01*
X113343663Y-100430974D01*
X113412601Y-100499912D01*
X113412601Y-100751086D01*
X113409044Y-100787200D01*
X113423235Y-100931285D01*
X113460386Y-101053753D01*
X113465264Y-101069833D01*
X113491972Y-101119800D01*
X110731756Y-101119800D01*
X110693200Y-101116003D01*
X110654644Y-101119800D01*
X110654639Y-101119800D01*
X110614226Y-101123780D01*
X110539313Y-101131158D01*
X110399070Y-101173701D01*
X110391340Y-101176046D01*
X110254967Y-101248938D01*
X110135436Y-101347036D01*
X110110853Y-101376990D01*
X109289800Y-102198043D01*
X109289800Y-102056861D01*
X109250026Y-101856902D01*
X109172005Y-101668544D01*
X109058737Y-101499026D01*
X108914574Y-101354863D01*
X108901310Y-101346000D01*
X108914574Y-101337137D01*
X109058737Y-101192974D01*
X109172005Y-101023456D01*
X109250026Y-100835098D01*
X109289800Y-100635139D01*
X109289800Y-100431261D01*
X109250026Y-100231302D01*
X109172005Y-100042944D01*
X109058737Y-99873426D01*
X108914574Y-99729263D01*
X108835899Y-99676694D01*
X108835899Y-93275150D01*
X117779800Y-93275150D01*
X117790146Y-93386265D01*
X117827542Y-93505628D01*
X117887507Y-93615402D01*
X117967735Y-93711368D01*
X118065144Y-93789838D01*
X118175989Y-93847797D01*
X118296012Y-93883017D01*
X118420600Y-93894146D01*
X118859300Y-93891100D01*
X119018050Y-93732350D01*
X119018050Y-93116400D01*
X117938550Y-93116400D01*
X117779800Y-93275150D01*
X108835899Y-93275150D01*
X108835899Y-92589545D01*
X111079245Y-90346200D01*
X117094354Y-90346200D01*
X117691746Y-90943593D01*
%TA.AperFunction,Conductor*%
D20*
G36*
X117691746Y-90943593D02*
G01*
X117714762Y-90971638D01*
X117826680Y-91063487D01*
X117886511Y-91095467D01*
X117884263Y-91098206D01*
X117825298Y-91208520D01*
X117788988Y-91328218D01*
X117776728Y-91452700D01*
X117776728Y-91986100D01*
X117788988Y-92110582D01*
X117825298Y-92230280D01*
X117884263Y-92340594D01*
X117895314Y-92354060D01*
X117887507Y-92363398D01*
X117827542Y-92473172D01*
X117790146Y-92592535D01*
X117779800Y-92703650D01*
X117938550Y-92862400D01*
X119018050Y-92862400D01*
X119018050Y-92842400D01*
X119272050Y-92842400D01*
X119272050Y-92862400D01*
X119292050Y-92862400D01*
X119292050Y-93116400D01*
X119272050Y-93116400D01*
X119272050Y-93732350D01*
X119430800Y-93891100D01*
X119511141Y-93891658D01*
X119369999Y-94032800D01*
X113727725Y-94032800D01*
X113690400Y-94029124D01*
X113653075Y-94032800D01*
X113653067Y-94032800D01*
X113541414Y-94043797D01*
X113398153Y-94087254D01*
X113266124Y-94157826D01*
X113150399Y-94252799D01*
X113126601Y-94281798D01*
X112366602Y-95041797D01*
X112337599Y-95065599D01*
X112293440Y-95119408D01*
X112242626Y-95181324D01*
X112178561Y-95301181D01*
X112172054Y-95313354D01*
X112128597Y-95456615D01*
X112117600Y-95568268D01*
X112117600Y-95568278D01*
X112113924Y-95605600D01*
X112117600Y-95642923D01*
X112117601Y-96990668D01*
X112113924Y-97028000D01*
X112117601Y-97065333D01*
X112128598Y-97176986D01*
X112139018Y-97211337D01*
X112172054Y-97320246D01*
X112242626Y-97452276D01*
X112303644Y-97526626D01*
X112337600Y-97568001D01*
X112366598Y-97591799D01*
X112440801Y-97666002D01*
X113041000Y-98266202D01*
X113064799Y-98295201D01*
X113093797Y-98318999D01*
X113180523Y-98390174D01*
X113291289Y-98449380D01*
X113312553Y-98460746D01*
X113455814Y-98504203D01*
X113567467Y-98515200D01*
X113567477Y-98515200D01*
X113604800Y-98518876D01*
X113642122Y-98515200D01*
X114478480Y-98515200D01*
X114502263Y-98559694D01*
X114581615Y-98656385D01*
X114678306Y-98735737D01*
X114680853Y-98737099D01*
X114683797Y-98766985D01*
X114714753Y-98869035D01*
X114727254Y-98910246D01*
X114730150Y-98915664D01*
X114637856Y-98853995D01*
X114449498Y-98775974D01*
X114249539Y-98736200D01*
X114045661Y-98736200D01*
X113845702Y-98775974D01*
X113657344Y-98853995D01*
X113487826Y-98967263D01*
X113343663Y-99111426D01*
X113230395Y-99280944D01*
X113152374Y-99469302D01*
X113112600Y-99669261D01*
X113112600Y-99873139D01*
X113152374Y-100073098D01*
X113230395Y-100261456D01*
X113343663Y-100430974D01*
X113412601Y-100499912D01*
X113412601Y-100751086D01*
X113409044Y-100787200D01*
X113423235Y-100931285D01*
X113460386Y-101053753D01*
X113465264Y-101069833D01*
X113491972Y-101119800D01*
X110731756Y-101119800D01*
X110693200Y-101116003D01*
X110654644Y-101119800D01*
X110654639Y-101119800D01*
X110614226Y-101123780D01*
X110539313Y-101131158D01*
X110399070Y-101173701D01*
X110391340Y-101176046D01*
X110254967Y-101248938D01*
X110135436Y-101347036D01*
X110110853Y-101376990D01*
X109289800Y-102198043D01*
X109289800Y-102056861D01*
X109250026Y-101856902D01*
X109172005Y-101668544D01*
X109058737Y-101499026D01*
X108914574Y-101354863D01*
X108901310Y-101346000D01*
X108914574Y-101337137D01*
X109058737Y-101192974D01*
X109172005Y-101023456D01*
X109250026Y-100835098D01*
X109289800Y-100635139D01*
X109289800Y-100431261D01*
X109250026Y-100231302D01*
X109172005Y-100042944D01*
X109058737Y-99873426D01*
X108914574Y-99729263D01*
X108835899Y-99676694D01*
X108835899Y-93275150D01*
X117779800Y-93275150D01*
X117790146Y-93386265D01*
X117827542Y-93505628D01*
X117887507Y-93615402D01*
X117967735Y-93711368D01*
X118065144Y-93789838D01*
X118175989Y-93847797D01*
X118296012Y-93883017D01*
X118420600Y-93894146D01*
X118859300Y-93891100D01*
X119018050Y-93732350D01*
X119018050Y-93116400D01*
X117938550Y-93116400D01*
X117779800Y-93275150D01*
X108835899Y-93275150D01*
X108835899Y-92589545D01*
X111079245Y-90346200D01*
X117094354Y-90346200D01*
X117691746Y-90943593D01*
G37*
%TD.AperFunction*%
D19*
X117596996Y-99621797D02*
X117620799Y-99650801D01*
X117736524Y-99745774D01*
X117868553Y-99816346D01*
X118011814Y-99859803D01*
X118123467Y-99870800D01*
X118123476Y-99870800D01*
X118160799Y-99874476D01*
X118198122Y-99870800D01*
X119166799Y-99870800D01*
X119531787Y-100235788D01*
X119514450Y-100236000D01*
X119355700Y-100394750D01*
X119355700Y-101219000D01*
X119375700Y-101219000D01*
X119375700Y-101473000D01*
X119355700Y-101473000D01*
X119355700Y-101493000D01*
X119101700Y-101493000D01*
X119101700Y-101473000D01*
X119081700Y-101473000D01*
X119081700Y-101219000D01*
X119101700Y-101219000D01*
X119101700Y-100394750D01*
X118942950Y-100236000D01*
X118691200Y-100232928D01*
X118566718Y-100245188D01*
X118447020Y-100281498D01*
X118336706Y-100340463D01*
X118240015Y-100419815D01*
X118160663Y-100516506D01*
X118130854Y-100572273D01*
X118062823Y-100489377D01*
X117930142Y-100380488D01*
X117778767Y-100299577D01*
X117614516Y-100249752D01*
X117443700Y-100232928D01*
X117418141Y-100232928D01*
X117420872Y-100205200D01*
X117420872Y-99566000D01*
X117541199Y-99566000D01*
X117596996Y-99621797D01*
%TA.AperFunction,Conductor*%
D20*
G36*
X117596996Y-99621797D02*
G01*
X117620799Y-99650801D01*
X117736524Y-99745774D01*
X117868553Y-99816346D01*
X118011814Y-99859803D01*
X118123467Y-99870800D01*
X118123476Y-99870800D01*
X118160799Y-99874476D01*
X118198122Y-99870800D01*
X119166799Y-99870800D01*
X119531787Y-100235788D01*
X119514450Y-100236000D01*
X119355700Y-100394750D01*
X119355700Y-101219000D01*
X119375700Y-101219000D01*
X119375700Y-101473000D01*
X119355700Y-101473000D01*
X119355700Y-101493000D01*
X119101700Y-101493000D01*
X119101700Y-101473000D01*
X119081700Y-101473000D01*
X119081700Y-101219000D01*
X119101700Y-101219000D01*
X119101700Y-100394750D01*
X118942950Y-100236000D01*
X118691200Y-100232928D01*
X118566718Y-100245188D01*
X118447020Y-100281498D01*
X118336706Y-100340463D01*
X118240015Y-100419815D01*
X118160663Y-100516506D01*
X118130854Y-100572273D01*
X118062823Y-100489377D01*
X117930142Y-100380488D01*
X117778767Y-100299577D01*
X117614516Y-100249752D01*
X117443700Y-100232928D01*
X117418141Y-100232928D01*
X117420872Y-100205200D01*
X117420872Y-99566000D01*
X117541199Y-99566000D01*
X117596996Y-99621797D01*
G37*
%TD.AperFunction*%
%TD*%
M02*
