%TF.GenerationSoftware,KiCad,Pcbnew,5.1.12-84ad8e8a86~92~ubuntu18.04.1*%
%TF.CreationDate,2023-10-21T06:49:18+07:00*%
%TF.ProjectId,RPi_FFC_15P-EYECLOUDAI_2MGSMOD_AR0234-ADAPTER,5250695f-4646-4435-9f31-35502d455945,rev?*%
%TF.SameCoordinates,Original*%
%TF.FileFunction,Legend,Bot*%
%TF.FilePolarity,Positive*%
%FSLAX46Y46*%
G04 Gerber Fmt 4.6, Leading zero omitted, Abs format (unit mm)*
G04 Created by KiCad (PCBNEW 5.1.12-84ad8e8a86~92~ubuntu18.04.1) date 2023-10-21 06:49:18*
%MOMM*%
%LPD*%
G01*
G04 APERTURE LIST*
%ADD10C,0.120000*%
%ADD11C,0.152400*%
%ADD12C,0.150000*%
G04 APERTURE END LIST*
D10*
%TO.C,R9*%
X126694476Y-103494100D02*
X127203924Y-103494100D01*
X126694476Y-102449100D02*
X127203924Y-102449100D01*
%TO.C,R8*%
X127203924Y-101868500D02*
X126694476Y-101868500D01*
X127203924Y-100823500D02*
X126694476Y-100823500D01*
%TO.C,R7*%
X123290876Y-100823500D02*
X123800324Y-100823500D01*
X123290876Y-101868500D02*
X123800324Y-101868500D01*
%TO.C,R6*%
X116535924Y-101868500D02*
X116026476Y-101868500D01*
X116535924Y-100823500D02*
X116026476Y-100823500D01*
%TO.C,Q1*%
X117962800Y-99515200D02*
X117962800Y-98055200D01*
X114802800Y-99515200D02*
X114802800Y-97355200D01*
X114802800Y-99515200D02*
X115732800Y-99515200D01*
X117962800Y-99515200D02*
X117032800Y-99515200D01*
%TO.C,C5*%
X120237467Y-101856000D02*
X119944933Y-101856000D01*
X120237467Y-100836000D02*
X119944933Y-100836000D01*
%TO.C,U3*%
X119748300Y-88455500D02*
X123990100Y-88455500D01*
X123990100Y-93713300D02*
X119748300Y-93713300D01*
%TO.C,R11*%
X127217700Y-92355124D02*
X127217700Y-91845676D01*
X126172700Y-92355124D02*
X126172700Y-91845676D01*
D11*
%TO.C,U2*%
X119679341Y-102957400D02*
X120503059Y-102957400D01*
X121743200Y-102957400D02*
X121743200Y-104611400D01*
X121743200Y-104611400D02*
X120704340Y-104611400D01*
X118439200Y-104611400D02*
X118439200Y-102957400D01*
X119478060Y-104611400D02*
X118439200Y-104611400D01*
X117423200Y-102534400D02*
G75*
G03*
X117423200Y-102534400I-127000J0D01*
G01*
D10*
%TO.C,R4*%
X122261100Y-103582376D02*
X122261100Y-104091824D01*
X123306100Y-103582376D02*
X123306100Y-104091824D01*
%TO.C,C4*%
X123797600Y-103688933D02*
X123797600Y-103981467D01*
X124817600Y-103688933D02*
X124817600Y-103981467D01*
%TO.C,R9*%
D12*
X127115866Y-104853980D02*
X127449200Y-104377790D01*
X127687295Y-104853980D02*
X127687295Y-103853980D01*
X127306342Y-103853980D01*
X127211104Y-103901600D01*
X127163485Y-103949219D01*
X127115866Y-104044457D01*
X127115866Y-104187314D01*
X127163485Y-104282552D01*
X127211104Y-104330171D01*
X127306342Y-104377790D01*
X127687295Y-104377790D01*
X126639676Y-104853980D02*
X126449200Y-104853980D01*
X126353961Y-104806361D01*
X126306342Y-104758742D01*
X126211104Y-104615885D01*
X126163485Y-104425409D01*
X126163485Y-104044457D01*
X126211104Y-103949219D01*
X126258723Y-103901600D01*
X126353961Y-103853980D01*
X126544438Y-103853980D01*
X126639676Y-103901600D01*
X126687295Y-103949219D01*
X126734914Y-104044457D01*
X126734914Y-104282552D01*
X126687295Y-104377790D01*
X126639676Y-104425409D01*
X126544438Y-104473028D01*
X126353961Y-104473028D01*
X126258723Y-104425409D01*
X126211104Y-104377790D01*
X126163485Y-104282552D01*
%TO.C,R8*%
X127115866Y-100368380D02*
X127449200Y-99892190D01*
X127687295Y-100368380D02*
X127687295Y-99368380D01*
X127306342Y-99368380D01*
X127211104Y-99416000D01*
X127163485Y-99463619D01*
X127115866Y-99558857D01*
X127115866Y-99701714D01*
X127163485Y-99796952D01*
X127211104Y-99844571D01*
X127306342Y-99892190D01*
X127687295Y-99892190D01*
X126544438Y-99796952D02*
X126639676Y-99749333D01*
X126687295Y-99701714D01*
X126734914Y-99606476D01*
X126734914Y-99558857D01*
X126687295Y-99463619D01*
X126639676Y-99416000D01*
X126544438Y-99368380D01*
X126353961Y-99368380D01*
X126258723Y-99416000D01*
X126211104Y-99463619D01*
X126163485Y-99558857D01*
X126163485Y-99606476D01*
X126211104Y-99701714D01*
X126258723Y-99749333D01*
X126353961Y-99796952D01*
X126544438Y-99796952D01*
X126639676Y-99844571D01*
X126687295Y-99892190D01*
X126734914Y-99987428D01*
X126734914Y-100177904D01*
X126687295Y-100273142D01*
X126639676Y-100320761D01*
X126544438Y-100368380D01*
X126353961Y-100368380D01*
X126258723Y-100320761D01*
X126211104Y-100273142D01*
X126163485Y-100177904D01*
X126163485Y-99987428D01*
X126211104Y-99892190D01*
X126258723Y-99844571D01*
X126353961Y-99796952D01*
%TO.C,R7*%
X123712266Y-100375980D02*
X124045600Y-99899790D01*
X124283695Y-100375980D02*
X124283695Y-99375980D01*
X123902742Y-99375980D01*
X123807504Y-99423600D01*
X123759885Y-99471219D01*
X123712266Y-99566457D01*
X123712266Y-99709314D01*
X123759885Y-99804552D01*
X123807504Y-99852171D01*
X123902742Y-99899790D01*
X124283695Y-99899790D01*
X123378933Y-99375980D02*
X122712266Y-99375980D01*
X123140838Y-100375980D01*
%TO.C,R6*%
X116295466Y-103423980D02*
X116628800Y-102947790D01*
X116866895Y-103423980D02*
X116866895Y-102423980D01*
X116485942Y-102423980D01*
X116390704Y-102471600D01*
X116343085Y-102519219D01*
X116295466Y-102614457D01*
X116295466Y-102757314D01*
X116343085Y-102852552D01*
X116390704Y-102900171D01*
X116485942Y-102947790D01*
X116866895Y-102947790D01*
X115438323Y-102423980D02*
X115628800Y-102423980D01*
X115724038Y-102471600D01*
X115771657Y-102519219D01*
X115866895Y-102662076D01*
X115914514Y-102852552D01*
X115914514Y-103233504D01*
X115866895Y-103328742D01*
X115819276Y-103376361D01*
X115724038Y-103423980D01*
X115533561Y-103423980D01*
X115438323Y-103376361D01*
X115390704Y-103328742D01*
X115343085Y-103233504D01*
X115343085Y-102995409D01*
X115390704Y-102900171D01*
X115438323Y-102852552D01*
X115533561Y-102804933D01*
X115724038Y-102804933D01*
X115819276Y-102852552D01*
X115866895Y-102900171D01*
X115914514Y-102995409D01*
%TO.C,Q1*%
X116478038Y-96915219D02*
X116573276Y-96867600D01*
X116668514Y-96772361D01*
X116811371Y-96629504D01*
X116906609Y-96581885D01*
X117001847Y-96581885D01*
X116954228Y-96819980D02*
X117049466Y-96772361D01*
X117144704Y-96677123D01*
X117192323Y-96486647D01*
X117192323Y-96153314D01*
X117144704Y-95962838D01*
X117049466Y-95867600D01*
X116954228Y-95819980D01*
X116763752Y-95819980D01*
X116668514Y-95867600D01*
X116573276Y-95962838D01*
X116525657Y-96153314D01*
X116525657Y-96486647D01*
X116573276Y-96677123D01*
X116668514Y-96772361D01*
X116763752Y-96819980D01*
X116954228Y-96819980D01*
X115573276Y-96819980D02*
X116144704Y-96819980D01*
X115858990Y-96819980D02*
X115858990Y-95819980D01*
X115954228Y-95962838D01*
X116049466Y-96058076D01*
X116144704Y-96105695D01*
%TO.C,C5*%
X120257866Y-100382342D02*
X120305485Y-100429961D01*
X120448342Y-100477580D01*
X120543580Y-100477580D01*
X120686438Y-100429961D01*
X120781676Y-100334723D01*
X120829295Y-100239485D01*
X120876914Y-100049009D01*
X120876914Y-99906152D01*
X120829295Y-99715676D01*
X120781676Y-99620438D01*
X120686438Y-99525200D01*
X120543580Y-99477580D01*
X120448342Y-99477580D01*
X120305485Y-99525200D01*
X120257866Y-99572819D01*
X119353104Y-99477580D02*
X119829295Y-99477580D01*
X119876914Y-99953771D01*
X119829295Y-99906152D01*
X119734057Y-99858533D01*
X119495961Y-99858533D01*
X119400723Y-99906152D01*
X119353104Y-99953771D01*
X119305485Y-100049009D01*
X119305485Y-100287104D01*
X119353104Y-100382342D01*
X119400723Y-100429961D01*
X119495961Y-100477580D01*
X119734057Y-100477580D01*
X119829295Y-100429961D01*
X119876914Y-100382342D01*
%TO.C,U3*%
X117703504Y-92568780D02*
X117703504Y-93378304D01*
X117655885Y-93473542D01*
X117608266Y-93521161D01*
X117513028Y-93568780D01*
X117322552Y-93568780D01*
X117227314Y-93521161D01*
X117179695Y-93473542D01*
X117132076Y-93378304D01*
X117132076Y-92568780D01*
X116751123Y-92568780D02*
X116132076Y-92568780D01*
X116465409Y-92949733D01*
X116322552Y-92949733D01*
X116227314Y-92997352D01*
X116179695Y-93044971D01*
X116132076Y-93140209D01*
X116132076Y-93378304D01*
X116179695Y-93473542D01*
X116227314Y-93521161D01*
X116322552Y-93568780D01*
X116608266Y-93568780D01*
X116703504Y-93521161D01*
X116751123Y-93473542D01*
X118891050Y-93635580D02*
X118891050Y-93873676D01*
X119129145Y-93778438D02*
X118891050Y-93873676D01*
X118652954Y-93778438D01*
X119033907Y-94064152D02*
X118891050Y-93873676D01*
X118748192Y-94064152D01*
X118891050Y-93635580D02*
X118891050Y-93873676D01*
X119129145Y-93778438D02*
X118891050Y-93873676D01*
X118652954Y-93778438D01*
X119033907Y-94064152D02*
X118891050Y-93873676D01*
X118748192Y-94064152D01*
%TO.C,R11*%
X127147580Y-88307942D02*
X126671390Y-87974609D01*
X127147580Y-87736514D02*
X126147580Y-87736514D01*
X126147580Y-88117466D01*
X126195200Y-88212704D01*
X126242819Y-88260323D01*
X126338057Y-88307942D01*
X126480914Y-88307942D01*
X126576152Y-88260323D01*
X126623771Y-88212704D01*
X126671390Y-88117466D01*
X126671390Y-87736514D01*
X127147580Y-89260323D02*
X127147580Y-88688895D01*
X127147580Y-88974609D02*
X126147580Y-88974609D01*
X126290438Y-88879371D01*
X126385676Y-88784133D01*
X126433295Y-88688895D01*
X127147580Y-90212704D02*
X127147580Y-89641276D01*
X127147580Y-89926990D02*
X126147580Y-89926990D01*
X126290438Y-89831752D01*
X126385676Y-89736514D01*
X126433295Y-89641276D01*
%TO.C,U2*%
X120853104Y-105624380D02*
X120853104Y-106433904D01*
X120805485Y-106529142D01*
X120757866Y-106576761D01*
X120662628Y-106624380D01*
X120472152Y-106624380D01*
X120376914Y-106576761D01*
X120329295Y-106529142D01*
X120281676Y-106433904D01*
X120281676Y-105624380D01*
X119853104Y-105719619D02*
X119805485Y-105672000D01*
X119710247Y-105624380D01*
X119472152Y-105624380D01*
X119376914Y-105672000D01*
X119329295Y-105719619D01*
X119281676Y-105814857D01*
X119281676Y-105910095D01*
X119329295Y-106052952D01*
X119900723Y-106624380D01*
X119281676Y-106624380D01*
%TO.C,R4*%
X123235980Y-106259333D02*
X122759790Y-105926000D01*
X123235980Y-105687904D02*
X122235980Y-105687904D01*
X122235980Y-106068857D01*
X122283600Y-106164095D01*
X122331219Y-106211714D01*
X122426457Y-106259333D01*
X122569314Y-106259333D01*
X122664552Y-106211714D01*
X122712171Y-106164095D01*
X122759790Y-106068857D01*
X122759790Y-105687904D01*
X122569314Y-107116476D02*
X123235980Y-107116476D01*
X122188361Y-106878380D02*
X122902647Y-106640285D01*
X122902647Y-107259333D01*
%TO.C,C4*%
X124715542Y-106310133D02*
X124763161Y-106262514D01*
X124810780Y-106119657D01*
X124810780Y-106024419D01*
X124763161Y-105881561D01*
X124667923Y-105786323D01*
X124572685Y-105738704D01*
X124382209Y-105691085D01*
X124239352Y-105691085D01*
X124048876Y-105738704D01*
X123953638Y-105786323D01*
X123858400Y-105881561D01*
X123810780Y-106024419D01*
X123810780Y-106119657D01*
X123858400Y-106262514D01*
X123906019Y-106310133D01*
X124144114Y-107167276D02*
X124810780Y-107167276D01*
X123763161Y-106929180D02*
X124477447Y-106691085D01*
X124477447Y-107310133D01*
%TD*%
M02*
