%TF.GenerationSoftware,KiCad,Pcbnew,5.1.12-84ad8e8a86~92~ubuntu18.04.1*%
%TF.CreationDate,2023-10-21T06:49:18+07:00*%
%TF.ProjectId,RPi_FFC_15P-EYECLOUDAI_2MGSMOD_AR0234-ADAPTER,5250695f-4646-4435-9f31-35502d455945,rev?*%
%TF.SameCoordinates,Original*%
%TF.FileFunction,Legend,Top*%
%TF.FilePolarity,Positive*%
%FSLAX46Y46*%
G04 Gerber Fmt 4.6, Leading zero omitted, Abs format (unit mm)*
G04 Created by KiCad (PCBNEW 5.1.12-84ad8e8a86~92~ubuntu18.04.1) date 2023-10-21 06:49:18*
%MOMM*%
%LPD*%
G01*
G04 APERTURE LIST*
%ADD10C,0.150000*%
%ADD11C,0.100000*%
%ADD12C,0.120000*%
%ADD13C,0.127000*%
%ADD14C,0.200000*%
G04 APERTURE END LIST*
D10*
X133146800Y-93093314D02*
X133218228Y-93164742D01*
X133146800Y-93236171D01*
X133075371Y-93164742D01*
X133146800Y-93093314D01*
X133146800Y-93236171D01*
D11*
X128116247Y-113853980D02*
X127640057Y-113853980D01*
X127592438Y-114330171D01*
X127640057Y-114282552D01*
X127735295Y-114234933D01*
X127973390Y-114234933D01*
X128068628Y-114282552D01*
X128116247Y-114330171D01*
X128163866Y-114425409D01*
X128163866Y-114663504D01*
X128116247Y-114758742D01*
X128068628Y-114806361D01*
X127973390Y-114853980D01*
X127735295Y-114853980D01*
X127640057Y-114806361D01*
X127592438Y-114758742D01*
X128449580Y-113853980D02*
X128782914Y-114853980D01*
X129116247Y-113853980D01*
X129211485Y-114949219D02*
X129973390Y-114949219D01*
X130211485Y-114330171D02*
X130544819Y-114330171D01*
X130687676Y-114853980D02*
X130211485Y-114853980D01*
X130211485Y-113853980D01*
X130687676Y-113853980D01*
X131021009Y-113853980D02*
X131687676Y-114853980D01*
X131687676Y-113853980D02*
X131021009Y-114853980D01*
X131925771Y-113853980D02*
X132497200Y-113853980D01*
X132211485Y-114853980D02*
X132211485Y-113853980D01*
X113233390Y-78243180D02*
X113804819Y-78243180D01*
X113519104Y-79243180D02*
X113519104Y-78243180D01*
X114709580Y-79243180D02*
X114376247Y-78766990D01*
X114138152Y-79243180D02*
X114138152Y-78243180D01*
X114519104Y-78243180D01*
X114614342Y-78290800D01*
X114661961Y-78338419D01*
X114709580Y-78433657D01*
X114709580Y-78576514D01*
X114661961Y-78671752D01*
X114614342Y-78719371D01*
X114519104Y-78766990D01*
X114138152Y-78766990D01*
X115138152Y-79243180D02*
X115138152Y-78243180D01*
X116138152Y-78290800D02*
X116042914Y-78243180D01*
X115900057Y-78243180D01*
X115757200Y-78290800D01*
X115661961Y-78386038D01*
X115614342Y-78481276D01*
X115566723Y-78671752D01*
X115566723Y-78814609D01*
X115614342Y-79005085D01*
X115661961Y-79100323D01*
X115757200Y-79195561D01*
X115900057Y-79243180D01*
X115995295Y-79243180D01*
X116138152Y-79195561D01*
X116185771Y-79147942D01*
X116185771Y-78814609D01*
X115995295Y-78814609D01*
D10*
X112328057Y-86038180D02*
X112128057Y-85561990D01*
X111985200Y-86038180D02*
X111985200Y-85038180D01*
X112213771Y-85038180D01*
X112270914Y-85085800D01*
X112299485Y-85133419D01*
X112328057Y-85228657D01*
X112328057Y-85371514D01*
X112299485Y-85466752D01*
X112270914Y-85514371D01*
X112213771Y-85561990D01*
X111985200Y-85561990D01*
X112585200Y-86038180D02*
X112585200Y-85038180D01*
X112813771Y-85038180D01*
X112870914Y-85085800D01*
X112899485Y-85133419D01*
X112928057Y-85228657D01*
X112928057Y-85371514D01*
X112899485Y-85466752D01*
X112870914Y-85514371D01*
X112813771Y-85561990D01*
X112585200Y-85561990D01*
X113185200Y-86038180D02*
X113185200Y-85371514D01*
X113185200Y-85038180D02*
X113156628Y-85085800D01*
X113185200Y-85133419D01*
X113213771Y-85085800D01*
X113185200Y-85038180D01*
X113185200Y-85133419D01*
X113328057Y-86133419D02*
X113785200Y-86133419D01*
X114128057Y-85514371D02*
X113928057Y-85514371D01*
X113928057Y-86038180D02*
X113928057Y-85038180D01*
X114213771Y-85038180D01*
X114642342Y-85514371D02*
X114442342Y-85514371D01*
X114442342Y-86038180D02*
X114442342Y-85038180D01*
X114728057Y-85038180D01*
X115299485Y-85942942D02*
X115270914Y-85990561D01*
X115185200Y-86038180D01*
X115128057Y-86038180D01*
X115042342Y-85990561D01*
X114985200Y-85895323D01*
X114956628Y-85800085D01*
X114928057Y-85609609D01*
X114928057Y-85466752D01*
X114956628Y-85276276D01*
X114985200Y-85181038D01*
X115042342Y-85085800D01*
X115128057Y-85038180D01*
X115185200Y-85038180D01*
X115270914Y-85085800D01*
X115299485Y-85133419D01*
X115413771Y-86133419D02*
X115870914Y-86133419D01*
X116328057Y-86038180D02*
X115985200Y-86038180D01*
X116156628Y-86038180D02*
X116156628Y-85038180D01*
X116099485Y-85181038D01*
X116042342Y-85276276D01*
X115985200Y-85323895D01*
X116870914Y-85038180D02*
X116585200Y-85038180D01*
X116556628Y-85514371D01*
X116585200Y-85466752D01*
X116642342Y-85419133D01*
X116785200Y-85419133D01*
X116842342Y-85466752D01*
X116870914Y-85514371D01*
X116899485Y-85609609D01*
X116899485Y-85847704D01*
X116870914Y-85942942D01*
X116842342Y-85990561D01*
X116785200Y-86038180D01*
X116642342Y-86038180D01*
X116585200Y-85990561D01*
X116556628Y-85942942D01*
X117156628Y-86038180D02*
X117156628Y-85038180D01*
X117385200Y-85038180D01*
X117442342Y-85085800D01*
X117470914Y-85133419D01*
X117499485Y-85228657D01*
X117499485Y-85371514D01*
X117470914Y-85466752D01*
X117442342Y-85514371D01*
X117385200Y-85561990D01*
X117156628Y-85561990D01*
X118213771Y-85657228D02*
X118670914Y-85657228D01*
X119413771Y-85514371D02*
X119613771Y-85514371D01*
X119699485Y-86038180D02*
X119413771Y-86038180D01*
X119413771Y-85038180D01*
X119699485Y-85038180D01*
X120070914Y-85561990D02*
X120070914Y-86038180D01*
X119870914Y-85038180D02*
X120070914Y-85561990D01*
X120270914Y-85038180D01*
X120470914Y-85514371D02*
X120670914Y-85514371D01*
X120756628Y-86038180D02*
X120470914Y-86038180D01*
X120470914Y-85038180D01*
X120756628Y-85038180D01*
X121356628Y-85942942D02*
X121328057Y-85990561D01*
X121242342Y-86038180D01*
X121185200Y-86038180D01*
X121099485Y-85990561D01*
X121042342Y-85895323D01*
X121013771Y-85800085D01*
X120985200Y-85609609D01*
X120985200Y-85466752D01*
X121013771Y-85276276D01*
X121042342Y-85181038D01*
X121099485Y-85085800D01*
X121185200Y-85038180D01*
X121242342Y-85038180D01*
X121328057Y-85085800D01*
X121356628Y-85133419D01*
X121899485Y-86038180D02*
X121613771Y-86038180D01*
X121613771Y-85038180D01*
X122213771Y-85038180D02*
X122328057Y-85038180D01*
X122385200Y-85085800D01*
X122442342Y-85181038D01*
X122470914Y-85371514D01*
X122470914Y-85704847D01*
X122442342Y-85895323D01*
X122385200Y-85990561D01*
X122328057Y-86038180D01*
X122213771Y-86038180D01*
X122156628Y-85990561D01*
X122099485Y-85895323D01*
X122070914Y-85704847D01*
X122070914Y-85371514D01*
X122099485Y-85181038D01*
X122156628Y-85085800D01*
X122213771Y-85038180D01*
X122728057Y-85038180D02*
X122728057Y-85847704D01*
X122756628Y-85942942D01*
X122785200Y-85990561D01*
X122842342Y-86038180D01*
X122956628Y-86038180D01*
X123013771Y-85990561D01*
X123042342Y-85942942D01*
X123070914Y-85847704D01*
X123070914Y-85038180D01*
X123356628Y-86038180D02*
X123356628Y-85038180D01*
X123499485Y-85038180D01*
X123585200Y-85085800D01*
X123642342Y-85181038D01*
X123670914Y-85276276D01*
X123699485Y-85466752D01*
X123699485Y-85609609D01*
X123670914Y-85800085D01*
X123642342Y-85895323D01*
X123585200Y-85990561D01*
X123499485Y-86038180D01*
X123356628Y-86038180D01*
X123928057Y-85752466D02*
X124213771Y-85752466D01*
X123870914Y-86038180D02*
X124070914Y-85038180D01*
X124270914Y-86038180D01*
X124470914Y-86038180D02*
X124470914Y-85038180D01*
X124613771Y-86133419D02*
X125070914Y-86133419D01*
X125185200Y-85752466D02*
X125470914Y-85752466D01*
X125128057Y-86038180D02*
X125328057Y-85038180D01*
X125528057Y-86038180D01*
X126070914Y-86038180D02*
X125870914Y-85561990D01*
X125728057Y-86038180D02*
X125728057Y-85038180D01*
X125956628Y-85038180D01*
X126013771Y-85085800D01*
X126042342Y-85133419D01*
X126070914Y-85228657D01*
X126070914Y-85371514D01*
X126042342Y-85466752D01*
X126013771Y-85514371D01*
X125956628Y-85561990D01*
X125728057Y-85561990D01*
X126442342Y-85038180D02*
X126499485Y-85038180D01*
X126556628Y-85085800D01*
X126585200Y-85133419D01*
X126613771Y-85228657D01*
X126642342Y-85419133D01*
X126642342Y-85657228D01*
X126613771Y-85847704D01*
X126585200Y-85942942D01*
X126556628Y-85990561D01*
X126499485Y-86038180D01*
X126442342Y-86038180D01*
X126385200Y-85990561D01*
X126356628Y-85942942D01*
X126328057Y-85847704D01*
X126299485Y-85657228D01*
X126299485Y-85419133D01*
X126328057Y-85228657D01*
X126356628Y-85133419D01*
X126385200Y-85085800D01*
X126442342Y-85038180D01*
X126870914Y-85133419D02*
X126899485Y-85085800D01*
X126956628Y-85038180D01*
X127099485Y-85038180D01*
X127156628Y-85085800D01*
X127185200Y-85133419D01*
X127213771Y-85228657D01*
X127213771Y-85323895D01*
X127185200Y-85466752D01*
X126842342Y-86038180D01*
X127213771Y-86038180D01*
X127413771Y-85038180D02*
X127785200Y-85038180D01*
X127585200Y-85419133D01*
X127670914Y-85419133D01*
X127728057Y-85466752D01*
X127756628Y-85514371D01*
X127785200Y-85609609D01*
X127785200Y-85847704D01*
X127756628Y-85942942D01*
X127728057Y-85990561D01*
X127670914Y-86038180D01*
X127499485Y-86038180D01*
X127442342Y-85990561D01*
X127413771Y-85942942D01*
X128299485Y-85371514D02*
X128299485Y-86038180D01*
X128156628Y-84990561D02*
X128013771Y-85704847D01*
X128385200Y-85704847D01*
X128956628Y-85942942D02*
X128928057Y-85990561D01*
X128842342Y-86038180D01*
X128785200Y-86038180D01*
X128699485Y-85990561D01*
X128642342Y-85895323D01*
X128613771Y-85800085D01*
X128585200Y-85609609D01*
X128585200Y-85466752D01*
X128613771Y-85276276D01*
X128642342Y-85181038D01*
X128699485Y-85085800D01*
X128785200Y-85038180D01*
X128842342Y-85038180D01*
X128928057Y-85085800D01*
X128956628Y-85133419D01*
X129185200Y-85990561D02*
X129270914Y-86038180D01*
X129413771Y-86038180D01*
X129470914Y-85990561D01*
X129499485Y-85942942D01*
X129528057Y-85847704D01*
X129528057Y-85752466D01*
X129499485Y-85657228D01*
X129470914Y-85609609D01*
X129413771Y-85561990D01*
X129299485Y-85514371D01*
X129242342Y-85466752D01*
X129213771Y-85419133D01*
X129185200Y-85323895D01*
X129185200Y-85228657D01*
X129213771Y-85133419D01*
X129242342Y-85085800D01*
X129299485Y-85038180D01*
X129442342Y-85038180D01*
X129528057Y-85085800D01*
X130213771Y-85752466D02*
X130499485Y-85752466D01*
X130156628Y-86038180D02*
X130356628Y-85038180D01*
X130556628Y-86038180D01*
X130756628Y-86038180D02*
X130756628Y-85038180D01*
X130899485Y-85038180D01*
X130985200Y-85085800D01*
X131042342Y-85181038D01*
X131070914Y-85276276D01*
X131099485Y-85466752D01*
X131099485Y-85609609D01*
X131070914Y-85800085D01*
X131042342Y-85895323D01*
X130985200Y-85990561D01*
X130899485Y-86038180D01*
X130756628Y-86038180D01*
X131328057Y-85752466D02*
X131613771Y-85752466D01*
X131270914Y-86038180D02*
X131470914Y-85038180D01*
X131670914Y-86038180D01*
X131870914Y-86038180D02*
X131870914Y-85038180D01*
X132099485Y-85038180D01*
X132156628Y-85085800D01*
X132185200Y-85133419D01*
X132213771Y-85228657D01*
X132213771Y-85371514D01*
X132185200Y-85466752D01*
X132156628Y-85514371D01*
X132099485Y-85561990D01*
X131870914Y-85561990D01*
X132385200Y-85038180D02*
X132728057Y-85038180D01*
X132556628Y-86038180D02*
X132556628Y-85038180D01*
X132928057Y-85514371D02*
X133128057Y-85514371D01*
X133213771Y-86038180D02*
X132928057Y-86038180D01*
X132928057Y-85038180D01*
X133213771Y-85038180D01*
X133813771Y-86038180D02*
X133613771Y-85561990D01*
X133470914Y-86038180D02*
X133470914Y-85038180D01*
X133699485Y-85038180D01*
X133756628Y-85085800D01*
X133785200Y-85133419D01*
X133813771Y-85228657D01*
X133813771Y-85371514D01*
X133785200Y-85466752D01*
X133756628Y-85514371D01*
X133699485Y-85561990D01*
X133470914Y-85561990D01*
X121599485Y-87688180D02*
X121399485Y-87211990D01*
X121256628Y-87688180D02*
X121256628Y-86688180D01*
X121485200Y-86688180D01*
X121542342Y-86735800D01*
X121570914Y-86783419D01*
X121599485Y-86878657D01*
X121599485Y-87021514D01*
X121570914Y-87116752D01*
X121542342Y-87164371D01*
X121485200Y-87211990D01*
X121256628Y-87211990D01*
X122085200Y-87640561D02*
X122028057Y-87688180D01*
X121913771Y-87688180D01*
X121856628Y-87640561D01*
X121828057Y-87545323D01*
X121828057Y-87164371D01*
X121856628Y-87069133D01*
X121913771Y-87021514D01*
X122028057Y-87021514D01*
X122085200Y-87069133D01*
X122113771Y-87164371D01*
X122113771Y-87259609D01*
X121828057Y-87354847D01*
X122313771Y-87021514D02*
X122456628Y-87688180D01*
X122599485Y-87021514D01*
X122828057Y-87592942D02*
X122856628Y-87640561D01*
X122828057Y-87688180D01*
X122799485Y-87640561D01*
X122828057Y-87592942D01*
X122828057Y-87688180D01*
X123485200Y-86688180D02*
X123685200Y-87688180D01*
X123885200Y-86688180D01*
X124399485Y-87688180D02*
X124056628Y-87688180D01*
X124228057Y-87688180D02*
X124228057Y-86688180D01*
X124170914Y-86831038D01*
X124113771Y-86926276D01*
X124056628Y-86973895D01*
X124856628Y-87164371D02*
X124942342Y-87211990D01*
X124970914Y-87259609D01*
X124999485Y-87354847D01*
X124999485Y-87497704D01*
X124970914Y-87592942D01*
X124942342Y-87640561D01*
X124885200Y-87688180D01*
X124656628Y-87688180D01*
X124656628Y-86688180D01*
X124856628Y-86688180D01*
X124913771Y-86735800D01*
X124942342Y-86783419D01*
X124970914Y-86878657D01*
X124970914Y-86973895D01*
X124942342Y-87069133D01*
X124913771Y-87116752D01*
X124856628Y-87164371D01*
X124656628Y-87164371D01*
D12*
%TO.C,R10*%
X130758476Y-101534700D02*
X131267924Y-101534700D01*
X130758476Y-102579700D02*
X131267924Y-102579700D01*
%TO.C,R5*%
X119467100Y-103631276D02*
X119467100Y-104140724D01*
X120512100Y-103631276D02*
X120512100Y-104140724D01*
%TO.C,JP1*%
X120289600Y-108689600D02*
X119689600Y-108689600D01*
X120989600Y-106589600D02*
X120989600Y-107989600D01*
X119689600Y-105889600D02*
X120289600Y-105889600D01*
X118989600Y-107989600D02*
X118989600Y-106589600D01*
X119689600Y-108689600D02*
G75*
G02*
X118989600Y-107989600I0J700000D01*
G01*
X120989600Y-107989600D02*
G75*
G02*
X120289600Y-108689600I-700000J0D01*
G01*
X120289600Y-105889600D02*
G75*
G02*
X120989600Y-106589600I0J-700000D01*
G01*
X118989600Y-106589600D02*
G75*
G02*
X119689600Y-105889600I700000J0D01*
G01*
%TO.C,U1*%
X124498100Y-110032800D02*
X126352300Y-110032800D01*
X126352300Y-108821261D02*
X126352300Y-108094739D01*
X126352300Y-106883200D02*
X124498100Y-106883200D01*
D13*
%TO.C,J1*%
X104699600Y-107980000D02*
X104699600Y-85060000D01*
X105589600Y-107980000D02*
X105589600Y-107195000D01*
X105589600Y-85845000D02*
X105589600Y-85060000D01*
D14*
X111369600Y-88520000D02*
G75*
G03*
X111369600Y-88520000I-100000J0D01*
G01*
D13*
X106099600Y-107195000D02*
X105589600Y-107195000D01*
X106099600Y-85845000D02*
X105589600Y-85845000D01*
X104699600Y-85060000D02*
X105589600Y-85060000D01*
X105589600Y-107980000D02*
X104699600Y-107980000D01*
X110099600Y-104160000D02*
X110099600Y-104720000D01*
X110099600Y-88320000D02*
X110099600Y-88880000D01*
%TO.C,J2*%
X139068400Y-110646600D02*
X139068400Y-90216600D01*
X139068400Y-90216600D02*
X138118400Y-90216600D01*
X139068400Y-110646600D02*
X138118400Y-110646600D01*
D12*
%TO.C,X1*%
X128712800Y-102390800D02*
X129242800Y-102390800D01*
X129242800Y-102390800D02*
X129242800Y-105990800D01*
X129242800Y-105990800D02*
X128712800Y-105990800D01*
X126172800Y-102390800D02*
X126912800Y-102390800D01*
X124372800Y-106230800D02*
X124372800Y-105990800D01*
X124372800Y-105990800D02*
X123842800Y-105990800D01*
X123842800Y-105990800D02*
X123842800Y-102390800D01*
X123842800Y-102390800D02*
X124372800Y-102390800D01*
X126912800Y-105990800D02*
X126172800Y-105990800D01*
X126172800Y-105990800D02*
X126172800Y-106230800D01*
%TO.C,R3*%
X132246900Y-104240876D02*
X132246900Y-104750324D01*
X131201900Y-104240876D02*
X131201900Y-104750324D01*
%TO.C,R2*%
X129677900Y-104240876D02*
X129677900Y-104750324D01*
X130722900Y-104240876D02*
X130722900Y-104750324D01*
%TO.C,R1*%
X122261100Y-104089924D02*
X122261100Y-103580476D01*
X123306100Y-104089924D02*
X123306100Y-103580476D01*
%TO.C,C3*%
X128936533Y-107389200D02*
X129229067Y-107389200D01*
X128936533Y-108409200D02*
X129229067Y-108409200D01*
%TO.C,C2*%
X128936533Y-108913200D02*
X129229067Y-108913200D01*
X128936533Y-109933200D02*
X129229067Y-109933200D01*
%TO.C,C1*%
X123293600Y-107143333D02*
X123293600Y-107435867D01*
X122273600Y-107143333D02*
X122273600Y-107435867D01*
D11*
%TO.C,P2*%
X119729200Y-110852400D02*
G75*
G03*
X119729200Y-110852400I-150000J0D01*
G01*
D13*
X119129200Y-112602400D02*
X119129200Y-111552400D01*
X119129200Y-111552400D02*
X119929200Y-111552400D01*
X123829200Y-111552400D02*
X124629200Y-111552400D01*
X124629200Y-111552400D02*
X124629200Y-112602400D01*
X119379200Y-115752400D02*
X124379200Y-115752400D01*
%TO.C,P1*%
X124369200Y-77359400D02*
X119369200Y-77359400D01*
X119119200Y-81559400D02*
X119119200Y-80509400D01*
X119919200Y-81559400D02*
X119119200Y-81559400D01*
X124619200Y-81559400D02*
X123819200Y-81559400D01*
X124619200Y-80509400D02*
X124619200Y-81559400D01*
D11*
X124319200Y-82259400D02*
G75*
G03*
X124319200Y-82259400I-150000J0D01*
G01*
%TO.C,R10*%
D10*
X130370342Y-101079580D02*
X130037009Y-100603390D01*
X129798914Y-101079580D02*
X129798914Y-100079580D01*
X130179866Y-100079580D01*
X130275104Y-100127200D01*
X130322723Y-100174819D01*
X130370342Y-100270057D01*
X130370342Y-100412914D01*
X130322723Y-100508152D01*
X130275104Y-100555771D01*
X130179866Y-100603390D01*
X129798914Y-100603390D01*
X131322723Y-101079580D02*
X130751295Y-101079580D01*
X131037009Y-101079580D02*
X131037009Y-100079580D01*
X130941771Y-100222438D01*
X130846533Y-100317676D01*
X130751295Y-100365295D01*
X131941771Y-100079580D02*
X132037009Y-100079580D01*
X132132247Y-100127200D01*
X132179866Y-100174819D01*
X132227485Y-100270057D01*
X132275104Y-100460533D01*
X132275104Y-100698628D01*
X132227485Y-100889104D01*
X132179866Y-100984342D01*
X132132247Y-101031961D01*
X132037009Y-101079580D01*
X131941771Y-101079580D01*
X131846533Y-101031961D01*
X131798914Y-100984342D01*
X131751295Y-100889104D01*
X131703676Y-100698628D01*
X131703676Y-100460533D01*
X131751295Y-100270057D01*
X131798914Y-100174819D01*
X131846533Y-100127200D01*
X131941771Y-100079580D01*
%TO.C,R5*%
X120441980Y-101411066D02*
X119965790Y-101744400D01*
X120441980Y-101982495D02*
X119441980Y-101982495D01*
X119441980Y-101601542D01*
X119489600Y-101506304D01*
X119537219Y-101458685D01*
X119632457Y-101411066D01*
X119775314Y-101411066D01*
X119870552Y-101458685D01*
X119918171Y-101506304D01*
X119965790Y-101601542D01*
X119965790Y-101982495D01*
X119441980Y-100506304D02*
X119441980Y-100982495D01*
X119918171Y-101030114D01*
X119870552Y-100982495D01*
X119822933Y-100887257D01*
X119822933Y-100649161D01*
X119870552Y-100553923D01*
X119918171Y-100506304D01*
X120013409Y-100458685D01*
X120251504Y-100458685D01*
X120346742Y-100506304D01*
X120394361Y-100553923D01*
X120441980Y-100649161D01*
X120441980Y-100887257D01*
X120394361Y-100982495D01*
X120346742Y-101030114D01*
%TO.C,JP1*%
X117409980Y-108122933D02*
X118124266Y-108122933D01*
X118267123Y-108170552D01*
X118362361Y-108265790D01*
X118409980Y-108408647D01*
X118409980Y-108503885D01*
X118409980Y-107646742D02*
X117409980Y-107646742D01*
X117409980Y-107265790D01*
X117457600Y-107170552D01*
X117505219Y-107122933D01*
X117600457Y-107075314D01*
X117743314Y-107075314D01*
X117838552Y-107122933D01*
X117886171Y-107170552D01*
X117933790Y-107265790D01*
X117933790Y-107646742D01*
X118409980Y-106122933D02*
X118409980Y-106694361D01*
X118409980Y-106408647D02*
X117409980Y-106408647D01*
X117552838Y-106503885D01*
X117648076Y-106599123D01*
X117695695Y-106694361D01*
%TO.C,U1*%
X124663295Y-110551980D02*
X124663295Y-111361504D01*
X124710914Y-111456742D01*
X124758533Y-111504361D01*
X124853771Y-111551980D01*
X125044247Y-111551980D01*
X125139485Y-111504361D01*
X125187104Y-111456742D01*
X125234723Y-111361504D01*
X125234723Y-110551980D01*
X126234723Y-111551980D02*
X125663295Y-111551980D01*
X125949009Y-111551980D02*
X125949009Y-110551980D01*
X125853771Y-110694838D01*
X125758533Y-110790076D01*
X125663295Y-110837695D01*
X123894850Y-105309380D02*
X123894850Y-105547476D01*
X123656754Y-105452238D02*
X123894850Y-105547476D01*
X124132945Y-105452238D01*
X123751992Y-105737952D02*
X123894850Y-105547476D01*
X124037707Y-105737952D01*
X123894850Y-105309380D02*
X123894850Y-105547476D01*
X123656754Y-105452238D02*
X123894850Y-105547476D01*
X124132945Y-105452238D01*
X123751992Y-105737952D02*
X123894850Y-105547476D01*
X124037707Y-105737952D01*
%TO.C,J1*%
X110958380Y-88014133D02*
X111672666Y-88014133D01*
X111815523Y-88061752D01*
X111910761Y-88156990D01*
X111958380Y-88299847D01*
X111958380Y-88395085D01*
X111958380Y-87014133D02*
X111958380Y-87585561D01*
X111958380Y-87299847D02*
X110958380Y-87299847D01*
X111101238Y-87395085D01*
X111196476Y-87490323D01*
X111244095Y-87585561D01*
%TO.C,J2*%
X132599180Y-92586133D02*
X133313466Y-92586133D01*
X133456323Y-92633752D01*
X133551561Y-92728990D01*
X133599180Y-92871847D01*
X133599180Y-92967085D01*
X132694419Y-92157561D02*
X132646800Y-92109942D01*
X132599180Y-92014704D01*
X132599180Y-91776609D01*
X132646800Y-91681371D01*
X132694419Y-91633752D01*
X132789657Y-91586133D01*
X132884895Y-91586133D01*
X133027752Y-91633752D01*
X133599180Y-92205180D01*
X133599180Y-91586133D01*
%TO.C,X1*%
X124463276Y-101001580D02*
X125129942Y-102001580D01*
X125129942Y-101001580D02*
X124463276Y-102001580D01*
X126034704Y-102001580D02*
X125463276Y-102001580D01*
X125748990Y-102001580D02*
X125748990Y-101001580D01*
X125653752Y-101144438D01*
X125558514Y-101239676D01*
X125463276Y-101287295D01*
%TO.C,R3*%
X132218133Y-107081580D02*
X131884800Y-106605390D01*
X131646704Y-107081580D02*
X131646704Y-106081580D01*
X132027657Y-106081580D01*
X132122895Y-106129200D01*
X132170514Y-106176819D01*
X132218133Y-106272057D01*
X132218133Y-106414914D01*
X132170514Y-106510152D01*
X132122895Y-106557771D01*
X132027657Y-106605390D01*
X131646704Y-106605390D01*
X132551466Y-106081580D02*
X133170514Y-106081580D01*
X132837180Y-106462533D01*
X132980038Y-106462533D01*
X133075276Y-106510152D01*
X133122895Y-106557771D01*
X133170514Y-106653009D01*
X133170514Y-106891104D01*
X133122895Y-106986342D01*
X133075276Y-107033961D01*
X132980038Y-107081580D01*
X132694323Y-107081580D01*
X132599085Y-107033961D01*
X132551466Y-106986342D01*
%TO.C,R2*%
X129830533Y-107081580D02*
X129497200Y-106605390D01*
X129259104Y-107081580D02*
X129259104Y-106081580D01*
X129640057Y-106081580D01*
X129735295Y-106129200D01*
X129782914Y-106176819D01*
X129830533Y-106272057D01*
X129830533Y-106414914D01*
X129782914Y-106510152D01*
X129735295Y-106557771D01*
X129640057Y-106605390D01*
X129259104Y-106605390D01*
X130211485Y-106176819D02*
X130259104Y-106129200D01*
X130354342Y-106081580D01*
X130592438Y-106081580D01*
X130687676Y-106129200D01*
X130735295Y-106176819D01*
X130782914Y-106272057D01*
X130782914Y-106367295D01*
X130735295Y-106510152D01*
X130163866Y-107081580D01*
X130782914Y-107081580D01*
%TO.C,R1*%
X123235980Y-101411066D02*
X122759790Y-101744400D01*
X123235980Y-101982495D02*
X122235980Y-101982495D01*
X122235980Y-101601542D01*
X122283600Y-101506304D01*
X122331219Y-101458685D01*
X122426457Y-101411066D01*
X122569314Y-101411066D01*
X122664552Y-101458685D01*
X122712171Y-101506304D01*
X122759790Y-101601542D01*
X122759790Y-101982495D01*
X123235980Y-100458685D02*
X123235980Y-101030114D01*
X123235980Y-100744400D02*
X122235980Y-100744400D01*
X122378838Y-100839638D01*
X122474076Y-100934876D01*
X122521695Y-101030114D01*
%TO.C,C3*%
X131608533Y-108307142D02*
X131560914Y-108354761D01*
X131418057Y-108402380D01*
X131322819Y-108402380D01*
X131179961Y-108354761D01*
X131084723Y-108259523D01*
X131037104Y-108164285D01*
X130989485Y-107973809D01*
X130989485Y-107830952D01*
X131037104Y-107640476D01*
X131084723Y-107545238D01*
X131179961Y-107450000D01*
X131322819Y-107402380D01*
X131418057Y-107402380D01*
X131560914Y-107450000D01*
X131608533Y-107497619D01*
X131941866Y-107402380D02*
X132560914Y-107402380D01*
X132227580Y-107783333D01*
X132370438Y-107783333D01*
X132465676Y-107830952D01*
X132513295Y-107878571D01*
X132560914Y-107973809D01*
X132560914Y-108211904D01*
X132513295Y-108307142D01*
X132465676Y-108354761D01*
X132370438Y-108402380D01*
X132084723Y-108402380D01*
X131989485Y-108354761D01*
X131941866Y-108307142D01*
%TO.C,C2*%
X131506933Y-109831142D02*
X131459314Y-109878761D01*
X131316457Y-109926380D01*
X131221219Y-109926380D01*
X131078361Y-109878761D01*
X130983123Y-109783523D01*
X130935504Y-109688285D01*
X130887885Y-109497809D01*
X130887885Y-109354952D01*
X130935504Y-109164476D01*
X130983123Y-109069238D01*
X131078361Y-108974000D01*
X131221219Y-108926380D01*
X131316457Y-108926380D01*
X131459314Y-108974000D01*
X131506933Y-109021619D01*
X131887885Y-109021619D02*
X131935504Y-108974000D01*
X132030742Y-108926380D01*
X132268838Y-108926380D01*
X132364076Y-108974000D01*
X132411695Y-109021619D01*
X132459314Y-109116857D01*
X132459314Y-109212095D01*
X132411695Y-109354952D01*
X131840266Y-109926380D01*
X132459314Y-109926380D01*
%TO.C,C1*%
X122870933Y-109831142D02*
X122823314Y-109878761D01*
X122680457Y-109926380D01*
X122585219Y-109926380D01*
X122442361Y-109878761D01*
X122347123Y-109783523D01*
X122299504Y-109688285D01*
X122251885Y-109497809D01*
X122251885Y-109354952D01*
X122299504Y-109164476D01*
X122347123Y-109069238D01*
X122442361Y-108974000D01*
X122585219Y-108926380D01*
X122680457Y-108926380D01*
X122823314Y-108974000D01*
X122870933Y-109021619D01*
X123823314Y-109926380D02*
X123251885Y-109926380D01*
X123537600Y-109926380D02*
X123537600Y-108926380D01*
X123442361Y-109069238D01*
X123347123Y-109164476D01*
X123251885Y-109212095D01*
%TO.C,P2*%
X114577573Y-114955784D02*
X114577573Y-113955335D01*
X114958696Y-113955335D01*
X115053977Y-114002975D01*
X115101618Y-114050615D01*
X115149258Y-114145896D01*
X115149258Y-114288818D01*
X115101618Y-114384098D01*
X115053977Y-114431739D01*
X114958696Y-114479379D01*
X114577573Y-114479379D01*
X115530381Y-114050615D02*
X115578022Y-114002975D01*
X115673303Y-113955335D01*
X115911505Y-113955335D01*
X116006786Y-114002975D01*
X116054426Y-114050615D01*
X116102067Y-114145896D01*
X116102067Y-114241177D01*
X116054426Y-114384098D01*
X115482741Y-114955784D01*
X116102067Y-114955784D01*
%TO.C,P1*%
X127683973Y-79141784D02*
X127683973Y-78141335D01*
X128065096Y-78141335D01*
X128160377Y-78188975D01*
X128208018Y-78236615D01*
X128255658Y-78331896D01*
X128255658Y-78474818D01*
X128208018Y-78570098D01*
X128160377Y-78617739D01*
X128065096Y-78665379D01*
X127683973Y-78665379D01*
X129208467Y-79141784D02*
X128636781Y-79141784D01*
X128922624Y-79141784D02*
X128922624Y-78141335D01*
X128827343Y-78284256D01*
X128732062Y-78379537D01*
X128636781Y-78427177D01*
%TD*%
M02*
